<?xml version="1.0" encoding="UTF-8" standalone="no"?>
<svg xmlns:xlink="http://www.w3.org/1999/xlink" height="265.1px" width="234.35px" xmlns="http://www.w3.org/2000/svg">
  <g transform="matrix(1.0, 0.0, 0.0, 1.0, 117.85, 171.1)">
    <use data-characterId="2" height="50.55" transform="matrix(-1.2758, 0.0, 0.0, 1.2758, 20.3879, 21.95)" width="44.95" xlink:href="#sprite0"/>
    <use data-characterId="2" height="50.55" transform="matrix(-1.2535, 0.0, 0.0, 1.2535, 58.8268, 25.95)" width="44.95" xlink:href="#sprite0"/>
    <use data-characterId="3" height="87.55" transform="matrix(-0.5177, 0.479, 0.479, 0.5177, -81.371, -10.1976)" width="70.5" xlink:href="#shape1"/>
    <use data-characterId="5" height="48.05" transform="matrix(-1.416, 0.0, 0.0, 1.416, 36.7132, 0.742)" width="73.0" xlink:href="#sprite1"/>
    <use data-characterId="2" height="50.55" transform="matrix(-1.416, 0.0, 0.0, 1.416, 29.258, 22.4)" width="44.95" xlink:href="#sprite0"/>
    <use data-characterId="7" height="48.15" transform="matrix(-1.416, 0.0, 0.0, 1.416, -26.142, 24.542)" width="27.05" xlink:href="#sprite2"/>
    <use data-characterId="13" height="154.4" transform="matrix(-1.416, 0.0, 0.0, 1.416, 116.4788, -171.1036)" width="164.8" xlink:href="#sprite3"/>
  </g>
  <defs>
    <g id="sprite0" transform="matrix(1.0, 0.0, 0.0, 1.0, 0.5, 0.0)">
      <use data-characterId="1" height="50.55" transform="matrix(1.0, 0.0, 0.0, 1.0, -0.5, 0.0)" width="44.95" xlink:href="#shape0"/>
    </g>
    <g id="shape0" transform="matrix(1.0, 0.0, 0.0, 1.0, 0.5, 0.0)">
      <path d="M41.3 3.25 L41.05 2.0 42.7 0.0 43.45 0.0 43.45 0.8 43.95 7.0 41.35 6.75 41.45 4.75 41.3 3.25 M20.4 28.85 L20.45 28.75 Q21.2 28.75 23.15 27.75 25.05 26.75 25.6 26.75 26.2 26.75 26.85 27.35 L27.0 27.5 27.05 27.6 27.5 28.15 Q28.45 29.5 29.1 29.5 28.55 29.9 27.95 30.25 L26.9 28.65 26.5 28.05 21.7 29.9 20.4 28.85" fill="#c8dde1" fill-rule="evenodd" stroke="none"/>
      <path d="M16.2 29.55 Q19.0 20.15 24.3 14.25 L25.0 13.5 28.7 10.25 28.95 9.75 Q31.25 8.25 36.65 5.25 39.1 3.75 40.65 2.4 L41.3 3.25 41.45 4.75 41.35 6.75 Q40.75 12.2 36.95 20.0 32.4 29.5 29.1 29.5 28.45 29.5 27.5 28.15 L27.05 27.6 27.0 27.5 26.85 27.35 Q26.2 26.75 25.6 26.75 25.05 26.75 23.15 27.75 21.2 28.75 20.45 28.75 L20.4 28.85 19.75 28.3 16.2 29.55 M19.3 25.55 L19.2 25.75 19.05 26.15 Q19.05 26.6 19.75 27.0 20.3 27.4 20.7 27.4 21.3 27.4 21.85 26.05 L22.35 24.4 22.75 23.55 23.3 22.6 24.45 20.75 26.95 16.95 28.8 14.05 28.7 13.55 28.65 13.5 28.15 13.4 Q27.25 13.4 25.8 14.35 L25.75 14.35 25.7 14.4 25.15 14.95 Q23.95 16.2 22.55 18.55 20.65 21.8 19.45 25.25 L19.3 25.55" fill="#f3f9fa" fill-rule="evenodd" stroke="none"/>
      <path d="M43.95 7.0 Q43.95 14.15 39.6 22.85 36.85 28.4 33.9 31.8 L35.5 34.8 30.25 33.9 28.75 31.55 27.95 30.25 Q28.55 29.9 29.1 29.5 32.4 29.5 36.95 20.0 40.75 12.2 41.35 6.75 L43.95 7.0 M33.9 31.8 L33.0 30.05 28.75 31.55 33.0 30.05 33.9 31.8" fill="#b9edf9" fill-rule="evenodd" stroke="none"/>
      <path d="M19.3 25.55 L19.45 25.25 Q20.65 21.8 22.55 18.55 23.95 16.2 25.15 14.95 L25.7 14.4 25.75 14.35 25.8 14.35 26.75 14.1 26.85 14.05 28.65 13.5 Q28.6 14.15 26.45 16.75 24.25 19.35 23.65 20.3 L22.15 23.2 21.95 23.7 20.65 26.5 19.15 26.0 19.3 25.55" fill="#ffffff" fill-rule="evenodd" stroke="none"/>
      <path d="M14.75 30.05 L16.2 29.55 19.75 28.3 20.4 28.85 21.7 29.9 18.25 31.05 18.05 32.45 12.45 33.15 10.5 31.55 14.75 30.05" fill="#5bcbd7" fill-rule="evenodd" stroke="none"/>
      <path d="M30.4 47.1 L30.35 48.05 24.5 36.8 31.0 35.1 30.4 47.1 M4.75 31.55 L12.0 29.05 14.75 30.05 10.5 31.55 10.15 32.6 9.85 33.4 6.1 34.05 5.15 32.3 4.75 31.55" fill="#9dc7d0" fill-rule="evenodd" stroke="none"/>
      <path d="M9.5 50.05 L9.0 49.6 7.35 48.15 5.25 46.3 9.85 33.4 10.15 32.6 9.0 49.6 9.55 49.7 9.5 50.05 M10.15 32.6 L10.5 31.55 10.8 32.4 10.15 32.6" fill="#d0e6fb" fill-rule="evenodd" stroke="none"/>
      <path d="M29.55 48.2 L19.15 49.95 20.8 33.2 21.45 33.25 20.5 48.65 29.55 48.2 M10.8 32.4 L10.5 31.55 12.45 33.15 18.05 32.45 17.8 33.85 17.05 33.7 11.55 34.7 10.8 32.4" fill="#448888" fill-rule="evenodd" stroke="none"/>
      <path d="M0.95 46.7 L0.0 45.3 4.55 32.1 5.15 32.3 0.95 46.7 M10.15 32.6 L10.8 32.4 11.55 34.7 9.55 49.7 9.0 49.6 10.15 32.6 M17.8 33.85 L18.05 32.45 18.25 31.05 20.85 32.55 20.8 33.2 19.2 32.9 15.9 46.0 17.8 33.85 M30.65 34.5 L31.0 35.1 24.5 36.8 21.45 33.25 20.85 32.55 22.25 31.7 24.85 35.55 30.65 34.5" fill="#eff8fe" fill-rule="evenodd" stroke="none"/>
      <path d="M17.5 48.25 L9.5 50.05 9.55 49.7 11.55 34.7 17.05 33.7 17.8 33.85 15.9 46.0 15.8 46.55 17.5 48.25" fill="#118c99" fill-rule="evenodd" stroke="none"/>
      <path d="M2.5 49.05 L0.95 46.7 5.15 32.3 4.55 32.1 4.75 31.55 5.15 32.3 6.1 34.05 2.5 49.05" fill="#aad9f7" fill-rule="evenodd" stroke="none"/>
      <path d="M7.35 48.15 L2.5 49.05 6.1 34.05 9.85 33.4 5.25 46.3 7.35 48.15" fill="#1e7295" fill-rule="evenodd" stroke="none"/>
      <path d="M19.15 49.95 L17.5 48.25 15.8 46.55 15.9 46.0 19.2 32.9 20.8 33.2 19.15 49.95" fill="#45dafe" fill-rule="evenodd" stroke="none"/>
      <path d="M35.5 34.8 L36.5 47.8 34.25 49.05 31.0 35.1 30.65 34.5 30.25 33.9 35.5 34.8" fill="#2091ac" fill-rule="evenodd" stroke="none"/>
      <path d="M20.85 32.55 L18.25 31.05 21.7 29.9 26.5 28.05 26.9 28.65 22.25 31.7 20.85 32.55" fill="#c7e1fc" fill-rule="evenodd" stroke="none"/>
      <path d="M34.25 49.05 L30.4 47.1 31.0 35.1 34.25 49.05 M26.9 28.65 L27.95 30.25 28.75 31.55 30.25 33.9 30.65 34.5 24.85 35.55 22.25 31.7 26.9 28.65" fill="#affaf9" fill-rule="evenodd" stroke="none"/>
      <path d="M30.35 48.05 L30.35 48.1 29.55 48.2 20.5 48.65 21.45 33.25 20.8 33.2 20.85 32.55 21.45 33.25 24.5 36.8 30.35 48.05" fill="#94cbe2" fill-rule="evenodd" stroke="none"/>
      <path d="M28.65 13.5 L28.7 13.55 28.8 14.05 26.95 16.95 24.45 20.75 23.3 22.6 22.75 23.55 22.35 24.4 21.85 26.05 Q21.3 27.4 20.7 27.4 20.3 27.4 19.75 27.0 19.05 26.6 19.05 26.15 L19.2 25.75 19.3 25.55 19.15 26.0 20.65 26.5 21.95 23.7 22.15 23.2 23.65 20.3 Q24.25 19.35 26.45 16.75 28.6 14.15 28.65 13.5" fill="#e3eff0" fill-rule="evenodd" stroke="none"/>
      <path d="M25.8 14.35 Q27.25 13.4 28.15 13.4 L28.65 13.5 26.85 14.05 26.75 14.1 25.8 14.35" fill="#d9e9ea" fill-rule="evenodd" stroke="none"/>
      <path d="M43.45 0.8 L43.95 7.0 Q43.95 14.15 39.6 22.85 36.85 28.4 33.9 31.8 L35.5 34.8 36.5 47.8 34.25 49.05 30.4 47.1 30.35 48.05 30.35 48.1 29.55 48.2 19.15 49.95 17.5 48.25 9.5 50.05 9.0 49.6 7.35 48.15 2.5 49.05 0.95 46.7 0.0 45.3 4.55 32.1 4.75 31.55 12.0 29.05 14.75 30.05 16.2 29.55 Q19.0 20.15 24.3 14.25 L25.0 13.5 28.7 10.25 M16.2 29.55 L19.75 28.3 20.4 28.85 21.7 29.9 26.5 28.05 26.9 28.65 27.95 30.25 28.75 31.55 33.0 30.05 33.9 31.8 M10.5 31.55 L10.15 32.6 9.85 33.4 5.25 46.3 7.35 48.15 M10.8 32.4 L10.5 31.55 14.75 30.05 M10.8 32.4 L11.55 34.7 17.05 33.7 M17.8 33.85 L18.05 32.45 18.25 31.05 21.7 29.9 M4.75 31.55 L5.15 32.3 6.1 34.05 9.85 33.4 M9.55 49.7 L11.55 34.7 M15.9 46.0 L15.8 46.55 17.5 48.25 M6.1 34.05 L2.5 49.05 M17.8 33.85 L15.9 46.0 M20.8 33.2 L20.85 32.55 18.25 31.05 M30.65 34.5 L31.0 35.1 34.25 49.05 M30.65 34.5 L30.25 33.9 28.75 31.55 M22.25 31.7 L20.85 32.55 21.45 33.25 24.5 36.8 31.0 35.1 30.4 47.1 M26.9 28.65 L22.25 31.7 M24.5 36.8 L30.35 48.05 M30.25 33.9 L35.5 34.8 M9.5 50.05 L9.55 49.7 M19.15 49.95 L20.8 33.2" fill="none" stroke="#000000" stroke-linecap="round" stroke-linejoin="round" stroke-width="1.0"/>
    </g>
    <g id="shape1" transform="matrix(1.0, 0.0, 0.0, 1.0, 0.75, 0.75)">
      <path d="M60.0 0.0 L60.4 1.55 59.55 1.25 60.0 0.0 M60.4 1.55 L68.8 36.15 47.35 41.25 60.4 1.55 M44.0 44.5 L44.05 44.45 44.25 43.9 44.4 44.4 44.0 44.5" fill="#118c99" fill-rule="evenodd" stroke="none"/>
      <path d="M60.0 0.0 L59.55 1.25 44.25 43.9 37.7 32.9 59.45 1.15 59.2 1.0 60.0 0.0 M44.05 44.45 L44.0 44.5 43.85 44.35 44.05 44.45" fill="#b7c9e1" fill-rule="evenodd" stroke="none"/>
      <path d="M15.85 26.6 L17.2 24.95 17.25 24.9 27.0 13.0 60.0 0.0 59.2 1.0 31.75 29.8 17.25 24.9 16.5 26.85 15.85 26.6" fill="#5bcbd7" fill-rule="evenodd" stroke="none"/>
      <path d="M43.85 44.35 L44.0 44.5 42.6 43.7 24.15 76.1 9.55 80.95 32.5 38.8 32.75 38.55 42.6 43.7 42.9 43.4 43.85 44.35" fill="#3e9ab0" fill-rule="evenodd" stroke="none"/>
      <path d="M0.1 79.7 L15.85 26.6 16.5 26.85 15.9 27.95 27.7 34.85 3.75 81.7 0.1 79.7" fill="#7388b7" fill-rule="evenodd" stroke="none"/>
      <path d="M27.0 78.55 L4.0 86.05 32.5 33.0 42.9 43.4 42.6 43.7 32.75 38.55 32.5 38.8 9.55 80.95 24.15 76.1 42.6 43.7 44.0 44.5 29.05 74.45 27.0 78.55" fill="#296978" fill-rule="evenodd" stroke="none"/>
      <path d="M59.2 1.0 L59.45 1.15 37.7 32.9 44.25 43.9 44.05 44.45 43.85 44.35 42.9 43.4 32.5 33.0 59.2 1.0 32.5 33.0 16.5 26.85 17.25 24.9 31.75 29.8 59.2 1.0" fill="#dbe7f0" fill-rule="evenodd" stroke="none"/>
      <path d="M59.55 1.25 L60.4 1.55 47.35 41.25 68.8 36.15 69.0 37.0 68.0 37.3 44.4 44.4 44.25 43.9 59.55 1.25" fill="#0e707a" fill-rule="evenodd" stroke="none"/>
      <path d="M44.0 44.5 L44.4 44.4 68.0 37.3 68.15 37.85 45.65 47.75 30.45 75.15 29.05 74.45 44.0 44.5" fill="#93cef4" fill-rule="evenodd" stroke="none"/>
      <path d="M68.15 37.85 L30.45 75.15 45.65 47.75 68.15 37.85" fill="#aad9f7" fill-rule="evenodd" stroke="none"/>
      <path d="M4.0 86.05 L0.0 80.05 0.1 79.7 3.75 81.7 27.7 34.85 15.9 27.95 16.5 26.85 32.5 33.0 4.0 86.05" fill="#666b99" fill-rule="evenodd" stroke="none"/>
      <path d="M60.4 1.55 L60.0 0.0 59.55 1.25 44.25 43.9 44.05 44.45 44.0 44.5 44.4 44.4 68.0 37.3 69.0 37.0 68.15 37.85 30.45 75.15 27.0 78.55 4.0 86.05 0.0 80.05 0.1 79.7 15.85 26.6 17.2 24.95 M60.4 1.55 L68.8 36.15 69.0 37.0 M17.25 24.9 L27.0 13.0 60.0 0.0 59.2 1.0 32.5 33.0 16.5 26.85 15.85 26.6 M43.85 44.35 L44.0 44.5 29.05 74.45 27.0 78.55 M42.9 43.4 L32.5 33.0 4.0 86.05 M43.85 44.35 L42.9 43.4" fill="none" stroke="#000000" stroke-linecap="round" stroke-linejoin="round" stroke-width="1.5"/>
    </g>
    <g id="sprite1" transform="matrix(1.0, 0.0, 0.0, 1.0, -1.05, 0.5)">
      <use data-characterId="4" height="48.05" transform="matrix(1.0, 0.0, 0.0, 1.0, 1.05, -0.5)" width="73.0" xlink:href="#shape2"/>
    </g>
    <g id="shape2" transform="matrix(1.0, 0.0, 0.0, 1.0, -1.05, 0.5)">
      <path d="M58.8 6.75 L58.55 7.05 Q60.5 9.85 65.5 14.45 69.55 18.85 69.55 23.8 L69.4 25.65 Q68.3 32.6 58.6 38.05 53.05 41.15 47.55 42.55 L47.5 42.55 43.6 38.4 Q42.3 36.75 42.0 35.05 41.3 31.55 40.1 29.8 38.5 27.55 35.75 27.55 33.15 27.55 31.45 29.65 L28.5 33.55 Q26.05 36.15 24.25 37.1 21.55 38.5 18.0 38.15 L14.0 36.5 Q10.75 34.95 8.45 31.3 L8.0 31.55 8.2 30.85 8.2 30.8 Q9.55 28.05 20.7 24.05 27.2 21.75 35.05 19.55 41.85 17.2 46.1 11.8 49.15 7.9 50.65 2.75 L50.9 1.9 51.2 2.05 Q54.9 3.7 58.8 6.7 L58.8 6.75" fill="#f3f9fa" fill-rule="evenodd" stroke="none"/>
      <path d="M58.8 6.75 Q61.15 8.55 63.55 10.9 71.3 18.2 72.25 20.3 73.55 22.9 73.55 33.0 73.55 34.85 69.55 38.75 65.75 42.4 63.55 43.3 54.6 47.05 47.55 47.05 45.1 47.05 39.1 45.7 L31.9 44.45 30.3 44.35 Q19.6 44.35 11.15 38.35 L10.0 37.5 9.75 36.3 9.5 35.55 9.4 35.35 9.3 35.2 8.6 33.8 Q8.0 32.4 8.0 31.55 L8.45 31.3 Q10.75 34.95 14.0 36.5 L18.0 38.15 Q21.55 38.5 24.25 37.1 26.05 36.15 28.5 33.55 L31.45 29.65 Q33.15 27.55 35.75 27.55 38.5 27.55 40.1 29.8 41.3 31.55 42.0 35.05 42.3 36.75 43.6 38.4 L47.5 42.55 47.55 42.55 Q53.05 41.15 58.6 38.05 68.3 32.6 69.4 25.65 L69.55 23.8 Q69.55 18.85 65.5 14.45 60.5 9.85 58.55 7.05 L58.8 6.75" fill="#accbd2" fill-rule="evenodd" stroke="none"/>
      <path d="M5.95 33.7 Q4.5 32.0 3.35 30.1 L1.6 26.65 1.55 24.4 Q1.55 12.8 15.1 5.95 26.8 0.0 42.3 0.0 46.5 0.0 50.9 1.9 L50.65 2.75 Q46.25 8.95 42.2 12.55 36.55 17.65 30.05 19.25 L22.3 20.5 20.05 20.5 18.3 20.75 Q17.8 21.05 17.3 21.95 L16.3 23.25 Q13.65 25.3 10.05 27.25 L7.5 28.85 Q5.55 30.3 5.55 31.9 5.55 32.65 5.95 33.7" fill="#57737d" fill-rule="evenodd" stroke="none"/>
      <path d="M8.0 31.55 Q8.0 32.4 8.6 33.8 L9.3 35.2 9.4 35.35 9.5 35.55 9.75 36.3 10.0 37.5 6.5 34.35 5.95 33.7 Q5.55 32.65 5.55 31.9 5.55 30.3 7.5 28.85 L10.05 27.25 Q13.65 25.3 16.3 23.25 L17.3 21.95 Q17.8 21.05 18.3 20.75 L20.05 20.5 22.3 20.5 30.05 19.25 Q36.55 17.65 42.2 12.55 46.25 8.95 50.65 2.75 49.15 7.9 46.1 11.8 41.85 17.2 35.05 19.55 27.2 21.75 20.7 24.05 9.55 28.05 8.2 30.8 L8.2 30.85 8.0 31.55" fill="#839eb8" fill-rule="evenodd" stroke="none"/>
      <path d="M10.0 37.5 L11.15 38.35 Q19.6 44.35 30.3 44.35 L31.9 44.45 39.1 45.7 Q45.1 47.05 47.55 47.05 54.6 47.05 63.55 43.3 65.75 42.4 69.55 38.75 73.55 34.85 73.55 33.0 73.55 22.9 72.25 20.3 71.3 18.2 63.55 10.9 61.15 8.55 58.8 6.75 L58.8 6.7 Q54.9 3.7 51.2 2.05 L50.9 1.9 Q46.5 0.0 42.3 0.0 26.8 0.0 15.1 5.95 1.55 12.8 1.55 24.4 L1.6 26.65 3.35 30.1 Q4.5 32.0 5.95 33.7 M10.0 37.5 L6.5 34.35" fill="none" stroke="#000000" stroke-linecap="round" stroke-linejoin="round" stroke-width="1.0"/>
    </g>
    <g id="sprite2" transform="matrix(1.0, 0.0, 0.0, 1.0, 0.5, 0.5)">
      <use data-characterId="6" height="48.15" transform="matrix(1.0, 0.0, 0.0, 1.0, -0.5, -0.5)" width="27.05" xlink:href="#shape3"/>
    </g>
    <g id="shape3" transform="matrix(1.0, 0.0, 0.0, 1.0, 0.5, 0.5)">
      <path d="M25.5 8.55 L25.4 9.35 25.45 10.5 25.35 12.45 Q25.1 15.3 23.95 17.9 23.2 19.65 21.55 22.1 L21.7 20.75 21.55 19.5 21.5 19.5 20.5 21.6 18.4 24.4 Q15.8 27.15 13.0 27.15 10.2 27.15 7.55 26.05 5.35 25.15 4.7 24.0 L4.5 23.25 4.1 21.95 Q3.6 19.95 3.6 17.95 3.6 16.45 4.5 13.55 L6.1 8.7 Q7.05 5.95 9.65 3.15 12.2 0.5 14.25 0.0 L16.35 0.0 Q19.1 0.0 21.8 2.45 L24.05 5.1 Q24.7 5.6 25.2 7.25 L25.3 7.75 25.5 8.55 M9.35 20.05 Q10.1 16.25 10.0 15.2 9.9 14.15 11.2 11.4 L12.65 8.05 12.7 7.75 12.5 7.1 12.15 6.95 12.1 6.8 Q12.0 6.45 11.5 6.5 9.7 6.75 8.7 8.35 L7.75 10.05 7.15 11.7 Q6.65 14.35 7.25 17.05 L7.3 17.25 7.35 17.45 7.5 17.95 Q7.95 19.4 8.95 20.55 L9.0 20.65 9.5 21.15 9.35 20.05" fill="#f3f9fa" fill-rule="evenodd" stroke="none"/>
      <path d="M4.7 24.0 Q5.35 25.15 7.55 26.05 10.2 27.15 13.0 27.15 15.8 27.15 18.4 24.4 L20.5 21.6 21.5 19.5 21.55 19.5 21.7 20.75 21.55 22.1 Q23.2 19.65 23.95 17.9 25.1 15.3 25.35 12.45 L25.85 12.5 Q25.85 17.75 24.3 21.25 L23.2 23.4 23.15 23.55 23.1 23.6 22.95 23.85 22.55 23.65 22.15 24.2 19.95 26.05 18.25 27.2 18.05 27.0 19.45 25.45 18.05 27.0 Q16.7 28.1 15.0 28.6 L12.25 28.95 8.7 28.4 8.45 28.3 Q5.85 27.45 5.35 25.95 L4.7 24.0 M10.2 32.0 L10.0 31.5 9.3 29.45 9.2 29.2 Q10.25 29.15 11.25 29.7 L13.5 29.95 15.3 29.8 17.4 29.45 19.15 28.5 20.2 27.7 20.55 27.2 21.2 26.9 20.55 27.2 Q20.85 26.85 21.3 26.75 L21.2 26.9 22.25 28.9 Q22.25 29.6 21.6 30.3 L21.55 30.3 21.55 30.35 21.45 30.5 20.75 29.8 20.2 30.45 18.55 32.15 17.3 31.25 16.5 30.5 15.4 29.85 Q15.05 29.85 14.35 30.4 L14.25 30.3 13.45 30.65 10.2 32.0" fill="#b9edf9" fill-rule="evenodd" stroke="none"/>
      <path d="M18.05 27.0 L18.25 27.2 19.95 26.05 22.15 24.2 22.55 23.65 22.95 23.85 21.3 26.75 Q20.85 26.85 20.55 27.2 L20.2 27.7 19.15 28.5 17.4 29.45 15.3 29.8 13.5 29.95 11.25 29.7 Q10.25 29.15 9.2 29.2 L8.7 28.4 12.25 28.95 15.0 28.6 Q16.7 28.1 18.05 27.0" fill="#83b5c0" fill-rule="evenodd" stroke="none"/>
      <path d="M22.95 23.85 L23.1 23.6 23.25 24.0 Q23.1 24.25 23.1 24.6 L23.55 28.7 23.55 28.8 23.6 29.2 Q23.6 30.8 23.2 32.3 L21.45 30.5 21.55 30.35 21.6 30.3 Q22.25 29.6 22.25 28.9 L21.2 26.9 21.3 26.75 22.95 23.85 M14.35 30.4 Q15.05 29.85 15.4 29.85 L16.5 30.5 17.3 31.25 18.55 32.15 17.35 33.5 15.0 31.1 14.35 30.4" fill="#99b8bb" fill-rule="evenodd" stroke="none"/>
      <path d="M9.35 20.05 L9.5 21.15 9.0 20.65 8.95 20.55 Q7.95 19.4 7.5 17.95 L7.35 17.45 7.3 17.25 7.25 17.05 Q6.65 14.35 7.15 11.7 L7.75 10.05 8.7 8.35 Q9.7 6.75 11.5 6.5 12.0 6.45 12.1 6.8 L12.15 6.95 12.1 7.3 11.9 8.0 11.05 9.9 Q9.2 13.55 9.15 17.45 L9.35 20.05" fill="#ffffff" fill-rule="evenodd" stroke="none"/>
      <path d="M12.15 6.95 L12.5 7.1 12.7 7.75 12.65 8.05 11.2 11.4 Q9.9 14.15 10.0 15.2 10.1 16.25 9.35 20.05 L9.15 17.45 Q9.2 13.55 11.05 9.9 L11.9 8.0 12.1 7.3 12.15 6.95" fill="#deeced" fill-rule="evenodd" stroke="none"/>
      <path d="M13.45 30.65 L14.25 30.3 14.35 30.4 14.45 31.15 14.85 35.8 13.75 36.4 13.5 35.95 12.5 35.95 11.0 32.95 13.65 31.2 13.45 30.65" fill="#448888" fill-rule="evenodd" stroke="none"/>
      <path d="M14.35 30.4 L15.0 31.1 17.35 33.5 17.75 34.0 17.75 42.05 17.75 45.65 16.8 42.35 17.75 42.05 15.0 31.1 14.45 31.15 14.35 30.4" fill="#1e7295" fill-rule="evenodd" stroke="none"/>
      <path d="M14.85 35.8 L14.45 31.15 15.0 31.1 17.75 42.05 16.8 42.35 15.15 36.85 14.85 35.8" fill="#284a60" fill-rule="evenodd" stroke="none"/>
      <path d="M9.25 32.4 L10.2 32.0 13.45 30.65 13.65 31.2 11.0 32.95 12.5 35.95 13.5 35.95 13.75 36.4 12.0 37.35 9.25 32.4" fill="#466c68" fill-rule="evenodd" stroke="none"/>
      <path d="M12.7 47.0 L11.75 47.15 12.0 37.35 13.75 36.4 14.85 35.8 15.15 36.85 12.7 38.3 12.7 47.0" fill="#cae6f0" fill-rule="evenodd" stroke="none"/>
      <path d="M11.75 47.15 L9.15 45.15 9.25 44.55 9.25 33.2 9.25 32.4 12.0 37.35 11.75 47.15 M17.35 33.5 L18.55 32.15 20.2 30.45 23.95 39.2 20.5 37.3 17.75 34.0 17.75 33.9 17.35 33.5" fill="#affaf9" fill-rule="evenodd" stroke="none"/>
      <path d="M5.95 29.8 L6.4 29.55 9.25 32.4 4.6 34.3 4.15 33.6 6.75 32.05 5.95 29.8" fill="#27919c" fill-rule="evenodd" stroke="none"/>
      <path d="M2.65 31.4 L5.95 29.8 6.75 32.05 4.15 33.6 3.4 32.55 2.65 31.4" fill="#5bcbd7" fill-rule="evenodd" stroke="none"/>
      <path d="M4.6 46.1 L2.25 46.55 4.6 34.3 9.25 32.4 9.25 33.2 5.75 35.7 4.6 46.1 M0.7 44.7 L0.0 43.9 2.65 31.4 3.4 32.55 0.7 44.7" fill="#eff8fe" fill-rule="evenodd" stroke="none"/>
      <path d="M2.25 46.55 L0.7 44.7 3.4 32.55 4.15 33.6 4.6 34.3 2.25 46.55" fill="#aad9f7" fill-rule="evenodd" stroke="none"/>
      <path d="M9.15 45.15 L4.6 46.1 5.75 35.7 9.25 33.2 9.25 44.55 9.15 45.15" fill="#d0e6fb" fill-rule="evenodd" stroke="none"/>
      <path d="M17.75 45.65 L17.4 46.15 12.7 47.0 12.7 38.3 15.15 36.85 16.8 42.35 17.75 45.65" fill="#94cbe2" fill-rule="evenodd" stroke="none"/>
      <path d="M18.35 45.8 L17.75 45.65 17.75 42.05 17.75 34.0 20.5 37.3 20.8 38.35 19.15 37.2 18.35 45.8" fill="#165050" fill-rule="evenodd" stroke="none"/>
      <path d="M22.9 46.65 L18.35 45.8 19.15 37.2 20.8 38.35 22.9 46.65" fill="#118c99" fill-rule="evenodd" stroke="none"/>
      <path d="M24.85 34.35 L26.05 44.15 23.95 39.2 20.2 30.45 20.75 29.8 21.45 30.5 24.4 37.55 24.85 34.35" fill="#344d5c" fill-rule="evenodd" stroke="none"/>
      <path d="M23.2 32.3 L24.8 33.9 24.85 34.35 24.4 37.55 21.45 30.5 23.2 32.3" fill="#2091ac" fill-rule="evenodd" stroke="none"/>
      <path d="M26.05 44.15 L22.9 46.65 20.8 38.35 20.5 37.3 23.95 39.2 26.05 44.15" fill="#9dc7d0" fill-rule="evenodd" stroke="none"/>
      <path d="M25.5 8.55 L25.3 7.75 25.2 7.25 M14.25 0.0 Q12.2 0.5 9.65 3.15 7.05 5.95 6.1 8.7 L4.5 13.55 Q3.6 16.45 3.6 17.95 3.6 19.95 4.1 21.95 L4.5 23.25 M25.85 12.5 L25.85 12.4 25.8 10.5 25.65 9.3 25.5 8.55 M22.95 23.85 L23.1 23.6 23.15 23.55 23.2 23.4 24.3 21.25 Q25.85 17.75 25.85 12.5 M23.1 23.6 L23.25 24.0 Q23.1 24.25 23.1 24.6 L23.55 28.7 23.55 28.8 23.6 29.2 Q23.6 30.8 23.2 32.3 L24.8 33.9 24.85 34.35 26.05 44.15 22.9 46.65 18.35 45.8 17.75 45.65 17.75 42.05 17.75 34.0 20.5 37.3 23.95 39.2 20.2 30.45 20.75 29.8 21.45 30.5 23.2 32.3 M17.4 46.15 L12.7 47.0 11.75 47.15 9.15 45.15 4.6 46.1 2.25 46.55 0.7 44.7 0.0 43.9 2.65 31.4 5.95 29.8 6.4 29.55 9.25 32.4 10.2 32.0 13.45 30.65 14.25 30.3 14.35 30.4 15.0 31.1 17.35 33.5 18.55 32.15 20.2 30.45 M10.0 31.5 L9.3 29.45 9.2 29.2 8.7 28.4 8.45 28.3 Q5.85 27.45 5.35 25.95 L4.7 24.0 M21.2 26.9 L20.55 27.2 M18.05 27.0 L19.45 25.45 M13.75 36.4 L14.85 35.8 14.45 31.15 14.35 30.4 M8.7 28.4 L12.25 28.95 15.0 28.6 Q16.7 28.1 18.05 27.0 M14.85 35.8 L15.15 36.85 16.8 42.35 17.75 45.65 M17.35 33.5 L17.75 33.9 17.75 34.0 17.35 33.5 M4.6 34.3 L4.15 33.6 3.4 32.55 2.65 31.4 M9.25 33.2 L9.25 32.4 4.6 34.3 2.25 46.55 M9.25 33.2 L9.25 44.55 M12.0 37.35 L11.75 47.15 M20.8 38.35 L20.5 37.3 M9.25 32.4 L12.0 37.35 13.75 36.4 M21.3 26.75 L21.2 26.9 M23.95 39.2 L26.05 44.15 M22.9 46.65 L20.8 38.35 M22.95 23.85 L21.3 26.75" fill="none" stroke="#000000" stroke-linecap="round" stroke-linejoin="round" stroke-width="1.0"/>
    </g>
    <g id="sprite3" transform="matrix(1.0, 0.0, 0.0, 1.0, 0.55, 0.85)">
      <use data-characterId="8" height="88.05" transform="matrix(-0.2163, -0.4362, 0.4861, -0.2411, 20.9436, 114.5989)" width="99.25" xlink:href="#shape4"/>
      <use data-characterId="3" height="87.55" transform="matrix(-0.6286, 0.0717, -0.0174, 0.6388, 52.7845, 24.9672)" width="70.5" xlink:href="#shape1"/>
      <use data-characterId="9" height="91.45" transform="matrix(1.0, 0.0, 0.0, 1.0, 3.8, 62.1)" width="107.0" xlink:href="#shape5"/>
      <use data-characterId="10" height="93.8" transform="matrix(1.1862, 0.4267, -0.2572, 0.7148, 79.6032, -0.8561)" width="33.4" xlink:href="#shape6"/>
      <use data-characterId="11" height="88.55" transform="matrix(0.2836, -0.3969, 0.4424, 0.316, 9.145, 45.8817)" width="99.75" xlink:href="#shape7"/>
      <use data-characterId="12" height="43.5" transform="matrix(0.2219, -0.8635, 0.7674, 0.1973, 36.3374, 65.0579)" width="76.0" xlink:href="#shape8"/>
      <use data-characterId="12" height="43.5" transform="matrix(0.7128, 0.343, -0.343, 0.7128, 110.0696, 72.1094)" width="76.0" xlink:href="#shape8"/>
      <use data-characterId="3" height="87.55" transform="matrix(0.641, 0.3642, -0.2734, 0.6926, 102.9243, 11.4074)" width="70.5" xlink:href="#shape1"/>
      <use data-characterId="10" height="93.8" transform="matrix(0.0281, 1.0901, -0.7408, 0.0191, 159.2345, 61.7681)" width="33.4" xlink:href="#shape6"/>
    </g>
    <g id="shape4" transform="matrix(1.0, 0.0, 0.0, 1.0, 0.5, 0.75)">
      <path d="M95.5 2.9 L98.0 0.0 85.5 51.5 85.3 51.6 85.1 51.7 68.55 39.3 91.3 7.75 95.5 2.9 M63.15 40.2 L63.3 40.05 62.75 41.1 62.5 40.95 63.15 40.2" fill="#2091ac" fill-rule="evenodd" stroke="none"/>
      <path d="M0.25 83.0 L0.25 73.5 0.25 73.2 0.25 72.0 0.85 72.55 18.75 52.8 55.2 32.1 55.25 32.15 61.8 41.45 0.25 83.0 M43.3 47.35 L43.55 47.6 Q45.5 45.5 46.0 45.5 L49.25 46.0 49.3 45.95 49.75 46.3 49.4 48.25 49.9 49.05 50.25 48.8 50.15 48.25 50.25 47.55 50.25 46.65 50.4 46.8 50.75 46.5 50.1 45.85 50.0 45.6 49.85 45.6 Q47.55 43.45 46.2 43.55 45.0 43.65 43.8 45.75 L41.25 49.6 40.8 50.05 Q38.9 51.65 36.25 51.65 L35.45 51.5 Q34.6 51.5 33.3 52.05 31.65 48.5 29.75 46.55 L25.95 51.05 21.8 55.55 22.05 55.6 24.5 53.3 26.2 51.5 26.3 51.7 27.5 50.6 29.0 49.25 30.2 50.1 30.75 51.5 31.65 52.4 32.35 52.95 31.6 57.6 28.85 60.5 Q26.35 62.9 26.35 63.6 26.35 64.25 26.5 64.15 27.1 63.7 28.5 61.2 29.45 59.5 31.6 58.75 L32.25 58.5 Q32.15 57.35 32.5 56.0 L32.85 55.05 Q33.9 52.65 34.8 52.3 L34.95 52.25 35.75 52.05 35.85 52.05 Q38.8 52.0 40.95 50.2 42.0 49.35 42.85 48.1 L43.3 47.35 M30.15 40.2 L47.45 21.15 51.45 26.75 30.15 40.2" fill="#99c9f7" fill-rule="evenodd" stroke="none"/>
      <path d="M98.0 0.0 L95.5 2.9 95.05 2.55 94.6 1.1 98.0 0.0 M56.3 24.2 L53.5 18.0 53.3 17.65 53.5 17.5 55.75 16.7 88.7 10.75 80.4 20.35 56.3 24.2" fill="#c1f3f9" fill-rule="evenodd" stroke="none"/>
      <path d="M83.55 52.5 L13.0 86.55 12.85 86.5 5.8 81.8 62.0 45.0 62.2 44.55 62.25 44.6 83.55 52.5" fill="#059c9c" fill-rule="evenodd" stroke="none"/>
      <path d="M91.3 7.75 L68.55 39.3 85.1 51.7 84.1 52.2 62.75 41.1 63.3 40.05 80.4 20.35 88.7 10.75 91.3 7.75" fill="#1b788f" fill-rule="evenodd" stroke="none"/>
      <path d="M94.6 1.1 L95.05 2.55 55.75 16.7 53.5 17.5 53.3 17.65 53.5 18.0 56.3 24.2 63.3 40.05 63.15 40.2 62.5 40.95 61.8 41.45 55.25 32.15 55.2 32.1 51.45 26.75 47.45 21.15 30.15 40.2 18.75 52.8 0.85 72.55 0.25 72.0 45.25 19.25 45.35 19.1 48.0 16.0 94.6 1.1 M48.0 16.0 L62.5 40.95 48.0 16.0 M49.3 45.95 L49.25 46.0 46.0 45.5 Q45.5 45.5 43.55 47.6 L43.3 47.35 44.6 45.35 Q45.45 44.1 46.3 44.1 47.0 44.1 48.65 45.4 L49.3 45.95 M34.8 52.3 Q33.9 52.65 32.85 55.05 L32.5 56.0 32.55 55.65 33.0 53.1 33.0 52.6 Q33.3 52.8 33.5 52.8 L34.35 52.45 34.8 52.3 M32.35 52.95 L31.65 52.4 30.75 51.5 30.2 50.1 29.0 49.25 27.5 50.6 26.3 51.7 26.2 51.5 30.1 47.25 30.25 47.5 Q30.15 48.3 30.85 49.65 L31.5 50.75 32.45 52.05 32.35 52.95" fill="#dbf3f9" fill-rule="evenodd" stroke="none"/>
      <path d="M84.1 52.2 L83.55 52.5 62.25 44.6 62.2 44.55 62.0 45.0 5.8 81.8 12.85 86.5 0.25 83.0 61.8 41.45 62.5 40.95 62.75 41.1 84.1 52.2" fill="#035a5a" fill-rule="evenodd" stroke="none"/>
      <path d="M49.3 45.95 L48.65 45.4 Q47.0 44.1 46.3 44.1 45.45 44.1 44.6 45.35 L43.3 47.35 42.85 48.1 Q42.0 49.35 40.95 50.2 38.8 52.0 35.85 52.05 L35.75 52.05 34.95 52.25 34.8 52.3 34.35 52.45 33.5 52.8 Q33.3 52.8 33.0 52.6 L33.0 53.1 32.55 55.65 32.5 56.0 Q32.15 57.35 32.25 58.5 L31.6 58.75 Q29.45 59.5 28.5 61.2 27.1 63.7 26.5 64.15 26.35 64.25 26.35 63.6 26.35 62.9 28.85 60.5 L31.6 57.6 32.35 52.95 32.45 52.05 31.5 50.75 30.85 49.65 Q30.15 48.3 30.25 47.5 L30.1 47.25 26.2 51.5 24.5 53.3 22.05 55.6 21.8 55.55 25.95 51.05 29.75 46.55 Q31.65 48.5 33.3 52.05 34.6 51.5 35.45 51.5 L36.25 51.65 Q38.9 51.65 40.8 50.05 L41.25 49.6 43.8 45.75 Q45.0 43.65 46.2 43.55 47.55 43.45 49.85 45.6 L50.0 45.6 50.1 45.85 50.75 46.5 50.4 46.8 50.25 46.65 50.25 47.55 50.15 48.25 50.25 48.8 49.9 49.05 49.4 48.25 49.75 46.3 49.3 45.95" fill="#516dae" fill-rule="evenodd" stroke="none"/>
      <path d="M95.05 2.55 L95.5 2.9 91.3 7.75 88.7 10.75 55.75 16.7 95.05 2.55 M56.3 24.2 L80.4 20.35 63.3 40.05 56.3 24.2 M51.45 26.75 L55.2 32.1 18.75 52.8 30.15 40.2 51.45 26.75" fill="#d0e6fb" fill-rule="evenodd" stroke="none"/>
      <path d="M95.5 2.9 L98.0 0.0 94.6 1.1 48.0 16.0 45.35 19.1 45.25 19.25 0.25 72.0 0.25 73.2 M95.5 2.9 L91.3 7.75 88.7 10.75 80.4 20.35 63.3 40.05 M85.3 51.6 L85.5 51.5 98.0 0.0 M85.1 51.7 L84.1 52.2 83.55 52.5 13.0 86.55 12.85 86.5 0.25 83.0 0.25 73.5 M61.8 41.45 L62.5 40.95 48.0 16.0 M63.15 40.2 L62.5 40.95 62.75 41.1 84.1 52.2 M0.25 83.0 L61.8 41.45" fill="none" stroke="#000000" stroke-linecap="round" stroke-linejoin="round" stroke-width="1.5"/>
    </g>
    <g id="shape5" transform="matrix(1.0, 0.0, 0.0, 1.0, 0.5, 0.5)">
      <path d="M52.35 0.3 L52.3 1.5 51.15 1.45 49.35 1.4 45.15 2.35 Q41.75 3.15 40.45 2.95 L40.35 2.6 Q46.3 0.95 52.35 0.3 M84.1 17.2 L86.0 17.5 85.7 19.2 84.1 17.2 M71.0 35.9 L71.05 35.95 71.3 36.15 72.15 37.05 74.65 40.0 74.0 40.5 Q77.1 44.7 78.25 50.35 L79.2 48.9 79.45 49.7 79.6 50.4 78.3 51.55 78.25 50.35 77.65 50.8 75.75 51.75 75.9 49.9 75.9 49.8 75.9 49.7 Q75.9 43.9 71.4 39.55 69.0 37.25 63.0 33.95 L60.75 32.75 61.1 32.25 63.25 32.25 65.85 33.5 Q68.35 34.9 70.4 36.65 L71.0 35.9 M42.55 53.65 L42.6 53.9 42.55 53.9 42.5 53.9 42.5 53.85 42.55 53.65 M7.85 80.9 Q9.55 80.9 10.2 79.85 10.55 79.3 10.75 77.9 L11.05 76.8 Q13.5 80.0 18.4 82.7 L19.5 83.3 19.55 83.3 Q25.6 86.4 31.1 86.4 L33.75 86.35 Q38.4 86.1 43.35 84.95 L46.15 84.25 Q49.9 83.2 52.35 81.9 59.15 78.25 61.3 76.8 64.3 74.8 65.8 73.0 L69.55 75.65 68.55 77.75 63.9 82.15 Q60.3 85.15 56.85 86.75 49.0 90.45 34.0 90.45 L30.85 90.4 23.05 89.35 Q13.7 86.75 10.75 77.9 13.7 86.75 23.05 89.35 15.5 87.65 10.05 83.45 L7.5 81.25 7.85 80.9" fill="#e3edf0" fill-rule="evenodd" stroke="none"/>
      <path d="M17.55 14.0 L18.7 14.9 Q24.1 8.9 28.8 8.5 33.45 8.15 36.4 11.35 39.35 14.5 40.25 14.5 42.15 14.5 46.0 11.65 L50.5 8.0 Q51.95 6.75 55.2 5.75 L61.5 4.0 62.5 6.1 63.05 6.95 Q64.1 8.55 65.5 9.4 L65.9 9.8 Q70.0 13.5 71.75 13.5 L75.85 12.75 Q81.0 13.4 81.85 14.4 L83.7 16.7 84.1 17.2 85.7 19.2 Q85.3 21.85 85.55 24.3 85.95 28.2 88.0 30.0 L91.95 33.15 Q93.0 34.2 93.5 35.55 94.0 36.9 94.0 38.5 94.0 39.95 93.0 43.0 92.0 46.05 92.0 47.25 L93.75 50.35 94.0 50.85 Q92.5 55.8 89.45 60.0 86.15 64.5 81.75 66.75 77.35 69.0 71.9 69.0 L67.9 69.45 67.85 69.4 67.85 69.45 Q66.0 69.95 64.85 70.95 59.35 75.8 53.9 79.0 49.2 81.75 45.7 82.8 L43.5 83.3 Q42.0 83.5 32.4 83.5 23.9 83.5 20.1 82.1 15.9 80.6 10.75 75.25 L10.7 75.2 10.35 75.8 10.1 75.35 10.25 76.0 9.2 77.35 Q8.05 78.5 6.5 78.5 L5.2 78.2 4.65 77.85 Q2.1 74.15 0.95 69.55 L0.95 69.5 Q1.35 68.6 1.1 67.45 L0.85 65.65 Q0.85 62.85 3.35 59.9 5.85 56.9 8.35 56.9 L9.8 57.05 12.35 57.9 12.35 57.4 10.25 57.15 9.8 57.05 8.35 56.65 6.85 56.4 Q7.8 52.95 12.4 49.95 14.45 48.6 15.45 46.7 L14.4 49.5 Q19.85 45.7 26.95 50.55 L39.95 59.7 39.45 58.1 Q41.15 59.25 43.65 60.0 L46.65 60.75 47.25 61.0 Q48.4 61.5 49.95 61.8 L52.45 62.2 57.25 62.4 Q63.1 62.4 70.5 60.9 78.0 59.4 79.6 57.1 L80.0 56.2 81.05 53.45 Q82.25 50.05 82.25 49.25 82.25 39.3 77.25 31.75 71.3 22.75 60.85 22.75 59.3 22.75 55.45 26.2 52.35 29.0 51.5 30.25 L44.95 37.95 Q28.05 42.5 23.0 40.25 18.05 38.0 16.95 35.0 17.55 37.0 17.5 39.3 17.45 42.5 15.95 45.45 16.35 44.15 16.35 42.65 16.35 39.8 14.65 33.6 L12.45 25.75 12.4 25.6 Q13.0 19.1 17.55 14.0" fill="#f3f9fa" fill-rule="evenodd" stroke="none"/>
      <path d="M15.45 46.7 Q14.45 48.6 12.4 49.95 7.8 52.95 6.85 56.4 L8.35 56.65 9.8 57.05 10.25 57.15 12.35 57.4 12.35 57.9 9.8 57.05 8.35 56.9 Q5.85 56.9 3.35 59.9 0.85 62.85 0.85 65.65 L1.1 67.45 Q1.35 68.6 0.95 69.5 0.0 65.8 0.0 61.45 0.0 57.1 3.45 54.3 L6.8 51.8 10.45 48.5 10.5 48.45 Q12.8 45.8 13.1 40.7 13.35 37.05 12.5 30.9 12.25 28.8 12.35 26.85 L12.4 25.9 12.4 25.6 12.45 25.75 14.65 33.6 Q16.35 39.8 16.35 42.65 16.35 44.15 15.95 45.45 L15.45 46.7 M10.25 76.0 L10.1 75.35 10.35 75.8 11.05 76.8 10.75 77.9 10.5 77.1 10.25 76.0 M55.95 34.55 L57.05 33.7 57.4 33.45 57.5 33.4 57.6 33.65 Q57.35 33.9 55.95 34.55 M46.4 45.7 L47.1 44.15 49.05 41.6 49.55 41.95 Q49.0 43.6 49.0 46.4 L49.2 48.9 49.3 49.45 Q49.8 52.0 51.15 54.3 L51.2 54.35 51.55 54.9 Q52.6 56.55 53.8 57.45 L52.85 58.45 50.15 57.9 Q46.9 56.75 45.7 53.4 45.2 51.9 45.2 50.3 L45.3 48.45 46.4 45.7 M62.1 58.2 L62.45 58.05 63.95 57.2 64.2 57.05 Q66.2 55.7 67.55 53.7 68.7 52.0 69.25 49.9 L69.25 49.85 69.6 48.3 69.75 45.8 69.65 42.85 70.65 42.05 72.5 44.45 Q74.5 47.35 74.5 49.8 L74.25 51.5 73.45 53.35 Q72.75 54.75 72.05 55.35 L71.5 55.6 68.55 56.6 62.1 58.2 M6.65 80.35 Q7.35 80.9 7.85 80.9 L7.5 81.25 6.65 80.35" fill="#ffffff" fill-rule="evenodd" stroke="none"/>
      <path d="M51.1 39.2 L51.2 39.1 51.3 39.05 53.15 37.05 53.2 37.05 55.95 34.55 Q57.35 33.9 57.6 33.65 57.9 33.4 58.25 33.4 59.5 33.4 62.3 35.05 L64.35 36.35 68.4 39.3 69.65 42.85 69.75 45.8 69.6 48.3 69.25 49.85 69.25 49.9 Q68.7 52.0 67.55 53.7 66.2 55.7 64.2 57.05 L63.95 57.2 62.45 58.05 62.1 58.2 61.65 58.25 61.5 58.3 58.75 58.6 57.0 58.65 56.75 58.65 Q55.2 58.6 53.8 57.45 52.6 56.55 51.55 54.9 L51.2 54.35 51.85 53.9 Q53.95 56.45 54.5 56.7 L58.35 56.9 61.4 56.8 61.65 56.75 Q62.25 56.5 63.0 55.6 L63.2 55.4 Q64.4 55.2 65.35 53.4 L65.8 52.4 66.0 52.25 Q67.55 50.9 68.85 48.15 L69.0 48.15 Q68.9 46.75 68.25 44.9 66.85 40.9 64.85 40.9 64.15 40.9 63.8 41.15 L63.3 41.45 63.2 41.15 Q62.35 39.0 61.35 37.9 L58.35 37.9 58.35 38.9 57.8 39.2 57.4 38.4 Q56.55 36.9 54.85 36.9 54.15 36.9 53.55 37.4 52.9 37.9 52.35 38.9 51.35 40.75 51.35 42.4 51.35 43.9 52.0 45.65 L50.85 45.4 Q50.85 46.1 49.65 48.8 L49.3 49.45 49.2 48.9 49.0 46.4 Q49.0 43.6 49.55 41.95 50.05 40.5 51.1 39.2" fill="#8f8e01" fill-rule="evenodd" stroke="none"/>
      <path d="M95.2 44.7 L95.4 40.75 95.95 40.7 96.35 46.15 96.35 46.65 Q96.35 50.2 95.45 54.3 L95.3 54.95 95.0 56.0 Q93.45 61.65 91.35 63.4 86.85 67.1 83.7 69.05 L83.2 69.35 Q79.5 71.65 76.8 72.2 L75.1 72.4 Q73.65 72.4 71.0 71.2 68.65 70.2 67.9 69.45 L71.9 69.0 Q77.35 69.0 81.75 66.75 86.15 64.5 89.45 60.0 92.5 55.8 94.0 50.85 L95.0 46.35 95.2 44.7 M80.0 56.2 L79.6 57.1 Q78.0 59.4 70.5 60.9 63.1 62.4 57.25 62.4 L52.45 62.2 49.95 61.8 Q48.4 61.5 47.25 61.0 L46.65 60.75 Q42.15 58.7 42.45 54.4 L42.5 53.9 42.55 53.9 Q42.8 54.65 43.4 55.35 43.25 54.75 43.25 52.85 43.25 50.1 43.85 48.5 L42.95 48.2 43.0 48.05 43.85 48.5 Q44.4 47.1 46.0 45.5 L46.4 45.7 45.3 48.45 45.2 50.3 Q45.2 51.9 45.7 53.4 46.9 56.75 50.15 57.9 L52.85 58.45 56.75 58.65 57.0 58.65 58.75 58.6 61.5 58.3 61.65 58.25 62.1 58.2 68.55 56.6 71.5 55.6 72.05 55.35 Q74.0 54.5 75.75 53.4 L78.3 51.55 79.6 50.4 Q80.1 53.0 80.05 55.75 L80.0 56.2 M4.65 77.85 L5.2 78.2 6.5 78.5 Q8.05 78.5 9.2 77.35 L10.25 76.0 10.5 77.1 10.75 77.9 Q10.55 79.3 10.2 79.85 9.55 80.9 7.85 80.9 7.35 80.9 6.65 80.35 L5.0 78.3 4.65 77.85 M10.35 75.8 L10.7 75.2 10.75 75.25 Q15.9 80.6 20.1 82.1 23.9 83.5 32.4 83.5 42.0 83.5 43.5 83.3 L45.7 82.8 Q49.2 81.75 53.9 79.0 59.35 75.8 64.85 70.95 66.0 69.95 67.85 69.45 67.8 69.9 67.35 69.9 67.15 71.35 65.8 73.0 64.3 74.8 61.3 76.8 59.15 78.25 52.35 81.9 49.9 83.2 46.15 84.25 L43.35 84.95 Q38.4 86.1 33.75 86.35 L31.1 86.4 Q25.6 86.4 19.55 83.3 L19.5 83.3 18.4 82.7 Q13.5 80.0 11.05 76.8 L10.35 75.8" fill="#c8dde1" fill-rule="evenodd" stroke="none"/>
      <path d="M49.3 49.45 L49.65 48.8 Q50.85 46.1 50.85 45.4 L52.0 45.65 52.05 45.65 52.85 45.9 Q52.85 47.35 53.55 48.4 L53.9 48.85 Q54.45 49.4 55.1 49.4 L55.6 49.4 Q55.85 50.65 56.45 51.95 57.85 54.9 60.1 54.9 L61.0 54.75 61.05 55.0 61.1 55.15 62.85 55.4 63.0 55.4 63.2 55.4 63.0 55.6 Q62.25 56.5 61.65 56.75 L61.4 56.8 58.35 56.9 54.5 56.7 Q53.95 56.45 51.85 53.9 L51.2 54.35 51.15 54.3 Q49.8 52.0 49.3 49.45 M63.3 41.45 L63.8 41.15 Q64.15 40.9 64.85 40.9 66.85 40.9 68.25 44.9 68.9 46.75 69.0 48.15 L68.85 48.15 Q67.55 50.9 66.0 52.25 L65.8 52.4 66.25 50.6 66.35 48.9 Q66.35 47.5 64.85 45.9 L64.05 45.15 63.95 45.05 64.0 44.4 Q63.95 43.15 63.3 41.45" fill="#ffff66" fill-rule="evenodd" stroke="none"/>
      <path d="M57.8 39.2 L58.35 38.9 58.35 37.9 61.35 37.9 Q62.35 39.0 63.2 41.15 L63.3 41.45 Q63.95 43.15 64.0 44.4 L63.95 45.05 Q63.05 44.4 62.4 44.4 L62.35 44.4 Q61.0 44.4 60.35 45.9 60.1 46.5 60.0 47.25 59.85 48.0 59.85 48.9 59.85 50.85 60.25 52.25 L60.3 52.45 60.7 53.5 61.0 54.75 60.1 54.9 Q57.85 54.9 56.45 51.95 55.85 50.65 55.6 49.4 57.3 49.25 57.85 47.9 L58.15 46.9 58.35 43.9 Q58.35 40.95 57.85 39.4 L57.8 39.25 57.8 39.2" fill="#6d6d01" fill-rule="evenodd" stroke="none"/>
      <path d="M52.0 45.65 Q51.35 43.9 51.35 42.4 51.35 40.75 52.35 38.9 52.9 37.9 53.55 37.4 54.15 36.9 54.85 36.9 56.55 36.9 57.4 38.4 L57.8 39.2 57.8 39.25 57.85 39.4 Q58.35 40.95 58.35 43.9 L58.15 46.9 57.85 47.9 Q57.3 49.25 55.6 49.4 L55.1 49.4 Q54.45 49.4 53.9 48.85 L53.55 48.4 Q52.85 47.35 52.85 45.9 L52.05 45.65 52.0 45.65 M65.8 52.4 L65.35 53.4 Q64.4 55.2 63.2 55.4 L63.0 55.4 62.85 55.4 61.1 55.15 61.05 55.0 61.0 54.75 60.7 53.5 60.3 52.45 60.25 52.25 Q59.85 50.85 59.85 48.9 59.85 48.0 60.0 47.25 60.1 46.5 60.35 45.9 61.0 44.4 62.35 44.4 L62.4 44.4 Q63.05 44.4 63.95 45.05 L64.05 45.15 64.85 45.9 Q66.35 47.5 66.35 48.9 L66.25 50.6 65.8 52.4" fill="#ffffd5" fill-rule="evenodd" stroke="none"/>
      <path d="M39.45 58.1 L39.95 59.7 26.95 50.55 Q19.85 45.7 14.4 49.5 L15.45 46.7 15.95 45.45 Q17.45 42.5 17.5 39.3 17.55 37.0 16.95 35.0 18.05 38.0 23.0 40.25 28.05 42.5 44.95 37.95 L46.55 37.5 Q35.85 44.95 39.45 58.1" fill="#e3eef0" fill-rule="evenodd" stroke="none"/>
      <path d="M30.6 6.0 L33.0 6.0 Q34.2 6.6 37.65 8.7 40.95 10.5 42.75 10.5 43.95 10.5 46.95 8.05 50.0 5.55 51.0 5.5 51.85 5.45 55.95 3.45 60.0 1.5 61.5 1.5 66.95 1.5 67.7 6.0 L68.25 9.1 Q68.8 10.5 70.5 10.5 L72.65 10.0 Q74.15 9.5 74.75 9.5 75.2 9.5 79.55 11.5 83.85 13.5 87.5 13.5 L86.4 15.2 Q86.0 15.85 86.0 16.75 86.0 18.65 91.0 24.1 96.0 29.6 96.0 34.0 96.0 35.85 95.25 38.3 94.5 40.75 94.5 42.25 94.5 43.5 95.2 44.7 L95.0 46.35 94.0 50.85 93.75 50.35 92.0 47.25 Q92.0 46.05 93.0 43.0 94.0 39.95 94.0 38.5 94.0 36.9 93.5 35.55 93.0 34.2 91.95 33.15 L88.0 30.0 Q85.95 28.2 85.55 24.3 85.3 21.85 85.7 19.2 L86.0 17.5 84.1 17.2 83.7 16.7 81.85 14.4 Q81.0 13.4 75.85 12.75 L71.75 13.5 Q70.0 13.5 65.9 9.8 L65.5 9.4 Q64.1 8.55 63.05 6.95 L62.5 6.1 61.5 4.0 55.2 5.75 Q51.95 6.75 50.5 8.0 L46.0 11.65 Q42.15 14.5 40.25 14.5 39.35 14.5 36.4 11.35 33.45 8.15 28.8 8.5 24.1 8.9 18.7 14.9 L17.55 14.0 18.1 13.4 20.55 11.15 23.65 9.35 Q25.5 8.3 27.35 7.4 L29.05 6.65 29.15 6.65 30.6 6.0 M96.35 46.15 Q97.95 47.75 100.95 49.3 L105.0 51.75 Q102.55 60.85 94.45 68.0 86.85 74.65 78.15 76.7 L77.9 76.75 77.55 76.85 74.05 77.4 68.55 77.75 69.55 75.65 65.8 73.0 Q67.15 71.35 67.35 69.9 67.8 69.9 67.85 69.45 L67.85 69.4 67.9 69.45 Q68.65 70.2 71.0 71.2 73.65 72.4 75.1 72.4 L76.8 72.2 Q79.5 71.65 83.2 69.35 L83.7 69.05 Q86.85 67.1 91.35 63.4 93.45 61.65 95.0 56.0 L95.3 54.95 95.45 54.3 Q96.35 50.2 96.35 46.65 L96.35 46.15 M57.5 33.4 Q59.6 31.95 61.5 31.6 L62.2 31.5 Q64.6 31.25 67.05 32.7 69.15 34.15 71.0 35.9 L70.4 36.65 Q68.35 34.9 65.85 33.5 L63.25 32.25 61.1 32.25 60.75 32.75 63.0 33.95 Q69.0 37.25 71.4 39.55 75.9 43.9 75.9 49.7 L75.9 49.8 75.9 49.9 75.75 51.75 77.65 50.8 78.25 50.35 78.3 51.55 75.75 53.4 Q74.0 54.5 72.05 55.35 72.75 54.75 73.45 53.35 L74.25 51.5 74.5 49.8 Q74.5 47.35 72.5 44.45 L70.65 42.05 69.0 39.9 68.4 39.3 64.35 36.35 62.3 35.05 Q59.5 33.4 58.25 33.4 57.9 33.4 57.6 33.65 L57.5 33.4 M74.65 40.0 L76.25 42.45 Q77.65 44.8 78.7 47.5 L79.2 48.9 78.25 50.35 Q77.1 44.7 74.0 40.5 L74.65 40.0" fill="#accbd2" fill-rule="evenodd" stroke="none"/>
      <path d="M95.2 44.7 Q94.5 43.5 94.5 42.25 94.5 40.75 95.25 38.3 96.0 35.85 96.0 34.0 96.0 29.6 91.0 24.1 86.0 18.65 86.0 16.75 86.0 15.85 86.4 15.2 L87.5 13.5 Q83.85 13.5 79.55 11.5 75.2 9.5 74.75 9.5 74.15 9.5 72.65 10.0 L70.5 10.5 Q68.8 10.5 68.25 9.1 L67.7 6.0 Q66.95 1.5 61.5 1.5 60.0 1.5 55.95 3.45 51.85 5.45 51.0 5.5 50.0 5.55 46.95 8.05 43.95 10.5 42.75 10.5 40.95 10.5 37.65 8.7 34.2 6.6 33.0 6.0 L30.6 6.0 31.85 5.5 Q36.05 3.8 40.35 2.6 L40.45 2.95 Q41.75 3.15 45.15 2.35 L49.35 1.4 51.15 1.45 52.3 1.5 52.35 0.3 61.5 0.0 61.65 0.0 70.85 0.6 Q79.95 1.45 87.85 6.25 90.65 7.9 93.2 10.05 94.95 11.5 96.35 13.4 100.9 19.8 102.95 27.4 106.0 36.9 106.0 43.7 106.0 47.9 105.0 51.75 L100.95 49.3 Q97.95 47.75 96.35 46.15 L95.95 40.7 95.4 40.75 95.2 44.7" fill="#839eb8" fill-rule="evenodd" stroke="none"/>
      <path d="M44.95 37.95 L51.5 30.25 Q52.35 29.0 55.45 26.2 59.3 22.75 60.85 22.75 71.3 22.75 77.25 31.75 82.25 39.3 82.25 49.25 82.25 50.05 81.05 53.45 L80.0 56.2 80.05 55.75 Q80.1 53.0 79.6 50.4 L79.45 49.7 79.2 48.9 78.7 47.5 Q77.65 44.8 76.25 42.45 75.8 39.05 72.55 34.9 L72.2 34.5 Q67.75 29.0 62.65 29.0 L61.15 29.15 60.85 29.2 Q55.6 30.1 49.5 36.5 L49.45 36.6 Q43.7 42.65 42.55 48.15 42.25 49.5 42.25 50.85 L42.4 50.9 42.35 51.4 42.55 53.65 42.5 53.85 42.5 53.9 42.45 54.4 Q42.15 58.7 46.65 60.75 L43.65 60.0 Q41.15 59.25 39.45 58.1 35.85 44.95 46.55 37.5 L44.95 37.95 M50.8 38.1 L49.85 36.9 50.8 38.1" fill="#cbe4e7" fill-rule="evenodd" stroke="none"/>
      <path d="M55.95 34.55 L53.2 37.05 53.15 37.05 51.3 39.05 51.2 39.1 51.1 39.2 49.65 40.85 49.35 41.25 49.05 41.6 47.1 44.15 46.4 45.7 46.0 45.5 Q44.4 47.1 43.85 48.5 L43.0 48.05 42.95 48.2 43.85 48.5 Q43.25 50.1 43.25 52.85 43.25 54.75 43.4 55.35 42.8 54.65 42.55 53.9 L42.6 53.9 42.55 53.65 42.35 51.4 42.4 50.9 42.25 50.85 Q42.25 49.5 42.55 48.15 43.7 42.65 49.45 36.6 L49.5 36.5 Q55.6 30.1 60.85 29.2 L61.15 29.15 62.65 29.0 Q67.75 29.0 72.2 34.5 L72.55 34.9 Q75.8 39.05 76.25 42.45 L74.65 40.0 72.15 37.05 71.3 36.15 71.05 35.95 71.0 35.9 Q69.15 34.15 67.05 32.7 64.6 31.25 62.2 31.5 L61.5 31.6 Q59.6 31.95 57.5 33.4 L57.4 33.45 57.05 33.7 55.95 34.55 M50.8 38.1 L49.85 36.9 50.8 38.1" fill="#96b6ab" fill-rule="evenodd" stroke="none"/>
      <path d="M105.0 51.75 Q106.0 47.9 106.0 43.7 106.0 36.9 102.95 27.4 100.9 19.8 96.35 13.4 94.95 11.5 93.2 10.05 90.65 7.9 87.85 6.25 79.95 1.45 70.85 0.6 L61.65 0.0 61.5 0.0 52.35 0.3 Q46.3 0.95 40.35 2.6 36.05 3.8 31.85 5.5 L30.6 6.0 29.15 6.65 29.05 6.65 27.35 7.4 Q25.5 8.3 23.65 9.35 L20.55 11.15 18.1 13.4 17.55 14.0 Q13.0 19.1 12.4 25.6 L12.4 25.9 M68.55 77.75 L74.05 77.4 77.55 76.85 77.9 76.75 78.15 76.7 Q86.85 74.65 94.45 68.0 102.55 60.85 105.0 51.75 M0.95 69.5 L0.95 69.55 Q2.1 74.15 4.65 77.85 L5.0 78.3 6.65 80.35 7.5 81.25 10.05 83.45 Q15.5 87.65 23.05 89.35 L30.85 90.4 34.0 90.45 Q49.0 90.45 56.85 86.75 60.3 85.15 63.9 82.15 L68.55 77.75 69.55 75.65 M10.25 76.0 L10.1 75.35 M51.1 39.2 L51.2 39.1 51.3 39.05 53.15 37.05 53.2 37.05 55.95 34.55 57.05 33.7 57.4 33.45 57.5 33.4 Q59.6 31.95 61.5 31.6 L62.2 31.5 Q64.6 31.25 67.05 32.7 69.15 34.15 71.0 35.9 L71.05 35.95 71.3 36.15 72.15 37.05 74.65 40.0 76.25 42.45 Q77.65 44.8 78.7 47.5 L79.2 48.9 79.45 49.7 79.6 50.4 78.3 51.55 75.75 53.4 Q74.0 54.5 72.05 55.35 72.75 54.75 73.45 53.35 L74.25 51.5 74.5 49.8 Q74.5 47.35 72.5 44.45 L70.65 42.05 69.0 39.9 68.4 39.3 64.35 36.35 62.3 35.05 Q59.5 33.4 58.25 33.4 57.9 33.4 57.6 33.65 57.35 33.9 55.95 34.55 M46.4 45.7 L47.1 44.15 49.05 41.6 49.35 41.25 49.65 40.85 51.1 39.2 Q50.05 40.5 49.55 41.95 49.0 43.6 49.0 46.4 L49.2 48.9 49.3 49.45 Q49.8 52.0 51.15 54.3 L51.2 54.35 51.55 54.9 Q52.6 56.55 53.8 57.45 55.2 58.6 56.75 58.65 L57.0 58.65 58.75 58.6 61.5 58.3 61.65 58.25 62.1 58.2 62.45 58.05 63.95 57.2 64.2 57.05 Q66.2 55.7 67.55 53.7 68.7 52.0 69.25 49.9 L69.25 49.85 69.6 48.3 69.75 45.8 69.65 42.85 68.4 39.3 M52.85 58.45 L50.15 57.9 Q46.9 56.75 45.7 53.4 45.2 51.9 45.2 50.3 L45.3 48.45 46.4 45.7 M12.35 26.85 Q12.25 28.8 12.5 30.9 13.35 37.05 13.1 40.7 12.8 45.8 10.5 48.45 L10.45 48.5 6.8 51.8 3.45 54.3 Q0.0 57.1 0.0 61.45 0.0 65.8 0.95 69.5 M10.75 77.9 L10.5 77.1 10.25 76.0 M10.75 77.9 Q13.7 86.75 23.05 89.35 M62.1 58.2 L68.55 56.6 71.5 55.6 72.05 55.35 M52.85 58.45 L56.75 58.65" fill="none" stroke="#000000" stroke-linecap="round" stroke-linejoin="round" stroke-width="1.0"/>
    </g>
    <g id="shape6" transform="matrix(1.0, 0.0, 0.0, 1.0, 0.75, 0.75)">
      <path d="M13.15 1.6 L13.35 1.55 13.15 0.0 24.15 6.25 31.75 32.6 19.15 35.55 13.15 1.6 M17.8 39.7 L18.0 40.1 17.85 40.15 17.8 39.75 17.8 39.7" fill="#1ad5c1" fill-rule="evenodd" stroke="none"/>
      <path d="M31.5 33.45 L31.9 33.25 31.75 34.0 22.9 80.3 14.4 92.3 14.55 90.05 20.4 41.5 31.75 34.0 31.5 33.45" fill="#1e7295" fill-rule="evenodd" stroke="none"/>
      <path d="M13.35 1.55 L12.65 1.25 13.15 0.0 13.35 1.55 M1.2 27.85 L3.65 28.9 13.55 9.1 14.1 14.9 5.35 32.1 0.7 30.2 0.35 30.0 0.3 29.95 1.2 27.85 M15.5 29.85 L16.15 36.45 12.75 35.05 15.5 29.85" fill="#affaf9" fill-rule="evenodd" stroke="none"/>
      <path d="M0.3 29.95 L0.35 30.0 0.0 30.6 0.3 29.95 M8.85 78.6 L5.0 50.6 2.65 33.8 5.1 34.75 15.7 73.0 15.3 79.05 3.7 39.6 5.0 50.6 14.9 85.1 14.85 85.35 14.55 90.05 14.4 92.3 8.9 78.85 8.85 78.6 M13.35 38.0 L17.8 39.75 17.8 39.7 17.8 39.75 17.85 40.15 17.0 52.95 13.35 38.0" fill="#6ad6e1" fill-rule="evenodd" stroke="none"/>
      <path d="M13.55 9.1 L13.15 1.6 17.8 39.7 0.7 30.2 17.8 39.7 17.8 39.75 13.35 38.0 5.1 34.75 2.65 33.8 5.0 50.6 8.85 78.6 0.0 30.6 0.35 30.0 0.7 30.2 5.35 32.1 12.6 35.0 12.75 35.05 16.15 36.45 15.5 29.85 14.1 14.9 13.55 9.1" fill="#d0f2ef" fill-rule="evenodd" stroke="none"/>
      <path d="M17.8 39.7 L13.15 1.6 19.15 35.55 31.75 32.6 31.9 33.25 31.5 33.45 18.0 40.1 17.8 39.7" fill="#11887b" fill-rule="evenodd" stroke="none"/>
      <path d="M18.0 40.1 L31.5 33.45 31.75 34.0 20.4 41.5 14.55 90.05 14.85 85.35 14.9 85.1 15.3 79.05 15.7 73.0 17.0 52.95 17.85 40.15 18.0 40.1" fill="#114155" fill-rule="evenodd" stroke="none"/>
      <path d="M13.15 1.6 L13.55 9.1 3.65 28.9 1.2 27.85 12.65 1.25 13.35 1.55 13.15 1.6 M14.1 14.9 L15.5 29.85 12.75 35.05 12.6 35.0 5.35 32.1 14.1 14.9 M5.1 34.75 L13.35 38.0 17.0 52.95 15.7 73.0 5.1 34.75 M15.3 79.05 L14.9 85.1 5.0 50.6 3.7 39.6 15.3 79.05" fill="#f3f9fa" fill-rule="evenodd" stroke="none"/>
      <path d="M12.65 1.25 L1.2 27.85 0.3 29.95 0.0 30.6 8.85 78.6 8.9 78.85 14.4 92.3 22.9 80.3 31.75 34.0 31.9 33.25 31.75 32.6 24.15 6.25 13.15 0.0 13.35 1.55 M0.7 30.2 L17.8 39.7 13.15 1.6 M13.15 0.0 L12.65 1.25 M0.3 29.95 L0.35 30.0 0.7 30.2 M18.0 40.1 L31.5 33.45 31.9 33.25 M17.85 40.15 L18.0 40.1 M17.8 39.7 L17.8 39.75 17.85 40.15 17.0 52.95 15.7 73.0 15.3 79.05 14.9 85.1 M14.85 85.35 L14.55 90.05 14.4 92.3" fill="none" stroke="#000000" stroke-linecap="round" stroke-linejoin="round" stroke-width="1.5"/>
    </g>
    <g id="shape7" transform="matrix(1.0, 0.0, 0.0, 1.0, 0.75, 1.0)">
      <path d="M95.5 2.9 L98.0 0.0 85.5 51.5 85.3 51.6 85.1 51.7 68.55 39.3 91.3 7.75 95.5 2.9 M62.75 41.1 L62.5 40.95 63.15 40.2 63.3 40.05 62.75 41.1" fill="#2091ac" fill-rule="evenodd" stroke="none"/>
      <path d="M0.25 83.0 L0.25 73.5 0.25 73.2 0.25 72.0 0.85 72.55 18.75 52.8 55.2 32.1 55.25 32.15 61.8 41.45 0.25 83.0 M30.15 40.2 L47.45 21.15 51.45 26.75 30.15 40.2" fill="#99c9f7" fill-rule="evenodd" stroke="none"/>
      <path d="M98.0 0.0 L95.5 2.9 95.05 2.55 94.6 1.1 98.0 0.0 M56.3 24.2 L53.5 18.0 53.3 17.65 53.5 17.5 55.75 16.7 88.7 10.75 80.4 20.35 56.3 24.2" fill="#c1f3f9" fill-rule="evenodd" stroke="none"/>
      <path d="M83.55 52.5 L13.0 86.55 12.85 86.5 5.8 81.8 62.0 45.0 62.2 44.55 62.25 44.6 83.55 52.5" fill="#059c9c" fill-rule="evenodd" stroke="none"/>
      <path d="M91.3 7.75 L68.55 39.3 85.1 51.7 84.1 52.2 62.75 41.1 63.3 40.05 80.4 20.35 88.7 10.75 91.3 7.75" fill="#1b788f" fill-rule="evenodd" stroke="none"/>
      <path d="M94.6 1.1 L95.05 2.55 55.75 16.7 53.5 17.5 53.3 17.65 53.5 18.0 56.3 24.2 63.3 40.05 63.15 40.2 62.5 40.95 61.8 41.45 55.25 32.15 55.2 32.1 51.45 26.75 47.45 21.15 30.15 40.2 18.75 52.8 0.85 72.55 0.25 72.0 45.25 19.25 45.35 19.1 48.0 16.0 94.6 1.1 M48.0 16.0 L62.5 40.95 48.0 16.0" fill="#dbf3f9" fill-rule="evenodd" stroke="none"/>
      <path d="M84.1 52.2 L83.55 52.5 62.25 44.6 62.2 44.55 62.0 45.0 5.8 81.8 12.85 86.5 0.25 83.0 61.8 41.45 62.5 40.95 62.75 41.1 84.1 52.2" fill="#035a5a" fill-rule="evenodd" stroke="none"/>
      <path d="M95.05 2.55 L95.5 2.9 91.3 7.75 88.7 10.75 55.75 16.7 95.05 2.55 M56.3 24.2 L80.4 20.35 63.3 40.05 56.3 24.2 M51.45 26.75 L55.2 32.1 18.75 52.8 30.15 40.2 51.45 26.75" fill="#d0e6fb" fill-rule="evenodd" stroke="none"/>
      <path d="M95.5 2.9 L98.0 0.0 94.6 1.1 48.0 16.0 45.35 19.1 45.25 19.25 0.25 72.0 0.25 73.2 M95.5 2.9 L91.3 7.75 88.7 10.75 80.4 20.35 63.3 40.05 M85.3 51.6 L85.5 51.5 98.0 0.0 M85.1 51.7 L84.1 52.2 83.55 52.5 13.0 86.55 12.85 86.5 0.25 83.0 0.25 73.5 M61.8 41.45 L62.5 40.95 48.0 16.0 M62.5 40.95 L62.75 41.1 84.1 52.2 M63.15 40.2 L62.5 40.95 M0.25 83.0 L61.8 41.45" fill="none" stroke="#000000" stroke-linecap="round" stroke-linejoin="round" stroke-width="2.0"/>
    </g>
    <g id="shape8" transform="matrix(1.0, 0.0, 0.0, 1.0, -19.25, -0.15)">
      <path d="M92.6 22.05 L94.5 20.9 72.5 42.9 73.2 40.9 73.55 41.05 77.7 32.55 92.6 22.05" fill="#2091ac" fill-rule="evenodd" stroke="none"/>
      <path d="M78.25 1.8 L77.7 2.25 76.95 1.9 77.5 0.9 78.25 1.8 M77.15 31.0 L77.15 31.05 76.5 31.4 76.45 31.2 77.15 31.0" fill="#8fc9ef" fill-rule="evenodd" stroke="none"/>
      <path d="M76.45 31.2 L76.5 31.4 29.95 33.75 29.9 33.05 23.35 25.7 68.6 16.95 76.45 31.2" fill="#0d667b" fill-rule="evenodd" stroke="none"/>
      <path d="M76.0 1.4 L77.5 0.9 76.95 1.9 76.0 1.4 67.95 12.55 68.0 12.85 23.0 22.1 23.75 17.95 23.7 17.7 76.0 1.4" fill="#45dafe" fill-rule="evenodd" stroke="none"/>
      <path d="M73.8 39.15 L73.7 39.45 73.2 40.9 29.25 41.2 29.5 34.0 29.55 35.05 73.85 33.4 73.8 39.15 M29.95 33.75 L29.5 34.0 29.55 33.75 29.95 33.75" fill="#94cbe2" fill-rule="evenodd" stroke="none"/>
      <path d="M73.2 40.9 L72.5 42.9 27.5 42.9 29.5 34.0 29.25 41.2 73.2 40.9 M76.0 1.4 L76.95 1.9 70.0 14.4 20.3 24.2 23.0 17.9 23.7 17.7 23.75 17.95 23.0 22.1 68.0 12.85 67.95 12.55 76.0 1.4" fill="#caf0f9" fill-rule="evenodd" stroke="none"/>
      <path d="M94.5 20.9 L92.6 22.05 77.15 31.05 77.15 31.0 72.4 14.45 77.7 2.25 78.25 1.8 94.5 20.9" fill="#9dc7d0" fill-rule="evenodd" stroke="none"/>
      <path d="M77.7 2.25 L72.4 14.45 77.15 31.0 76.45 31.2 70.0 14.4 76.95 1.9 77.7 2.25" fill="#73a9ae" fill-rule="evenodd" stroke="none"/>
      <path d="M77.15 31.05 L92.6 22.05 77.7 32.55 73.55 41.05 73.2 40.9 73.7 39.45 73.8 39.15 76.5 31.4 77.15 31.05" fill="#135464" fill-rule="evenodd" stroke="none"/>
      <path d="M20.3 24.2 L70.0 14.4 76.45 31.2 68.6 16.95 23.35 25.7 29.9 33.05 29.95 33.75 29.55 33.75 20.0 24.9 20.3 24.2" fill="#0e3d47" fill-rule="evenodd" stroke="none"/>
      <path d="M76.5 31.4 L73.8 39.15 73.85 33.4 29.55 35.05 29.5 34.0 29.95 33.75 76.5 31.4" fill="#3493ba" fill-rule="evenodd" stroke="none"/>
      <path d="M92.6 22.05 L94.5 20.9 78.25 1.8 77.5 0.9 76.0 1.4 23.7 17.7 23.0 17.9 20.3 24.2 70.0 14.4 76.95 1.9 77.5 0.9 M77.15 31.05 L92.6 22.05 M73.2 40.9 L72.5 42.9 94.5 20.9 M76.5 31.4 L77.15 31.05 M76.45 31.2 L76.5 31.4 73.8 39.15 M73.7 39.45 L73.2 40.9 M29.5 34.0 L27.5 42.9 72.5 42.9 M76.45 31.2 L70.0 14.4 M29.55 33.75 L29.5 34.0 M29.55 33.75 L29.95 33.75 76.5 31.4 M20.3 24.2 L20.0 24.9 29.55 33.75" fill="none" stroke="#000000" stroke-linecap="round" stroke-linejoin="round" stroke-width="1.5"/>
    </g>
  </defs>
</svg>
