<?xml version="1.0" encoding="UTF-8" standalone="no"?>
<svg xmlns:xlink="http://www.w3.org/1999/xlink" height="400.6px" width="346.25px" xmlns="http://www.w3.org/2000/svg">
  <g transform="matrix(1.0, 0.0, 0.0, 1.0, 144.45, 224.35)">
    <use data-characterId="2" height="42.85" transform="matrix(1.0, 0.0, 0.0, 1.0, 61.6, -22.2)" width="23.25" xlink:href="#sprite0"/>
    <use data-characterId="4" height="176.8" transform="matrix(1.0, 0.0, 0.0, 1.0, 22.65, -42.95)" width="161.4" xlink:href="#sprite1"/>
    <use data-characterId="6" height="110.7" transform="matrix(1.0, 0.0, 0.0, 1.0, 46.05, 65.55)" width="69.85" xlink:href="#sprite2"/>
    <use data-characterId="8" height="107.8" transform="matrix(1.0, 0.0, 0.0, 1.0, -42.7, 66.85)" width="91.5" xlink:href="#sprite3"/>
    <use data-characterId="10" height="196.2" transform="matrix(1.0, 0.0, 0.0, 1.0, -43.35, -48.9)" width="158.6" xlink:href="#sprite4"/>
    <use data-characterId="12" height="177.75" transform="matrix(1.0, 0.0, 0.0, 1.0, -126.65, -23.45)" width="135.6" xlink:href="#sprite5"/>
    <use data-characterId="14" height="151.9" transform="matrix(1.0, 0.0, 0.0, 1.0, -73.85, -88.65)" width="208.2" xlink:href="#sprite6"/>
    <use data-characterId="18" height="228.65" transform="matrix(1.0, 0.0, 0.0, 1.0, -126.65, -224.35)" width="318.95" xlink:href="#sprite7"/>
  </g>
  <defs>
    <g id="sprite0" transform="matrix(1.0, 0.0, 0.0, 1.0, 0.75, 0.75)">
      <use data-characterId="1" height="42.85" transform="matrix(1.0, 0.0, 0.0, 1.0, -0.75, -0.75)" width="23.25" xlink:href="#shape0"/>
    </g>
    <g id="shape0" transform="matrix(1.0, 0.0, 0.0, 1.0, 0.75, 0.75)">
      <path d="M0.0 0.0 Q10.2 22.15 21.75 41.35" fill="none" stroke="#61280a" stroke-linecap="round" stroke-linejoin="round" stroke-width="1.5"/>
    </g>
    <g id="sprite1" transform="matrix(1.0, 0.0, 0.0, 1.0, 4.4, 4.2)">
      <use data-characterId="3" height="176.8" transform="matrix(1.0, 0.0, 0.0, 1.0, -4.4, -4.2)" width="161.4" xlink:href="#shape1"/>
    </g>
    <g id="shape1" transform="matrix(1.0, 0.0, 0.0, 1.0, 4.4, 4.2)">
      <path d="M106.85 49.3 Q112.4 47.85 118.1 47.85 128.5 47.85 134.0 51.65 137.4 53.85 139.3 57.6 137.05 56.4 135.9 56.0 127.2 52.3 121.3 52.3 116.1 52.3 110.35 53.55 107.3 54.3 104.1 55.35 97.95 57.25 91.3 60.65 87.15 62.8 82.5 65.55 L79.5 67.45 82.05 64.6 Q90.55 55.65 100.3 51.55 103.45 50.05 106.85 49.3" fill="#ffe9a1" fill-rule="evenodd" stroke="none"/>
      <path d="M57.45 1.85 Q75.5 14.95 93.2 33.75 L100.8 42.0 106.85 49.3 Q103.45 50.05 100.3 51.55 90.55 55.65 82.05 64.6 76.0 53.45 67.2 43.6 56.4 31.2 41.15 20.6 L39.35 19.3 13.25 1.1 13.55 0.9 13.25 1.1 11.7 0.0 13.55 0.9 Q36.7 12.45 39.75 10.2 48.05 4.15 57.45 1.85" fill="#ee7b3d" fill-rule="evenodd" stroke="none"/>
      <path d="M139.3 57.6 Q140.35 59.7 141.0 62.35 139.6 61.2 138.05 60.25 131.65 56.1 125.4 56.1 L123.1 56.2 Q118.4 56.5 113.65 58.0 111.0 58.75 108.45 59.9 99.55 63.75 90.45 71.7 L86.95 74.95 79.5 82.4 Q74.75 87.25 73.45 87.25 72.0 87.25 71.25 85.35 70.6 84.0 70.6 82.15 L70.8 79.4 71.9 77.7 Q75.5 72.0 79.5 67.45 L82.5 65.55 Q87.15 62.8 91.3 60.65 97.95 57.25 104.1 55.35 107.3 54.3 110.35 53.55 116.1 52.3 121.3 52.3 127.2 52.3 135.9 56.0 137.05 56.4 139.3 57.6 M144.4 96.05 Q143.95 99.65 142.9 100.6 L142.5 97.85 140.9 89.05 139.7 83.0 138.45 76.45 139.1 76.45 142.6 79.95 144.7 82.5 144.7 83.65 144.8 87.25 Q144.8 92.75 144.4 96.05 M133.6 100.6 L135.9 107.0 135.9 110.15 135.6 109.85 131.75 106.55 120.65 97.45 Q120.65 97.0 120.95 96.25 122.15 93.6 127.0 87.25 127.0 87.9 127.65 87.9 127.95 88.1 131.05 94.9 L133.6 100.6 M91.4 122.25 L93.0 115.65 94.55 108.9 95.85 108.9 98.9 112.7 104.1 120.1 109.6 128.4 103.6 126.15 101.8 125.55 Q92.65 122.25 91.4 122.25" fill="#ffcf74" fill-rule="evenodd" stroke="none"/>
      <path d="M141.65 70.0 Q144.5 73.6 146.7 78.35 L148.85 84.1 149.05 85.15 Q150.1 89.4 150.45 93.3 147.25 96.6 145.35 101.25 143.55 105.6 141.75 112.05 138.45 113.25 134.3 116.1 132.0 117.8 129.35 120.25 124.25 124.7 121.7 127.95 111.3 125.75 102.2 115.9 L98.6 111.65 Q91.4 102.1 91.4 92.35 91.4 84.6 105.4 70.85 L112.25 64.6 Q112.25 64.45 112.4 64.45 114.7 63.4 117.05 62.65 122.45 60.85 127.65 60.65 136.0 63.0 141.65 70.0 M144.4 96.05 Q148.0 92.05 148.0 85.05 L148.0 84.7 Q148.0 81.85 146.7 79.2 L145.85 77.7 144.05 76.05 140.25 73.15 Q132.95 68.2 126.05 68.2 122.55 68.2 117.45 71.05 L116.85 71.35 Q110.45 75.2 110.45 79.3 110.45 85.35 116.85 92.35 118.85 94.6 120.95 96.25 120.65 97.0 120.65 97.45 L131.75 106.55 135.6 109.85 135.9 110.15 135.9 107.0 133.6 100.6 134.0 100.6 Q138.75 100.6 142.5 97.85 L142.9 100.6 Q143.95 99.65 144.4 96.05 M135.9 110.8 L135.9 110.15 135.9 110.8" fill="#872d12" fill-rule="evenodd" stroke="none"/>
      <path d="M141.0 62.35 Q141.65 65.45 141.65 69.15 L141.65 70.0 Q136.0 63.0 127.65 60.65 122.45 60.85 117.05 62.65 116.5 62.05 116.1 61.3 L112.4 64.35 112.25 64.6 107.8 66.7 Q97.45 72.4 88.4 82.15 79.4 91.7 74.1 102.65 71.15 108.8 69.75 114.4 68.7 119.15 68.7 123.5 68.7 135.5 75.8 144.4 L72.85 144.5 Q63.7 144.5 59.8 139.4 56.0 134.65 56.0 124.45 56.0 115.8 59.6 104.0 L59.9 103.05 Q64.05 90.35 70.8 79.4 L70.6 82.15 Q70.6 84.0 71.25 85.35 72.0 87.25 73.45 87.25 74.75 87.25 79.5 82.4 L86.95 74.95 90.45 71.7 Q99.55 63.75 108.45 59.9 111.0 58.75 113.65 58.0 118.4 56.5 123.1 56.2 L125.4 56.1 Q131.65 56.1 138.05 60.25 139.6 61.2 141.0 62.35" fill="#deb270" fill-rule="evenodd" stroke="none"/>
      <path d="M120.95 96.25 Q118.85 94.6 116.85 92.35 110.45 85.35 110.45 79.3 110.45 75.2 116.85 71.35 L117.45 71.05 Q122.55 68.2 126.05 68.2 132.95 68.2 140.25 73.15 L144.05 76.05 145.85 77.7 146.7 79.2 Q148.0 81.85 148.0 84.7 L148.0 85.05 Q148.0 92.05 144.4 96.05 144.8 92.75 144.8 87.25 L144.7 83.65 144.7 82.5 142.6 79.95 139.1 76.45 138.45 76.45 139.7 83.0 140.9 89.05 142.5 97.85 Q138.75 100.6 134.0 100.6 L133.6 100.6 131.05 94.9 Q127.95 88.1 127.65 87.9 127.0 87.9 127.0 87.25 122.15 93.6 120.95 96.25" fill="#b13e13" fill-rule="evenodd" stroke="none"/>
      <path d="M150.45 93.3 L150.55 97.45 150.45 102.0 Q150.2 107.0 149.25 111.65 148.65 115.05 147.65 118.3 L147.05 120.35 Q146.1 119.7 144.8 119.7 139.0 119.7 131.75 131.15 126.35 139.75 125.75 145.25 L125.0 144.4 Q120.0 139.4 111.95 136.35 107.9 136.55 104.65 137.5 100.8 138.65 97.75 140.7 91.4 145.35 91.4 152.75 91.4 154.35 91.7 155.75 84.7 153.4 78.9 147.7 L75.8 144.4 Q68.7 135.5 68.7 123.5 68.7 119.15 69.75 114.4 71.15 108.8 74.1 102.65 79.4 91.7 88.4 82.15 97.45 72.4 107.8 66.7 L112.25 64.6 105.4 70.85 Q91.4 84.6 91.4 92.35 91.4 102.1 98.6 111.65 L102.2 115.9 Q111.3 125.75 121.7 127.95 124.25 124.7 129.35 120.25 132.0 117.8 134.3 116.1 138.45 113.25 141.75 112.05 143.55 105.6 145.35 101.25 147.25 96.6 150.45 93.3 M91.4 122.25 Q92.65 122.25 101.8 125.55 L103.6 126.15 109.6 128.4 104.1 120.1 98.9 112.7 95.85 108.9 94.55 108.9 93.0 115.65 91.4 122.25" fill="#58160e" fill-rule="evenodd" stroke="none"/>
      <path d="M59.6 104.0 Q51.9 96.45 20.5 77.75 L10.3 71.7 10.2 67.55 Q10.2 58.2 14.0 47.1 18.15 35.0 25.45 24.95 L28.35 21.2 Q30.75 18.3 13.0 1.25 L13.25 1.1 13.0 1.25 11.7 0.0 13.25 1.1 39.35 19.3 41.15 20.6 Q56.4 31.2 67.2 43.6 76.0 53.45 82.05 64.6 L79.5 67.45 Q75.5 72.0 71.9 77.7 L70.8 79.4 Q64.05 90.35 59.9 103.05 L59.6 104.0" fill="#a65435" fill-rule="evenodd" stroke="none"/>
      <path d="M155.2 129.05 L154.35 131.7 Q153.3 134.55 151.6 136.75 150.55 145.75 145.45 152.75 139.4 161.05 131.05 161.65 129.75 165.15 125.75 168.05 120.55 171.85 114.9 171.85 106.0 171.85 99.0 166.75 92.75 162.2 91.7 155.75 91.4 154.35 91.4 152.75 91.4 145.35 97.75 140.7 100.8 138.65 104.65 137.5 107.9 136.55 111.95 136.35 120.0 139.4 125.0 144.4 L125.75 145.25 Q126.35 139.75 131.75 131.15 139.0 119.7 144.8 119.7 146.1 119.7 147.05 120.35 148.75 121.2 149.9 123.5 151.7 126.7 151.8 131.15 L151.8 132.1 151.6 136.75 151.8 132.1 151.8 131.15 Q151.7 126.7 149.9 123.5 148.75 121.2 147.05 120.35 L147.65 118.3 Q148.65 115.05 149.25 111.65 L152.0 118.95 154.05 124.9 155.2 129.05 M131.05 161.65 Q131.45 160.2 131.45 158.5 131.45 153.5 128.6 148.95 L127.85 147.9 125.75 145.25 127.85 147.9 128.6 148.95 Q131.45 153.5 131.45 158.5 131.45 160.2 131.05 161.65 M134.65 133.05 Q132.85 137.2 132.75 143.25 L132.75 143.85 Q132.75 147.05 133.35 149.6 134.65 154.7 137.8 154.7 139.95 154.7 144.2 148.95 149.25 142.3 149.25 135.6 L149.15 130.7 149.05 129.65 Q148.4 129.15 147.35 128.6 144.8 127.35 142.9 127.35 137.3 127.35 134.65 133.05 M117.45 142.7 Q115.15 142.9 111.75 143.85 108.55 144.8 107.2 146.2 106.0 147.15 106.0 148.3 106.0 151.8 108.55 155.3 111.3 159.0 115.75 160.1 L117.9 160.4 119.35 160.4 Q121.8 160.4 123.2 159.15 125.1 157.55 125.1 154.05 L125.1 153.3 Q125.0 149.8 123.5 147.7 121.9 145.15 117.45 142.7" fill="#d7cfcf" fill-rule="evenodd" stroke="none"/>
      <path d="M150.45 102.0 Q156.25 106.45 156.25 119.7 L156.25 120.0 Q156.25 125.0 155.2 129.05 L154.05 124.9 152.0 118.95 149.25 111.65 Q150.2 107.0 150.45 102.0 M134.65 133.05 Q137.3 127.35 142.9 127.35 144.8 127.35 147.35 128.6 148.4 129.15 149.05 129.65 L149.15 130.7 149.25 135.6 Q149.25 142.3 144.2 148.95 139.95 154.7 137.8 154.7 134.65 154.7 133.35 149.6 132.75 147.05 132.75 143.85 L132.75 143.25 Q132.85 137.2 134.65 133.05 M117.45 142.7 Q121.9 145.15 123.5 147.7 125.0 149.8 125.1 153.3 L125.1 154.05 Q125.1 157.55 123.2 159.15 121.8 160.4 119.35 160.4 L117.9 160.4 115.75 160.1 Q111.3 159.0 108.55 155.3 106.0 151.8 106.0 148.3 106.0 147.15 107.2 146.2 108.55 144.8 111.75 143.85 115.15 142.9 117.45 142.7" fill="#ffffff" fill-rule="evenodd" stroke="none"/>
      <path d="M57.45 1.85 Q75.5 14.95 93.2 33.75 L100.8 42.0 106.85 49.3 Q112.4 47.85 118.1 47.85 128.5 47.85 134.0 51.65 137.4 53.85 139.3 57.6 140.35 59.7 141.0 62.35 141.65 65.45 141.65 69.15 L141.65 70.0 Q144.5 73.6 146.7 78.35 L148.85 84.1 149.05 85.15 Q150.1 89.4 150.45 93.3 L150.55 97.45 150.45 102.0 Q156.25 106.45 156.25 119.7 L156.25 120.0 Q156.25 125.0 155.2 129.05 L154.35 131.7 Q153.3 134.55 151.6 136.75 150.55 145.75 145.45 152.75 139.4 161.05 131.05 161.65 129.75 165.15 125.75 168.05 120.55 171.85 114.9 171.85 106.0 171.85 99.0 166.75 92.75 162.2 91.7 155.75 84.7 153.4 78.9 147.7 L75.8 144.4 72.85 144.5 Q63.7 144.5 59.8 139.4 56.0 134.65 56.0 124.45 56.0 115.8 59.6 104.0 51.9 96.45 20.5 77.75 L10.3 71.7 0.0 65.65 M144.4 96.05 Q143.95 99.65 142.9 100.6 L142.5 97.85 140.9 89.05 139.7 83.0 138.45 76.45 139.1 76.45 142.6 79.95 144.7 82.5 144.7 83.65 144.8 87.25 Q144.8 92.75 144.4 96.05 M133.6 100.6 L135.9 107.0 135.9 110.15 135.9 110.8 M117.05 62.65 Q114.7 63.4 112.4 64.45 112.25 64.45 112.25 64.6 L107.8 66.7 Q97.45 72.4 88.4 82.15 79.4 91.7 74.1 102.65 71.15 108.8 69.75 114.4 68.7 119.15 68.7 123.5 68.7 135.5 75.8 144.4 M117.05 62.65 Q122.45 60.85 127.65 60.65 136.0 63.0 141.65 70.0 M70.8 79.4 Q64.05 90.35 59.9 103.05 L59.6 104.0 M106.85 49.3 Q103.45 50.05 100.3 51.55 90.55 55.65 82.05 64.6 L79.5 67.45 Q75.5 72.0 71.9 77.7 L70.8 79.4 M120.95 96.25 Q120.65 97.0 120.65 97.45 L131.75 106.55 135.6 109.85 135.9 110.15 M133.6 100.6 L131.05 94.9 Q127.95 88.1 127.65 87.9 127.0 87.9 127.0 87.25 122.15 93.6 120.95 96.25 M57.45 1.85 L55.1 -0.2 M147.05 120.35 Q146.1 119.7 144.8 119.7 139.0 119.7 131.75 131.15 126.35 139.75 125.75 145.25 L127.85 147.9 128.6 148.95 Q131.45 153.5 131.45 158.5 131.45 160.2 131.05 161.65 M147.05 120.35 Q148.75 121.2 149.9 123.5 151.7 126.7 151.8 131.15 L151.8 132.1 151.6 136.75 M149.25 111.65 Q148.65 115.05 147.65 118.3 L147.05 120.35 M149.25 111.65 Q150.2 107.0 150.45 102.0 M125.75 145.25 L125.0 144.4 Q120.0 139.4 111.95 136.35 107.9 136.55 104.65 137.5 100.8 138.65 97.75 140.7 91.4 145.35 91.4 152.75 91.4 154.35 91.7 155.75 M91.4 122.25 Q92.65 122.25 101.8 125.55 L103.6 126.15 109.6 128.4 104.1 120.1 98.9 112.7 95.85 108.9 94.55 108.9 93.0 115.65 91.4 122.25" fill="none" stroke="#61280a" stroke-linecap="round" stroke-linejoin="round" stroke-width="1.5"/>
      <path d="M13.25 1.1 L13.0 1.25 Q-10.9 14.4 0.0 66.9 M13.55 0.9 Q28.05 -6.75 55.1 -0.2 L56.05 0.0 M13.55 0.9 L13.25 1.1" fill="none" stroke="#61280a" stroke-linecap="round" stroke-linejoin="round" stroke-width="2.0"/>
    </g>
    <g id="sprite2" transform="matrix(1.0, 0.0, 0.0, 1.0, 7.4, 0.75)">
      <use data-characterId="5" height="110.7" transform="matrix(1.0, 0.0, 0.0, 1.0, -7.4, -0.75)" width="69.85" xlink:href="#shape2"/>
    </g>
    <g id="shape2" transform="matrix(1.0, 0.0, 0.0, 1.0, 7.4, 0.75)">
      <path d="M31.6 107.6 Q26.7 109.75 21.2 109.0 15.4 108.25 10.95 106.55 L10.3 106.45 Q2.55 82.7 0.65 73.35 0.1 70.95 0.0 69.45 L-4.4 41.75 -6.25 30.05 Q-1.75 27.7 5.55 25.0 35.1 14.0 51.55 14.0 L55.25 14.2 55.75 17.85 Q57.25 27.7 57.25 33.4 57.25 53.65 47.6 77.0 45.5 82.3 42.85 87.7 37.65 98.3 31.6 107.6" fill="#a65435" fill-rule="evenodd" stroke="none"/>
      <path d="M60.75 15.3 Q61.7 20.6 61.7 27.35 61.7 46.85 52.9 72.0 L50.05 79.75 Q45.4 91.4 39.25 103.05 37.2 105.05 32.15 107.4 L31.6 107.6 Q37.65 98.3 42.85 87.7 45.5 82.3 47.6 77.0 57.25 53.65 57.25 33.4 57.25 27.7 55.75 17.85 L55.25 14.2 Q58.75 14.45 60.75 15.3" fill="#ee7b3d" fill-rule="evenodd" stroke="none"/>
      <path d="M60.75 15.3 Q61.7 20.6 61.7 27.35 61.7 46.85 52.9 72.0 L50.05 79.75 Q45.4 91.4 39.25 103.05 37.2 105.05 32.15 107.4 L31.6 107.6 Q26.7 109.75 21.2 109.0 15.4 108.25 10.95 106.55 L10.3 106.45 Q2.55 82.7 0.65 73.35 0.1 70.95 0.0 69.45 L-4.4 41.75 -6.25 30.05 -6.65 27.6 M60.75 15.3 L60.2 12.65 Q58.5 6.05 54.7 0.0" fill="none" stroke="#61280a" stroke-linecap="round" stroke-linejoin="round" stroke-width="1.5"/>
    </g>
    <g id="sprite3" transform="matrix(1.0, 0.0, 0.0, 1.0, 0.75, 0.75)">
      <use data-characterId="7" height="107.8" transform="matrix(1.0, 0.0, 0.0, 1.0, -0.75, -0.75)" width="91.5" xlink:href="#shape3"/>
    </g>
    <g id="shape3" transform="matrix(1.0, 0.0, 0.0, 1.0, 0.75, 0.75)">
      <path d="M88.3 19.85 L85.35 31.1 Q75.95 66.35 73.35 69.65 66.15 78.65 51.3 94.65 L44.1 102.3 36.6 104.3 Q27.55 106.3 24.5 106.3 15.15 106.3 9.85 103.25 L6.5 100.8 Q3.7 90.0 2.55 81.7 0.1 64.85 0.0 46.4 0.0 27.85 1.2 17.4 1.7 12.4 2.85 8.25 L4.25 7.6 Q11.65 5.1 15.9 5.1 22.6 5.1 29.9 8.6 39.45 13.05 86.0 19.5 L88.3 19.85" fill="#a65435" fill-rule="evenodd" stroke="none"/>
      <path d="M90.0 13.2 L88.3 19.85 85.35 31.1 Q75.95 66.35 73.35 69.65 66.15 78.65 51.3 94.65 L44.1 102.3 36.6 104.3 Q27.55 106.3 24.5 106.3 15.15 106.3 9.85 103.25 L6.5 100.8 Q3.7 90.0 2.55 81.7 0.1 64.85 0.0 46.4 0.0 27.85 1.2 17.4 1.7 12.4 2.85 8.25 3.95 3.6 5.75 0.0" fill="none" stroke="#61280a" stroke-linecap="round" stroke-linejoin="round" stroke-width="1.5"/>
    </g>
    <g id="sprite4" transform="matrix(1.0, 0.0, 0.0, 1.0, 0.75, 0.75)">
      <use data-characterId="9" height="196.2" transform="matrix(1.0, 0.0, 0.0, 1.0, -0.75, -0.75)" width="158.6" xlink:href="#shape4"/>
    </g>
    <g id="shape4" transform="matrix(1.0, 0.0, 0.0, 1.0, 0.75, 0.75)">
      <path d="M39.25 27.65 L41.05 26.9 Q44.65 25.45 48.7 25.45 54.85 25.45 62.05 27.35 71.05 29.8 75.05 33.7 79.0 37.5 102.2 39.3 L117.05 40.6 Q139.0 87.45 143.1 94.1 L143.65 95.05 141.3 99.1 Q138.65 104.3 137.7 104.3 135.9 104.3 130.4 100.5 L129.35 101.75 Q118.0 91.15 102.95 89.05 L95.4 88.4 Q74.85 88.4 60.35 102.9 54.5 108.65 51.0 115.3 L55.55 118.5 55.65 118.6 Q52.2 126.75 52.2 134.2 L52.4 138.65 49.0 140.95 45.9 142.9 Q47.6 160.05 60.35 172.65 74.85 187.2 95.4 187.2 L102.85 186.65 106.65 185.9 Q120.1 182.95 130.5 172.65 L132.1 170.95 Q142.9 167.45 153.1 161.3 147.8 172.25 135.5 180.7 122.9 189.4 107.4 192.7 L105.9 193.0 Q97.1 194.7 87.45 194.7 70.4 194.7 54.85 190.7 42.95 187.5 31.8 182.0 6.4 169.4 1.3 149.15 0.0 144.15 0.0 138.65 0.0 116.7 14.45 78.65 25.05 50.55 39.25 27.65" fill="#a65435" fill-rule="evenodd" stroke="none"/>
      <path d="M132.1 170.95 L130.5 172.65 Q120.1 182.95 106.65 185.9 L102.85 186.65 95.4 187.2 Q74.85 187.2 60.35 172.65 47.6 160.05 45.9 142.9 L49.0 140.95 52.4 138.65 Q54.1 155.6 69.05 168.4 84.1 181.15 101.45 178.7 L101.7 178.7 Q113.35 177.1 119.9 175.55 L124.9 173.95 Q130.95 171.4 132.1 170.95 M55.65 118.6 L55.55 118.5 51.0 115.3 Q54.5 108.65 60.35 102.9 74.85 88.4 95.4 88.4 L102.95 89.05 Q118.0 91.15 129.35 101.75 L120.95 112.45 Q116.0 118.9 114.5 118.9 113.0 118.9 104.0 113.85 L102.0 112.75 100.3 111.8 95.85 119.25 87.15 132.9 75.2 120.2 Q66.6 110.85 62.35 107.35 58.95 111.2 56.4 116.9 L55.65 118.6" fill="#d7cfcf" fill-rule="evenodd" stroke="none"/>
      <path d="M55.65 118.6 L56.4 116.9 Q58.95 111.2 62.35 107.35 66.6 110.85 75.2 120.2 L87.15 132.9 95.85 119.25 100.3 111.8 102.0 112.75 104.0 113.85 Q113.0 118.9 114.5 118.9 116.0 118.9 120.95 112.45 L129.35 101.75 130.5 102.9 Q136.85 109.3 140.45 116.9 136.85 119.75 130.4 125.3 131.7 126.55 139.75 131.2 L144.8 134.2 145.05 137.8 Q145.05 147.1 141.95 155.15 138.8 163.75 132.1 170.95 130.95 171.4 124.9 173.95 L119.9 175.55 Q113.35 177.1 101.7 178.7 L101.45 178.7 Q84.1 181.15 69.05 168.4 54.1 155.6 52.4 138.65 62.9 131.45 65.55 125.9 64.25 124.65 55.65 118.6" fill="#ffffff" fill-rule="evenodd" stroke="none"/>
      <path d="M153.1 161.3 Q142.9 167.45 132.1 170.95 138.8 163.75 141.95 155.15 145.05 147.1 145.05 137.8 L144.8 134.2 139.75 131.2 Q131.7 126.55 130.4 125.3 136.85 119.75 140.45 116.9 136.85 109.3 130.5 102.9 L129.35 101.75 130.4 100.5 Q135.9 104.3 137.7 104.3 138.65 104.3 141.3 99.1 L143.65 95.05 Q150.75 106.65 153.5 115.65 157.1 127.3 157.1 143.4 157.1 147.2 156.5 150.95 155.55 156.35 153.1 161.3 M52.4 138.65 L52.2 134.2 Q52.2 126.75 55.65 118.6 64.25 124.65 65.55 125.9 62.9 131.45 52.4 138.65" fill="#ee7b3d" fill-rule="evenodd" stroke="none"/>
      <path d="M39.25 27.65 Q25.05 50.55 14.45 78.65 0.0 116.7 0.0 138.65 0.0 144.15 1.3 149.15 M54.85 190.7 Q70.4 194.7 87.45 194.7 97.1 194.7 105.9 193.0 L107.4 192.7 M132.1 170.95 L130.5 172.65 Q120.1 182.95 106.65 185.9 L102.85 186.65 95.4 187.2 Q74.85 187.2 60.35 172.65 47.6 160.05 45.9 142.9 L49.0 140.95 52.4 138.65 Q62.9 131.45 65.55 125.9 64.25 124.65 55.65 118.6 L55.55 118.5 51.0 115.3 Q54.5 108.65 60.35 102.9 74.85 88.4 95.4 88.4 L102.95 89.05 Q118.0 91.15 129.35 101.75 L130.5 102.9 Q136.85 109.3 140.45 116.9 136.85 119.75 130.4 125.3 131.7 126.55 139.75 131.2 L144.8 134.2 145.05 137.8 Q145.05 147.1 141.95 155.15 138.8 163.75 132.1 170.95 M143.65 95.05 L143.1 94.1 Q139.0 87.45 117.05 40.6 L112.05 29.9 M39.25 27.65 Q48.45 12.7 59.15 0.0 M143.65 95.05 Q150.75 106.65 153.5 115.65 157.1 127.3 157.1 143.4 157.1 147.2 156.5 150.95" fill="none" stroke="#61280a" stroke-linecap="round" stroke-linejoin="round" stroke-width="1.5"/>
      <path d="M1.3 149.15 Q6.4 169.4 31.8 182.0 42.95 187.5 54.85 190.7 M107.4 192.7 Q122.9 189.4 135.5 180.7 147.8 172.25 153.1 161.3 155.55 156.35 156.5 150.95" fill="none" stroke="#61280a" stroke-linecap="round" stroke-linejoin="round" stroke-opacity="0.0" stroke-width="1.5"/>
    </g>
    <g id="sprite5" transform="matrix(1.0, 0.0, 0.0, 1.0, 0.75, 0.75)">
      <use data-characterId="11" height="177.75" transform="matrix(1.0, 0.0, 0.0, 1.0, -0.75, -0.75)" width="135.6" xlink:href="#shape5"/>
    </g>
    <g id="shape5" transform="matrix(1.0, 0.0, 0.0, 1.0, 0.75, 0.75)">
      <path d="M113.65 0.85 Q120.95 4.75 125.95 10.8 134.85 21.6 134.85 34.95 134.85 45.05 133.05 55.75 132.4 60.1 131.35 64.45 L128.25 76.95 128.15 77.15 Q126.9 77.9 123.4 80.65 120.2 70.6 110.65 61.35 106.0 56.6 99.65 52.15 78.0 36.55 56.0 36.45 L59.6 32.65 Q63.95 28.2 69.1 24.55 80.05 17.05 113.65 0.85" fill="#a65435" fill-rule="evenodd" stroke="none"/>
      <path d="M50.9 36.65 Q64.25 38.15 75.05 42.4 89.25 48.0 105.9 62.4 L105.5 62.85 Q104.3 63.9 104.3 65.5 104.3 66.95 105.6 68.65 106.65 70.25 107.9 70.6 L108.45 70.6 Q110.05 70.6 111.3 69.3 117.9 75.9 121.8 82.25 123.6 85.1 125.0 88.3 L125.0 89.0 125.3 96.25 Q124.05 97.3 121.8 97.3 120.85 97.3 116.4 89.35 111.4 80.75 106.55 74.6 L104.3 71.85 Q82.35 46.4 46.75 46.4 L40.9 46.85 29.6 47.7 Q24.7 47.7 22.9 46.4 21.4 45.45 21.1 42.9 28.95 39.0 44.1 37.2 L50.8 36.65 50.9 36.65 M66.15 111.7 L65.85 110.75 65.3 110.35 Q64.9 109.9 64.25 106.4 63.6 102.8 63.95 99.85 64.25 96.85 68.15 88.7 L69.45 86.15 Q71.9 81.8 74.1 80.0 77.4 81.9 79.85 83.85 82.7 86.15 82.7 87.1 L81.4 89.25 Q69.95 108.0 66.9 111.8 L66.15 112.55 66.15 111.7 M5.75 106.2 Q5.75 97.8 7.3 89.85 L8.05 86.7 Q9.0 86.15 10.2 85.75 L15.9 83.3 16.55 83.3 14.95 87.95 Q13.15 93.8 11.75 101.65 10.2 110.95 10.2 115.75 8.9 114.35 6.15 107.35 L5.75 106.2 M28.0 85.85 Q28.3 84.65 28.75 83.5 30.0 79.15 31.15 76.95 38.5 77.15 43.25 82.65 42.6 83.3 41.65 84.8 39.1 88.6 34.45 97.9 28.0 110.65 28.0 112.55 L27.35 111.9 26.7 105.45 26.1 99.5 Q26.1 92.95 28.0 85.85" fill="#ffcf74" fill-rule="evenodd" stroke="none"/>
      <path d="M56.0 36.45 Q78.0 36.55 99.65 52.15 106.0 56.6 110.65 61.35 120.2 70.6 123.4 80.65 124.65 84.45 125.0 88.3 123.6 85.1 121.8 82.25 117.9 75.9 111.3 69.3 110.05 70.6 108.45 70.6 L107.9 70.6 Q106.65 70.25 105.6 68.65 104.3 66.95 104.3 65.5 104.3 63.9 105.5 62.85 L105.9 62.4 Q89.25 48.0 75.05 42.4 64.25 38.15 50.9 36.65 L56.0 36.45" fill="#ffe9a1" fill-rule="evenodd" stroke="none"/>
      <path d="M66.9 111.8 Q69.95 108.0 81.4 89.25 L82.7 87.1 Q82.7 86.15 79.85 83.85 77.4 81.9 74.1 80.0 71.9 81.8 69.45 86.15 L68.15 88.7 Q64.25 96.85 63.95 99.85 63.6 102.8 64.25 106.4 64.9 109.9 65.3 110.35 L65.85 110.75 66.15 111.7 Q50.25 109.9 50.25 95.05 50.25 89.55 53.85 84.65 L56.0 82.0 Q62.0 75.65 69.95 75.65 73.8 75.65 77.05 76.5 80.9 78.65 83.65 81.3 88.85 86.25 89.05 92.4 L89.05 92.85 Q89.05 102.9 84.6 107.45 80.25 111.9 70.9 111.9 L66.9 111.8" fill="#b13e13" fill-rule="evenodd" stroke="none"/>
      <path d="M66.9 111.8 L70.9 111.9 Q80.25 111.9 84.6 107.45 89.05 102.9 89.05 92.85 L89.05 92.4 Q88.85 86.25 83.65 81.3 80.9 78.65 77.05 76.5 73.8 75.65 69.95 75.65 62.0 75.65 56.0 82.0 L53.85 84.65 Q50.25 89.55 50.25 95.05 50.25 109.9 66.15 111.7 L66.15 112.55 66.9 111.8 M92.1 81.3 Q100.8 89.45 102.5 101.4 103.05 104.5 103.05 107.8 103.05 112.55 96.05 119.85 92.1 124.0 89.05 126.25 84.8 119.85 77.4 117.55 71.9 115.75 62.0 115.75 51.0 115.75 44.95 120.8 43.25 119.95 42.3 119.75 L36.25 119.55 29.7 120.4 Q25.85 116.7 23.95 109.9 22.25 103.55 22.25 93.45 22.25 89.65 22.7 86.5 24.05 74.9 30.55 71.2 36.05 68.05 56.0 68.05 L65.5 68.75 Q78.0 70.6 87.8 77.55 L92.1 81.3 M28.0 85.85 Q26.1 92.95 26.1 99.5 L26.7 105.45 27.35 111.9 28.0 112.55 Q28.0 110.65 34.45 97.9 39.1 88.6 41.65 84.8 42.6 83.3 43.25 82.65 38.5 77.15 31.15 76.95 30.0 79.15 28.75 83.5 28.3 84.65 28.0 85.85 M86.5 128.45 L86.5 127.8 87.15 127.5 86.5 128.45" fill="#872d12" fill-rule="evenodd" stroke="none"/>
      <path d="M92.1 81.3 L87.8 77.55 Q78.0 70.6 65.5 68.75 L56.0 68.05 Q36.05 68.05 30.55 71.2 24.05 74.9 22.7 86.5 22.25 89.65 22.25 93.45 22.25 103.55 23.95 109.9 25.85 116.7 29.7 120.4 L36.25 119.55 42.3 119.75 Q43.25 119.95 44.95 120.8 51.0 115.75 62.0 115.75 71.9 115.75 77.4 117.55 84.8 119.85 89.05 126.25 92.1 124.0 96.05 119.85 103.05 112.55 103.05 107.8 103.05 104.5 102.5 101.4 100.8 89.45 92.1 81.3 M12.3 74.5 L13.05 73.0 Q17.2 64.0 23.55 59.65 29.25 55.95 34.35 55.95 L49.4 56.6 Q87.05 59.85 101.25 80.2 109.0 91.45 109.7 107.8 L109.6 108.3 Q109.1 113.8 107.05 117.55 106.35 118.8 105.8 120.1 102.4 127.4 101.75 134.2 L101.15 142.15 100.6 148.5 100.5 150.1 Q100.05 153.25 95.75 158.25 L94.15 159.95 94.15 158.15 Q94.15 153.45 92.35 147.75 L91.25 144.35 Q88.5 137.05 84.5 132.25 L82.5 130.8 Q73.45 124.65 61.4 124.65 52.9 124.65 49.6 128.45 46.85 131.85 46.55 139.8 43.25 135.0 38.6 131.95 31.5 127.2 22.25 127.2 15.4 127.2 13.35 129.7 12.1 131.3 11.55 135.0 9.95 130.9 8.7 126.85 7.45 122.75 6.7 118.5 5.75 112.45 5.75 106.2 L6.15 107.35 Q8.9 114.35 10.2 115.75 10.2 110.95 11.75 101.65 13.15 93.8 14.95 87.95 L16.55 83.3 15.9 83.3 10.2 85.75 Q9.0 86.15 8.05 86.7 9.65 80.45 12.3 74.5 M86.5 128.45 L87.15 127.5 86.5 127.8 86.5 128.45" fill="#58160e" fill-rule="evenodd" stroke="none"/>
      <path d="M21.1 42.9 Q21.4 45.45 22.9 46.4 24.7 47.7 29.6 47.7 L40.9 46.85 46.75 46.4 Q82.35 46.4 104.3 71.85 L106.55 74.6 Q111.4 80.75 116.4 89.35 120.85 97.3 121.8 97.3 124.05 97.3 125.3 96.25 125.3 110.0 120.75 115.3 119.05 117.2 117.05 118.5 112.35 121.35 105.8 120.1 106.35 118.8 107.05 117.55 109.1 113.8 109.6 108.3 L109.7 107.8 Q109.0 91.45 101.25 80.2 87.05 59.85 49.4 56.6 L34.35 55.95 Q29.25 55.95 23.55 59.65 17.2 64.0 13.05 73.0 L12.3 74.5 Q11.15 73.1 10.4 71.4 8.9 68.05 8.9 63.25 8.9 51.7 17.6 45.05 19.1 43.85 21.1 42.9" fill="#deb270" fill-rule="evenodd" stroke="none"/>
      <path d="M55.15 143.95 Q56.7 149.85 62.95 156.55 71.35 165.45 78.85 165.45 89.7 165.45 89.7 156.2 89.7 155.4 87.9 151.25 L85.95 147.1 Q84.4 143.95 82.5 141.15 78.65 135.35 74.2 131.85 L74.1 131.85 Q69.55 130.35 66.15 130.35 61.3 130.35 57.9 133.55 54.7 136.6 54.7 140.2 54.7 142.0 55.15 143.95 M6.7 118.5 Q7.45 122.75 8.7 126.85 9.95 130.9 11.55 135.0 12.1 131.3 13.35 129.7 15.4 127.2 22.25 127.2 31.5 127.2 38.6 131.95 43.25 135.0 46.55 139.8 46.85 131.85 49.6 128.45 52.9 124.65 61.4 124.65 73.45 124.65 82.5 130.8 L84.5 132.25 Q88.5 137.05 91.25 144.35 L92.35 147.75 Q94.15 153.45 94.15 158.15 L94.15 159.95 Q93.5 167.35 87.8 171.8 82.15 176.25 74.4 176.25 67.55 176.25 61.7 172.25 L59.45 174.45 Q57.05 176.25 51.5 176.25 37.65 176.25 25.45 166.8 L22.8 164.6 Q13.8 162.8 7.1 152.2 1.6 143.5 0.35 135.25 0.0 132.8 0.0 130.35 0.0 125.5 1.9 122.1 3.6 119.0 6.7 118.5 M46.55 139.8 L46.45 142.15 46.45 142.85 Q46.65 153.8 54.05 164.15 57.55 169.15 61.7 172.25 57.55 169.15 54.05 164.15 46.65 153.8 46.45 142.85 L46.45 142.15 46.55 139.8 M11.55 135.0 L11.45 137.55 11.45 139.6 Q11.45 154.3 22.8 164.6 11.45 154.3 11.45 139.6 L11.45 137.55 11.55 135.0 M20.35 139.15 L20.35 139.9 Q20.35 146.25 25.45 152.6 31.3 159.7 38.8 159.7 42.75 159.7 43.9 157.8 44.55 156.85 44.55 154.2 44.55 150.8 40.2 143.1 L39.45 141.9 Q36.6 137.25 33.5 134.5 L27.35 134.2 Q23.0 134.2 21.65 135.45 20.45 136.5 20.35 139.15" fill="#d7cfcf" fill-rule="evenodd" stroke="none"/>
      <path d="M55.15 143.95 Q54.7 142.0 54.7 140.2 54.7 136.6 57.9 133.55 61.3 130.35 66.15 130.35 69.55 130.35 74.1 131.85 L74.2 131.85 Q78.65 135.35 82.5 141.15 84.4 143.95 85.95 147.1 L87.9 151.25 Q89.7 155.4 89.7 156.2 89.7 165.45 78.85 165.45 71.35 165.45 62.95 156.55 56.7 149.85 55.15 143.95 M20.35 139.15 Q20.45 136.5 21.65 135.45 23.0 134.2 27.35 134.2 L33.5 134.5 Q36.6 137.25 39.45 141.9 L40.2 143.1 Q44.55 150.8 44.55 154.2 44.55 156.85 43.9 157.8 42.75 159.7 38.8 159.7 31.3 159.7 25.45 152.6 20.35 146.25 20.35 139.9 L20.35 139.15" fill="#ffffff" fill-rule="evenodd" stroke="none"/>
      <path d="M113.65 0.85 Q80.05 17.05 69.1 24.55 63.95 28.2 59.6 32.65 L56.0 36.45 Q78.0 36.55 99.65 52.15 106.0 56.6 110.65 61.35 120.2 70.6 123.4 80.65 126.9 77.9 128.15 77.15 L128.25 76.95 M113.65 0.85 L115.1 0.0 118.3 0.0 M50.9 36.65 L50.8 36.65 44.1 37.2 Q28.95 39.0 21.1 42.9 19.1 43.85 17.6 45.05 8.9 51.7 8.9 63.25 8.9 68.05 10.4 71.4 11.15 73.1 12.3 74.5 L13.05 73.0 Q17.2 64.0 23.55 59.65 29.25 55.95 34.35 55.95 L49.4 56.6 Q87.05 59.85 101.25 80.2 109.0 91.45 109.7 107.8 L109.6 108.3 Q109.1 113.8 107.05 117.55 106.35 118.8 105.8 120.1 112.35 121.35 117.05 118.5 119.05 117.2 120.75 115.3 125.3 110.0 125.3 96.25 L125.0 89.0 125.0 88.3 Q124.65 84.45 123.4 80.65 M66.15 111.7 L65.85 110.75 65.3 110.35 Q64.9 109.9 64.25 106.4 63.6 102.8 63.95 99.85 64.25 96.85 68.15 88.7 L69.45 86.15 Q71.9 81.8 74.1 80.0 77.4 81.9 79.85 83.85 82.7 86.15 82.7 87.1 L81.4 89.25 Q69.95 108.0 66.9 111.8 L66.15 112.55 66.15 111.7 M56.0 36.45 L50.9 36.65 M8.05 86.7 L7.3 89.85 Q5.75 97.8 5.75 106.2 L6.15 107.35 Q8.9 114.35 10.2 115.75 10.2 110.95 11.75 101.65 13.15 93.8 14.95 87.95 L16.55 83.3 15.9 83.3 10.2 85.75 Q9.0 86.15 8.05 86.7 9.65 80.45 12.3 74.5 M28.0 85.85 Q26.1 92.95 26.1 99.5 L26.7 105.45 27.35 111.9 28.0 112.55 Q28.0 110.65 34.45 97.9 39.1 88.6 41.65 84.8 42.6 83.3 43.25 82.65 38.5 77.15 31.15 76.95 30.0 79.15 28.75 83.5 28.3 84.65 28.0 85.85 M6.7 118.5 Q7.45 122.75 8.7 126.85 9.95 130.9 11.55 135.0 12.1 131.3 13.35 129.7 15.4 127.2 22.25 127.2 31.5 127.2 38.6 131.95 43.25 135.0 46.55 139.8 46.85 131.85 49.6 128.45 52.9 124.65 61.4 124.65 73.45 124.65 82.5 130.8 L84.5 132.25 Q88.5 137.05 91.25 144.35 L92.35 147.75 Q94.15 153.45 94.15 158.15 L94.15 159.95 95.75 158.25 Q100.05 153.25 100.5 150.1 L100.6 148.5 101.15 142.15 101.75 134.2 Q102.4 127.4 105.8 120.1 M61.7 172.25 Q57.55 169.15 54.05 164.15 46.65 153.8 46.45 142.85 L46.45 142.15 46.55 139.8 M6.7 118.5 Q3.6 119.0 1.9 122.1 0.0 125.5 0.0 130.35 0.0 132.8 0.35 135.25 1.6 143.5 7.1 152.2 13.8 162.8 22.8 164.6 11.45 154.3 11.45 139.6 L11.45 137.55 11.55 135.0 M5.75 106.2 Q5.75 112.45 6.7 118.5 M22.8 164.6 L25.45 166.8 Q37.65 176.25 51.5 176.25 57.05 176.25 59.45 174.45 L61.7 172.25 Q67.55 176.25 74.4 176.25 82.15 176.25 87.8 171.8 93.5 167.35 94.15 159.95" fill="none" stroke="#61280a" stroke-linecap="round" stroke-linejoin="round" stroke-width="1.5"/>
    </g>
    <g id="sprite6" transform="matrix(1.0, 0.0, 0.0, 1.0, 0.75, 0.75)">
      <use data-characterId="13" height="151.9" transform="matrix(1.0, 0.0, 0.0, 1.0, -0.75, -0.75)" width="208.2" xlink:href="#shape6"/>
    </g>
    <g id="shape6" transform="matrix(1.0, 0.0, 0.0, 1.0, 0.75, 0.75)">
      <path d="M80.75 132.15 L78.85 132.6 Q78.0 130.05 77.15 122.4 L76.3 115.3 76.0 113.3 74.75 113.5 67.85 115.0 47.05 119.25 Q46.1 119.25 45.7 118.9 L45.15 118.6 45.15 114.8 Q46.4 109.7 49.3 99.3 L50.25 95.9 Q46.4 94.2 40.05 91.45 22.7 84.45 14.0 82.35 14.4 80.0 20.9 72.9 L23.55 70.15 16.55 64.55 Q9.95 58.95 4.85 53.1 0.0 47.6 0.0 46.1 0.0 43.25 10.8 40.4 20.75 37.75 33.4 37.4 33.05 32.45 33.05 29.25 33.05 26.5 33.3 23.95 L33.6 23.85 Q41.75 22.55 49.9 22.55 L59.8 23.2 61.8 23.4 64.65 14.95 Q72.9 15.8 85.45 17.8 99.75 20.0 108.2 21.95 L115.3 13.35 Q123.8 3.4 128.05 0.0 133.25 2.95 140.35 8.15 147.95 13.65 153.05 17.9 L161.95 16.0 173.1 13.35 174.15 32.3 Q181.7 35.3 189.85 40.05 206.7 49.8 206.7 57.85 206.7 59.15 200.1 64.45 L196.65 67.3 Q200.35 71.2 202.9 74.7 202.35 74.7 201.7 75.35 L189.5 73.75 189.0 73.75 174.9 72.05 Q173.75 74.95 172.8 79.3 L171.5 85.85 168.1 85.75 159.75 85.65 151.15 91.45 Q146.3 95.7 134.1 98.9 123.8 101.65 112.9 102.7 107.7 102.7 90.95 99.2 L79.8 96.85 74.75 104.6 71.0 110.25 72.7 109.9 73.45 109.7 84.9 108.0 83.3 118.05 82.9 121.05 80.75 132.15 M150.0 139.8 L148.8 140.85 135.8 135.15 131.65 133.45 132.9 126.85 141.6 133.45 143.75 134.95 Q147.45 137.7 150.0 139.8 M108.55 150.4 L108.1 150.4 100.9 138.2 Q94.65 128.15 93.8 128.15 L92.95 128.45 Q93.8 127.3 94.85 126.45 L98.25 124.1 101.75 121.8 Q103.55 127.4 105.9 137.35 L106.55 140.45 108.55 150.4 M33.7 79.8 Q34.15 81.3 37.1 81.6 L41.65 81.7 42.1 81.7 44.5 81.4 47.7 81.1 47.7 79.15 43.05 75.15 40.05 76.65 Q39.3 76.95 38.6 77.35 L33.05 79.8 33.7 79.8" fill="#58160e" fill-rule="evenodd" stroke="none"/>
      <path d="M80.75 132.15 L82.9 121.05 83.3 118.05 84.9 108.0 73.45 109.7 72.7 109.9 71.0 110.25 74.75 104.6 79.8 96.85 90.95 99.2 Q107.7 102.7 112.9 102.7 123.8 101.65 134.1 98.9 146.3 95.7 151.15 91.45 L159.75 85.65 168.1 85.75 171.5 85.85 172.8 79.3 Q173.75 74.95 174.9 72.05 L189.0 73.75 189.5 73.75 201.7 75.35 201.6 75.35 193.45 75.9 190.25 76.2 180.6 77.25 181.25 77.25 Q181.25 78.85 183.5 89.05 185.7 99.2 185.7 101.45 L185.4 103.75 185.05 105.25 174.9 103.85 Q173.4 120.0 172.8 123.05 171.7 128.15 168.2 128.15 165.45 128.15 160.5 126.75 L153.7 124.65 Q153.9 126.55 152.85 131.65 151.8 136.75 151.35 137.9 L150.0 139.8 Q147.45 137.7 143.75 134.95 L141.6 133.45 132.9 126.85 131.65 133.45 131.55 133.45 126.65 139.15 124.35 141.5 Q115.75 150.1 108.55 150.4 L106.55 140.45 105.9 137.35 Q103.55 127.4 101.75 121.8 L98.25 124.1 94.85 126.45 Q93.8 127.3 92.95 128.45 L80.75 132.15 M168.85 114.35 Q169.6 110.1 169.8 106.75 L169.8 104.6 167.6 101.1 Q163.45 95.05 161.2 95.05 160.7 95.05 159.0 97.0 157.1 99.2 157.1 101.1 L159.85 108.45 160.7 110.55 Q164.7 119.9 167.25 121.15 167.25 120.85 167.6 120.6 L167.9 120.5 Q167.9 119.75 168.85 114.35 M33.7 79.8 L33.05 79.8 38.6 77.35 Q39.3 76.95 40.05 76.65 L43.05 75.15 47.7 79.15 47.7 81.1 44.5 81.4 42.1 81.7 41.65 81.7 37.1 81.6 Q34.15 81.3 33.7 79.8 M126.05 116.25 L126.05 112.35 Q122.2 111.3 121.45 110.35 L117.65 110.35 117.35 114.15 116.9 118.6 116.7 121.45 115.75 130.7 115.75 131.95 Q118.7 129.95 120.1 129.1 122.45 127.5 123.7 125.8 125.5 123.15 125.9 117.95 L126.05 116.25 M150.4 107.7 L150.1 106.3 148.2 105.9 Q140.55 105.9 140.55 109.7 140.55 110.55 142.55 115.95 L143.4 118.2 145.0 121.8 148.2 117.45 149.15 115.95 Q150.75 113.3 150.75 111.6 L150.4 107.7" fill="#872d12" fill-rule="evenodd" stroke="none"/>
      <path d="M168.85 114.35 Q167.9 119.75 167.9 120.5 L167.6 120.6 Q167.25 120.85 167.25 121.15 164.7 119.9 160.7 110.55 L159.85 108.45 157.1 101.1 Q157.1 99.2 159.0 97.0 160.7 95.05 161.2 95.05 163.45 95.05 167.6 101.1 L169.8 104.6 169.8 106.75 Q169.6 110.1 168.85 114.35 M150.4 107.7 L150.75 111.6 Q150.75 113.3 149.15 115.95 L148.2 117.45 145.0 121.8 143.4 118.2 142.55 115.95 Q140.55 110.55 140.55 109.7 140.55 105.9 148.2 105.9 L150.1 106.3 150.4 107.7 M126.05 116.25 L125.9 117.95 Q125.5 123.15 123.7 125.8 122.45 127.5 120.1 129.1 118.7 129.95 115.75 131.95 L115.75 130.7 116.7 121.45 116.9 118.6 117.35 114.15 117.65 110.35 121.45 110.35 Q122.2 111.3 126.05 112.35 L126.05 116.25" fill="#b13e13" fill-rule="evenodd" stroke="none"/>
      <path d="M201.7 75.35 Q202.35 74.7 202.9 74.7 200.35 71.2 196.65 67.3 L200.1 64.45 Q206.7 59.15 206.7 57.85 206.7 49.8 189.85 40.05 181.7 35.3 174.15 32.3 L173.1 13.35 161.95 16.0 153.05 17.9 Q147.95 13.65 140.35 8.15 133.25 2.95 128.05 0.0 123.8 3.4 115.3 13.35 L108.2 21.95 Q99.75 20.0 85.45 17.8 72.9 15.8 64.65 14.95 L61.8 23.4 59.8 23.2 49.9 22.55 Q41.75 22.55 33.6 23.85 L33.3 23.95 Q33.05 26.5 33.05 29.25 33.05 32.45 33.4 37.4 20.75 37.75 10.8 40.4 0.0 43.25 0.0 46.1 0.0 47.6 4.85 53.1 9.95 58.95 16.55 64.55 L23.55 70.15 20.9 72.9 Q14.4 80.0 14.0 82.35 22.7 84.45 40.05 91.45 46.4 94.2 50.25 95.9 L49.3 99.3 Q46.4 109.7 45.15 114.8 L45.15 118.6 45.7 118.9 Q46.1 119.25 47.05 119.25 L67.85 115.0 74.75 113.5 76.0 113.3 76.3 115.3 77.15 122.4 Q78.0 130.05 78.85 132.6 L80.75 132.15 92.95 128.45 93.8 128.15 Q94.65 128.15 100.9 138.2 L108.1 150.4 108.55 150.4 Q115.75 150.1 124.35 141.5 L126.65 139.15 131.55 133.45 131.65 133.45 135.8 135.15 148.8 140.85 150.0 139.8 151.35 137.9 Q151.8 136.75 152.85 131.65 153.9 126.55 153.7 124.65 L160.5 126.75 Q165.45 128.15 168.2 128.15 171.7 128.15 172.8 123.05 173.4 120.0 174.9 103.85 L185.05 105.25 185.4 103.75 185.7 101.45 Q185.7 99.2 183.5 89.05 181.25 78.85 181.25 77.25 L180.6 77.25 190.25 76.2 193.45 75.9 201.6 75.35 201.7 75.35 Z" fill="none" stroke="#331403" stroke-linecap="round" stroke-linejoin="round" stroke-width="1.5"/>
    </g>
    <g id="sprite7" transform="matrix(1.0, 0.0, 0.0, 1.0, 0.75, 0.75)">
      <use data-characterId="15" height="228.65" transform="matrix(1.0, 0.0, 0.0, 1.0, -0.75, -0.75)" width="318.95" xlink:href="#shape7"/>
    </g>
    <g id="shape7" transform="matrix(1.0, 0.0, 0.0, 1.0, 0.75, 0.75)">
      <path d="M294.35 42.5 Q295.0 41.15 295.0 37.0 295.0 29.05 289.5 22.7 283.15 15.05 272.75 15.05 269.35 15.05 266.9 17.2 264.15 19.5 264.15 23.35 L264.35 26.0 264.6 26.6 264.6 27.15 Q269.9 29.5 277.0 35.3 287.8 45.25 288.55 45.25 290.75 45.25 292.05 44.65 293.65 44.0 294.35 42.5 M273.15 84.4 Q274.65 84.05 276.15 83.2 L278.05 82.05 Q281.75 79.1 282.7 73.05 283.75 65.75 279.75 58.0 275.8 50.35 269.15 46.95 265.35 44.95 261.95 45.05 260.45 45.05 259.2 45.6 258.2 45.8 257.25 46.35 251.95 49.0 250.7 55.85 L250.7 56.4 Q249.75 63.1 252.8 69.85 L253.55 71.45 Q257.6 79.1 264.15 82.6 268.95 85.15 273.15 84.4 M220.4 30.45 Q234.8 45.7 242.3 49.4 242.3 49.0 242.65 48.75 L242.95 48.75 Q242.1 46.55 243.7 40.3 245.4 33.3 248.9 26.95 L249.3 26.3 Q257.9 11.05 271.35 8.15 286.85 10.3 300.5 24.2 314.6 38.3 317.05 62.85 L317.35 66.9 Q313.15 79.4 304.0 87.65 296.3 94.65 286.2 97.4 L285.55 97.65 Q277.1 99.75 269.05 98.7 269.05 100.5 270.2 106.2 L270.95 109.6 271.45 113.0 271.7 115.0 272.1 123.1 Q272.65 155.2 257.05 180.1 251.55 189.1 243.7 197.3 L241.15 199.8 Q237.25 203.75 232.8 207.15 L231.7 207.9 231.6 207.65 Q230.65 198.35 226.1 190.4 L229.6 190.6 231.0 190.5 Q242.1 189.65 251.25 176.2 L252.1 174.7 Q260.15 162.1 260.15 149.05 260.15 139.0 253.25 125.2 L249.1 117.9 Q250.5 113.3 250.5 109.7 L250.5 108.0 250.7 107.4 250.4 107.3 Q250.4 102.0 249.75 97.0 248.35 83.75 243.9 71.45 241.9 65.95 239.25 60.65 228.25 38.05 209.7 30.45 208.85 30.0 207.75 29.7 L206.3 24.7 205.75 23.35 212.35 26.1 Q216.45 28.1 220.4 30.45 M306.65 62.75 Q306.65 57.35 303.5 53.35 L301.8 51.4 Q297.65 51.4 295.2 53.55 L295.0 53.55 Q292.25 55.85 292.25 60.0 292.25 64.65 295.0 67.2 296.5 68.6 298.2 69.1 L300.2 69.25 Q303.4 69.25 305.3 66.6 306.65 64.45 306.65 62.75 M122.45 59.6 Q118.6 64.45 115.85 71.9 110.8 85.45 110.8 97.0 110.8 100.2 111.1 103.15 110.35 103.55 109.7 104.1 L111.4 106.1 111.95 109.0 Q106.85 112.9 102.7 117.9 99.45 121.7 96.8 126.35 94.65 129.95 93.2 133.7 89.45 142.9 89.45 152.85 89.45 169.8 101.75 182.35 113.75 194.5 130.5 195.35 128.5 200.15 127.65 205.55 117.15 199.8 108.0 192.0 74.75 163.15 72.5 119.6 L72.4 113.45 72.4 112.35 71.35 112.5 62.65 113.1 58.75 113.1 Q40.1 113.1 28.2 104.75 22.9 100.9 19.6 96.35 22.6 95.1 25.25 90.55 L27.45 86.0 Q31.9 75.25 31.9 65.85 31.9 53.85 23.55 46.65 L22.35 45.7 Q17.8 42.1 12.5 40.95 14.95 34.8 15.9 32.85 19.4 25.35 24.3 19.6 L24.8 19.0 Q30.45 12.3 39.85 5.95 48.65 1.5 56.6 0.45 L62.75 0.0 Q81.1 0.65 94.75 12.3 108.55 23.85 104.4 31.3 L103.15 32.0 99.95 33.95 103.15 32.0 104.4 31.3 Q113.65 25.9 123.7 22.4 L123.2 27.25 Q121.8 39.35 121.8 44.2 L121.8 47.2 Q121.9 53.55 122.45 59.6 M150.85 149.6 Q163.8 154.65 177.9 156.25 L191.55 157.0 Q199.4 157.0 206.2 155.7 205.85 159.45 205.85 163.55 205.85 166.45 206.4 169.1 L206.7 170.9 Q194.6 163.9 179.45 163.9 L179.15 163.9 Q163.9 163.9 151.8 171.2 L151.9 165.9 Q151.9 157.65 150.85 149.6 M92.95 19.95 L90.0 16.35 Q87.8 14.1 84.7 12.3 76.45 7.55 67.95 7.55 63.95 7.55 60.75 8.9 56.6 10.6 56.6 13.8 56.6 16.55 58.0 19.1 60.65 24.3 68.9 28.1 73.45 30.2 76.85 31.3 80.25 32.25 82.7 32.25 88.6 32.25 90.95 30.85 93.6 29.15 93.6 24.4 93.6 21.0 92.95 19.95 M42.2 11.8 L41.15 12.65 Q38.15 15.5 38.15 19.6 38.15 21.95 39.55 24.05 L39.95 24.7 Q41.75 26.85 44.65 26.85 47.4 26.85 49.7 24.7 51.5 23.35 52.15 21.1 52.6 20.15 52.6 18.9 52.6 16.75 51.2 14.45 49.1 11.05 45.25 11.05 44.0 11.05 42.2 11.8 M59.8 86.4 Q63.3 86.7 67.2 85.15 71.9 83.2 75.5 79.3 L78.55 75.25 78.85 74.65 Q83.45 67.0 82.6 59.35 81.75 51.55 76.0 48.15 70.3 44.75 62.95 47.6 L62.35 47.9 Q60.85 48.55 59.6 49.4 54.7 52.5 51.2 58.1 L50.35 59.6 Q46.85 66.35 47.7 73.55 48.45 81.2 54.15 84.6 56.8 86.2 59.8 86.4" fill="#ee7b3d" fill-rule="evenodd" stroke="none"/>
      <path d="M294.35 42.5 Q293.65 44.0 292.05 44.65 290.75 45.25 288.55 45.25 287.8 45.25 277.0 35.3 269.9 29.5 264.6 27.15 L264.6 26.6 264.35 26.0 264.15 23.35 Q264.15 19.5 266.9 17.2 269.35 15.05 272.75 15.05 283.15 15.05 289.5 22.7 295.0 29.05 295.0 37.0 295.0 41.15 294.35 42.5 M306.65 62.75 Q306.65 64.45 305.3 66.6 303.4 69.25 300.2 69.25 L298.2 69.1 Q296.5 68.6 295.0 67.2 292.25 64.65 292.25 60.0 292.25 55.85 295.0 53.55 L295.2 53.55 Q297.65 51.4 301.8 51.4 L303.5 53.35 Q306.65 57.35 306.65 62.75" fill="#ffac5b" fill-rule="evenodd" stroke="none"/>
      <path d="M233.55 40.1 Q229.2 30.2 241.8 18.25 L243.3 16.85 Q255.35 6.35 270.5 8.15 L271.35 8.15 Q257.9 11.05 249.3 26.3 L248.9 26.95 Q245.4 33.3 243.7 40.3 242.1 46.55 242.95 48.75 L242.65 48.75 Q242.3 49.0 242.3 49.4 234.8 45.7 220.4 30.45 227.4 34.65 233.55 40.1 L236.5 42.75 233.55 40.1 M271.7 115.0 L271.45 113.0 270.95 109.6 270.2 106.2 Q269.05 100.5 269.05 98.7 277.1 99.75 285.55 97.65 L286.2 97.4 Q296.3 94.65 304.0 87.65 313.15 79.4 317.35 66.9 318.45 88.5 306.45 101.15 298.95 109.1 292.25 112.25 287.5 114.6 283.05 114.3 274.95 113.75 272.55 114.3 L271.7 114.5 271.7 115.0 M215.5 85.65 L217.65 82.15 Q216.65 90.75 214.55 97.55 212.75 103.25 210.0 107.6 205.95 114.15 199.7 118.1 191.15 123.4 178.0 123.4 L174.05 123.3 Q147.55 121.7 134.1 99.45 124.65 83.65 122.45 59.6 121.9 53.55 121.8 47.2 L121.8 44.2 Q121.8 39.35 123.2 27.25 L123.7 22.4 130.4 20.25 Q129.2 36.5 129.0 53.0 L129.0 53.35 129.0 62.25 Q129.2 83.45 142.25 97.95 155.5 112.6 166.45 115.95 170.65 117.25 174.9 117.65 181.7 118.2 188.5 116.6 192.2 115.75 195.7 114.05 202.35 110.8 207.85 104.55 210.3 101.55 212.1 97.75 214.55 92.55 215.5 85.65 M270.2 106.2 Q271.25 109.6 271.6 113.1 L271.7 114.5 271.6 113.1 Q271.25 109.6 270.2 106.2 M39.85 5.95 Q30.45 12.3 24.8 19.0 L24.3 19.6 Q19.4 25.35 15.9 32.85 14.95 34.8 12.5 40.95 17.8 42.1 22.35 45.7 L23.55 46.65 Q31.9 53.85 31.9 65.85 31.9 75.25 27.45 86.0 L25.25 90.55 Q22.6 95.1 19.6 96.35 22.9 100.9 28.2 104.75 40.1 113.1 58.75 113.1 L62.65 113.1 71.35 112.5 72.4 112.35 72.4 113.45 72.5 119.6 Q74.75 163.15 108.0 192.0 117.15 199.8 127.65 205.55 127.1 209.35 127.1 213.2 127.1 217.5 127.85 221.65 122.45 219.95 117.35 217.85 101.75 211.35 88.4 200.55 L82.25 195.25 Q54.15 169.1 50.15 134.85 29.8 132.85 14.95 114.9 5.95 103.9 1.9 90.55 10.3 90.45 16.45 85.55 L17.2 85.0 Q23.65 79.4 24.9 69.25 26.2 58.95 19.2 54.3 12.3 49.5 6.45 51.1 L0.0 52.9 Q1.7 45.05 5.3 38.3 11.15 27.35 21.55 18.55 L21.65 18.45 Q31.15 10.5 39.85 5.95 M49.4 124.55 Q49.5 129.75 50.15 134.85 49.5 129.75 49.4 124.55" fill="#a65435" fill-rule="evenodd" stroke="none"/>
      <path d="M250.7 55.85 Q251.95 49.0 257.25 46.35 258.2 45.8 259.2 45.6 260.45 45.05 261.95 45.05 265.35 44.95 269.15 46.95 275.8 50.35 279.75 58.0 283.75 65.75 282.7 73.05 281.75 79.1 278.05 82.05 L276.15 83.2 Q274.65 84.05 273.15 84.4 275.1 81.2 276.05 78.15 277.2 74.85 277.2 71.65 277.2 65.3 272.45 58.95 268.0 53.0 262.7 52.25 L261.1 52.05 Q255.55 52.05 251.55 55.25 L250.7 55.85 M137.4 18.55 Q136.45 22.8 136.0 31.5 L135.6 49.95 135.5 58.2 135.5 58.85 Q135.35 76.55 146.3 90.95 157.4 105.7 173.3 108.35 L179.05 109.0 Q184.55 109.2 189.45 107.9 195.15 106.45 199.7 102.6 L204.5 98.7 Q211.5 92.25 215.5 85.65 214.55 92.55 212.1 97.75 210.3 101.55 207.85 104.55 202.35 110.8 195.7 114.05 192.2 115.75 188.5 116.6 181.7 118.2 174.9 117.65 170.65 117.25 166.45 115.95 155.5 112.6 142.25 97.95 129.2 83.45 129.0 62.25 L129.0 53.35 129.0 53.0 Q129.2 36.5 130.4 20.25 L137.4 18.55 M59.8 86.4 Q63.1 83.2 65.95 78.55 67.75 75.7 69.1 72.4 L70.05 70.3 70.9 68.15 Q72.4 63.6 72.4 62.15 72.4 57.35 69.0 53.55 65.85 49.95 61.3 49.4 L60.1 49.4 59.6 49.4 Q60.85 48.55 62.35 47.9 L62.95 47.6 Q70.3 44.75 76.0 48.15 81.75 51.55 82.6 59.35 83.45 67.0 78.85 74.65 L78.55 75.25 75.5 79.3 Q71.9 83.2 67.2 85.15 63.3 86.7 59.8 86.4" fill="#58160e" fill-rule="evenodd" stroke="none"/>
      <path d="M268.3 67.65 L268.2 70.3 Q267.45 72.75 264.15 72.75 261.1 72.75 259.05 69.95 L257.8 67.85 Q257.4 66.7 257.4 65.5 257.4 63.2 259.05 61.8 260.45 60.55 262.45 60.65 L262.8 60.65 Q268.3 60.85 268.3 67.65 M203.2 45.9 Q203.2 56.85 198.45 62.45 194.3 67.2 187.95 67.2 L183.3 66.6 Q177.75 64.8 172.45 58.95 164.95 50.7 164.95 41.15 164.95 33.2 168.35 29.5 171.5 26.1 178.3 26.1 180.1 26.1 184.0 27.55 189.2 29.6 193.55 33.0 199.2 37.3 202.35 42.85 L203.1 44.4 203.2 45.9 M62.75 65.75 L62.75 66.7 62.1 71.05 Q60.75 75.5 57.65 75.5 51.85 75.5 51.85 68.6 51.85 63.2 57.35 61.8 L60.55 61.7 Q62.45 62.45 62.75 65.75" fill="#b13e13" fill-rule="evenodd" stroke="none"/>
      <path d="M250.7 55.85 L251.55 55.25 Q255.55 52.05 261.1 52.05 L262.7 52.25 Q268.0 53.0 272.45 58.95 277.2 65.3 277.2 71.65 277.2 74.85 276.05 78.15 275.1 81.2 273.15 84.4 268.95 85.15 264.15 82.6 257.6 79.1 253.55 71.45 L252.8 69.85 Q249.75 63.1 250.7 56.4 L250.7 55.85 M205.75 23.35 L206.3 24.7 207.75 29.7 208.6 32.35 Q213.7 49.5 215.3 62.85 216.05 68.25 216.15 73.05 L216.25 75.4 Q216.25 80.9 215.5 85.65 211.5 92.25 204.5 98.7 L199.7 102.6 Q195.15 106.45 189.45 107.9 184.55 109.2 179.05 109.0 L173.3 108.35 Q157.4 105.7 146.3 90.95 135.35 76.55 135.5 58.85 L135.5 58.2 135.6 49.95 136.0 31.5 Q136.45 22.8 137.4 18.55 144.5 17.1 152.0 16.35 L164.1 15.8 Q187.0 15.8 205.75 23.35 M268.3 67.65 Q268.3 60.85 262.8 60.65 L262.45 60.65 Q260.45 60.55 259.05 61.8 257.4 63.2 257.4 65.5 257.4 66.7 257.8 67.85 L259.05 69.95 Q261.1 72.75 264.15 72.75 267.45 72.75 268.2 70.3 L268.3 67.65 M203.2 45.9 L203.1 44.4 202.35 42.85 Q199.2 37.3 193.55 33.0 189.2 29.6 184.0 27.55 180.1 26.1 178.3 26.1 171.5 26.1 168.35 29.5 164.95 33.2 164.95 41.15 164.95 50.7 172.45 58.95 177.75 64.8 183.3 66.6 L187.95 67.2 Q194.3 67.2 198.45 62.45 203.2 56.85 203.2 45.9 M59.6 49.4 L60.1 49.4 61.3 49.4 Q65.85 49.95 69.0 53.55 72.4 57.35 72.4 62.15 72.4 63.6 70.9 68.15 L70.05 70.3 69.1 72.4 Q67.75 75.7 65.95 78.55 63.1 83.2 59.8 86.4 56.8 86.2 54.15 84.6 48.45 81.2 47.7 73.55 46.85 66.35 50.35 59.6 L51.2 58.1 Q54.7 52.5 59.6 49.4 M62.75 65.75 Q62.45 62.45 60.55 61.7 L57.35 61.8 Q51.85 63.2 51.85 68.6 51.85 75.5 57.65 75.5 60.75 75.5 62.1 71.05 L62.75 66.7 62.75 65.75" fill="#872d12" fill-rule="evenodd" stroke="none"/>
      <path d="M207.75 29.7 Q208.85 30.0 209.7 30.45 228.25 38.05 239.25 60.65 241.9 65.95 243.9 71.45 248.35 83.75 249.75 97.0 250.4 102.0 250.4 107.3 L245.1 104.1 242.0 102.85 208.0 129.65 210.85 135.9 Q208.6 141.95 207.45 147.05 206.6 151.05 206.2 155.7 199.4 157.0 191.55 157.0 L177.9 156.25 Q163.8 154.65 150.85 149.6 L149.8 142.35 Q147.65 131.15 143.95 122.45 L132.7 113.75 115.45 100.4 112.15 102.4 111.1 103.15 Q110.8 100.2 110.8 97.0 110.8 85.45 115.85 71.9 118.6 64.45 122.45 59.6 124.65 83.65 134.1 99.45 147.55 121.7 174.05 123.3 L178.0 123.4 Q191.15 123.4 199.7 118.1 205.95 114.15 210.0 107.6 212.75 103.25 214.55 97.55 216.65 90.75 217.65 82.15 L215.5 85.65 Q216.25 80.9 216.25 75.4 L216.15 73.05 Q216.05 68.25 215.3 62.85 213.7 49.5 208.6 32.35 L207.75 29.7 M92.95 19.95 Q93.6 21.0 93.6 24.4 93.6 29.15 90.95 30.85 88.6 32.25 82.7 32.25 80.25 32.25 76.85 31.3 73.45 30.2 68.9 28.1 60.65 24.3 58.0 19.1 56.6 16.55 56.6 13.8 56.6 10.6 60.75 8.9 63.95 7.55 67.95 7.55 76.45 7.55 84.7 12.3 87.8 14.1 90.0 16.35 L92.95 19.95 M42.2 11.8 Q44.0 11.05 45.25 11.05 49.1 11.05 51.2 14.45 52.6 16.75 52.6 18.9 52.6 20.15 52.15 21.1 51.5 23.35 49.7 24.7 47.4 26.85 44.65 26.85 41.75 26.85 39.95 24.7 L39.55 24.05 Q38.15 21.95 38.15 19.6 38.15 15.5 41.15 12.65 L42.2 11.8" fill="#ff9748" fill-rule="evenodd" stroke="none"/>
      <path d="M250.4 107.3 L250.7 107.4 250.5 108.0 248.7 111.85 246.65 114.15 Q247.85 115.65 249.1 117.9 L253.25 125.2 Q260.15 139.0 260.15 149.05 260.15 162.1 252.1 174.7 L251.25 176.2 Q242.1 189.65 231.0 190.5 L229.6 190.6 226.1 190.4 Q222.5 183.9 216.65 178.3 211.9 173.85 206.7 170.9 L206.4 169.1 Q205.85 166.45 205.85 163.55 205.85 159.45 206.2 155.7 206.6 151.05 207.45 147.05 208.6 141.95 210.85 135.9 L208.0 129.65 242.0 102.85 245.1 104.1 250.4 107.3 M111.1 103.15 L112.15 102.4 115.45 100.4 132.7 113.75 143.95 122.45 Q147.65 131.15 149.8 142.35 L150.85 149.6 Q151.9 157.65 151.9 165.9 L151.8 171.2 146.6 174.7 142.45 178.3 139.6 181.15 137.7 183.3 Q133.15 189.0 130.5 195.35 113.75 194.5 101.75 182.35 89.45 169.8 89.45 152.85 89.45 142.9 93.2 133.7 94.65 129.95 96.8 126.35 99.45 121.7 102.7 117.9 106.85 112.9 111.95 109.0 112.35 108.65 112.9 108.35 L111.4 106.1 109.7 104.1 Q110.35 103.55 111.1 103.15" fill="#8c4227" fill-rule="evenodd" stroke="none"/>
      <path d="M226.1 190.4 Q230.65 198.35 231.6 207.65 L226.85 210.0 Q221.1 192.8 204.9 184.15 194.3 178.5 181.35 177.25 L173.85 176.9 Q164.5 176.9 156.35 181.15 154.05 182.35 151.5 184.25 L141.95 183.05 141.0 183.05 137.7 183.3 139.6 181.15 142.45 178.3 146.6 174.7 151.8 171.2 Q163.9 163.9 179.15 163.9 L179.45 163.9 Q194.6 163.9 206.7 170.9 211.9 173.85 216.65 178.3 222.5 183.9 226.1 190.4" fill="#ffe9a1" fill-rule="evenodd" stroke="none"/>
      <path d="M137.7 183.3 L141.0 183.05 141.95 183.05 151.5 184.25 Q154.05 182.35 156.35 181.15 164.5 176.9 173.85 176.9 L181.35 177.25 Q194.3 178.5 204.9 184.15 221.1 192.8 226.85 210.0 221.95 212.35 216.65 214.0 206.5 217.4 194.4 218.7 L179.7 219.3 Q161.35 219.3 142.7 212.35 134.85 209.45 127.65 205.55 128.5 200.15 130.5 195.35 133.15 189.0 137.7 183.3" fill="#ffcf74" fill-rule="evenodd" stroke="none"/>
      <path d="M250.5 108.0 L250.5 109.7 Q250.5 113.3 249.1 117.9 247.85 115.65 246.65 114.15 L248.7 111.85 250.5 108.0 M111.4 106.1 L112.9 108.35 Q112.35 108.65 111.95 109.0 L111.4 106.1" fill="#d4733e" fill-rule="evenodd" stroke="none"/>
      <path d="M127.65 205.55 Q134.85 209.45 142.7 212.35 161.35 219.3 179.7 219.3 L194.4 218.7 Q206.5 217.4 216.65 214.0 221.95 212.35 226.85 210.0 L227.15 210.95 Q214.45 219.2 198.85 223.25 183.5 227.25 165.25 227.15 145.35 226.95 127.85 221.65 127.1 217.5 127.1 213.2 127.1 209.35 127.65 205.55" fill="#deb270" fill-rule="evenodd" stroke="none"/>
      <path d="M231.6 207.65 L231.7 207.9 227.15 210.95 226.85 210.0 231.6 207.65" fill="#e0b779" fill-rule="evenodd" stroke="none"/>
      <path d="M271.35 8.15 L270.5 8.15 Q255.35 6.35 243.3 16.85 L241.8 18.25 Q229.2 30.2 233.55 40.1 L236.5 42.75 M273.15 84.4 Q274.65 84.05 276.15 83.2 L278.05 82.05 Q281.75 79.1 282.7 73.05 283.75 65.75 279.75 58.0 275.8 50.35 269.15 46.95 265.35 44.95 261.95 45.05 260.45 45.05 259.2 45.6 258.2 45.8 257.25 46.35 251.95 49.0 250.7 55.85 L250.7 56.4 Q249.75 63.1 252.8 69.85 L253.55 71.45 Q257.6 79.1 264.15 82.6 268.95 85.15 273.15 84.4 M220.4 30.45 Q216.45 28.1 212.35 26.1 L205.75 23.35 206.3 24.7 207.75 29.7 208.6 32.35 Q213.7 49.5 215.3 62.85 216.05 68.25 216.15 73.05 L216.25 75.4 Q216.25 80.9 215.5 85.65 214.55 92.55 212.1 97.75 210.3 101.55 207.85 104.55 202.35 110.8 195.7 114.05 192.2 115.75 188.5 116.6 181.7 118.2 174.9 117.65 170.65 117.25 166.45 115.95 155.5 112.6 142.25 97.95 129.2 83.45 129.0 62.25 L129.0 53.35 129.0 53.0 Q129.2 36.5 130.4 20.25 L123.7 22.4 Q113.65 25.9 104.4 31.3 108.55 23.85 94.75 12.3 81.1 0.65 62.75 0.0 L56.6 0.45 Q48.65 1.5 39.85 5.95 31.15 10.5 21.65 18.45 L21.55 18.55 Q11.15 27.35 5.3 38.3 1.7 45.05 0.0 52.9 L6.45 51.1 Q12.3 49.5 19.2 54.3 26.2 58.95 24.9 69.25 23.65 79.4 17.2 85.0 L16.45 85.55 Q10.3 90.45 1.9 90.55 5.95 103.9 14.95 114.9 29.8 132.85 50.15 134.85 49.5 129.75 49.4 124.55 M226.1 190.4 Q230.65 198.35 231.6 207.65 L231.7 207.9 232.8 207.15 Q237.25 203.75 241.15 199.8 L243.7 197.3 Q251.55 189.1 257.05 180.1 272.65 155.2 272.1 123.1 L271.7 115.0 271.7 114.5 271.6 113.1 Q271.25 109.6 270.2 106.2 M317.35 66.9 L317.05 62.85 Q314.6 38.3 300.5 24.2 286.85 10.3 271.35 8.15 M233.55 40.1 Q227.4 34.65 220.4 30.45 M205.75 23.35 Q187.0 15.8 164.1 15.8 L152.0 16.35 Q144.5 17.1 137.4 18.55 L130.4 20.25 M206.7 170.9 Q194.6 163.9 179.45 163.9 L179.15 163.9 Q163.9 163.9 151.8 171.2 L146.6 174.7 142.45 178.3 139.6 181.15 137.7 183.3 Q133.15 189.0 130.5 195.35 128.5 200.15 127.65 205.55 127.1 209.35 127.1 213.2 127.1 217.5 127.85 221.65 145.35 226.95 165.25 227.15 183.5 227.25 198.85 223.25 214.45 219.2 227.15 210.95 L231.7 207.9 M206.7 170.9 Q211.9 173.85 216.65 178.3 222.5 183.9 226.1 190.4 M271.7 114.5 L272.55 114.3 Q274.95 113.75 283.05 114.3 287.5 114.6 292.25 112.25 298.95 109.1 306.45 101.15 318.45 88.5 317.35 66.9 M104.4 31.3 L103.15 32.0 99.95 33.95 M59.8 86.4 Q63.3 86.7 67.2 85.15 71.9 83.2 75.5 79.3 L78.55 75.25 78.85 74.65 Q83.45 67.0 82.6 59.35 81.75 51.55 76.0 48.15 70.3 44.75 62.95 47.6 L62.35 47.9 Q60.85 48.55 59.6 49.4 54.7 52.5 51.2 58.1 L50.35 59.6 Q46.85 66.35 47.7 73.55 48.45 81.2 54.15 84.6 56.8 86.2 59.8 86.4 M50.15 134.85 Q54.15 169.1 82.25 195.25 L88.4 200.55 Q101.75 211.35 117.35 217.85 122.45 219.95 127.85 221.65" fill="none" stroke="#61280a" stroke-linecap="round" stroke-linejoin="round" stroke-width="1.5"/>
      <path d="M219.75 123.9 L232.7 114.9 Q234.15 113.75 235.75 112.7 L240.1 112.8 Q248.9 114.4 253.45 126.05 257.6 136.2 256.55 148.6 254.85 144.3 252.7 141.1 250.7 153.5 246.45 161.65 244.75 164.85 242.85 167.3 237.85 173.45 231.3 173.45 L228.35 173.1 228.55 171.4 Q228.55 166.85 224.85 167.4 223.25 167.5 222.3 168.35 L221.65 167.3 221.35 166.55 Q218.9 161.65 218.9 154.25 218.9 148.75 220.5 140.05 L221.65 134.75 217.85 135.35 214.65 135.9 Q216.8 128.7 219.75 123.9 M237.35 123.2 Q235.0 125.2 235.0 128.9 235.0 131.15 237.15 134.75 239.8 139.5 243.3 139.5 248.25 139.5 249.45 135.35 L249.45 131.25 Q249.45 126.55 247.2 123.8 245.2 121.4 242.3 121.25 239.35 121.15 237.35 123.2 M206.2 200.9 Q205.0 205.55 200.9 208.7 196.45 212.2 189.0 211.9 L188.7 211.9 187.1 211.7 184.55 211.35 Q180.0 210.2 176.3 207.25 171.0 202.8 171.2 199.3 171.5 195.8 172.05 195.25 L173.95 192.7 Q175.35 197.3 181.35 200.15 187.2 202.9 194.6 202.9 200.65 202.9 204.6 201.5 L206.2 200.9 M125.4 112.05 L129.0 114.6 143.45 125.1 Q148.5 133.7 150.2 147.9 150.55 149.9 150.55 151.8 L148.6 149.6 142.05 141.95 Q143.75 149.7 143.75 152.25 L143.45 157.65 Q142.6 164.75 139.5 170.05 134.75 178.2 125.95 178.2 121.5 178.2 118.0 174.9 118.95 174.25 119.35 173.1 L119.7 171.0 Q119.7 167.05 115.55 167.4 114.15 167.5 113.2 168.15 L112.8 167.3 Q109.4 160.2 108.45 151.7 108.0 148.1 108.0 144.3 108.0 141.0 109.8 133.05 110.8 128.8 111.75 126.15 L110.45 126.15 Q104.0 126.15 101.45 126.9 L102.85 124.35 Q109.6 112.6 120.3 111.85 L125.4 112.05 M131.15 125.85 Q128.9 127.55 128.9 131.75 128.9 134.75 130.4 137.5 132.3 141.65 136.55 141.65 140.25 141.65 141.85 138.15 L142.7 134.5 Q142.7 131.25 140.55 128.6 138.55 126.15 135.8 125.3 133.05 124.45 131.15 125.85" fill="#381308" fill-rule="evenodd" stroke="none"/>
      <path d="M237.35 123.2 Q239.35 121.15 242.3 121.25 245.2 121.4 247.2 123.8 249.45 126.55 249.45 131.25 L249.45 135.35 Q248.25 139.5 243.3 139.5 239.8 139.5 237.15 134.75 235.0 131.15 235.0 128.9 235.0 125.2 237.35 123.2 M197.4 192.95 Q201.85 193.65 201.85 196.65 201.85 197.9 201.4 198.55 200.45 200.15 197.4 200.15 192.95 200.15 192.95 196.2 192.95 192.2 197.4 192.95 M222.3 168.35 Q223.25 167.5 224.85 167.4 228.55 166.85 228.55 171.4 L228.35 173.1 228.25 173.75 Q227.4 176.2 224.4 176.2 222.6 176.2 221.65 174.15 221.1 173.2 221.0 172.15 221.0 169.6 222.3 168.35 M131.15 125.85 Q133.05 124.45 135.8 125.3 138.55 126.15 140.55 128.6 142.7 131.25 142.7 134.5 L141.85 138.15 Q140.25 141.65 136.55 141.65 132.3 141.65 130.4 137.5 128.9 134.75 128.9 131.75 128.9 127.55 131.15 125.85 M113.2 168.15 Q114.15 167.5 115.55 167.4 119.7 167.05 119.7 171.0 L119.35 173.1 Q118.95 174.25 118.0 174.9 116.8 175.45 115.25 175.45 113.45 175.45 112.25 174.15 111.4 173.1 111.4 171.6 111.4 169.1 113.2 168.15" fill="#ffffff" fill-rule="evenodd" stroke="none"/>
      <path d="M256.55 148.6 L256.0 153.2 Q254.85 161.0 252.2 167.3 249.65 173.3 245.8 178.1 238.0 187.85 228.35 187.75 218.6 187.5 213.7 175.45 211.9 171.2 211.15 166.1 210.5 160.4 211.05 153.8 211.5 149.7 212.45 145.1 213.4 140.15 214.65 135.9 L217.85 135.35 221.65 134.75 220.5 140.05 Q218.9 148.75 218.9 154.25 218.9 161.65 221.35 166.55 L221.65 167.3 222.3 168.35 Q221.0 169.6 221.0 172.15 221.1 173.2 221.65 174.15 222.6 176.2 224.4 176.2 227.4 176.2 228.25 173.75 L228.35 173.1 231.3 173.45 Q237.85 173.45 242.85 167.3 244.75 164.85 246.45 161.65 250.7 153.5 252.7 141.1 254.85 144.3 256.55 148.6 M173.95 192.7 L176.8 190.15 Q179.15 188.15 188.7 188.35 198.25 188.5 200.65 190.15 203.2 191.85 204.6 193.45 205.85 194.95 206.05 197.8 L206.2 200.9 204.6 201.5 Q200.65 202.9 194.6 202.9 187.2 202.9 181.35 200.15 175.35 197.3 173.95 192.7 M197.4 192.95 Q192.95 192.2 192.95 196.2 192.95 200.15 197.4 200.15 200.45 200.15 201.4 198.55 201.85 197.9 201.85 196.65 201.85 193.65 197.4 192.95 M150.55 151.8 Q150.85 155.5 150.75 158.8 150.3 170.8 145.35 179.15 138.25 191.25 126.7 190.6 115.0 189.95 106.65 178.95 98.15 168.25 97.1 152.25 L97.0 150.4 Q96.35 137.15 101.45 126.9 104.0 126.15 110.45 126.15 L111.75 126.15 Q110.8 128.8 109.8 133.05 108.0 141.0 108.0 144.3 108.0 148.1 108.45 151.7 109.4 160.2 112.8 167.3 L113.2 168.15 Q111.4 169.1 111.4 171.6 111.4 173.1 112.25 174.15 113.45 175.45 115.25 175.45 116.8 175.45 118.0 174.9 121.5 178.2 125.95 178.2 134.75 178.2 139.5 170.05 142.6 164.75 143.45 157.65 L143.75 152.25 Q143.75 149.7 142.05 141.95 L148.6 149.6 150.55 151.8" fill="#5b1e0b" fill-rule="evenodd" stroke="none"/>
      <path d="M219.75 123.9 L232.7 114.9 Q234.15 113.75 235.75 112.7 L242.85 107.3 M235.75 112.7 L240.1 112.8 Q248.9 114.4 253.45 126.05 257.6 136.2 256.55 148.6 L256.0 153.2 Q254.85 161.0 252.2 167.3 249.65 173.3 245.8 178.1 238.0 187.85 228.35 187.75 218.6 187.5 213.7 175.45 211.9 171.2 211.15 166.1 210.5 160.4 211.05 153.8 211.5 149.7 212.45 145.1 213.4 140.15 214.65 135.9 216.8 128.7 219.75 123.9 L214.65 127.75 M125.4 112.05 L129.0 114.6 143.45 125.1 149.15 129.55 M143.45 125.1 Q148.5 133.7 150.2 147.9 150.55 149.9 150.55 151.8 150.85 155.5 150.75 158.8 150.3 170.8 145.35 179.15 138.25 191.25 126.7 190.6 115.0 189.95 106.65 178.95 98.15 168.25 97.1 152.25 L97.0 150.4 Q96.35 137.15 101.45 126.9 L102.85 124.35 Q109.6 112.6 120.3 111.85 L125.4 112.05 Q120.65 108.55 117.45 105.8" fill="none" stroke="#1c0905" stroke-linecap="round" stroke-linejoin="round" stroke-width="2.0"/>
      <path d="M173.95 192.7 L176.8 190.15 Q179.15 188.15 188.7 188.35 198.25 188.5 200.65 190.15 203.2 191.85 204.6 193.45 205.85 194.95 206.05 197.8 L206.2 200.9 Q205.0 205.55 200.9 208.7 196.45 212.2 189.0 211.9 L188.7 211.9 187.1 211.7 184.55 211.35 Q180.0 210.2 176.3 207.25 171.0 202.8 171.2 199.3 171.5 195.8 172.05 195.25 L173.95 192.7" fill="none" stroke="#250402" stroke-linecap="round" stroke-linejoin="round" stroke-width="2.0"/>
      <path d="M188.7 211.9 Q188.7 215.0 193.8 218.6 198.85 222.2 203.2 217.65 M187.1 211.7 Q175.35 229.6 163.9 217.65" fill="none" stroke="#74392d" stroke-linecap="round" stroke-linejoin="round" stroke-width="2.0"/>
    </g>
  </defs>
</svg>
