<?xml version="1.0" encoding="UTF-8" standalone="no"?>
<svg xmlns:xlink="http://www.w3.org/1999/xlink" height="173.8px" width="177.05px" xmlns="http://www.w3.org/2000/svg">
  <g transform="matrix(1.0, 0.0, 0.0, 1.0, 63.95, -9.5)">
    <use data-characterId="2" height="50.7" transform="matrix(1.0, 0.0, 0.0, 1.0, 32.7, 122.85)" width="58.8" xlink:href="#sprite0"/>
    <use data-characterId="4" height="49.65" transform="matrix(1.0, 0.0, 0.0, 1.0, -0.8, 122.85)" width="53.1" xlink:href="#sprite1"/>
    <use data-characterId="6" height="70.65" transform="matrix(1.0, 0.0, 0.0, 1.0, -57.7, 111.7)" width="73.8" xlink:href="#sprite2"/>
    <use data-characterId="10" height="131.7" transform="matrix(1.0, 0.0, 0.0, 1.0, -58.3, 9.5)" width="171.4" xlink:href="#sprite3"/>
  </g>
  <defs>
    <g id="sprite0" transform="matrix(1.0, 0.0, 0.0, 1.0, 0.75, 0.75)">
      <use data-characterId="1" height="50.7" transform="matrix(1.0, 0.0, 0.0, 1.0, -0.75, -0.75)" width="58.8" xlink:href="#shape0"/>
    </g>
    <g id="shape0" transform="matrix(1.0, 0.0, 0.0, 1.0, 0.75, 0.75)">
      <path d="M42.4 13.6 Q41.05 14.95 41.15 16.45 L41.15 16.75 Q41.35 18.05 42.1 19.2 L42.75 20.05 43.05 20.5 Q41.9 20.8 40.8 21.55 L40.1 22.15 Q37.75 24.3 38.05 27.05 38.05 28.3 38.6 29.6 36.05 29.8 34.15 30.75 32.75 31.5 31.7 32.55 29.7 35.0 29.8 39.55 24.7 39.05 20.45 36.9 17.6 35.55 15.15 33.2 12.75 30.85 11.05 27.9 10.1 26.2 10.0 25.45 14.45 24.3 19.6 21.0 L22.25 19.2 Q27.7 15.4 31.7 10.4 35.3 11.7 42.4 13.6" fill="#ee7b3d" fill-rule="evenodd" stroke="none"/>
      <path d="M41.15 16.75 L41.15 16.45 Q41.05 14.95 42.4 13.6 L43.35 13.9 Q49.4 15.5 52.25 17.4 L52.9 17.95 Q55.35 19.95 56.4 23.55 56.95 25.05 57.15 26.85 L56.3 25.8 56.3 25.55 56.0 23.45 55.55 22.8 53.45 21.2 51.4 19.95 49.6 19.1 Q45.4 17.3 41.15 16.75 M34.15 30.75 Q36.05 29.8 38.6 29.6 L38.9 29.6 Q42.75 29.25 48.45 32.35 L44.2 29.15 Q41.15 26.1 40.95 23.35 L40.8 21.55 Q41.9 20.8 43.05 20.5 43.8 20.15 44.65 20.15 47.9 19.85 50.9 21.3 L52.25 22.05 Q54.5 23.45 56.3 25.8 56.5 28.65 55.35 30.35 54.5 31.6 53.1 32.15 L51.75 32.45 Q49.75 32.55 47.9 31.8 50.25 33.2 52.4 35.55 L53.85 37.45 Q53.0 39.15 50.8 40.4 47.8 42.0 44.0 42.3 L42.0 42.3 Q38.7 42.2 36.6 40.5 L35.65 39.55 Q33.95 37.65 33.7 34.7 33.4 32.05 34.15 30.75" fill="#ffffff" fill-rule="evenodd" stroke="none"/>
      <path d="M29.8 39.55 Q29.7 35.0 31.7 32.55 32.75 31.5 34.15 30.75 33.4 32.05 33.7 34.7 33.95 37.65 35.65 39.55 L36.6 40.5 Q38.7 42.2 42.0 42.3 L44.0 42.3 Q47.8 42.0 50.8 40.4 53.0 39.15 53.85 37.45 L52.4 35.55 Q50.25 33.2 47.9 31.8 49.75 32.55 51.75 32.45 L53.1 32.15 Q54.5 31.6 55.35 30.35 56.5 28.65 56.3 25.8 L57.15 26.85 57.25 28.0 Q57.7 34.15 55.05 39.05 L53.85 37.45 55.05 39.05 52.7 42.3 Q48.65 46.85 42.3 48.45 L38.15 49.0 35.75 49.2 33.6 47.3 Q30.1 43.7 29.9 40.3 L29.8 39.55 M38.6 29.6 Q38.05 28.3 38.05 27.05 37.75 24.3 40.1 22.15 L40.8 21.55 40.95 23.35 Q41.15 26.1 44.2 29.15 L48.45 32.35 Q42.75 29.25 38.9 29.6 L38.6 29.6 M43.05 20.5 L42.75 20.05 42.1 19.2 Q41.35 18.05 41.15 16.75 45.4 17.3 49.6 19.1 L51.4 19.95 53.45 21.2 55.55 22.8 56.0 23.45 56.3 25.55 56.3 25.8 Q54.5 23.45 52.25 22.05 L50.9 21.3 Q47.9 19.85 44.65 20.15 43.8 20.15 43.05 20.5" fill="#d7cfcf" fill-rule="evenodd" stroke="none"/>
      <path d="M31.7 10.4 Q27.7 15.4 22.25 19.2 L19.6 21.0 Q14.45 24.3 10.0 25.45 10.1 26.2 11.05 27.9 12.75 30.85 15.15 33.2 17.6 35.55 20.45 36.9 24.7 39.05 29.8 39.55 L29.9 40.3 Q30.1 43.7 33.6 47.3 L35.75 49.2 Q27.15 49.4 20.35 47.0 15.9 45.3 12.2 42.4 5.4 37.2 0.85 27.7 L0.85 27.6 Q0.2 19.3 1.7 14.85 3.1 10.5 6.15 7.45 10.0 3.5 16.45 1.6 22.7 6.8 30.1 9.9 L31.7 10.4" fill="#a65435" fill-rule="evenodd" stroke="none"/>
      <path d="M41.15 16.75 L41.15 16.45 Q41.05 14.95 42.4 13.6 35.3 11.7 31.7 10.4 L30.1 9.9 Q22.7 6.8 16.45 1.6 L14.65 0.0 M29.8 39.55 Q29.7 35.0 31.7 32.55 32.75 31.5 34.15 30.75 36.05 29.8 38.6 29.6 38.05 28.3 38.05 27.05 37.75 24.3 40.1 22.15 L40.8 21.55 Q41.9 20.8 43.05 20.5 L42.75 20.05 42.1 19.2 Q41.35 18.05 41.15 16.75 M56.3 25.8 L57.15 26.85 Q56.95 25.05 56.4 23.55 55.35 19.95 52.9 17.95 L52.25 17.4 Q49.4 15.5 43.35 13.9 L42.4 13.6 M43.05 20.5 Q43.8 20.15 44.65 20.15 47.9 19.85 50.9 21.3 L52.25 22.05 Q54.5 23.45 56.3 25.8 M47.9 31.8 Q50.25 33.2 52.4 35.55 L53.85 37.45 55.05 39.05 Q57.7 34.15 57.25 28.0 L57.15 26.85 M55.05 39.05 L52.7 42.3 Q48.65 46.85 42.3 48.45 L38.15 49.0 35.75 49.2 Q27.15 49.4 20.35 47.0 15.9 45.3 12.2 42.4 5.4 37.2 0.85 27.7 L0.0 25.8 M38.6 29.6 L38.9 29.6 Q42.75 29.25 48.45 32.35 M35.75 49.2 L33.6 47.3 Q30.1 43.7 29.9 40.3 L29.8 39.55" fill="none" stroke="#61280a" stroke-linecap="round" stroke-linejoin="round" stroke-width="1.5"/>
    </g>
    <g id="sprite1" transform="matrix(1.0, 0.0, 0.0, 1.0, 0.75, 0.75)">
      <use data-characterId="3" height="49.65" transform="matrix(1.0, 0.0, 0.0, 1.0, -0.75, -0.75)" width="53.1" xlink:href="#shape1"/>
    </g>
    <g id="shape1" transform="matrix(1.0, 0.0, 0.0, 1.0, 0.75, 0.75)">
      <path d="M49.3 21.1 L44.45 22.4 34.05 23.35 30.1 23.35 17.3 22.6 14.45 22.15 Q13.5 23.65 12.65 25.8 11.05 29.8 11.05 32.65 11.05 36.5 14.0 39.15 13.25 41.35 13.25 44.1 13.25 45.6 13.7 47.0 9.85 45.8 6.4 43.15 -0.4 37.85 0.0 30.0 0.45 22.15 2.25 15.5 4.05 8.7 7.1 2.35 9.05 2.65 8.9 1.95 8.9 1.2 15.6 0.65 L25.9 0.0 Q29.4 0.0 33.95 2.75 38.5 5.4 44.65 13.05 47.6 16.75 49.3 21.1" fill="#a65435" fill-rule="evenodd" stroke="none"/>
      <path d="M49.3 21.1 Q51.1 25.45 51.55 30.55 52.15 39.65 42.2 44.1 43.8 41.35 43.8 38.6 43.8 34.15 37.75 31.7 35.75 30.85 33.7 30.45 33.1 31.7 32.45 33.5 L30.85 37.85 Q29.5 37.1 24.4 30.1 20.45 30.75 17.5 33.6 15.05 35.95 14.0 39.15 11.05 36.5 11.05 32.65 11.05 29.8 12.65 25.8 13.5 23.65 14.45 22.15 L17.3 22.6 30.1 23.35 34.05 23.35 44.45 22.4 49.3 21.1" fill="#ee7b3d" fill-rule="evenodd" stroke="none"/>
      <path d="M14.0 39.15 Q15.05 35.95 17.5 33.6 20.45 30.75 24.4 30.1 29.5 37.1 30.85 37.85 L32.45 33.5 Q33.1 31.7 33.7 30.45 35.75 30.85 37.75 31.7 43.8 34.15 43.8 38.6 43.8 41.35 42.2 44.1 L40.85 44.65 40.7 44.65 37.35 44.65 30.95 44.45 Q25.9 44.0 21.65 42.75 16.65 41.35 14.0 39.15" fill="#ffffff" fill-rule="evenodd" stroke="none"/>
      <path d="M40.7 44.65 Q35.95 46.55 30.65 47.4 L20.9 48.15 Q17.1 48.15 13.7 47.0 13.25 45.6 13.25 44.1 13.25 41.35 14.0 39.15 16.65 41.35 21.65 42.75 25.9 44.0 30.95 44.45 L37.35 44.65 40.7 44.65" fill="#d7cfcf" fill-rule="evenodd" stroke="none"/>
      <path d="M42.2 44.1 Q52.15 39.65 51.55 30.55 51.1 25.45 49.3 21.1 47.6 16.75 44.65 13.05 38.5 5.4 33.95 2.75 29.4 0.0 25.9 0.0 L15.6 0.65 Q8.9 1.2 8.9 1.95 9.05 2.65 7.1 2.35 4.05 8.7 2.25 15.5 0.45 22.15 0.0 30.0 -0.4 37.85 6.4 43.15 9.85 45.8 13.7 47.0 13.25 45.6 13.25 44.1 13.25 41.35 14.0 39.15 15.05 35.95 17.5 33.6 20.45 30.75 24.4 30.1 29.5 37.1 30.85 37.85 L32.45 33.5 Q33.1 31.7 33.7 30.45 35.75 30.85 37.75 31.7 43.8 34.15 43.8 38.6 43.8 41.35 42.2 44.1 L40.85 44.65 40.7 44.65 Q35.95 46.55 30.65 47.4 L20.9 48.15 Q17.1 48.15 13.7 47.0" fill="none" stroke="#61280a" stroke-linecap="round" stroke-linejoin="round" stroke-width="1.5"/>
    </g>
    <g id="sprite2" transform="matrix(1.0, 0.0, 0.0, 1.0, 0.75, -4.1)">
      <use data-characterId="5" height="70.65" transform="matrix(1.0, 0.0, 0.0, 1.0, -0.75, 4.1)" width="73.8" xlink:href="#shape2"/>
    </g>
    <g id="shape2" transform="matrix(1.0, 0.0, 0.0, 1.0, 0.75, -4.1)">
      <path d="M50.85 5.1 Q56.05 5.65 61.9 8.6 66.35 11.05 69.2 14.2 71.1 16.45 71.75 18.55 L72.05 19.75 72.05 20.6 Q72.05 24.7 69.65 31.7 L68.9 33.7 Q67.0 38.7 66.15 41.55 L65.95 42.3 Q57.75 57.9 47.8 65.65 41.95 70.2 35.2 72.3 L35.3 72.1 Q38.45 68.15 38.45 61.6 38.45 56.85 35.4 55.35 33.8 54.6 29.15 54.6 26.7 54.6 24.6 55.25 25.1 53.45 25.1 51.55 L24.9 49.2 Q23.65 44.2 16.55 44.2 L14.0 44.65 14.1 43.45 Q14.1 39.35 12.8 37.45 L12.4 37.0 14.1 36.15 Q18.1 34.45 24.5 32.55 L30.5 30.55 Q37.95 25.75 44.1 17.3 48.35 11.35 50.85 5.1 M57.35 33.85 L57.0 33.1 56.05 32.45 55.1 31.9 Q52.15 30.1 50.15 30.1 42.9 30.1 36.55 37.75 34.45 40.4 32.95 43.25 31.6 45.7 31.6 46.35 31.6 48.65 33.3 50.05 35.3 51.55 39.65 51.55 L41.35 51.4 41.25 52.7 Q41.25 54.4 43.15 55.35 44.6 56.1 46.1 56.1 52.45 56.1 56.8 50.05 L59.15 46.25 59.15 43.9 Q59.15 38.15 57.35 33.85" fill="#a65435" fill-rule="evenodd" stroke="none"/>
      <path d="M57.35 33.85 Q59.15 38.15 59.15 43.9 L59.15 46.25 56.8 50.05 Q52.45 56.1 46.1 56.1 44.6 56.1 43.15 55.35 41.25 54.4 41.25 52.7 L41.35 51.4 39.65 51.55 Q35.3 51.55 33.3 50.05 31.6 48.65 31.6 46.35 31.6 45.7 32.95 43.25 34.45 40.4 36.55 37.75 42.9 30.1 50.15 30.1 52.15 30.1 55.1 31.9 L56.05 32.45 57.0 33.1 57.35 33.85" fill="#ee7b3d" fill-rule="evenodd" stroke="none"/>
      <path d="M35.2 72.3 L31.7 73.25 23.4 74.0 Q19.3 74.0 15.35 72.3 11.35 70.5 7.65 66.8 4.75 64.05 2.95 61.05 0.0 55.75 0.0 49.75 0.0 42.6 12.4 37.0 L12.8 37.45 Q14.1 39.35 14.1 43.45 L14.0 44.65 16.55 44.2 Q23.65 44.2 24.9 49.2 L25.1 51.55 Q25.1 53.45 24.6 55.25 26.7 54.6 29.15 54.6 33.8 54.6 35.4 55.35 38.45 56.85 38.45 61.6 38.45 68.15 35.3 72.1 L35.2 72.3 M2.95 61.05 Q3.05 54.2 6.9 49.6 L7.95 48.45 9.1 47.3 Q11.55 45.25 14.0 44.65 11.55 45.25 9.1 47.3 L7.95 48.45 6.9 49.6 Q3.05 54.2 2.95 61.05 M34.35 61.8 L34.15 59.25 33.4 58.95 Q31.5 58.0 29.35 58.0 27.85 58.0 25.75 59.05 L24.8 59.6 Q21.3 61.4 21.3 63.7 21.3 65.75 22.9 66.8 24.5 67.95 27.65 67.95 L30.0 67.75 Q31.5 67.45 32.45 66.8 34.35 65.3 34.35 61.8 M15.35 72.3 Q14.85 70.95 14.85 69.25 14.85 63.0 19.05 58.75 20.45 57.25 22.15 56.3 23.3 55.65 24.6 55.25 23.3 55.65 22.15 56.3 20.45 57.25 19.05 58.75 14.85 63.0 14.85 69.25 14.85 70.95 15.35 72.3 M22.05 50.05 L21.4 49.75 Q19.5 48.9 17.7 48.9 15.9 48.9 14.1 49.6 11.75 50.55 11.45 52.25 L11.45 52.7 Q11.45 54.2 11.75 55.35 12.5 57.7 14.6 57.7 16.3 57.7 19.05 55.75 L19.8 55.15 Q22.05 53.2 22.05 51.1 L22.05 50.05" fill="#d7cfcf" fill-rule="evenodd" stroke="none"/>
      <path d="M34.35 61.8 Q34.35 65.3 32.45 66.8 31.5 67.45 30.0 67.75 L27.65 67.95 Q24.5 67.95 22.9 66.8 21.3 65.75 21.3 63.7 21.3 61.4 24.8 59.6 L25.75 59.05 Q27.85 58.0 29.35 58.0 31.5 58.0 33.4 58.95 L34.15 59.25 34.35 61.8 M22.05 50.05 L22.05 51.1 Q22.05 53.2 19.8 55.15 L19.05 55.75 Q16.3 57.7 14.6 57.7 12.5 57.7 11.75 55.35 11.45 54.2 11.45 52.7 L11.45 52.25 Q11.75 50.55 14.1 49.6 15.9 48.9 17.7 48.9 19.5 48.9 21.4 49.75 L22.05 50.05" fill="#ffffff" fill-rule="evenodd" stroke="none"/>
      <path d="M66.15 41.55 L65.95 42.3 Q57.75 57.9 47.8 65.65 41.95 70.2 35.2 72.3 L31.7 73.25 23.4 74.0 Q19.3 74.0 15.35 72.3 11.35 70.5 7.65 66.8 4.75 64.05 2.95 61.05 0.0 55.75 0.0 49.75 0.0 42.6 12.4 37.0 L14.1 36.15 Q18.1 34.45 24.5 32.55 L30.5 30.55 Q37.95 25.75 44.1 17.3 48.35 11.35 50.85 5.1 M14.0 44.65 Q11.55 45.25 9.1 47.3 L7.95 48.45 6.9 49.6 Q3.05 54.2 2.95 61.05 M24.6 55.25 Q25.1 53.45 25.1 51.55 L24.9 49.2 Q23.65 44.2 16.55 44.2 L14.0 44.65 14.1 43.45 Q14.1 39.35 12.8 37.45 L12.4 37.0 M35.2 72.3 L35.3 72.1 Q38.45 68.15 38.45 61.6 38.45 56.85 35.4 55.35 33.8 54.6 29.15 54.6 26.7 54.6 24.6 55.25 23.3 55.65 22.15 56.3 20.45 57.25 19.05 58.75 14.85 63.0 14.85 69.25 14.85 70.95 15.35 72.3" fill="none" stroke="#61280a" stroke-linecap="round" stroke-linejoin="round" stroke-width="1.5"/>
      <path d="M50.85 5.1 Q56.05 5.65 61.9 8.6 66.35 11.05 69.2 14.2 71.1 16.45 71.75 18.55 L72.05 19.75 72.05 20.6 Q72.05 24.7 69.65 31.7 L68.9 33.7 Q67.0 38.7 66.15 41.55" fill="none" stroke="#61280a" stroke-linecap="round" stroke-linejoin="round" stroke-width="2.0"/>
    </g>
    <g id="sprite3" transform="matrix(1.0, 0.0, 0.0, 1.0, 0.75, 0.75)">
      <use data-characterId="7" height="131.7" transform="matrix(1.0, 0.0, 0.0, 1.0, -0.75, -0.75)" width="171.4" xlink:href="#shape3"/>
    </g>
    <g id="shape3" transform="matrix(1.0, 0.0, 0.0, 1.0, 0.75, 0.75)">
      <path d="M168.6 31.3 L168.7 35.35 Q168.5 38.0 167.85 40.25 165.85 47.45 158.45 51.45 156.3 52.65 154.1 53.35 148.05 55.4 141.7 54.35 143.8 55.05 145.4 61.45 L146.35 65.35 148.05 73.1 148.25 78.2 Q148.15 91.55 142.1 102.35 139.05 107.75 134.45 112.4 L130.25 116.35 128.3 117.8 Q125.15 119.3 121.0 120.45 121.55 118.55 121.75 115.7 L121.75 115.3 Q122.05 111.35 120.35 107.45 125.9 107.45 130.55 103.4 131.95 102.35 133.1 100.75 139.25 93.75 139.75 83.6 140.6 67.25 131.1 63.85 133.4 58.25 133.75 52.1 L133.85 49.45 Q133.0 46.8 131.5 44.15 128.0 37.9 121.35 31.85 115.05 26.25 108.2 22.65 103.95 20.4 100.45 19.35 L96.0 18.6 Q91.65 18.4 87.5 19.45 81.45 21.05 75.95 25.6 67.15 32.7 66.75 40.75 66.2 50.7 70.15 58.55 66.65 57.2 62.9 57.0 52.55 56.45 47.0 66.1 L45.75 68.4 Q42.8 75.3 42.25 85.15 L42.15 87.1 Q39.6 82.1 37.9 76.8 36.95 73.7 36.3 70.65 34.75 62.4 35.9 54.55 32.1 56.25 28.35 60.05 26.15 62.4 24.95 64.5 16.7 63.25 11.2 56.65 5.05 49.45 5.6 39.5 5.8 36.1 6.3 32.9 7.7 23.9 11.6 16.6 L13.0 14.25 14.15 13.0 15.1 12.05 Q27.85 -0.6 41.0 0.05 54.0 0.7 61.35 5.65 67.9 10.25 70.0 17.1 76.9 15.1 84.35 14.7 88.35 14.6 92.5 14.8 L99.7 15.75 Q106.5 17.1 112.55 19.9 L113.25 20.2 115.2 21.25 117.0 22.4 118.55 23.7 Q122.8 27.1 127.15 31.3 L126.65 28.65 Q126.1 25.8 126.1 23.6 L126.2 22.75 Q126.5 15.3 130.55 10.85 134.05 7.05 139.75 6.2 L144.95 5.9 Q152.7 8.95 159.8 16.7 166.4 23.8 168.6 31.3 M61.45 20.5 L62.8 19.9 Q66.3 18.3 70.0 17.1 66.3 18.3 62.8 19.9 L61.45 20.5 M163.6 29.2 Q163.75 27.95 162.75 26.15 161.6 25.2 159.8 25.05 L157.35 25.3 Q156.85 25.5 156.5 26.15 156.1 26.75 156.0 27.95 L156.6 31.0 Q157.7 34.1 159.9 34.2 160.75 34.2 161.9 33.15 L162.45 32.6 Q163.5 31.2 163.6 29.2 M143.15 10.55 L140.95 10.95 Q138.9 11.8 138.8 13.2 138.7 16.15 143.9 19.25 148.25 21.8 150.7 21.9 151.45 21.9 152.3 21.25 L153.0 20.5 Q154.3 19.05 154.3 17.45 154.4 16.05 153.85 14.7 152.3 12.65 150.7 11.8 148.7 10.65 144.55 10.45 L143.15 10.55 M138.7 29.0 Q137.25 30.9 137.25 33.65 137.25 34.95 137.55 36.1 138.1 38.1 139.65 39.9 141.25 41.7 143.4 42.55 L145.6 43.2 Q148.8 43.6 151.1 41.9 L151.55 41.5 Q153.85 39.4 153.85 35.9 153.85 32.4 151.45 29.5 149.0 26.85 145.5 26.45 142.1 25.9 139.65 28.05 L138.7 29.0 M83.15 93.85 L84.45 91.3 Q85.6 88.45 86.05 84.75 L86.35 81.65 Q86.55 77.45 85.2 73.6 95.05 79.15 108.8 80.4 L108.5 81.65 Q107.95 83.5 107.95 85.3 107.75 86.85 108.4 92.15 L108.7 94.8 Q103.5 92.4 96.3 92.15 L92.05 92.15 90.05 92.4 Q86.35 92.8 83.15 93.85 M58.15 14.6 Q58.35 11.5 56.25 9.05 L54.1 8.1 Q50.2 6.65 48.1 6.5 45.55 6.4 42.45 7.8 39.4 9.05 39.3 10.45 L39.3 11.1 Q39.5 14.15 44.25 16.7 48.4 18.8 51.35 18.9 54.0 19.05 56.05 17.65 L56.9 17.0 Q58.05 15.95 58.15 14.6 M40.75 41.6 L41.2 41.1 41.7 40.35 Q44.8 36.2 44.35 31.55 44.05 27.0 40.55 24.55 37.05 22.1 32.4 23.15 27.95 24.35 24.95 28.35 L24.85 28.45 24.0 29.85 Q21.9 33.35 22.2 37.15 22.65 41.9 26.05 44.35 29.55 46.8 34.2 45.65 38.0 44.7 40.75 41.6 M32.1 8.3 L27.5 7.7 26.15 7.7 24.95 8.3 Q23.6 9.05 23.3 10.35 23.15 10.75 23.15 11.2 23.05 13.75 24.85 14.9 26.25 15.75 29.45 15.85 31.65 15.95 33.35 14.6 34.95 13.2 35.05 11.4 L34.85 10.25 Q34.2 8.95 32.1 8.3" fill="#ee7b3d" fill-rule="evenodd" stroke="none"/>
      <path d="M148.05 73.1 L146.35 65.35 145.4 61.45 Q143.8 55.05 141.7 54.35 148.05 55.4 154.1 53.35 156.3 52.65 158.45 51.45 165.85 47.45 167.85 40.25 168.5 38.0 168.7 35.35 L168.6 31.3 Q170.3 36.75 169.75 42.25 L169.65 43.75 Q168.4 55.9 162.9 60.15 L162.65 60.35 Q157.05 64.6 152.6 64.4 L147.2 63.75 146.65 63.45 147.1 65.75 Q147.85 69.4 148.05 73.1 M144.95 5.9 L139.75 6.2 Q134.05 7.05 130.55 10.85 126.5 15.3 126.2 22.75 L126.1 23.6 Q126.1 25.8 126.65 28.65 L127.15 31.3 Q122.8 27.1 118.55 23.7 L117.0 22.4 115.2 21.25 113.4 19.9 113.5 19.45 Q116.35 10.35 122.3 6.4 125.65 4.2 130.0 3.75 131.6 3.65 135.95 3.85 L138.3 4.1 Q141.7 4.6 144.95 5.9 M118.55 23.7 Q117.1 22.1 115.2 21.25 117.1 22.1 118.55 23.7 M131.1 63.85 Q140.6 67.25 139.75 83.6 139.25 93.75 133.1 100.75 131.95 102.35 130.55 103.4 125.9 107.45 120.35 107.45 118.9 103.85 115.8 100.2 112.95 96.75 108.7 94.8 L108.4 92.15 Q107.75 86.85 107.95 85.3 107.95 83.5 108.5 81.65 L108.8 80.4 Q110.3 75.65 114.0 70.75 120.15 62.7 126.5 63.0 129.05 63.1 131.1 63.85 M121.0 120.45 Q125.15 119.3 128.3 117.8 123.85 121.4 118.9 123.95 120.25 123.1 121.0 120.45 M144.55 56.25 Q145.8 59.85 146.65 63.45 145.8 59.85 144.55 56.25 M114.45 41.6 L115.3 43.2 Q116.9 46.25 116.65 49.55 115.9 63.95 91.95 62.7 L87.6 61.95 Q83.6 60.6 80.0 57.1 73.75 51.25 74.15 43.6 L74.25 42.75 Q74.8 37.25 78.5 33.75 81.15 31.2 84.65 30.5 L83.6 31.85 Q78.3 35.9 77.95 41.9 L77.95 42.15 Q77.75 48.3 82.85 52.85 86.35 56.15 91.1 57.4 L95.55 58.15 Q103.2 58.8 109.05 55.8 114.95 52.85 114.55 45.65 L114.25 42.9 114.45 41.6 M85.2 73.6 Q86.55 77.45 86.35 81.65 L86.05 84.75 Q85.6 88.45 84.45 91.3 L83.15 93.85 Q78.6 95.35 75.0 98.2 69.6 102.35 67.5 107.85 66.4 110.95 66.2 114.3 L66.2 114.85 Q66.1 118.05 66.85 121.0 67.7 124.2 69.5 127.05 64.6 125.35 59.95 122.9 51.35 118.25 44.35 110.95 31.35 97.25 28.9 80.1 L28.6 77.1 Q16.3 76.8 9.2 69.6 2.1 62.3 0.7 56.55 -0.7 50.85 0.8 37.7 1.1 34.8 1.95 31.95 4.85 22.95 13.0 14.25 L11.6 16.6 Q7.7 23.9 6.3 32.9 5.8 36.1 5.6 39.5 5.05 49.45 11.2 56.65 16.7 63.25 24.95 64.5 26.15 62.4 28.35 60.05 32.1 56.25 35.9 54.55 34.75 62.4 36.3 70.65 36.95 73.7 37.9 76.8 39.6 82.1 42.15 87.1 L42.25 85.15 Q42.8 75.3 45.75 68.4 L47.0 66.1 Q52.55 56.45 62.9 57.0 66.65 57.2 70.15 58.55 74.7 60.35 78.8 64.3 L80.3 65.9 Q83.7 69.5 85.2 73.6 M28.7 65.65 L28.45 68.95 Q28.25 73.2 28.6 77.1 28.25 73.2 28.45 68.95 L28.7 65.65" fill="#a65435" fill-rule="evenodd" stroke="none"/>
      <path d="M163.6 29.2 Q163.5 31.2 162.45 32.6 L161.9 33.15 Q160.75 34.2 159.9 34.2 157.7 34.1 156.6 31.0 L156.0 27.95 Q156.1 26.75 156.5 26.15 156.85 25.5 157.35 25.3 L159.8 25.05 Q161.6 25.2 162.75 26.15 163.75 27.95 163.6 29.2 M143.15 10.55 L144.55 10.45 Q148.7 10.65 150.7 11.8 152.3 12.65 153.85 14.7 154.4 16.05 154.3 17.45 154.3 19.05 153.0 20.5 L152.3 21.25 Q151.45 21.9 150.7 21.9 148.25 21.8 143.9 19.25 138.7 16.15 138.8 13.2 138.9 11.8 140.95 10.95 L143.15 10.55 M58.15 14.6 Q58.05 15.95 56.9 17.0 L56.05 17.65 Q54.0 19.05 51.35 18.9 48.4 18.8 44.25 16.7 39.5 14.15 39.3 11.1 L39.3 10.45 Q39.4 9.05 42.45 7.8 45.55 6.4 48.1 6.5 50.2 6.65 54.1 8.1 L56.25 9.05 Q58.35 11.5 58.15 14.6 M32.1 8.3 Q34.2 8.95 34.85 10.25 L35.05 11.4 Q34.95 13.2 33.35 14.6 31.65 15.95 29.45 15.85 26.25 15.75 24.85 14.9 23.05 13.75 23.15 11.2 23.15 10.75 23.3 10.35 23.6 9.05 24.95 8.3 L26.15 7.7 27.5 7.7 32.1 8.3" fill="#ffac5b" fill-rule="evenodd" stroke="none"/>
      <path d="M151.1 41.9 L151.65 39.7 Q151.85 36.2 148.15 32.5 144.75 28.8 141.45 28.65 L138.7 29.0 139.65 28.05 Q142.1 25.9 145.5 26.45 149.0 26.85 151.45 29.5 153.85 32.4 153.85 35.9 153.85 39.4 151.55 41.5 L151.1 41.9 M83.6 31.85 Q81.9 34.3 81.8 37.15 81.7 39.5 82.2 41.5 83.05 45.0 85.8 47.85 89.0 51.35 92.9 52.2 L95.15 52.5 Q101.5 52.85 107.0 50.5 113.25 47.85 114.25 42.9 L114.55 45.65 Q114.95 52.85 109.05 55.8 103.2 58.8 95.55 58.15 L91.1 57.4 Q86.35 56.15 82.85 52.85 77.75 48.3 77.95 42.15 L77.95 41.9 Q78.3 35.9 83.6 31.85 M24.0 29.85 L24.85 28.45 24.95 28.35 Q27.95 24.35 32.4 23.15 37.05 22.1 40.55 24.55 44.05 27.0 44.35 31.55 44.8 36.2 41.7 40.35 L41.2 41.1 40.75 41.6 41.0 40.65 41.2 38.65 Q41.5 33.65 38.2 30.5 35.35 27.6 31.45 27.4 29.55 27.3 27.0 28.35 26.25 28.55 25.5 29.0 L24.0 29.85" fill="#58160e" fill-rule="evenodd" stroke="none"/>
      <path d="M151.1 41.9 Q148.8 43.6 145.6 43.2 L143.4 42.55 Q141.25 41.7 139.65 39.9 138.1 38.1 137.55 36.1 137.25 34.95 137.25 33.65 137.25 30.9 138.7 29.0 L141.45 28.65 Q144.75 28.8 148.15 32.5 151.85 36.2 151.65 39.7 L151.1 41.9 M143.9 33.65 Q141.15 33.45 141.05 35.9 140.95 36.95 141.9 37.8 142.75 38.75 143.8 38.75 146.35 38.95 146.55 36.5 146.65 33.75 143.9 33.65 M100.65 34.2 Q99.3 34.7 98.65 35.9 98.2 36.75 98.2 37.8 98.1 39.7 99.15 40.95 100.45 42.55 103.3 42.65 L103.75 42.75 105.65 42.55 107.1 42.15 Q108.7 41.3 108.8 38.95 108.95 37.6 107.1 35.25 L105.65 33.75 104.6 33.55 103.5 33.55 Q101.8 33.65 100.65 34.2 M86.15 30.15 Q89.55 28.35 93.35 28.15 L96.75 28.25 Q99.9 28.55 102.55 29.65 106.15 31.0 109.05 33.65 112.3 36.6 113.7 40.65 L114.25 42.9 Q113.25 47.85 107.0 50.5 101.5 52.85 95.15 52.5 L92.9 52.2 Q89.0 51.35 85.8 47.85 83.05 45.0 82.2 41.5 81.7 39.5 81.8 37.15 81.9 34.3 83.6 31.85 L83.9 31.55 86.15 30.15 M40.75 41.6 Q38.0 44.7 34.2 45.65 29.55 46.8 26.05 44.35 22.65 41.9 22.2 37.15 21.9 33.35 24.0 29.85 L25.5 29.0 Q26.25 28.55 27.0 28.35 29.55 27.3 31.45 27.4 35.35 27.6 38.2 30.5 41.5 33.65 41.2 38.65 L41.0 40.65 40.75 41.6 M30.9 32.5 Q29.45 32.5 28.35 33.25 27.1 34.2 27.1 35.8 27.0 36.85 27.85 38.2 28.9 40.0 30.6 40.1 32.7 40.25 33.75 38.45 L34.5 36.4 Q34.75 32.8 30.9 32.5" fill="#872d12" fill-rule="evenodd" stroke="none"/>
      <path d="M70.15 58.55 Q66.2 50.7 66.75 40.75 67.15 32.7 75.95 25.6 81.45 21.05 87.5 19.45 91.65 18.4 96.0 18.6 L100.45 19.35 Q103.95 20.4 108.2 22.65 115.05 26.25 121.35 31.85 128.0 37.9 131.5 44.15 133.0 46.8 133.85 49.45 L133.75 52.1 Q133.4 58.25 131.1 63.85 129.05 63.1 126.5 63.0 120.15 62.7 114.0 70.75 110.3 75.65 108.8 80.4 95.05 79.15 85.2 73.6 83.7 69.5 80.3 65.9 L78.8 64.3 Q74.7 60.35 70.15 58.55 M113.7 40.65 Q112.3 36.6 109.05 33.65 106.15 31.0 102.55 29.65 99.9 28.55 96.75 28.25 L93.35 28.15 Q89.55 28.35 86.15 30.15 L84.65 30.5 Q81.15 31.2 78.5 33.75 74.8 37.25 74.25 42.75 L74.15 43.6 Q73.75 51.25 80.0 57.1 83.6 60.6 87.6 61.95 L91.95 62.7 Q115.9 63.95 116.65 49.55 116.9 46.25 115.3 43.2 L114.45 41.6 113.7 40.65" fill="#ff9748" fill-rule="evenodd" stroke="none"/>
      <path d="M143.9 33.65 Q146.65 33.75 146.55 36.5 146.35 38.95 143.8 38.75 142.75 38.75 141.9 37.8 140.95 36.95 141.05 35.9 141.15 33.45 143.9 33.65 M100.65 34.2 Q101.8 33.65 103.5 33.55 L104.6 33.55 105.65 33.75 107.1 35.25 Q108.95 37.6 108.8 38.95 108.7 41.3 107.1 42.15 L105.65 42.55 103.75 42.75 103.3 42.65 Q100.45 42.55 99.15 40.95 98.1 39.7 98.2 37.8 98.2 36.75 98.65 35.9 99.3 34.7 100.65 34.2 M30.9 32.5 Q34.75 32.8 34.5 36.4 L33.75 38.45 Q32.7 40.25 30.6 40.1 28.9 40.0 27.85 38.2 27.0 36.85 27.1 35.8 27.1 34.2 28.35 33.25 29.45 32.5 30.9 32.5" fill="#b13e13" fill-rule="evenodd" stroke="none"/>
      <path d="M120.35 107.45 Q122.05 111.35 121.75 115.3 L121.75 115.7 Q118.25 106.05 112.65 101.6 106.6 96.85 94.85 96.1 L94.2 96.1 86.75 96.6 Q82.2 97.35 78.2 99.6 72.9 102.45 67.5 107.85 69.6 102.35 75.0 98.2 78.6 95.35 83.15 93.85 86.35 92.8 90.05 92.4 L92.05 92.15 96.3 92.15 Q103.5 92.4 108.7 94.8 112.95 96.75 115.8 100.2 118.9 103.85 120.35 107.45" fill="#ffe9a1" fill-rule="evenodd" stroke="none"/>
      <path d="M121.75 115.7 Q121.55 118.55 121.0 120.45 L117.1 121.4 109.9 122.6 Q99.5 123.85 87.1 123.25 79.35 122.8 70.55 117.7 L68.1 116.25 66.2 114.85 66.2 114.3 Q66.4 110.95 67.5 107.85 72.9 102.45 78.2 99.6 82.2 97.35 86.75 96.6 L94.2 96.1 94.85 96.1 Q106.6 96.85 112.65 101.6 118.25 106.05 121.75 115.7" fill="#ffcf74" fill-rule="evenodd" stroke="none"/>
      <path d="M66.2 114.85 L68.1 116.25 70.55 117.7 Q79.35 122.8 87.1 123.25 99.5 123.85 109.9 122.6 L117.1 121.4 121.0 120.45 Q120.25 123.1 118.9 123.95 115.6 125.55 112.0 126.85 100.55 130.85 87.0 130.1 77.65 129.7 69.5 127.05 67.7 124.2 66.85 121.0 66.1 118.05 66.2 114.85" fill="#deb270" fill-rule="evenodd" stroke="none"/>
      <path d="M168.6 31.3 Q166.4 23.8 159.8 16.7 152.7 8.95 144.95 5.9 141.7 4.6 138.3 4.1 L135.95 3.85 Q131.6 3.65 130.0 3.75 125.65 4.2 122.3 6.4 116.35 10.35 113.5 19.45 L113.4 19.9 113.25 20.2 112.55 19.9 Q106.5 17.1 99.7 15.75 L92.5 14.8 Q88.35 14.6 84.35 14.7 76.9 15.1 70.0 17.1 66.3 18.3 62.8 19.9 L61.45 20.5 M115.2 21.25 L113.25 20.2 M146.65 63.45 L147.2 63.75 152.6 64.4 Q157.05 64.6 162.65 60.35 L162.9 60.15 Q168.4 55.9 169.65 43.75 L169.75 42.25 Q170.3 36.75 168.6 31.3 M115.2 21.25 Q117.1 22.1 118.55 23.7 M120.35 107.45 Q122.05 111.35 121.75 115.3 L121.75 115.7 Q121.55 118.55 121.0 120.45 120.25 123.1 118.9 123.95 123.85 121.4 128.3 117.8 L130.25 116.35 134.45 112.4 Q139.05 107.75 142.1 102.35 148.15 91.55 148.25 78.2 L148.05 73.1 Q147.85 69.4 147.1 65.75 L146.65 63.45 Q145.8 59.85 144.55 56.25 M138.7 29.0 Q137.25 30.9 137.25 33.65 137.25 34.95 137.55 36.1 138.1 38.1 139.65 39.9 141.25 41.7 143.4 42.55 L145.6 43.2 Q148.8 43.6 151.1 41.9 L151.55 41.5 Q153.85 39.4 153.85 35.9 153.85 32.4 151.45 29.5 149.0 26.85 145.5 26.45 142.1 25.9 139.65 28.05 L138.7 29.0 M86.15 30.15 Q89.55 28.35 93.35 28.15 L96.75 28.25 Q99.9 28.55 102.55 29.65 106.15 31.0 109.05 33.65 112.3 36.6 113.7 40.65 L114.25 42.9 114.55 45.65 Q114.95 52.85 109.05 55.8 103.2 58.8 95.55 58.15 L91.1 57.4 Q86.35 56.15 82.85 52.85 77.75 48.3 77.95 42.15 L77.95 41.9 Q78.3 35.9 83.6 31.85 L83.9 31.55 86.15 30.15 M13.0 14.25 Q4.85 22.95 1.95 31.95 1.1 34.8 0.8 37.7 -0.7 50.85 0.7 56.55 2.1 62.3 9.2 69.6 16.3 76.8 28.6 77.1 28.25 73.2 28.45 68.95 L28.7 65.65 M108.7 94.8 Q103.5 92.4 96.3 92.15 L92.05 92.15 90.05 92.4 Q86.35 92.8 83.15 93.85 78.6 95.35 75.0 98.2 69.6 102.35 67.5 107.85 66.4 110.95 66.2 114.3 L66.2 114.85 Q66.1 118.05 66.85 121.0 67.7 124.2 69.5 127.05 77.65 129.7 87.0 130.1 100.55 130.85 112.0 126.85 115.6 125.55 118.9 123.95 M70.0 17.1 Q67.9 10.25 61.35 5.65 54.0 0.7 41.0 0.05 27.85 -0.6 15.1 12.05 L14.15 13.0 13.0 14.25 M24.0 29.85 L24.85 28.45 24.95 28.35 Q27.95 24.35 32.4 23.15 37.05 22.1 40.55 24.55 44.05 27.0 44.35 31.55 44.8 36.2 41.7 40.35 L41.2 41.1 40.75 41.6 Q38.0 44.7 34.2 45.65 29.55 46.8 26.05 44.35 22.65 41.9 22.2 37.15 21.9 33.35 24.0 29.85 M28.6 77.1 L28.9 80.1 Q31.35 97.25 44.35 110.95 51.35 118.25 59.95 122.9 64.6 125.35 69.5 127.05 M120.35 107.45 Q118.9 103.85 115.8 100.2 112.95 96.75 108.7 94.8" fill="none" stroke="#61280a" stroke-linecap="round" stroke-linejoin="round" stroke-width="1.5"/>
      <path d="M48.6 70.65 Q52.2 68.55 53.6 67.9 L58.7 68.2 Q56.9 70.1 55.95 71.5 54.1 73.85 53.15 76.35 52.2 78.9 52.1 81.55 51.7 88.05 55.5 92.4 59.3 96.6 65.45 96.95 71.95 97.25 76.6 91.95 L78.4 89.5 Q81.05 85.4 81.35 80.3 81.45 78.05 80.5 73.95 L79.8 70.85 Q82.0 72.45 84.65 75.3 L85.7 76.6 Q86.15 79.25 86.05 82.3 85.7 87.6 83.7 91.85 82.1 95.35 79.35 98.3 73.2 104.8 65.05 104.35 56.75 103.85 51.35 96.85 45.85 89.75 46.4 80.2 46.6 76.35 47.65 73.1 L48.6 70.65 M114.25 75.65 Q117.5 74.25 119.4 74.35 L120.8 74.55 Q118.7 77.0 118.15 78.5 117.7 79.55 117.4 85.5 117.2 89.0 118.9 92.4 121.1 96.95 125.9 97.25 131.2 97.55 135.2 92.5 136.7 90.7 137.65 88.65 139.25 85.3 139.45 81.45 139.55 80.5 139.25 79.0 L140.85 79.85 140.85 85.05 140.4 89.6 Q139.35 95.25 135.85 98.75 131.2 103.6 125.05 103.3 118.9 103.0 114.65 97.7 110.85 92.7 111.45 85.6 L111.6 84.75 Q112.2 79.85 114.25 75.65 M101.6 105.0 L101.4 105.2 Q101.2 105.3 101.1 106.35 101.1 108.3 101.3 107.85 L101.7 108.15 103.3 108.5 104.9 108.3 105.55 107.65 105.75 106.6 Q104.8 105.3 104.45 105.1 L101.6 105.0 M109.35 106.5 L107.55 109.15 Q105.2 111.25 101.3 111.05 97.35 110.95 94.6 107.75 92.9 105.85 92.4 103.5 L93.15 102.85 Q96.1 100.95 100.15 101.2 104.25 101.4 107.1 103.6 108.7 105.0 109.35 106.5" fill="#5b1e0b" fill-rule="evenodd" stroke="none"/>
      <path d="M85.7 76.6 L84.65 75.3 Q82.0 72.45 79.8 70.85 L80.5 73.95 Q81.45 78.05 81.35 80.3 81.05 85.4 78.4 89.5 L76.6 91.95 Q71.95 97.25 65.45 96.95 59.3 96.6 55.5 92.4 51.7 88.05 52.1 81.55 52.2 78.9 53.15 76.35 54.1 73.85 55.95 71.5 56.9 70.1 58.7 68.2 L53.6 67.9 Q52.2 68.55 48.6 70.65 50.3 67.15 53.05 64.2 59.2 57.7 67.35 58.15 75.55 58.55 81.05 65.65 84.75 70.55 85.7 76.6 M140.85 79.85 L139.25 79.0 Q139.55 80.5 139.45 81.45 139.25 85.3 137.65 88.65 136.7 90.7 135.2 92.5 131.2 97.55 125.9 97.25 121.1 96.95 118.9 92.4 117.2 89.0 117.4 85.5 117.7 79.55 118.15 78.5 118.7 77.0 120.8 74.55 L119.4 74.35 Q117.5 74.25 114.25 75.65 115.4 73.3 117.0 71.05 121.45 65.05 128.45 65.15 135.45 65.25 138.3 70.75 140.4 74.45 140.85 79.85 M120.8 92.5 L122.5 93.65 Q123.85 93.35 124.6 92.9 L124.85 91.75 Q124.95 91.3 124.1 90.7 123.35 90.15 122.7 89.95 121.2 90.35 120.35 91.3 120.35 91.85 120.8 92.5 M130.65 73.5 Q129.4 74.25 129.3 76.15 129.15 78.6 130.25 80.2 131.4 82.1 133.95 82.2 L136.25 82.2 136.9 82.0 137.35 78.9 Q137.55 74.35 133.5 73.2 131.95 72.75 130.65 73.5 M70.85 70.75 Q70.75 72.75 72.45 74.8 74.15 76.7 75.75 76.8 L77.85 76.7 78.5 76.6 78.8 73.5 Q79.05 69.5 75.0 68.0 73.4 67.35 72.25 68.0 71.0 68.75 70.85 70.75 M57.75 89.95 Q57.6 91.95 57.85 91.45 L58.25 91.85 60.05 92.15 61.65 91.95 62.3 91.3 62.6 90.05 61.25 88.55 58.15 88.45 57.95 88.65 Q57.75 88.8 57.75 89.95 M109.35 106.5 Q109.75 107.65 109.65 108.9 109.55 112.0 106.6 113.9 103.5 115.9 99.4 115.7 95.35 115.4 92.5 113.15 89.75 110.95 89.95 107.85 90.05 105.3 92.4 103.5 92.9 105.85 94.6 107.75 97.35 110.95 101.3 111.05 105.2 111.25 107.55 109.15 L109.35 106.5" fill="#381308" fill-rule="evenodd" stroke="none"/>
      <path d="M57.75 89.95 Q57.75 88.8 57.95 88.65 L58.15 88.45 61.25 88.55 62.6 90.05 62.3 91.3 61.65 91.95 60.05 92.15 58.25 91.85 57.85 91.45 Q57.6 91.95 57.75 89.95 M70.85 70.75 Q71.0 68.75 72.25 68.0 73.4 67.35 75.0 68.0 79.05 69.5 78.8 73.5 L78.5 76.6 77.85 76.7 75.75 76.8 Q74.15 76.7 72.45 74.8 70.75 72.75 70.85 70.75 M130.65 73.5 Q131.95 72.75 133.5 73.2 137.55 74.35 137.35 78.9 L136.9 82.0 136.25 82.2 133.95 82.2 Q131.4 82.1 130.25 80.2 129.15 78.6 129.3 76.15 129.4 74.25 130.65 73.5 M120.8 92.5 Q120.35 91.85 120.35 91.3 121.2 90.35 122.7 89.95 123.35 90.15 124.1 90.7 124.95 91.3 124.85 91.75 L124.6 92.9 Q123.85 93.35 122.5 93.65 L120.8 92.5 M101.6 105.0 L104.45 105.1 Q104.8 105.3 105.75 106.6 L105.55 107.65 104.9 108.3 103.3 108.5 101.7 108.15 101.3 107.85 Q101.1 108.3 101.1 106.35 101.2 105.3 101.4 105.2 L101.6 105.0" fill="#ffffff" fill-rule="evenodd" stroke="none"/>
      <path d="M48.6 70.65 L47.65 73.1 Q46.6 76.35 46.4 80.2 45.85 89.75 51.35 96.85 56.75 103.85 65.05 104.35 73.2 104.8 79.35 98.3 82.1 95.35 83.7 91.85 85.7 87.6 86.05 82.3 86.15 79.25 85.7 76.6 84.75 70.55 81.05 65.65 75.55 58.55 67.35 58.15 59.2 57.7 53.05 64.2 50.3 67.15 48.6 70.65 M114.25 75.65 Q112.2 79.85 111.6 84.75 L111.45 85.6 Q110.85 92.7 114.65 97.7 118.9 103.0 125.05 103.3 131.2 103.6 135.85 98.75 139.35 95.25 140.4 89.6 L140.85 85.05 140.85 79.85 Q140.4 74.45 138.3 70.75 135.45 65.25 128.45 65.15 121.45 65.05 117.0 71.05 115.4 73.3 114.25 75.65 M92.4 103.5 Q90.05 105.3 89.95 107.85 89.75 110.95 92.5 113.15 95.35 115.4 99.4 115.7 103.5 115.9 106.6 113.9 109.55 112.0 109.65 108.9 109.75 107.65 109.35 106.5 108.7 105.0 107.1 103.6 104.25 101.4 100.15 101.2 96.1 100.95 93.15 102.85 L92.4 103.5" fill="none" stroke="#250502" stroke-linecap="round" stroke-linejoin="round" stroke-width="2.0"/>
      <path d="M110.1 118.9 Q109.75 120.05 108.3 121.2 106.15 123.0 104.05 122.6 101.95 122.15 100.45 119.95 99.15 118.25 98.95 117.1 98.45 119.85 94.7 121.75 91.75 123.25 90.5 123.1 87.1 122.9 85.3 120.45 84.35 119.2 84.1 117.8" fill="none" stroke="#421712" stroke-linecap="round" stroke-linejoin="round" stroke-width="2.0"/>
    </g>
  </defs>
</svg>
