<?xml version="1.0" encoding="UTF-8" standalone="no"?>
<svg xmlns:xlink="http://www.w3.org/1999/xlink" height="299.8px" width="236.55px" xmlns="http://www.w3.org/2000/svg">
  <g transform="matrix(1.0, 0.0, 0.0, 1.0, 99.65, 258.7)">
    <use data-characterId="2" height="93.65" transform="matrix(0.95, 0.0, 0.0, 0.95, -1.3925, -47.9074)" width="24.3" xlink:href="#shape0"/>
    <use data-characterId="3" height="85.7" transform="matrix(0.95, 0.0, 0.0, 0.95, 37.0575, -53.1574)" width="20.3" xlink:href="#shape1"/>
    <use data-characterId="4" height="82.0" transform="matrix(0.95, 0.0, 0.0, 0.95, -61.1149, -51.2499)" width="35.4" xlink:href="#shape2"/>
    <use data-characterId="5" height="51.35" transform="matrix(0.95, 0.0, 0.0, 0.95, -25.24, -38.2149)" width="26.4" xlink:href="#shape3"/>
    <use data-characterId="6" height="50.4" transform="matrix(0.95, 0.0, 0.0, 0.95, -87.4174, -144.1899)" width="59.3" xlink:href="#shape4"/>
    <use data-characterId="7" height="109.25" transform="matrix(0.95, 0.0, 0.0, 0.95, -63.2748, -140.6673)" width="157.0" xlink:href="#shape5"/>
    <use data-characterId="8" height="184.0" transform="matrix(0.95, 0.0, 0.0, 0.95, -99.6321, -258.6997)" width="246.75" xlink:href="#shape6"/>
  </g>
  <defs>
    <g id="shape0" transform="matrix(1.0, 0.0, 0.0, 1.0, 12.15, 46.85)">
      <path d="M5.2 -43.65 L5.05 -44.05 4.25 -44.1 Q4.15 -44.45 3.25 -44.75 L0.5 -45.4 -0.95 -45.9 -3.65 -46.85 -4.2 -46.35 -7.25 -45.55 Q-9.5 -43.15 -11.3 -41.5 L-11.25 -41.0 -12.15 -40.35 -12.15 -39.3 -12.1 -38.0 -11.75 -33.95 -10.5 -23.8 -10.35 -22.25 -10.2 -21.3 Q-8.9 -10.7 -8.5 -6.15 L-8.25 -3.05 -8.35 -1.5 -8.5 2.25 -8.75 10.0 -9.2 21.25 -9.15 38.5 -9.15 38.55 -8.9 44.3 Q-8.7 46.4 -8.25 45.8 L-7.6 46.15 0.05 46.8 2.8 46.8 3.1 46.8 5.3 46.65 Q8.55 46.3 10.2 45.3 L10.5 45.1 8.2 44.5 8.45 44.35 8.75 44.2 8.7 44.2 6.3 44.0 6.3 44.3 Q4.25 44.15 2.8 43.2 0.65 41.75 -0.3 38.65 -1.1 35.95 -1.8 24.0 -2.4 14.65 -3.9 12.7 -5.3 10.95 -5.3 6.6 L-5.05 2.25 -4.85 0.4 -4.7 -1.5 -4.4 -5.55 -4.4 -6.15 Q-4.55 -9.2 -5.75 -18.95 L-6.1 -22.25 -6.3 -23.8 Q-7.05 -30.75 -7.05 -33.55 L-7.05 -33.95 Q-6.9 -35.55 -6.0 -38.0 L-5.6 -39.2 Q-4.0 -43.25 -2.55 -43.25 L-0.95 -42.95 0.5 -42.35 1.65 -41.8 Q3.55 -40.75 4.55 -39.4 L4.65 -40.75 4.9 -38.95 5.15 -36.95 5.2 -43.65 M6.3 44.3 L7.0 44.3 6.45 44.4 6.3 44.3 M11.8 10.75 L11.65 8.0 11.3 -0.65 9.9 -0.15 9.9 -0.8 Q9.1 0.1 7.75 0.6 L7.6 0.65 7.3 0.75 6.25 1.05 -0.95 1.95 -1.25 1.95 -1.3 2.25 Q-1.45 2.55 -1.8 2.55 -1.15 4.05 -0.1 5.45 L3.1 8.35 4.7 9.45 5.0 9.65 8.35 11.4 9.2 11.8 9.7 11.1 10.5 10.1 10.5 10.95 11.8 10.75" fill="#8babda" fill-rule="evenodd" stroke="none"/>
      <path d="M5.2 -43.65 L5.15 -36.95 4.9 -38.95 4.65 -40.75 4.55 -39.4 4.55 -37.85 5.15 -23.8 5.15 -22.25 Q5.05 -16.35 4.4 -14.1 3.7 -11.5 3.7 -7.0 L3.6 -6.15 Q3.25 -3.6 0.65 -1.7 L0.35 -1.5 -0.95 -0.4 Q-2.4 0.8 -2.4 1.55 L-2.3 2.25 -1.75 3.4 -0.1 5.45 Q-1.15 4.05 -1.8 2.55 -1.45 2.55 -1.3 2.25 L-1.25 1.95 -0.95 1.95 6.25 1.05 7.3 0.75 7.6 0.65 7.75 0.6 Q9.1 0.1 9.9 -0.8 L9.9 -0.15 11.3 -0.65 11.3 -1.5 11.3 -1.6 10.85 -6.15 9.1 -22.25 8.9 -23.8 7.4 -33.95 Q6.35 -39.7 5.2 -43.65" fill="#ffffff" fill-rule="evenodd" stroke="none"/>
      <path d="M4.55 -39.4 Q3.55 -40.75 1.65 -41.8 L0.5 -42.35 -0.95 -42.95 -2.55 -43.25 Q-4.0 -43.25 -5.6 -39.2 L-6.0 -38.0 Q-6.9 -35.55 -7.05 -33.95 L-7.05 -33.55 Q-7.05 -30.75 -6.3 -23.8 L-6.1 -22.25 -5.75 -18.95 Q-4.55 -9.2 -4.4 -6.15 L-4.4 -5.55 -4.7 -1.5 -4.85 0.4 -5.05 2.25 -5.3 6.6 Q-5.3 10.95 -3.9 12.7 -2.4 14.65 -1.8 24.0 -1.1 35.95 -0.3 38.65 0.65 41.75 2.8 43.2 4.25 44.15 6.3 44.3 L6.3 44.0 8.7 44.2 8.75 44.2 8.45 44.35 8.2 44.5 10.5 45.1 11.45 44.2 Q12.1 43.4 12.15 42.4 L11.9 11.9 11.8 10.75 10.5 10.95 10.5 10.1 9.7 11.1 9.2 11.8 8.35 11.4 5.0 9.65 4.7 9.45 3.1 8.35 -0.1 5.45 -1.75 3.4 -2.3 2.25 -2.4 1.55 Q-2.4 0.8 -0.95 -0.4 L0.35 -1.5 0.65 -1.7 Q3.25 -3.6 3.6 -6.15 L3.7 -7.0 Q3.7 -11.5 4.4 -14.1 5.05 -16.35 5.15 -22.25 L5.15 -23.8 4.55 -37.85 4.55 -39.4" fill="#bed0eb" fill-rule="evenodd" stroke="none"/>
    </g>
    <g id="shape1" transform="matrix(1.0, 0.0, 0.0, 1.0, 10.15, 42.85)">
      <path d="M3.65 42.85 L3.15 41.55 3.5 41.55 3.65 41.55 2.9 41.05 Q0.45 38.95 -1.15 34.95 -3.75 28.4 -3.75 17.55 L-3.15 12.2 Q-3.15 11.55 -3.9 8.05 L-3.9 8.0 Q-4.55 4.95 -4.6 3.35 L-4.6 2.9 -4.05 -10.1 -4.5 -18.25 -4.9 -24.45 -4.9 -24.8 -4.9 -26.2 Q-4.9 -31.4 -3.15 -35.75 -1.45 -40.1 0.75 -40.1 L1.55 -40.05 2.85 -39.55 3.05 -39.4 3.05 -39.55 4.15 -39.55 3.65 -42.8 3.0 -42.35 3.0 -42.85 Q0.15 -41.8 -3.15 -41.8 L-6.7 -38.25 -7.9 -37.5 -7.95 -37.45 -10.15 -36.05 -10.15 -35.2 -9.7 -24.45 -9.35 -18.75 -8.9 -10.6 Q-8.55 -2.8 -8.55 3.3 L-9.25 21.55 -9.35 30.1 -9.35 33.8 -9.4 36.95 -9.4 41.3 -8.9 41.55 -3.05 42.7 1.15 42.85 3.4 42.85 3.65 42.85 M-1.45 2.2 L-1.15 3.35 Q-0.5 5.1 1.15 7.55 L1.45 8.0 Q3.5 10.75 4.5 10.9 L4.65 10.9 5.3 10.8 Q6.05 10.65 6.4 10.1 L6.45 10.8 7.9 10.8 7.9 10.4 7.6 8.0 7.1 3.35 6.6 -1.0 5.35 -0.65 3.65 0.9 Q1.45 2.2 -1.45 2.2" fill="#8babda" fill-rule="evenodd" stroke="none"/>
      <path d="M4.15 -39.55 L3.05 -39.55 3.05 -39.4 2.85 -39.55 1.55 -40.05 0.75 -40.1 Q-1.45 -40.1 -3.15 -35.75 -4.9 -31.4 -4.9 -26.2 L-4.9 -24.8 -4.9 -24.45 -4.5 -18.25 -4.05 -10.1 -4.6 2.9 -4.6 3.35 Q-4.55 4.95 -3.9 8.0 L-3.9 8.05 Q-3.15 11.55 -3.15 12.2 L-3.75 17.55 Q-3.75 28.4 -1.15 34.95 0.45 38.95 2.9 41.05 L3.65 41.55 3.5 41.55 3.15 41.55 3.65 42.85 5.6 42.6 Q7.85 42.35 8.55 41.85 L9.05 41.15 9.2 40.9 9.7 39.3 Q10.1 37.5 10.15 34.65 9.85 28.4 7.9 10.8 L6.45 10.8 6.4 10.1 Q6.05 10.65 5.3 10.8 L4.65 10.9 4.5 10.9 Q3.5 10.75 1.45 8.0 L1.15 7.55 Q-0.5 5.1 -1.15 3.35 L-1.45 2.2 Q-2.0 1.6 -2.0 1.2 L0.0 -2.15 Q1.95 -5.55 2.05 -7.05 L2.1 -9.7 1.95 -17.65 Q1.9 -21.4 2.1 -24.45 L2.1 -24.8 2.35 -26.5 3.2 -32.3 4.95 -32.3 4.7 -34.9 4.15 -39.55" fill="#bed0eb" fill-rule="evenodd" stroke="none"/>
      <path d="M4.95 -32.3 L3.2 -32.3 2.35 -26.5 2.1 -24.8 2.1 -24.45 Q1.9 -21.4 1.95 -17.65 L2.1 -9.7 2.05 -7.05 Q1.95 -5.55 0.0 -2.15 L-2.0 1.2 Q-2.0 1.6 -1.45 2.2 1.45 2.2 3.65 0.9 L5.35 -0.65 6.6 -1.0 6.4 -3.0 5.6 -10.5 5.6 -25.25 4.95 -32.3" fill="#ffffff" fill-rule="evenodd" stroke="none"/>
    </g>
    <g id="shape2" transform="matrix(1.0, 0.0, 0.0, 1.0, 17.7, 41.0)">
      <path d="M4.25 -5.1 L1.7 -14.1 1.65 -14.55 9.3 -20.4 14.6 -24.6 17.7 -27.15 16.4 -27.35 16.85 -27.75 14.4 -28.65 14.0 -28.8 Q7.5 -31.7 1.35 -37.45 L1.0 -37.8 0.05 -38.75 -3.0 -36.55 -3.5 -36.2 Q-4.15 -35.75 -4.9 -35.25 L-3.45 -35.6 -3.0 -35.6 -1.9 -35.5 Q0.85 -34.9 2.8 -32.45 4.15 -30.6 4.6 -28.65 L4.8 -27.0 4.8 -26.8 Q4.8 -25.9 4.15 -24.6 3.15 -22.2 0.2 -18.25 L-2.95 -14.1 -4.45 -12.15 -1.55 -10.05 Q1.55 -7.95 2.2 -6.35 L2.45 -5.7 4.05 -2.6 3.15 -5.5 Q3.75 -5.25 4.25 -5.1" fill="#8babda" fill-rule="evenodd" stroke="none"/>
      <path d="M-3.0 -35.6 L-3.45 -35.6 -4.9 -35.25 Q-4.15 -35.75 -3.5 -36.2 L-5.95 -36.2 -6.75 -35.75 -6.35 -35.5 -9.95 -32.85 Q-13.2 -30.6 -16.25 -29.05 L-16.7 -28.65 -17.55 -27.0 -17.7 -25.25 -17.7 -24.6 -15.8 -14.1 -15.55 -12.8 Q-13.35 -2.1 -13.35 -1.2 L-13.3 3.2 -13.15 10.75 -13.15 11.6 -13.05 19.5 -13.05 22.7 -12.8 32.25 Q-12.65 34.3 -11.85 36.15 L-11.25 37.4 -10.8 38.0 -10.7 38.2 Q-10.05 39.0 -8.05 40.1 -7.95 40.1 -7.8 40.25 L-7.2 40.5 -7.0 40.5 -0.1 40.8 1.35 40.8 1.15 39.0 -0.3 38.9 -1.05 38.9 Q-6.9 35.45 -7.55 31.15 -7.85 29.35 -7.5 23.2 L-7.4 20.0 Q-7.35 15.75 -7.95 12.2 L-8.05 11.6 -9.0 3.2 -9.3 -1.5 -9.65 -8.65 -11.25 -14.1 -12.2 -17.1 Q-13.7 -21.8 -13.7 -24.3 L-13.7 -24.6 Q-13.6 -25.7 -12.8 -27.0 L-11.5 -28.65 Q-8.8 -31.65 -3.0 -35.6" fill="#bdc2ec" fill-rule="evenodd" stroke="none"/>
      <path d="M4.25 -5.1 Q3.75 -5.25 3.15 -5.5 L4.05 -2.6 2.45 -5.7 2.2 -6.35 Q1.55 -7.95 -1.55 -10.05 L-4.45 -12.15 -2.95 -14.1 0.2 -18.25 Q3.15 -22.2 4.15 -24.6 4.8 -25.9 4.8 -26.8 L4.8 -27.0 4.6 -28.65 Q4.15 -30.6 2.8 -32.45 0.85 -34.9 -1.9 -35.5 L-3.0 -35.6 Q-8.8 -31.65 -11.5 -28.65 L-12.8 -27.0 Q-13.6 -25.7 -13.7 -24.6 L-13.7 -24.3 Q-13.7 -21.8 -12.2 -17.1 L-11.25 -14.1 -9.65 -8.65 -9.3 -1.5 -9.0 3.2 -8.05 11.6 -7.95 12.2 Q-7.35 15.75 -7.4 20.0 L-7.5 23.2 Q-7.85 29.35 -7.55 31.15 -6.9 35.45 -1.05 38.9 L-0.3 38.9 1.05 38.8 Q3.1 38.4 4.25 37.7 6.85 36.15 6.85 32.35 6.85 30.35 4.15 18.4 L2.65 11.6 0.9 3.2 -0.15 -2.45 -0.4 -3.75 1.95 -2.9 Q3.45 -2.15 4.6 -0.4 L4.6 -0.2 5.85 0.4 4.25 -5.1 M-3.5 -36.2 L-3.0 -36.55 0.05 -38.75 1.0 -37.8 -2.15 -41.0 -0.45 -39.25 Q-1.55 -38.9 -3.7 -37.35 L-3.85 -37.2 -5.1 -36.35 -5.25 -36.55 -5.95 -36.2 -3.5 -36.2" fill="#bed0eb" fill-rule="evenodd" stroke="none"/>
      <path d="M1.35 40.8 L2.85 40.9 3.5 40.95 5.35 41.0 6.7 41.0 Q12.05 41.0 13.35 39.45 L13.65 37.7 Q13.65 36.9 13.6 37.7 13.3 31.3 12.0 24.0 L11.85 23.2 Q10.85 17.75 9.3 11.9 L9.25 11.6 8.9 10.3 6.85 3.65 6.7 3.2 6.15 1.25 5.85 0.4 4.6 -0.2 4.6 -0.4 Q3.45 -2.15 1.95 -2.9 L-0.4 -3.75 -0.15 -2.45 0.9 3.2 2.65 11.6 4.15 18.4 Q6.85 30.35 6.85 32.35 6.85 36.15 4.25 37.7 3.1 38.4 1.05 38.8 L-0.3 38.9 1.15 39.0 1.35 40.8" fill="#ffffff" fill-rule="evenodd" stroke="none"/>
    </g>
    <g id="shape3" transform="matrix(1.0, 0.0, 0.0, 1.0, 13.2, 25.7)">
      <path d="M9.9 25.1 L8.85 23.95 7.9 23.95 Q6.8 23.35 6.3 22.85 4.8 21.25 3.7 16.1 L2.8 13.2 0.5 5.1 0.45 4.8 Q-2.4 -4.9 -2.4 -6.65 -2.4 -10.35 3.7 -18.45 L4.25 -19.25 4.65 -18.8 4.7 -18.45 5.55 -19.6 4.65 -23.0 4.05 -25.25 5.55 -25.7 1.15 -24.7 -5.6 -24.3 -8.75 -24.45 -8.25 -23.0 Q-6.6 -17.85 -5.35 -10.4 L-3.25 2.8 -2.9 4.8 Q-2.3 8.45 -2.05 13.2 L-1.8 17.0 Q-1.4 19.2 -0.2 21.3 L1.0 23.2 2.0 24.35 2.4 24.35 3.1 24.3 4.4 25.55 9.9 25.1" fill="#6488bd" fill-rule="evenodd" stroke="none"/>
      <path d="M5.55 -19.6 L4.7 -18.45 4.65 -18.8 4.25 -19.25 3.7 -18.45 Q-2.4 -10.35 -2.4 -6.65 -2.4 -4.9 0.45 4.8 L0.5 5.1 2.8 13.2 3.7 16.1 Q4.8 21.25 6.3 22.85 6.8 23.35 7.9 23.95 L8.85 23.95 9.9 25.1 10.55 25.0 10.65 25.0 12.55 24.5 12.95 24.15 13.2 23.85 13.2 23.7 13.1 21.05 12.8 14.65 12.65 13.2 12.25 9.45 11.5 4.8 9.75 -3.75 6.2 -17.3 5.55 -19.6" fill="#8babda" fill-rule="evenodd" stroke="none"/>
      <path d="M4.4 25.55 L3.1 24.3 2.4 24.35 2.0 24.35 1.0 23.2 -0.2 21.3 Q-1.4 19.2 -1.8 17.0 L-2.05 13.2 Q-2.3 8.45 -2.9 4.8 L-3.25 2.8 -5.35 -10.4 Q-6.6 -17.85 -8.25 -23.0 L-8.75 -24.45 -9.2 -24.55 -10.65 -24.7 -13.2 -25.1 -12.4 -24.95 -12.05 -23.0 -10.15 -15.2 Q-7.45 -4.25 -7.3 -1.15 L-6.9 4.8 -6.3 11.35 -6.15 13.2 -5.8 22.75 -5.8 22.85 -4.95 24.5 -4.65 24.75 -4.65 24.8 Q-3.25 25.65 2.4 25.65 L3.25 25.6 4.4 25.55" fill="#bdc2ec" fill-rule="evenodd" stroke="none"/>
    </g>
    <g id="shape4" transform="matrix(1.0, 0.0, 0.0, 1.0, 29.65, 25.2)">
      <path d="M25.3 -8.75 L26.45 -9.1 29.3 -9.7 28.85 -10.0 29.65 -10.2 26.45 -13.05 25.6 -13.85 21.05 -17.6 23.65 -16.95 21.45 -17.55 11.4 -25.2 10.45 -24.4 14.45 -19.4 14.3 -19.5 25.3 -8.75 M-3.55 -12.9 L-2.8 -10.0 -2.45 -8.55 -2.15 -7.75 -3.1 -8.1 -3.65 -8.35 Q-12.35 -12.1 -18.45 -14.35 L-18.25 -14.7 -18.75 -14.4 -19.6 -14.75 -22.7 -11.35 -20.9 -10.7 -20.85 -10.8 11.25 1.45 12.65 -0.35 Q8.65 -1.9 -0.05 -5.65 L-1.3 -6.15 -1.15 -7.3 -1.45 -7.45 -1.35 -7.65 -1.7 -9.05 10.55 -17.15 9.15 -18.85 -2.6 -12.8 -2.2 -13.4 -3.55 -12.9 M13.2 -1.0 L13.5 -0.95 14.0 -1.45 Q16.7 -4.2 19.65 -6.0 L12.05 -15.3 0.95 -6.45 13.2 -1.0" fill="#4db3dd" fill-rule="evenodd" stroke="none"/>
      <path d="M25.3 -8.75 L14.3 -19.5 14.45 -19.4 10.45 -24.4 9.45 -23.55 12.9 -19.85 12.25 -20.0 13.2 -19.0 10.55 -17.15 -1.7 -9.05 -1.35 -7.65 -1.45 -7.45 -1.15 -7.3 0.95 -6.45 12.05 -15.3 14.75 -17.4 23.2 -7.9 25.3 -8.75 M-22.7 -11.35 L-23.45 -10.55 -21.65 -9.85 Q-17.8 -8.25 -13.9 -6.75 L-16.5 -3.35 -22.95 5.15 -20.05 10.5 -13.6 -2.15 -11.7 -5.85 10.25 2.85 11.25 1.45 -20.85 -10.8 -20.9 -10.7 -22.7 -11.35" fill="#ffffff" fill-rule="evenodd" stroke="none"/>
      <path d="M9.45 -23.55 L6.9 -21.45 6.7 -21.5 6.1 -21.2 Q4.0 -20.15 0.65 -17.3 -3.55 -13.75 -3.55 -13.1 L-3.55 -12.9 -2.2 -13.4 -2.6 -12.8 9.15 -18.85 10.55 -17.15 13.2 -19.0 12.25 -20.0 12.9 -19.85 9.45 -23.55 M-23.45 -10.55 L-24.4 -9.5 -28.65 -3.85 -29.1 -3.4 -29.05 -3.35 -29.6 -2.6 Q-29.7 -2.3 -29.4 -2.25 L-28.8 -1.25 -27.15 -2.0 -26.95 -2.15 -21.2 -5.15 Q-18.9 -4.2 -16.5 -3.35 L-13.9 -6.75 Q-17.8 -8.25 -21.65 -9.85 L-23.45 -10.55 M3.5 21.65 Q4.35 20.95 5.15 20.5 4.9 19.0 4.9 17.25 4.9 13.85 5.95 10.5 L6.05 10.45 Q7.4 6.6 10.25 2.85 L-11.7 -5.85 -13.6 -2.15 -0.05 3.1 4.0 4.7 3.5 21.65 M19.65 -6.0 Q21.4 -7.15 23.2 -7.9 L14.75 -17.4 12.05 -15.3 19.65 -6.0" fill="#476a9e" fill-rule="evenodd" stroke="none"/>
      <path d="M-28.8 -1.25 L-28.75 -1.25 Q-27.0 1.65 -24.1 7.75 L-22.8 10.45 -22.8 10.5 -17.05 21.4 -8.8 22.9 0.0 25.2 2.1 23.1 -15.4 18.9 -20.05 10.5 -22.95 5.15 -26.95 -2.1 -26.95 -2.15 -27.15 -2.0 -28.8 -1.25" fill="#9de7ff" fill-rule="evenodd" stroke="none"/>
      <path d="M2.1 23.1 L2.65 22.6 3.5 21.65 -0.05 3.1 -13.6 -2.15 -20.05 10.5 -15.4 18.9 2.1 23.1 M12.65 -0.35 L13.2 -1.0 0.95 -6.45 -1.15 -7.3 -1.3 -6.15 -0.05 -5.65 Q8.65 -1.9 12.65 -0.35 M-26.95 -2.15 L-26.95 -2.1 -22.95 5.15 -16.5 -3.35 Q-18.9 -4.2 -21.2 -5.15 L-26.95 -2.15" fill="#50a8e2" fill-rule="evenodd" stroke="none"/>
      <path d="M3.5 21.65 L4.0 4.7 -0.05 3.1 3.5 21.65" fill="#6699cc" fill-rule="evenodd" stroke="none"/>
    </g>
    <g id="shape5" transform="matrix(1.0, 0.0, 0.0, 1.0, 78.5, 54.65)">
      <path d="M-59.95 -52.65 L-60.1 -52.8 -58.0 -52.15 -57.8 -52.05 -59.95 -52.65 M-63.0 -31.7 L-61.6 -33.5 -61.4 -33.45 -62.95 -31.7 -63.0 -31.7" fill="#4db3dd" fill-rule="evenodd" stroke="none"/>
      <path d="M78.05 -40.3 L78.0 -43.6 78.2 -43.7 78.4 -40.6 78.05 -40.3 M-62.15 -53.35 L-62.0 -53.15 -67.2 -54.5 -67.05 -54.65 -62.15 -53.35 M-16.2 -40.9 L-18.25 -41.55 -16.2 -40.95 -16.2 -40.9 M-10.55 -33.05 L-11.25 -32.95 -12.95 -36.35 -10.55 -33.05" fill="#476a9e" fill-rule="evenodd" stroke="none"/>
      <path d="M-7.3 42.65 L-6.35 42.35 Q-7.95 41.45 -9.6 40.15 L-10.2 40.7 -10.85 40.8 Q-15.05 40.8 -21.55 30.75 L-21.65 30.7 -22.15 29.8 -22.35 29.45 -23.6 27.5 -25.05 24.9 -26.85 21.1 Q-28.9 16.25 -29.1 12.4 L-29.1 11.55 -29.1 7.8 -28.95 5.45 Q-28.6 2.95 -26.8 -0.35 L-26.8 0.85 -25.25 7.8 -25.05 8.65 -24.0 12.4 Q-22.7 16.9 -21.55 18.75 -20.75 19.95 -20.1 19.95 L-19.25 19.95 -21.0 14.9 -21.55 12.5 -21.55 12.4 Q-22.15 9.75 -22.15 7.8 L-22.0 4.8 -21.55 1.55 Q-21.0 -1.65 -19.8 -4.95 -18.95 -7.45 -17.9 -9.2 L-17.15 -10.35 -16.2 -11.55 Q-14.15 -13.65 -11.7 -13.65 L-10.05 -13.55 Q-5.75 -13.2 -2.45 -10.7 L-2.15 -10.45 -0.7 -9.25 0.8 -7.5 Q3.3 -4.25 4.8 0.4 L5.8 4.3 5.6 4.8 5.05 7.0 4.8 7.8 Q4.5 9.5 4.5 10.7 4.5 12.35 4.8 14.0 5.15 15.95 5.9 17.8 6.7 19.8 7.8 21.1 8.95 22.35 10.3 22.85 L10.3 22.25 10.3 21.1 Q10.4 13.8 10.95 12.0 11.85 9.25 14.0 7.8 16.55 6.05 20.75 6.05 24.9 6.05 29.2 7.8 31.85 8.8 34.5 10.55 L38.15 13.0 39.25 13.85 Q43.55 17.35 45.45 20.4 L45.8 21.1 Q46.85 22.95 46.85 24.6 46.85 26.05 46.3 27.5 45.9 29.0 44.85 30.55 L44.8 30.7 43.3 32.65 41.05 34.9 Q39.8 35.95 38.55 36.45 L35.4 38.55 34.1 38.55 31.85 40.8 30.55 42.1 29.35 42.85 29.3 42.9 28.0 43.55 28.0 43.8 27.1 44.3 27.2 43.85 Q22.25 45.9 15.1 45.9 L6.35 45.55 3.7 45.15 3.85 45.8 3.05 45.75 Q2.95 45.4 2.05 45.1 L0.6 44.8 -0.7 44.45 -2.15 43.95 -4.85 43.0 -5.4 43.5 -5.75 43.65 -7.3 42.65 M78.4 -40.6 L78.5 -39.3 78.05 -39.45 78.05 -40.3 78.4 -40.6 M-62.0 -53.15 L-62.15 -53.35 -60.1 -52.8 -59.95 -52.65 -62.0 -53.15 M-63.75 -30.65 L-63.0 -31.7 -62.95 -31.7 -63.75 -30.65" fill="#ffffff" fill-rule="evenodd" stroke="none"/>
      <path d="M78.05 -45.7 L77.9 -45.55 77.85 -48.3 78.05 -45.7 M-6.2 -40.55 L-6.85 -42.25 -6.35 -42.2 -5.75 -40.45 -6.2 -40.55" fill="#00ffff" fill-rule="evenodd" stroke="none"/>
      <path d="M54.35 17.3 L53.5 17.5 53.85 16.05 52.75 17.65 52.7 17.8 51.6 18.5 49.7 19.4 47.75 12.3 47.15 10.3 46.15 7.8 Q45.4 5.85 44.6 4.95 L43.55 4.9 42.55 4.8 41.05 4.65 40.4 4.6 35.4 3.75 Q27.75 2.05 20.75 -1.5 L17.85 -1.5 16.45 -1.0 Q14.1 0.05 12.2 1.5 10.15 3.1 9.15 4.8 L8.85 3.15 8.6 1.1 Q8.6 -1.9 9.95 -3.8 L10.45 -4.3 4.8 -9.45 -0.7 -14.75 -2.15 -16.1 -2.45 -16.35 -2.9 -16.75 Q-10.85 -24.1 -14.3 -24.1 L-16.2 -23.85 Q-18.95 -23.35 -21.55 -21.1 L-22.75 -20.0 Q-25.0 -17.85 -27.2 -14.35 L-27.95 -13.1 Q-33.75 -3.0 -33.75 5.45 L-33.6 7.8 -32.85 11.1 -32.55 12.4 Q-32.05 15.1 -32.0 18.45 -34.75 16.5 -37.3 12.4 L-39.65 7.8 -40.4 5.95 Q-44.15 -3.1 -44.15 -10.2 L-44.1 -12.7 -43.8 -13.65 -45.9 -13.65 Q-47.5 -12.85 -50.9 -12.2 -53.45 -11.75 -54.0 -10.75 L-54.0 -12.8 Q-52.65 -19.65 -52.3 -20.05 L-52.3 -21.2 Q-58.45 -21.4 -62.2 -14.1 L-63.3 -11.5 -65.6 -3.8 Q-66.75 -7.3 -66.75 -9.0 -64.8 -15.25 -63.3 -18.45 L-62.2 -20.4 -60.95 -21.2 -61.55 -21.2 -62.2 -20.4 -63.3 -19.45 -65.05 -17.8 -66.05 -16.75 -63.6 -22.7 Q-61.5 -27.5 -60.6 -28.95 -57.2 -34.3 -52.7 -36.85 -48.85 -39.0 -44.25 -39.15 L-43.45 -39.15 -41.55 -38.5 -42.15 -38.05 -37.65 -37.75 -29.45 -36.65 Q-20.75 -35.2 -12.0 -32.1 L-11.35 -31.85 -11.3 -31.85 -10.85 -32.05 -10.05 -32.35 -10.0 -32.3 -9.95 -32.2 -9.95 -32.15 -9.45 -31.5 -9.1 -31.05 Q25.45 -22.85 52.95 -11.4 53.65 -10.5 53.85 -8.85 54.0 -7.2 55.45 -4.0 56.85 -0.8 55.6 4.85 L55.95 4.75 55.95 4.8 56.05 5.6 56.05 5.85 56.05 6.3 55.95 7.8 55.5 11.65 54.35 17.3 M-71.6 -8.35 Q-72.2 -7.0 -72.4 -5.55 L-72.55 0.25 -72.2 6.25 -72.0 7.8 -71.05 12.4 -68.7 19.15 -67.85 21.1 Q-65.95 24.95 -63.7 27.5 L-61.7 29.45 -59.9 30.7 -58.05 31.55 -58.05 32.15 Q-59.4 32.15 -62.4 30.8 -55.95 37.9 -48.0 43.0 -36.75 50.1 -26.5 50.1 L-26.1 50.1 Q-27.85 47.85 -28.9 45.0 -30.2 41.45 -30.85 36.2 L-30.85 30.9 -30.9 30.7 -31.35 29.45 -31.35 29.3 -31.2 28.8 -30.85 28.7 -30.55 29.25 -30.4 29.45 -29.55 30.7 Q-27.3 33.95 -25.05 36.45 L-24.9 36.6 -21.55 40.0 Q-17.85 43.2 -14.95 43.2 L-8.0 42.8 -7.95 42.7 -7.95 42.8 -7.3 42.65 -5.75 43.65 -8.45 44.3 -11.25 47.2 -12.5 48.35 -12.45 48.85 -13.35 49.5 -13.3 49.1 -14.95 50.55 Q-15.9 51.3 -16.8 51.85 L-17.35 52.2 -19.6 53.15 -19.7 53.2 -24.1 54.2 -30.85 54.6 -34.0 54.45 -34.45 54.35 -35.9 54.2 -38.45 53.8 -40.6 53.15 -40.85 53.35 -42.15 53.15 -41.7 52.75 -44.15 51.85 Q-50.9 48.95 -57.2 43.05 L-57.55 42.7 -59.7 40.5 -59.0 41.25 Q-60.1 41.6 -62.25 43.15 L-66.9 38.35 Q-68.95 36.1 -71.2 30.7 L-71.7 29.45 -71.85 29.1 -72.5 27.5 Q-73.8 24.0 -74.5 21.1 L-75.15 17.85 -75.6 12.4 -75.75 6.25 -75.75 6.05 -75.3 1.1 -74.65 -1.25 Q-73.35 -5.55 -71.6 -8.35 M-58.05 -1.5 L-57.35 -1.35 -58.0 0.6 -58.05 6.9 -58.05 7.8 -57.7 12.4 Q-57.05 17.35 -55.15 21.1 -54.25 23.05 -52.95 24.65 L-50.25 27.5 -48.15 29.45 -46.7 30.7 -36.7 39.15 Q-44.6 36.75 -50.85 31.55 L-51.85 30.7 -53.2 29.45 -54.95 27.5 Q-57.4 24.5 -58.8 21.1 -60.4 17.05 -60.4 12.4 L-60.3 7.8 -60.25 6.75 Q-59.95 4.65 -58.05 -1.5 M28.0 43.8 L28.0 43.55 29.3 42.9 28.0 43.8 M-62.4 30.8 L-62.55 30.7 -63.3 29.8 -63.3 30.4 -62.7 30.7 -62.4 30.8" fill="#8babda" fill-rule="evenodd" stroke="none"/>
      <path d="M-66.05 -16.75 L-65.05 -17.8 -63.3 -19.45 -62.2 -20.4 -61.55 -21.2 -60.95 -21.2 -62.2 -20.4 -63.3 -18.45 Q-64.8 -15.25 -66.75 -9.0 -66.75 -7.3 -65.6 -3.8 L-63.3 -11.5 -62.2 -14.1 Q-58.45 -21.4 -52.3 -21.2 L-52.3 -20.05 Q-52.65 -19.65 -54.0 -12.8 L-54.0 -10.75 Q-53.45 -11.75 -50.9 -12.2 -47.5 -12.85 -45.9 -13.65 L-43.8 -13.65 -44.1 -12.7 -44.15 -10.2 Q-44.15 -3.1 -40.4 5.95 L-39.65 7.8 -37.3 12.4 Q-34.75 16.5 -32.0 18.45 -32.05 15.1 -32.55 12.4 L-32.85 11.1 -33.6 7.8 -33.75 5.45 Q-33.75 -3.0 -27.95 -13.1 L-27.2 -14.35 Q-25.0 -17.85 -22.75 -20.0 L-21.55 -21.1 Q-18.95 -23.35 -16.2 -23.85 L-14.3 -24.1 Q-10.85 -24.1 -2.9 -16.75 L-2.45 -16.35 -2.15 -16.1 -0.7 -14.75 4.8 -9.45 10.45 -4.3 9.95 -3.8 Q8.6 -1.9 8.6 1.1 L8.85 3.15 9.15 4.8 Q10.15 3.1 12.2 1.5 14.1 0.05 16.45 -1.0 L17.85 -1.5 20.75 -1.5 Q27.75 2.05 35.4 3.75 L40.4 4.6 41.05 4.65 42.55 4.8 43.55 4.9 44.6 4.95 Q45.4 5.85 46.15 7.8 L47.15 10.3 47.75 12.3 49.7 19.4 51.6 18.5 52.7 17.8 52.75 17.65 53.85 16.05 53.5 17.5 54.35 17.3 53.4 20.4 53.2 21.1 52.6 22.7 50.6 27.4 50.5 27.5 48.65 30.55 48.55 30.7 Q46.55 33.65 44.0 35.45 L42.85 36.25 40.8 37.25 40.9 37.55 40.25 38.0 40.25 37.5 Q38.0 38.35 35.4 38.55 L38.55 36.45 Q39.8 35.95 41.05 34.9 L43.3 32.65 44.8 30.7 44.85 30.55 Q45.9 29.0 46.3 27.5 46.85 26.05 46.85 24.6 46.85 22.95 45.8 21.1 L45.45 20.4 Q43.55 17.35 39.25 13.85 L38.15 13.0 34.5 10.55 Q31.85 8.8 29.2 7.8 24.9 6.05 20.75 6.05 16.55 6.05 14.0 7.8 11.85 9.25 10.95 12.0 10.4 13.8 10.3 21.1 L10.3 22.25 10.3 22.85 Q8.95 22.35 7.8 21.1 6.7 19.8 5.9 17.8 5.15 15.95 4.8 14.0 4.5 12.35 4.5 10.7 4.5 9.5 4.8 7.8 L5.05 7.0 5.6 4.8 5.8 4.3 4.8 0.4 Q3.3 -4.25 0.8 -7.5 L-0.7 -9.25 -2.15 -10.45 -2.45 -10.7 Q-5.75 -13.2 -10.05 -13.55 L-11.7 -13.65 Q-14.15 -13.65 -16.2 -11.55 L-17.15 -10.35 -17.9 -9.2 Q-18.95 -7.45 -19.8 -4.95 -21.0 -1.65 -21.55 1.55 L-22.0 4.8 -22.15 7.8 Q-22.15 9.75 -21.55 12.4 L-21.55 12.5 -21.0 14.9 -19.25 19.95 -20.1 19.95 Q-20.75 19.95 -21.55 18.75 -22.7 16.9 -24.0 12.4 L-25.05 8.65 -25.25 7.8 -26.8 0.85 -26.8 -0.35 Q-28.6 2.95 -28.95 5.45 L-29.1 7.8 -29.1 11.55 -29.1 12.4 Q-28.9 16.25 -26.85 21.1 L-25.05 24.9 -23.6 27.5 -22.35 29.45 -22.15 29.8 -21.65 30.7 -21.55 30.75 Q-15.05 40.8 -10.85 40.8 L-10.2 40.7 -9.6 40.15 Q-7.95 41.45 -6.35 42.35 L-7.3 42.65 -7.95 42.8 -7.95 42.7 -8.0 42.8 -14.95 43.2 Q-17.85 43.2 -21.55 40.0 L-24.9 36.6 -25.05 36.45 Q-27.3 33.95 -29.55 30.7 L-30.4 29.45 -30.55 29.25 -30.85 28.7 -31.2 28.8 -31.35 29.3 -31.35 29.45 -30.9 30.7 -30.85 30.9 -30.85 36.2 Q-30.2 41.45 -28.9 45.0 -27.85 47.85 -26.1 50.1 L-26.5 50.1 Q-36.75 50.1 -48.0 43.0 -55.95 37.9 -62.4 30.8 -59.4 32.15 -58.05 32.15 L-58.05 31.55 -59.9 30.7 -61.7 29.45 -63.7 27.5 Q-65.95 24.95 -67.85 21.1 L-68.7 19.15 -71.05 12.4 -72.0 7.8 -72.2 6.25 -72.55 0.25 -72.4 -5.55 Q-72.2 -7.0 -71.6 -8.35 L-70.75 -9.75 -70.1 -10.6 -68.85 -11.85 -68.65 -11.85 -68.65 -12.05 -68.35 -12.3 -67.65 -12.8 -66.75 -13.3 -67.5 -13.15 -68.5 -12.85 Q-68.3 -14.45 -66.05 -16.75 M-58.05 -1.5 Q-59.95 4.65 -60.25 6.75 L-60.3 7.8 -60.4 12.4 Q-60.4 17.05 -58.8 21.1 -57.4 24.5 -54.95 27.5 L-53.2 29.45 -51.85 30.7 -50.85 31.55 Q-44.6 36.75 -36.7 39.15 L-46.7 30.7 -48.15 29.45 -50.25 27.5 -52.95 24.65 Q-54.25 23.05 -55.15 21.1 -57.05 17.35 -57.7 12.4 L-58.05 7.8 -58.05 6.9 -58.0 0.6 -57.35 -1.35 -58.05 -1.5 M-62.4 30.8 L-62.7 30.7 -63.3 30.4 -63.3 29.8 -62.55 30.7 -62.4 30.8" fill="#bed0eb" fill-rule="evenodd" stroke="none"/>
      <path d="M52.95 -11.4 Q25.45 -22.85 -9.1 -31.05 L-9.45 -31.5 -9.95 -32.15 -9.95 -32.2 -10.0 -32.3 -10.05 -32.35 -10.85 -32.05 -11.3 -31.85 -11.35 -31.85 -12.0 -32.1 Q-20.75 -35.2 -29.45 -36.65 L-37.65 -37.75 -42.15 -38.05 -41.55 -38.5 -43.45 -39.15 -44.25 -39.15 Q-48.85 -39.0 -52.7 -36.85 -57.2 -34.3 -60.6 -28.95 -61.5 -27.5 -63.6 -22.7 L-66.05 -16.75 Q-68.3 -14.45 -68.5 -12.85 L-67.5 -13.15 -66.75 -13.3 -67.65 -12.8 -68.35 -12.3 -68.65 -12.05 -68.65 -11.85 -68.85 -11.85 -70.1 -10.6 -70.75 -9.75 -71.6 -8.35 Q-73.35 -5.55 -74.65 -1.25 L-75.3 1.1 -75.75 6.05 -75.75 6.25 -75.6 12.4 -75.15 17.85 -74.5 21.1 Q-73.8 24.0 -72.5 27.5 L-71.85 29.1 -71.7 29.45 -71.2 30.7 Q-68.95 36.1 -66.9 38.35 L-62.25 43.15 -62.4 43.3 -63.65 44.15 -63.8 43.95 -65.3 44.75 Q-71.7 39.75 -75.1 31.2 L-75.25 30.7 -75.7 29.45 -76.35 27.5 Q-77.35 24.3 -77.85 21.1 -78.5 17.35 -78.5 13.65 L-78.5 12.4 -78.15 7.8 -77.9 6.25 Q-77.25 2.45 -75.95 -1.8 -74.8 -5.35 -73.5 -7.8 L-74.25 -7.95 -73.2 -8.95 -72.85 -8.8 -72.05 -10.05 -71.6 -10.55 -70.75 -11.5 -69.1 -12.65 -69.35 -15.9 Q-69.35 -19.3 -68.2 -22.7 -66.85 -26.55 -64.0 -30.3 L-63.75 -30.65 -62.95 -31.7 -61.4 -33.45 -61.6 -33.5 -61.05 -34.15 -60.75 -34.1 -60.25 -34.6 Q-57.55 -37.35 -54.6 -39.15 -52.85 -40.3 -51.05 -41.05 L-48.95 -41.9 -44.95 -42.85 -45.4 -43.15 -44.6 -43.35 -44.25 -43.0 -40.1 -43.2 -36.7 -42.85 -35.9 -42.8 -36.0 -42.7 -35.9 -42.7 Q-28.45 -43.1 -20.1 -40.85 L-15.1 -39.3 -13.6 -38.75 -13.45 -38.7 Q23.0 -29.7 50.05 -15.7 L52.95 -11.4 M-10.55 -33.05 L-12.95 -36.35 -11.25 -32.95 -10.55 -33.05" fill="#bdc2ec" fill-rule="evenodd" stroke="none"/>
      <path d="M-73.2 -8.95 L-72.15 -10.05 -72.05 -10.05 -72.85 -8.8 -73.2 -8.95" fill="#9de7ff" fill-rule="evenodd" stroke="none"/>
      <path d="M-72.05 -10.05 L-72.15 -10.05 -71.6 -10.55 -72.05 -10.05" fill="#50a8e2" fill-rule="evenodd" stroke="none"/>
      <path d="M-14.25 -40.4 L-11.2 -39.65 -11.0 -39.4 -14.25 -40.3 -14.25 -40.4" fill="#a3a4e4" fill-rule="evenodd" stroke="none"/>
    </g>
    <g id="shape6" transform="matrix(1.0, 0.0, 0.0, 1.0, 123.35, 92.0)">
      <path d="M19.2 51.8 L19.5 52.95 20.1 54.2 19.2 51.8" fill="#1d3849" fill-rule="evenodd" stroke="none"/>
      <path d="M44.7 -33.85 Q41.9 -35.8 38.7 -37.15 34.95 -38.85 30.75 -39.65 L31.05 -40.3 30.1 -40.4 29.85 -39.85 29.5 -39.9 21.7 -39.9 Q17.5 -38.95 9.95 -36.15 6.1 -34.7 3.65 -33.4 L4.3 -32.55 3.8 -32.25 8.85 -24.75 9.1 -24.4 10.5 -23.75 14.5 -22.95 17.85 -22.0 21.1 -21.2 21.1 -21.8 Q14.15 -23.7 14.15 -31.65 L14.15 -32.8 15.0 -33.7 Q17.05 -35.4 20.25 -35.4 21.15 -35.4 22.25 -34.85 L22.85 -34.5 Q21.1 -32.6 21.1 -31.65 L21.4 -29.4 21.7 -27.0 22.25 -27.6 Q23.35 -30.05 26.3 -32.1 L26.4 -32.15 Q30.0 -34.55 33.85 -34.55 L39.85 -33.85 42.05 -33.3 43.7 -32.8 42.25 -33.85 44.7 -33.85 M54.3 90.2 L54.45 90.2 56.15 88.65 55.35 88.8 Q57.55 87.2 58.7 84.85 L56.25 84.85 54.85 86.7 Q53.25 88.15 50.75 89.05 L54.3 90.2 M36.45 2.25 L36.6 2.3 36.7 2.3 40.95 3.35 49.2 3.75 49.5 3.75 Q54.7 3.35 57.7 -1.9 L55.8 -1.9 Q53.65 0.75 49.5 1.5 L49.35 1.5 Q44.65 2.3 35.6 1.45 L34.8 1.4 33.85 1.45 33.5 1.6 36.45 2.25" fill="#8babda" fill-rule="evenodd" stroke="none"/>
      <path d="M44.7 -33.85 L42.25 -33.85 43.7 -32.8 42.05 -33.3 39.85 -33.85 33.85 -34.55 Q30.0 -34.55 26.4 -32.15 L26.3 -32.1 Q23.35 -30.05 22.25 -27.6 L21.7 -27.0 21.4 -29.4 21.1 -31.65 Q21.1 -32.6 22.85 -34.5 L22.25 -34.85 Q21.15 -35.4 20.25 -35.4 17.05 -35.4 15.0 -33.7 L14.15 -32.8 14.15 -31.65 Q14.15 -23.7 21.1 -21.8 L21.1 -21.2 17.85 -22.0 14.5 -22.95 Q9.15 -22.9 4.8 -21.75 -0.4 -20.45 -4.2 -17.75 -10.85 -12.95 -15.1 -2.9 L-15.35 -2.3 -15.0 -2.15 -13.6 -1.6 -13.15 -1.45 Q-12.5 -5.0 -10.75 -5.45 L-10.65 -5.2 Q-11.55 -4.0 -11.95 -2.55 L-12.6 0.85 -12.75 4.8 -12.75 6.0 Q-12.6 9.2 -9.45 14.65 L-9.1 15.3 -7.3 18.45 Q-6.35 20.2 -6.35 20.45 -6.35 21.15 -6.5 20.8 L-7.3 19.85 -10.1 15.3 -10.4 14.8 -10.7 14.35 -11.2 13.4 -11.5 13.2 Q-12.35 12.7 -13.9 14.05 -14.3 14.4 -14.6 15.3 L-15.25 18.6 -15.35 19.9 -15.4 22.75 -15.4 24.0 Q-15.35 30.05 -14.9 30.45 -14.4 30.8 -13.0 33.7 L-12.8 32.95 -12.3 30.95 Q-11.0 26.1 -8.75 24.15 L-8.6 24.0 Q-8.0 23.45 -7.3 23.25 -6.35 22.8 -5.25 22.8 L-4.35 22.95 Q-4.1 23.05 -3.95 23.1 -3.45 23.4 -3.45 23.7 L-3.1 24.0 2.0 28.05 2.0 27.45 Q0.15 26.35 -1.5 24.0 L-3.0 21.3 Q-5.4 16.6 -6.15 10.65 L-6.15 4.85 0.25 8.9 1.7 8.6 2.55 8.35 Q2.0 7.75 2.0 7.15 L-2.1 3.6 Q-4.4 1.1 -4.4 -2.95 -4.4 -9.9 0.25 -14.25 5.15 -18.9 13.85 -18.9 18.4 -18.9 22.55 -16.35 L25.0 -14.55 Q24.0 -16.75 24.0 -18.9 24.0 -21.95 26.3 -24.7 29.2 -28.2 34.15 -28.2 43.2 -28.2 49.5 -24.05 53.75 -21.3 56.8 -16.6 58.25 -13.1 58.25 -9.9 L58.25 -9.7 58.1 -9.4 Q56.55 -6.45 50.9 -3.7 44.35 -0.35 40.25 -0.35 35.75 -0.35 30.75 -2.8 25.9 -5.2 24.6 -7.9 L24.0 -7.9 Q25.25 -1.6 31.25 0.75 L33.85 1.45 34.8 1.4 35.6 1.45 Q44.65 2.3 49.35 1.5 L49.5 1.5 Q53.65 0.75 55.8 -1.9 L57.7 -1.9 Q54.7 3.35 49.5 3.75 L49.2 3.75 40.95 3.35 36.7 2.3 36.6 2.3 36.45 2.25 Q38.7 4.15 41.9 4.95 L43.05 5.2 49.5 5.95 49.65 5.95 Q59.3 6.75 61.65 13.55 L63.7 24.0 Q65.0 31.65 65.6 37.4 L65.75 38.9 Q66.4 46.85 65.35 52.95 L64.95 55.5 Q64.15 58.9 62.7 61.35 61.15 63.9 59.0 65.4 L66.3 64.9 66.95 65.05 Q68.35 65.8 69.4 67.0 L69.4 66.35 70.35 68.1 Q71.15 66.05 71.4 61.35 L71.45 60.4 71.5 52.95 71.5 51.0 71.5 48.75 72.05 49.05 71.9 47.6 71.45 47.45 71.45 46.6 71.4 43.3 71.6 43.2 71.45 41.2 71.3 41.35 71.25 38.6 71.15 38.05 71.15 37.4 70.8 32.65 Q70.45 27.95 69.8 24.0 L69.5 22.3 69.3 21.25 68.2 16.6 Q67.4 13.25 66.3 10.15 L64.15 4.55 62.45 1.1 60.5 -2.55 59.8 -3.85 60.75 -4.55 60.2 -6.25 59.8 -5.85 59.2 -5.35 59.7 -7.75 59.85 -9.85 59.8 -10.7 59.8 -11.1 Q59.35 -17.6 54.05 -24.65 L52.3 -26.9 50.95 -28.3 49.5 -29.85 48.85 -30.45 48.55 -30.8 44.7 -33.85 M-12.0 48.25 L-17.8 47.25 -17.6 47.5 Q-13.75 51.75 -9.05 58.15 L-8.75 58.55 -7.3 60.5 -0.7 69.9 1.85 73.8 3.35 76.05 2.55 75.5 4.3 79.25 5.9 80.4 Q6.2 80.55 6.4 80.8 L7.2 81.3 7.65 81.55 10.45 83.4 14.15 85.4 Q21.15 88.95 28.8 90.65 L34.45 91.55 36.95 91.8 38.0 91.85 42.4 92.0 48.7 91.5 48.7 91.8 49.35 91.65 49.35 91.35 49.5 91.35 50.9 91.0 51.9 90.65 53.05 90.2 54.3 90.2 50.75 89.05 Q53.25 88.15 54.85 86.7 L56.25 84.85 56.4 84.7 Q54.55 84.4 53.1 83.4 51.75 82.35 50.65 80.65 50.5 82.15 49.55 83.4 L49.5 83.55 Q47.9 85.5 44.3 86.55 40.45 87.75 36.15 87.75 24.05 87.75 15.15 83.4 12.85 82.3 10.75 80.85 L7.65 78.45 Q-1.2 70.65 -1.0 57.6 -4.7 55.55 -7.3 53.25 L-7.65 52.95 -8.75 51.85 -11.3 48.55 -11.45 48.3 -12.0 48.25 M54.45 90.2 L55.3 90.2 Q62.6 90.2 65.65 83.8 L65.85 83.4 66.3 82.3 66.9 80.25 64.7 82.35 65.2 80.85 Q63.9 82.45 62.4 83.4 60.75 84.45 58.75 84.7 L58.7 84.85 Q57.55 87.2 55.35 88.8 L56.15 88.65 54.45 90.2 M25.9 17.8 L26.3 18.25 Q27.75 20.05 29.2 24.0 L30.35 27.4 31.15 30.05 33.0 37.4 Q34.45 43.9 34.45 47.8 L34.15 52.95 33.85 54.5 Q32.35 59.35 27.5 60.2 L27.4 60.4 27.35 60.5 Q32.25 59.55 34.65 55.2 L35.65 52.95 Q36.75 50.0 36.75 46.3 36.75 42.95 35.3 37.4 L33.4 30.65 32.7 28.45 30.8 24.0 Q28.8 20.0 26.3 18.1 L25.9 17.8 M7.65 41.1 L6.05 43.3 Q4.85 44.9 4.85 47.15 4.85 50.15 5.95 52.95 L7.65 56.15 Q9.1 58.3 11.25 60.5 17.1 66.3 22.25 66.3 23.05 66.3 24.35 65.55 L25.1 65.15 26.45 64.2 23.15 62.45 Q17.75 59.1 14.65 54.6 L13.55 52.95 Q11.2 48.75 10.3 43.25 L9.6 42.45 7.75 40.8 7.65 41.1" fill="#bed0eb" fill-rule="evenodd" stroke="none"/>
      <path d="M14.5 -22.95 L10.5 -23.75 9.1 -24.4 8.85 -24.75 7.55 -25.0 7.7 -24.85 6.1 -25.15 5.65 -25.2 2.1 -25.05 Q-3.25 -24.2 -8.75 -18.75 L-10.0 -17.45 Q-12.5 -14.65 -14.45 -11.5 L-16.4 -7.95 Q-17.6 -5.7 -18.0 -4.0 L-15.1 -2.9 Q-10.85 -12.95 -4.2 -17.75 -0.4 -20.45 4.8 -21.75 9.15 -22.9 14.5 -22.95 M-13.6 -1.6 L-13.55 0.6 -13.45 0.6 -13.55 0.85 -13.55 1.3 -13.6 4.3 -13.6 4.5 -13.15 8.85 -13.0 9.15 -13.0 9.35 Q-15.0 11.1 -16.35 13.35 L-17.45 15.3 -18.25 17.55 -18.3 17.7 -18.8 19.9 -19.25 24.0 -19.25 26.0 -19.25 26.6 -19.25 26.75 -18.9 29.65 -18.6 30.5 -18.65 30.5 -17.85 32.6 -15.5 36.6 -14.7 37.65 -13.65 38.75 -13.65 39.05 -13.65 40.55 -13.4 42.6 -12.95 44.7 -12.35 46.45 -12.8 46.35 -12.0 48.25 -11.45 48.3 -11.3 48.55 -8.75 51.85 -7.65 52.95 -7.3 53.25 Q-4.7 55.55 -1.0 57.6 L-0.65 57.8 -0.25 57.8 Q-0.1 57.75 -0.1 57.3 L-1.0 56.5 -3.95 53.95 -5.1 52.95 -7.3 50.7 -8.75 49.05 -9.4 48.2 -10.1 47.1 -10.55 46.35 -10.7 46.15 Q-11.95 43.85 -12.45 41.15 L-12.5 40.85 Q-12.95 37.95 -12.35 35.5 L-12.35 32.3 -12.6 32.3 -12.8 32.95 -13.0 33.7 Q-14.4 30.8 -14.9 30.45 -15.35 30.05 -15.4 24.0 L-15.4 22.75 -15.35 19.9 -15.25 18.6 -14.6 15.3 Q-14.3 14.4 -13.9 14.05 -12.35 12.7 -11.5 13.2 L-11.2 13.4 -10.7 14.35 -10.4 14.8 -10.1 15.3 -7.3 19.85 -6.5 20.8 Q-6.35 21.15 -6.35 20.45 -6.35 20.2 -7.3 18.45 L-9.1 15.3 -9.45 14.65 Q-12.6 9.2 -12.75 6.0 L-12.75 4.8 -12.6 0.85 -11.95 -2.55 Q-11.55 -4.0 -10.65 -5.2 L-10.75 -5.45 Q-12.5 -5.0 -13.15 -1.45 L-13.6 -1.6 M-17.6 47.5 L-22.8 46.0 -19.55 50.55 -17.15 53.85 -17.85 53.95 -17.45 54.85 -16.65 54.55 -9.05 64.9 -8.75 65.25 -7.3 67.25 -6.0 68.95 Q-1.8 74.45 4.3 79.25 L2.55 75.5 3.35 76.05 1.85 73.8 -0.7 69.9 -7.3 60.5 -8.75 58.55 -9.05 58.15 Q-13.75 51.75 -17.6 47.5 M-12.2 11.3 L-12.0 11.9 -12.85 10.05 -12.8 10.0 -12.2 11.3" fill="#a3a4e4" fill-rule="evenodd" stroke="none"/>
      <path d="M33.85 1.45 L31.25 0.75 Q25.25 -1.6 24.0 -7.9 L24.6 -7.9 Q25.9 -5.2 30.75 -2.8 35.75 -0.35 40.25 -0.35 44.35 -0.35 50.9 -3.7 56.55 -6.45 58.1 -9.4 L58.25 -9.7 58.25 -9.9 Q58.25 -13.1 56.8 -16.6 53.75 -21.3 49.5 -24.05 43.2 -28.2 34.15 -28.2 29.2 -28.2 26.3 -24.7 24.0 -21.95 24.0 -18.9 24.0 -16.75 25.0 -14.55 L22.55 -16.35 Q18.4 -18.9 13.85 -18.9 5.15 -18.9 0.25 -14.25 -4.4 -9.9 -4.4 -2.95 -4.4 1.1 -2.1 3.6 L2.0 7.15 Q2.0 7.75 2.55 8.35 L1.7 8.6 0.25 8.9 -6.15 4.85 -6.15 10.65 Q-5.4 16.6 -3.0 21.3 L-1.5 24.0 Q0.15 26.35 2.0 27.45 L2.0 28.05 -3.1 24.0 -3.45 23.7 Q-3.45 23.4 -3.95 23.1 -4.1 23.05 -4.35 22.95 L-5.25 22.8 Q-6.35 22.8 -7.3 23.25 -8.0 23.45 -8.6 24.0 L-8.75 24.15 Q-11.0 26.1 -12.3 30.95 L-12.8 32.95 -12.6 32.3 -12.35 32.3 -12.35 35.5 Q-12.95 37.95 -12.5 40.85 L-12.45 41.15 Q-11.95 43.85 -10.7 46.15 L-10.55 46.35 -10.1 47.1 -9.4 48.2 -8.75 49.05 -7.3 50.7 -5.1 52.95 -3.95 53.95 -1.0 56.5 -0.1 57.3 Q-0.1 57.75 -0.25 57.8 L-0.65 57.8 -1.0 57.6 Q-1.2 70.65 7.65 78.45 L10.75 80.85 Q12.85 82.3 15.15 83.4 24.05 87.75 36.15 87.75 40.45 87.75 44.3 86.55 47.9 85.5 49.5 83.55 L49.55 83.4 Q50.5 82.15 50.65 80.65 L49.95 79.35 49.5 78.4 Q48.2 75.25 48.2 72.35 48.2 70.35 49.0 69.2 L49.5 68.6 Q50.65 67.35 53.2 66.3 L57.6 65.65 59.0 65.4 Q61.15 63.9 62.7 61.35 64.15 58.9 64.95 55.5 L65.35 52.95 Q66.4 46.85 65.75 38.9 L65.6 37.4 Q65.0 31.65 63.7 24.0 L61.65 13.55 Q59.3 6.75 49.65 5.95 L49.5 5.95 43.05 5.2 41.9 4.95 Q38.7 4.15 36.45 2.25 L33.5 1.6 33.85 1.45 M25.9 17.8 L26.3 18.1 Q28.8 20.0 30.8 24.0 L32.7 28.45 33.4 30.65 35.3 37.4 Q36.75 42.95 36.75 46.3 36.75 50.0 35.65 52.95 L34.65 55.2 Q32.25 59.55 27.35 60.5 L27.2 60.5 26.9 60.55 26.3 60.4 26.05 60.35 25.45 60.35 Q24.7 60.35 21.45 57.9 L19.5 56.3 15.5 52.95 14.05 51.45 14.3 51.45 14.8 52.1 14.8 51.85 13.8 48.75 13.15 46.0 13.05 45.4 Q13.05 41.1 13.3 37.4 13.8 29.05 15.45 24.0 17.35 18.1 20.8 16.65 L23.7 16.65 Q24.8 16.6 25.9 17.8 M23.4 24.0 L23.7 22.4 Q23.7 21.3 23.15 20.5 22.5 19.65 21.4 19.65 19.35 19.65 17.4 24.0 L16.75 25.65 Q15.3 29.5 14.85 33.35 L14.65 36.1 14.6 37.4 14.6 38.2 14.6 40.85 Q14.6 43.1 14.75 45.0 L16.6 37.4 17.5 33.9 Q19.15 27.0 23.35 24.25 L23.4 24.0 M24.95 34.1 Q23.5 32.6 22.25 32.55 L22.1 32.65 22.05 33.25 Q22.05 34.25 23.5 36.2 L23.5 36.3 24.45 37.4 24.65 37.6 26.3 39.0 27.55 38.75 27.6 37.9 27.4 37.4 26.7 36.3 26.3 35.7 25.9 35.15 24.95 34.1 M7.65 41.1 L7.75 40.8 9.6 42.45 10.3 43.25 Q11.2 48.75 13.55 52.95 L14.65 54.6 Q17.75 59.1 23.15 62.45 L26.45 64.2 25.1 65.15 24.35 65.55 Q23.05 66.3 22.25 66.3 17.1 66.3 11.25 60.5 9.1 58.3 7.65 56.15 L5.95 52.95 Q4.85 50.15 4.85 47.15 4.85 44.9 6.05 43.3 L7.65 41.1" fill="#ffffff" fill-rule="evenodd" stroke="none"/>
      <path d="M30.35 27.4 L29.2 24.0 Q27.75 20.05 26.3 18.25 L25.9 17.8 Q24.8 16.6 23.7 16.65 L20.8 16.65 Q17.35 18.1 15.45 24.0 13.8 29.05 13.3 37.4 13.05 41.1 13.05 45.4 L13.15 46.0 13.8 48.75 14.8 51.85 14.8 52.1 14.3 51.45 14.05 51.45 15.5 52.95 19.5 56.3 21.45 57.9 20.3 54.75 20.5 54.9 20.1 54.2 19.5 52.95 19.2 51.8 19.15 51.0 Q17.5 45.0 17.5 42.95 17.5 40.2 18.05 37.4 18.7 34.25 20.1 31.15 22.6 25.45 26.3 26.15 27.7 26.35 29.15 27.55 L28.85 26.65 30.35 27.4 M23.4 24.0 L23.35 24.25 Q19.15 27.0 17.5 33.9 L16.6 37.4 14.75 45.0 Q14.6 43.1 14.6 40.85 L14.6 38.2 14.6 37.4 14.65 36.1 14.85 33.35 Q15.3 29.5 16.75 25.65 L17.4 24.0 Q19.35 19.65 21.4 19.65 22.5 19.65 23.15 20.5 23.7 21.3 23.7 22.4 L23.4 24.0" fill="#dbc7c6" fill-rule="evenodd" stroke="none"/>
      <path d="M27.35 60.5 L27.4 60.4 27.5 60.2 Q32.35 59.35 33.85 54.5 L34.15 52.95 34.45 47.8 Q34.45 43.9 33.0 37.4 L31.15 30.05 30.35 27.4 28.85 26.65 29.15 27.55 Q27.7 26.35 26.3 26.15 22.6 25.45 20.1 31.15 18.7 34.25 18.05 37.4 17.5 40.2 17.5 42.95 17.5 45.0 19.15 51.0 L19.2 51.8 20.1 54.2 20.5 54.9 20.3 54.75 21.45 57.9 Q24.7 60.35 25.45 60.35 L26.05 60.35 26.3 60.4 26.9 60.55 27.2 60.5 27.35 60.5 M23.5 36.3 L22.9 37.4 Q22.25 39.05 22.25 41.1 22.25 43.85 22.75 44.55 23.25 45.2 25.65 46.6 L26.3 46.95 Q28.25 47.95 29.05 47.9 30.1 47.8 30.1 49.65 30.1 51.65 29.45 52.95 28.95 54.2 27.75 54.7 L26.3 55.15 23.15 55.3 22.4 54.5 22.2 54.05 21.6 52.95 20.9 51.05 Q18.95 45.35 18.95 42.6 18.95 40.35 19.5 37.4 L20.3 34.1 20.6 33.1 Q22.1 30.35 23.7 30.35 24.7 30.35 25.45 31.2 26.05 31.95 26.05 32.4 L24.95 34.1 25.9 35.15 26.3 35.7 26.7 36.3 27.05 36.2 Q28.65 36.15 29.35 37.4 30.0 38.45 30.0 40.65 L29.95 42.9 Q29.6 45.05 27.9 45.05 27.05 45.05 26.3 44.4 L25.15 42.9 Q24.15 41.15 24.15 40.05 24.15 38.45 24.65 37.6 L24.45 37.4 23.5 36.3" fill="#a90156" fill-rule="evenodd" stroke="none"/>
      <path d="M23.5 36.3 L23.5 36.2 Q22.05 34.25 22.05 33.25 L22.1 32.65 22.25 32.55 Q23.5 32.6 24.95 34.1 L26.05 32.4 Q26.05 31.95 25.45 31.2 24.7 30.35 23.7 30.35 22.1 30.35 20.6 33.1 L20.3 34.1 19.5 37.4 Q18.95 40.35 18.95 42.6 18.95 45.35 20.9 51.05 L21.6 52.95 22.2 54.05 22.4 54.5 23.15 55.3 26.3 55.15 27.75 54.7 Q28.95 54.2 29.45 52.95 30.1 51.65 30.1 49.65 30.1 47.8 29.05 47.9 28.25 47.95 26.3 46.95 L25.65 46.6 Q23.25 45.2 22.75 44.55 22.25 43.85 22.25 41.1 22.25 39.05 22.9 37.4 L23.5 36.3 M21.75 35.55 L21.85 36.0 21.7 37.4 21.4 39.35 Q21.15 41.35 21.9 43.3 22.55 45.05 24.65 47.75 L26.3 50.0 26.55 50.4 26.3 50.95 25.95 51.35 Q25.25 52.3 24.45 52.3 21.7 52.3 20.3 46.85 19.45 43.45 19.45 41.0 19.45 38.6 19.6 37.9 L19.7 37.4 Q20.25 35.85 21.75 35.7 L21.75 35.55" fill="#ff3399" fill-rule="evenodd" stroke="none"/>
      <path d="M26.7 36.3 L27.4 37.4 27.6 37.9 27.55 38.75 26.3 39.0 24.65 37.6 Q24.15 38.45 24.15 40.05 24.15 41.15 25.15 42.9 L26.3 44.4 Q27.05 45.05 27.9 45.05 29.6 45.05 29.95 42.9 L30.0 40.65 Q30.0 38.45 29.35 37.4 28.65 36.15 27.05 36.2 L26.7 36.3" fill="#4b0126" fill-rule="evenodd" stroke="none"/>
      <path d="M21.75 35.55 L21.75 35.7 Q20.25 35.85 19.7 37.4 L19.6 37.9 Q19.45 38.6 19.45 41.0 19.45 43.45 20.3 46.85 21.7 52.3 24.45 52.3 25.25 52.3 25.95 51.35 L26.3 50.95 26.55 50.4 26.3 50.0 24.65 47.75 Q22.55 45.05 21.9 43.3 21.15 41.35 21.4 39.35 L21.7 37.4 21.85 36.0 21.75 35.55" fill="#fe9acd" fill-rule="evenodd" stroke="none"/>
      <path d="M66.95 79.9 L67.3 77.5 67.9 76.35 67.95 76.2 70.35 68.15 70.35 68.1 69.4 66.35 69.4 67.0 Q68.35 65.8 66.95 65.05 L66.3 64.9 59.0 65.4 57.6 65.65 56.9 67.0 59.35 66.7 Q57.6 67.0 56.3 68.15 L55.85 68.7 55.35 69.35 Q54.15 71.2 54.15 73.55 54.15 76.45 57.05 78.55 59.4 80.2 61.4 80.2 L63.7 79.85 64.15 79.6 64.4 79.45 64.3 79.7 66.95 79.9 M60.35 72.1 Q60.35 69.1 64.0 68.9 65.45 68.8 66.3 69.35 67.55 70.0 67.6 71.8 L67.6 72.0 67.45 72.3 66.3 73.45 66.0 73.7 Q64.15 75.15 62.55 75.15 60.35 75.15 60.35 72.1" fill="#50a8e2" fill-rule="evenodd" stroke="none"/>
      <path d="M60.35 72.1 Q60.35 75.15 62.55 75.15 64.15 75.15 66.0 73.7 L66.3 73.45 67.45 72.3 67.6 72.0 67.6 71.8 Q67.55 70.0 66.3 69.35 65.45 68.8 64.0 68.9 60.35 69.1 60.35 72.1" fill="#a3c9ed" fill-rule="evenodd" stroke="none"/>
      <path d="M66.9 80.25 L66.95 79.9 64.3 79.7 64.4 79.45 64.15 79.6 63.7 79.85 61.4 80.2 Q59.4 80.2 57.05 78.55 54.15 76.45 54.15 73.55 54.15 71.2 55.35 69.35 L55.85 68.7 56.3 68.15 Q57.6 67.0 59.35 66.7 L56.9 67.0 57.6 65.65 53.2 66.3 Q50.65 67.35 49.5 68.6 L49.0 69.2 Q48.2 70.35 48.2 72.35 48.2 75.25 49.5 78.4 L49.95 79.35 50.65 80.65 Q51.75 82.35 53.1 83.4 54.55 84.4 56.4 84.7 L56.25 84.85 58.7 84.85 58.75 84.7 Q60.75 84.45 62.4 83.4 63.9 82.45 65.2 80.85 L64.7 82.35 66.9 80.25" fill="#1d5a96" fill-rule="evenodd" stroke="none"/>
      <path d="M-80.1 -90.85 L-79.1 -90.25 -79.1 -90.4 -76.85 -89.05 -74.5 -87.6 -48.9 -83.4 -39.1 -83.4 -39.7 -84.1 -39.8 -84.1 -37.85 -84.4 -39.05 -85.65 Q-56.8 -88.8 -73.3 -90.75 L-79.25 -91.4 -79.3 -92.0 -79.4 -91.5 -80.1 -91.55 -80.1 -90.85 M-96.35 -30.0 L-94.15 -32.75 -94.45 -32.6 -94.6 -34.25 Q-107.85 -28.4 -116.45 -23.75 -119.35 -22.15 -123.35 -19.9 L-122.7 -18.7 -122.65 -18.2 -121.2 -17.95 -121.85 -19.2 -121.6 -19.35 -119.2 -18.6 -96.35 -30.0 M71.6 -87.65 L71.15 -88.9 71.15 -88.95 70.8 -88.8 70.6 -87.3 70.6 -87.2 81.9 -64.4 83.1 -64.4 76.4 -77.75 71.6 -87.65 M122.4 -27.55 L120.35 -26.65 112.75 -0.05 112.55 3.6 115.55 -6.35 Q119.85 -21.2 122.4 -27.55" fill="#9afefd" fill-rule="evenodd" stroke="none"/>
      <path d="M-76.85 -89.05 L-79.1 -90.4 -79.1 -90.25 -80.1 -90.85 -79.9 -84.75 -79.95 -58.55 -80.25 -50.85 -80.2 -46.15 -80.1 -46.05 -80.1 -45.55 -77.85 -43.95 Q-65.1 -34.9 -58.65 -29.85 L-37.65 -12.95 -35.35 -11.1 -29.3 -7.95 -28.15 -6.75 -23.95 -5.3 -22.8 -4.85 -18.25 -3.35 -20.1 -4.8 -76.4 -47.3 -77.3 -45.35 -78.0 -45.85 -76.7 -50.5 -76.85 -89.05 M-48.9 -83.4 L-74.5 -87.6 -67.3 -83.4 -48.9 -83.4 M-96.35 -30.0 L-119.2 -18.6 -108.05 -15.15 -96.35 -30.0 M-82.55 -1.45 L-84.25 -1.95 -80.05 21.5 -78.8 28.25 -100.1 22.95 -100.1 24.55 -100.9 22.75 -102.25 19.9 -103.65 16.95 -104.45 15.3 -105.0 14.15 -100.75 25.95 -89.5 28.4 -77.15 31.35 -74.0 32.15 -74.15 32.25 -73.8 32.4 -73.65 32.25 -68.75 33.55 -66.7 34.1 -64.6 34.75 -64.15 34.9 -55.45 37.3 -52.7 37.95 -39.3 41.15 -37.65 41.65 -37.85 41.75 -36.5 41.85 -36.25 42.1 -28.6 44.25 -27.5 44.65 -25.1 45.3 -24.85 45.35 -22.8 45.95 -22.8 46.0 -20.85 46.6 -20.85 46.5 -17.8 47.25 -12.0 48.25 -13.45 44.65 -75.9 29.0 -77.35 22.3 -82.55 -1.45 M72.25 -89.95 L71.6 -87.65 76.4 -77.75 83.1 -64.4 84.5 -61.8 85.15 -60.5 83.1 -61.5 62.9 -8.75 65.0 -10.6 65.45 -11.65 68.2 -14.65 73.2 -27.55 73.55 -28.55 75.0 -32.55 Q82.8 -53.45 85.6 -60.05 L85.8 -60.2 85.95 -60.8 85.7 -61.8 84.8 -64.4 79.7 -75.05 78.35 -77.75 72.25 -89.95 M70.6 -87.3 L50.1 -76.65 69.2 -78.25 70.6 -87.2 70.6 -87.3 M71.25 38.6 L71.6 43.2 76.3 39.0 76.65 38.7 78.05 37.4 80.15 35.55 80.3 35.45 80.45 35.55 80.65 35.8 81.15 35.45 80.65 35.15 82.95 33.05 84.4 31.75 87.4 29.05 88.2 28.35 Q99.05 18.55 112.75 7.25 113.6 6.45 114.55 5.7 117.45 -3.4 123.3 -27.45 L123.3 -27.6 123.4 -28.2 122.75 -28.45 121.05 -27.65 121.65 -27.55 122.4 -27.55 Q119.85 -21.2 115.55 -6.35 L112.55 3.6 112.15 4.55 112.1 4.65 111.6 2.6 71.25 38.6 M120.3 -26.65 L101.9 -31.95 114.1 -24.1 120.3 -26.65" fill="#00ffff" fill-rule="evenodd" stroke="none"/>
      <path d="M-74.5 -87.6 L-76.85 -89.05 -76.7 -50.5 -67.3 -83.4 -74.5 -87.6 M-119.2 -18.6 L-121.6 -19.35 -121.85 -19.2 -121.2 -17.95 -122.65 -18.2 -120.45 -12.95 -112.8 3.35 -107.1 15.3 -105.0 19.9 -102.5 25.45 -102.5 25.5 -100.75 25.95 -105.0 14.15 -104.45 15.3 -103.65 16.95 -108.05 -15.15 -119.2 -18.6 M69.2 -78.25 L69.5 -78.3 82.1 -63.95 81.9 -64.4 70.6 -87.2 69.2 -78.25 M120.35 -26.65 L120.3 -26.65 114.1 -24.1 114.05 -22.65 112.75 -0.05 120.35 -26.65" fill="#50a8e2" fill-rule="evenodd" stroke="none"/>
      <path d="M-76.7 -50.5 L-78.0 -45.85 -77.3 -45.35 -76.4 -47.3 -64.3 -75.8 -59.75 -70.8 -20.35 -27.6 -22.1 -20.35 -17.0 -14.5 -14.45 -11.5 Q-12.5 -14.65 -10.0 -17.45 L-8.75 -18.75 -11.45 -21.75 -58.95 -74.2 -67.3 -83.4 -76.7 -50.5 M-74.6 -4.7 L-78.5 -5.95 -99.1 -12.4 -108.05 -15.15 -103.65 16.95 -102.25 19.9 -100.9 22.75 -100.1 24.55 -100.1 22.95 -100.1 -6.75 -95.6 -5.35 -84.25 -1.95 -82.55 -1.45 -26.95 15.15 -26.95 15.3 -26.0 19.9 -24.85 25.2 -69.9 12.4 -68.45 18.75 -15.5 36.6 -17.85 32.6 Q-18.6 31.15 -18.95 29.65 L-19.3 26.75 -19.3 26.6 -19.3 26.0 Q-19.3 22.6 -18.9 19.9 L-18.4 17.7 -18.3 17.55 -17.5 15.3 -16.4 13.35 -74.6 -4.7 M-37.85 41.75 L-39.15 42.45 -42.05 44.2 -42.5 44.1 -43.9 44.85 -43.1 44.75 -48.15 48.4 Q-52.05 51.3 -56.65 55.15 L-56.7 55.35 Q-56.8 55.65 -56.1 55.65 L-54.55 56.5 -53.35 55.8 -53.65 55.65 -50.1 53.9 -46.85 52.3 -33.0 45.5 -24.45 50.85 -21.8 52.6 -19.1 54.25 -17.85 53.95 -19.55 50.55 -22.8 46.0 -24.85 45.35 -25.1 45.3 -27.5 44.65 Q-27.8 44.5 -28.15 44.4 L-28.6 44.25 -36.25 42.1 -36.5 41.85 -37.85 41.75 M50.95 -28.3 L52.3 -26.9 54.05 -24.65 70.35 -64.75 71.5 -67.6 83.1 -61.5 85.15 -60.5 82.1 -63.95 69.5 -78.3 69.05 -77.2 66.4 -70.0 50.95 -28.3 M68.2 16.6 L69.3 21.25 75.6 15.3 79.05 16.75 86.6 9.5 86.6 5.15 104.1 -8.1 108.05 -11.1 Q109.75 -4.2 111.6 2.6 L112.1 4.65 112.15 4.55 112.55 3.6 112.75 -0.05 114.05 -22.65 110.0 -19.2 106.35 -16.1 68.2 16.6 M71.6 43.2 L71.8 46.3 73.35 45.0 80.2 39.35 90.85 45.8 94.85 48.2 93.55 47.0 97.15 48.3 Q92.45 44.0 88.6 40.85 L84.05 37.4 82.95 36.65 81.35 35.55 81.15 35.45 80.65 35.8 80.45 35.55 80.3 35.45 80.15 35.55 78.05 37.4 76.65 38.7 76.3 39.0 71.6 43.2" fill="#476a9e" fill-rule="evenodd" stroke="none"/>
      <path d="M-76.4 -47.3 L-20.1 -4.8 -18.0 -4.0 Q-17.6 -5.7 -16.4 -7.95 L-14.45 -11.5 -17.0 -14.5 -19.75 -8.75 -69.3 -47.3 -59.75 -70.8 -64.3 -75.8 -76.4 -47.3 M-58.95 -74.2 L-11.45 -21.75 -4.7 -25.0 -39.45 -70.2 -58.95 -74.2 M-16.4 13.35 Q-15.05 11.1 -13.1 9.35 L-13.1 9.05 -13.15 8.85 -13.6 4.5 -61.05 -14.15 -74.6 -4.7 -16.4 13.35 M-78.5 -5.95 L-65.7 -15.95 -82.4 -22.45 -99.1 -12.4 -78.5 -5.95 M-95.6 -5.35 L-100.1 -6.75 -100.1 22.95 -78.8 28.25 -80.05 21.5 -95.6 17.05 -95.6 -5.35 M-13.45 44.65 L-12.95 44.7 -13.4 42.6 -13.65 40.55 -77.35 22.3 -75.9 29.0 -13.45 44.65 M69.2 -78.25 L69.05 -77.2 69.5 -78.3 69.2 -78.25 M51.45 -70.0 L38.7 -37.15 Q44.15 -34.85 48.55 -30.8 L48.85 -30.45 49.5 -29.85 50.95 -28.3 66.4 -70.0 51.45 -70.0 M59.8 -11.1 L59.85 -9.85 59.7 -7.75 60.2 -6.25 61.4 -7.4 62.9 -8.75 83.1 -61.5 71.5 -67.6 70.35 -64.75 77.3 -59.7 59.8 -11.1 M64.15 4.55 L66.3 10.15 Q67.4 13.25 68.2 16.6 L106.35 -16.1 95.0 -20.35 64.15 4.55 M70.8 32.65 L71.0 35.55 71.15 38.05 71.25 38.6 111.6 2.6 Q109.75 -4.2 108.05 -11.1 L104.1 -8.1 106.3 2.85 70.8 32.65 M114.05 -22.65 L98.75 -27.6 96.0 -25.45 110.0 -19.2 114.05 -22.65 M73.35 45.0 L78.75 48.05 90.85 45.8 80.2 39.35 73.35 45.0 M-46.85 52.3 L-50.1 53.9 -43.5 59.35 -21.8 52.6 -24.45 50.85 -42.95 56.75 -46.85 52.3" fill="#4db3dd" fill-rule="evenodd" stroke="none"/>
      <path d="M-67.3 -83.4 L-58.95 -74.2 -39.45 -70.2 -4.7 -25.0 -11.45 -21.75 -8.75 -18.75 Q-3.25 -24.2 2.1 -25.05 L-38.6 -76.0 -67.3 -83.4 M-82.4 -22.45 L-89.6 -25.3 -108.05 -15.15 -99.1 -12.4 -82.4 -22.45 M69.05 -77.2 L52.1 -71.65 51.45 -70.0 66.4 -70.0 69.05 -77.2 M62.45 1.1 L64.15 4.55 95.0 -20.35 106.35 -16.1 110.0 -19.2 96.0 -25.45 62.45 1.1" fill="#9ad5ed" fill-rule="evenodd" stroke="none"/>
      <path d="M-17.0 -14.5 L-22.1 -20.35 -20.35 -27.6 -59.75 -70.8 -69.3 -47.3 -19.75 -8.75 -17.0 -14.5 M-13.65 40.55 L-13.65 39.05 -13.65 38.75 -14.7 37.65 -15.5 36.6 -68.45 18.75 -69.9 12.4 -24.85 25.2 -26.0 19.9 -26.95 15.3 -26.95 15.15 -82.55 -1.45 -77.35 22.3 -13.65 40.55 M-84.25 -1.95 L-95.6 -5.35 -95.6 17.05 -80.05 21.5 -84.25 -1.95 M54.05 -24.65 Q59.35 -17.6 59.8 -11.1 L77.3 -59.7 70.35 -64.75 54.05 -24.65 M69.3 21.25 L69.5 22.3 Q70.3 26.6 70.75 31.75 L70.8 32.65 106.3 2.85 104.1 -8.1 86.6 5.15 86.6 9.5 79.05 16.75 75.6 15.3 69.3 21.25 M-46.85 52.3 L-42.95 56.75 -24.45 50.85 -33.0 45.5 -46.85 52.3" fill="#6699cc" fill-rule="evenodd" stroke="none"/>
      <path d="M-37.85 -84.4 L-39.8 -84.1 -39.7 -84.1 -39.1 -83.4 -48.9 -83.4 -67.3 -83.4 -38.6 -76.0 2.1 -25.05 5.65 -25.2 6.1 -25.15 8.85 -24.75 3.8 -32.25 4.3 -32.55 3.65 -33.4 3.15 -33.1 -1.7 -39.75 -18.1 -61.45 -18.4 -61.8 -23.5 -68.15 -24.3 -69.1 -28.15 -73.65 -36.85 -83.4 -37.05 -83.55 -37.0 -83.6 -37.15 -83.65 -37.85 -84.4 M-18.25 -3.35 L-22.8 -4.85 -23.95 -5.3 -28.15 -6.75 -29.3 -7.95 -35.35 -11.1 -31.65 -8.05 -43.15 -12.95 -56.9 -19.0 -84.65 -30.8 -92.4 -33.85 -93.2 -34.25 -93.3 -34.2 -94.1 -34.5 -94.6 -34.25 -94.45 -32.6 -94.15 -32.75 -96.35 -30.0 -108.05 -15.15 -89.6 -25.3 -82.4 -22.45 -65.7 -15.95 -78.5 -5.95 -74.6 -4.7 -61.05 -14.15 -13.6 4.5 -13.6 4.3 -13.55 1.3 -13.55 0.85 -13.6 -1.6 -15.0 -2.15 -15.35 -2.3 -17.0 -2.9 -16.8 -3.55 -18.0 -4.0 -18.15 -3.25 -18.25 -3.35 M-54.55 56.5 L-49.15 59.85 Q-43.45 63.45 -42.35 63.45 L-41.65 63.3 -41.5 63.25 -41.4 62.95 Q-37.6 62.65 -28.15 59.1 L-27.85 58.95 -22.8 56.95 -17.45 54.85 -17.85 53.95 -19.1 54.25 -21.8 52.6 -43.5 59.35 -50.1 53.9 -53.65 55.65 -53.35 55.8 -54.55 56.5 M72.25 -89.95 L72.1 -90.35 63.85 -86.35 49.5 -79.85 48.9 -79.6 45.3 -77.95 45.25 -77.75 41.25 -68.15 39.65 -64.4 38.55 -61.8 37.25 -58.55 30.1 -40.4 31.05 -40.3 30.75 -39.65 Q34.95 -38.85 38.7 -37.15 L51.45 -70.0 52.1 -71.65 69.05 -77.2 69.2 -78.25 50.1 -76.65 70.6 -87.3 70.8 -88.8 71.15 -88.95 71.15 -88.9 71.6 -87.65 72.25 -89.95 M60.2 -6.25 L60.75 -4.55 59.8 -3.85 60.5 -2.55 62.45 1.1 96.0 -25.45 98.75 -27.6 114.05 -22.65 114.1 -24.1 101.9 -31.95 120.3 -26.65 120.35 -26.65 122.4 -27.55 121.65 -27.55 121.05 -27.65 122.75 -28.45 113.85 -31.2 109.35 -32.55 97.4 -35.65 93.35 -32.55 88.25 -28.75 Q78.9 -21.8 74.5 -18.1 L73.2 -17.0 67.25 -12.3 68.2 -14.65 65.45 -11.65 65.0 -10.6 62.9 -8.75 61.4 -7.4 60.2 -6.25 M71.8 46.3 L72.05 49.05 77.7 51.5 77.85 51.8 81.95 51.8 91.3 50.05 97.65 48.75 97.15 48.3 93.55 47.0 94.85 48.2 90.85 45.8 78.75 48.05 73.35 45.0 71.8 46.3" fill="#ffffff" fill-rule="evenodd" stroke="none"/>
    </g>
  </defs>
</svg>
