<svg xmlns="http://www.w3.org/2000/svg" width="439" height="526" stroke="#000" stroke-linecap="round" stroke-linejoin="round" fill="#fff" fill-rule="evenodd"><style><![CDATA[.B{stroke:none}.C{stroke:#380007}.D{fill:none}.E{fill:#bc79a4}.F{fill:#725170}.G{fill:#d99fd8}.H{fill:#76677e}.I{fill:#fef3d7}.J{stroke-width:.5}.K{fill:#dec994}.L{fill:#c4aa93}.M{fill:#cddfb5}]]></style><g class="B"><path d="M222.2 331.65l-.5.7q-.15 0-.15.1-12.3 15.45-17.1 24.2l-.8 1.4q-5.85 11.35-5.85 24.8v.75.6l.1.95-1.6.95h1.7l-.1-.95.7-.4 1.15.8-1.95 2.4-3.25 3.35-1.75 1.9v-1.35l.1-7.55v-1.35q.5-9.4 1.75-16.25.85-5.45 3.55-12.95l1.05-3.25q1.05-2.9 3.45-6.35 3.1-4.7 4.6-7.6 1-2.1 7.8-8.15l2.3-2.2q2.5 2.2 4.8 5.45" class="E"/><path d="M217.4 326.2l-2.3 2.2q-6.8 6.05-7.8 8.15-1.5 2.9-4.6 7.6-2.4 3.45-3.45 6.35l-1.05 3.25q-2.7 7.5-3.55 12.95-1.25 6.85-1.75 16.25v1.35l-.1 7.55v1.35q-2.55 2.6-3.05 3.45h-.95l-1.55-6.6q-1.45-6.15-1.45-7.5-1.7.75-3.85 3.55-2.2 2.5-3.15 4.5-1.65-.55-4.8-6.05l-.1-.15-1.8-3-.6-1.25q.5-5.75 1.35-12.2l.4-2.4L176 348.1q3.75-23.35 5.3-26.6v-2.9l2-.1q20.35 0 29.4 4.5 2.4 1.1 4.7 3.2" class="F"/><path d="M192.8 393.2l1.75-1.9 3.25-3.35 1.95-2.4-.8-1.15 1.25-.8q2.7-2.3 3.1-2.5-.5 1.85-.5 4.45v.65.75l-.65.1-1.75 2.8q-2 3.25-3.65 7.2l-2.3 6.15q-1.15 3.65-1.15 5.65v2.3q.3 5.2 2.2 9.6 2.7 6.15 9.4 16.65l10.4 15.15h.45l14.5-1.45v-.2l-.95-6.5h.2l6.7 4.9q6.65 5.15 7.4 6.6 1.75-2.3 2.15-6.5 3.45 6.4 4.1 14.85l-.1.9-6.7-.8v1.85l-35.75-1.35q-3.25-4.7-17.55-23.05l-4.05-5.4q-10.05-12.75-13.15-18.15l-.3-.35-.25-.5-.1-.1-.5-1.15q-.3-1.25-.3-3.05l.2-8.55v-.95q-6.8-.5-12.55-7.8-6.55-8.25-6.55-20.05l.5-5.2h1.05q.45 1.05 8.45 7.6 4.1 3.25 6.15 5.35 1.25 1.05 1.9 1.85l.6.75.1-1.8.35-1.65.2-2.5.6 1.25 1.8 3-.3.15h.4q3.15 5.5 4.8 6.05.95-2 3.15-4.5 2.15-2.8 3.85-3.55 0 1.35 1.45 7.5l1.55 6.6h.95q.5-.85 3.05-3.45m45.55 61.95l3.15 5.65q1.15 1.95 1.55 3.55-.4-1.6-1.55-3.55l-3.15-5.65" class="L"/><path d="M245.75 449.4q-.4 4.2-2.15 6.5-.75-1.45-7.4-6.6l-6.7-4.9h-.2l.95 6.5v.2l-14.5 1.45h-.45l-10.4-15.15q-6.7-10.5-9.4-16.65-1.9-4.4-2.2-9.6v-2.3q0-2 1.15-5.65l2.3-6.15q1.65-3.95 3.65-7.2l1.75-2.8.65-.1q.1 2.25.5 4.9.95 6.25 3.45 15 2.7 9.2 5.35 16.15l.5 1.4 3.15 7.4h.6q3.95.3 7.75 1.45 6.75 1.9 12.4 5.95 3.95 2.8 6.75 6.45l2.5 3.75" class="K"/></g><path d="M222.2 331.65l2.6-3.15m-27 55.1v-.75q0-13.45 5.85-24.8l.8-1.4q4.8-8.75 17.1-24.2 0-.1.15-.1l.5-.7m-23.6 53.1l-.7.4.1.95h-1.7l1.6-.95-.1-.95m-26.3-4.05q.5-5.75 1.35-12.2l.4-2.4L176 348.1q3.75-23.35 5.3-26.6m-9.8 58.65l-.2 2.5-.35 1.65-.1 1.8-.6-.75q-.65-.8-1.9-1.85-2.05-2.1-6.15-5.35-8-6.55-8.45-7.6h-1.05l-.5 5.2q0 11.8 6.55 20.05 5.75 7.3 12.55 7.8m0 .95l-.2 8.55q0 1.8.3 3.05l.5 1.15.1.1.25.5.3.35q3.1 5.4 13.15 18.15l4.05 5.4q14.3 18.35 17.55 23.05l35.75 1.35h.65q-.1-.9-.65-1.85-.4-1.6-1.55-3.55l-3.15-5.65m-35.55-68.2v-.75-.65q0-2.6.5-4.45-.4.2-3.1 2.5l-1.25.8-.35.35m47.15 64.65l-2.5-3.75q-2.8-3.65-6.75-6.45-5.65-4.05-12.4-5.95-3.8-1.15-7.75-1.45h-.6l-3.15-7.4-.5-1.4q-2.65-6.95-5.35-16.15-2.5-8.75-3.45-15-.4-2.65-.5-4.9m46.95 78.2l-6.7-.8m2.7-14.95q3.45 6.4 4.1 14.85" class="C D"/><g class="B"><path d="M313.15 330.05l.25-.1q12.1-8 23.35-8 9.3 0 19.9 6.85 9 5.95 9.95 9.2l.9.4-1.55 3.75q-1.15-1.1-3-2.05-4.4-2.1-10.65-2.1-7 0-12.4 2.3-2.1 2.3-7.75 15.75l-3.1 7.8-1.05 2.55-.25.6.95 1.45q2 2.95 4.8 8.8l3.85 8.95.15.4q.1-.2.3-.2l1.45-.2 4.9-1.35 2.5-.95-1.35 2.8v.25l-3.95 4.8-2.5 2.8q-.95 1.05-1.35 1.05l-3.05-3.65-3.35-4.5-3.1-3.95-.1-.2-1.15-1.5-2.3-2.7q-.75.75-7.1 9.4l-.75-1.15-.95-1.15-3.1-4.3-.75-.9-1.85-2.4-1.9-2.65h2l.2-5.4q.3-8.55.95-17.55l.4-4.45 1.55-18.5" class="F"/><path d="M346.65 383.9l-2.5.95-4.9 1.35-1.45.2q-.2 0-.3.2l-.15-.4-3.85-8.95q-2.8-5.85-4.8-8.8l-.95-1.45.25-.6 1.05-2.55 3.1-7.8q5.65-13.45 7.75-15.75 5.4-2.3 12.4-2.3 6.25 0 10.65 2.1 1.85.95 3 2.05L354.7 366.8l-4.4 9.4-3.65 7.7m-.6-22.95l.6 3.15 1.25 6.85 5-10.5 5.15-12-5.15 3.1-4.05 2.6q-.3.1-.65.35l-1.55 4.55-.6 1.9" class="E"/><path d="M346.05 360.95l.6-1.9 1.55-4.55q.35-.25.65-.35l4.05-2.6 5.15-3.1-5.15 12-5 10.5-1.25-6.85-.6-3.15" class="G"/><path d="M303.45 380.55l.1-4.9q.75-15.1 2-28.9l1.25-12q2.6-2.3 6.35-4.7l-1.55 18.5-.4 4.45q-.65 9-.95 17.55l-.2 5.4h-2l-1.75 1.5-2.85 3.1" class="H"/><path d="M311.8 381l.75.9 3.1 4.3.95 1.15.75 1.15h-.1q1.75 2.3 6.35 6.05l4.9 3.65q0-1.25-.75-4.9l-.8-4.6q0-3.65 1.05-5.2l3.1 3.95 3.35 4.5 3.05 3.65q.4 0 1.35-1.05l.4 3.45q.5 5.1 1.05 5.6 1.95-5 4.6-9.25 2.5-4.3 3.3-4.3v.1q.55.2 2.5 2.5l-.1.55-.5 1.35-3.15 8.75-.2 1.55-.2 1.4q-.2 3.75 2.3 11.45 2.4 7.2 10.55 17.45l5.1 6.05 10.85 12.2 6.65 7.5q1.7.85 5.45 1.75l1.35.55 3.55 1.05q8.05-.45 15.35 6.35 3.65 3.35 5.6 7.5 2.1 3.85 2.75 8.65l-1.5.25-1-.45-.45-.6-3.1-5.75v-.2l-2.75-4.7-.6-1.05q-1.8-1.15-5.2-2.2-3.35-1.15-5.15-1.35l.45.75q3.3 1.85 4.55 2.8l.45.3.1.1q1.15 2.3 2.9 7.75l.2.7q1.15 3.35 1.5 5.55l.2.3-3.15 1.7-1.45.6-.75.2-.8-.1-3.65-1.15-2.75-.85h-.3v-.3l-3.45-8.95-3.1-7.1-.95-1.8q-.3-.3-.75-.4l-3.65-1.45-2.8-1.05-.6 1.55 1.45 1.05L382 478l.55 1.35q1.25 3.45 1.75 5.75l.1.2-3.3 1.8-2.95 1.15-.8-.65-.45-.2-8.45-5.45q-.6-2.5-8.95-13.35l-2.1-3-5.85-7.85-9.8-12.1q-5.1-6.05-15.1-14.4l-8.7-7.1h.25v-1.75q-.45-1.15-.45-5.55l.45-10.75-3.15 2.55-.2.2-.45-.2q-.7-.55-2.15-1.25l-1.05-.55-1.15-.6v-.15l-.3-.3.6-3.95.2-1.9-1.15-.5q-3.35-1.8-10.3-7.2l-.65-.65q-10-8.1-10.55-10.5l6.05-.35 8.15.55-1.85-1.8q2.5.65 3.2 1.05l-.1.85-1.25-.1 1.55 1.55 1.7 1.35q4.4 4 5 5.25l.1-.1q-.6-7 1.35-8.35m65.75 86.8q.3 1.55.95 2.05-.65-.5-.95-2.05m17.5 2.7q.95.4 1.7.95-.75-.55-1.7-.95" class="I"/><path d="M308.05 375.95l1.9 2.65 1.85 2.4q-1.95 1.35-1.35 8.35l-.1.1q-.6-1.25-5-5.25l-1.7-1.35-1.55-1.55 1.25.1.1-.85 2.85-3.1 1.75-1.5m9.3 12.55q6.35-8.65 7.1-9.4l2.3 2.7 1.15 1.5.1.2q-1.05 1.55-1.05 5.2l.8 4.6q.75 3.65.75 4.9l-4.9-3.65q-4.6-3.75-6.35-6.05h.1m21.5 6.05l2.5-2.8 3.95-4.8v-.25q1.05.1 4.15-1.85l1.5-.95q2.05-1.25 2.3-1.35-.35 3.45-2.55 10.1-1.95-2.3-2.5-2.5v-.1q-.8 0-3.3 4.3-2.65 4.25-4.6 9.25-.55-.5-1.05-5.6l-.4-3.45m-38.6-15.05l1.85 1.8-8.15-.55-6.05.35q.55 2.4 10.55 10.5l.65.65q6.95 5.4 10.3 7.2l1.15.5-.2 1.9-.6 3.95.3.3v.15l1.15.6 1.05.55q1.45.7 2.15 1.25l.45.2.2-.2 3.15-2.55-.45 10.75q0 4.4.45 5.55v1.75h-.25l8.7 7.1q10 8.35 15.1 14.4l9.8 12.1 5.85 7.85 2.1 3q8.35 10.85 8.95 13.35l8.45 5.45.45.2.8.65 2.95-1.15 3.3-1.8-.1-.2q-.5-2.3-1.75-5.75L382 478l-2.05-7.1-1.45-1.05.6-1.55 2.8 1.05 3.65 1.45q.45.1.75.4l.95 1.8 3.1 7.1 3.45 8.95v.3h.3l2.75.85 3.65 1.15.8.1.75-.2 1.45-.6 3.15-1.7-.2-.3q-.35-2.2-1.5-5.55l-.2-.7q-1.75-5.45-2.9-7.75l-.1-.1-.45-.3q-1.25-.95-4.55-2.8l-.45-.75q1.8.2 5.15 1.35 3.4 1.05 5.2 2.2l.6 1.05L410 480v.2l3.1 5.75.45.6 1 .45 1.5-.25.3 4.8q0 2.3-.95 4.4l-3.75.3q0 1.25-1.05 2-5 1.25-11.8 1.25-5.6 0-7.2-.75h-.3l-.2 1.25q-4.3.35-10.55-.1l-8-.4-.55-.4-1.05-.95q-12.4-10.55-13.65-11.9-1.9-5-5.1-10.65-2.4-4.25-5.55-8.75Q341 458.6 333 449.2l-12-13.15-.95-.9-8.25-8.25-.8-1.05-.75-.75-2.5-8.65-.4-1.45-.75-3.05-.65-3-1.15-5.25q-3.65-1.75-8.65-5.1l-1.95-1.35q-12.35-8.55-17.75-17.75.3-.3 2.8-1.25 3.05-.9 5-.9 4.8 0 11.6 1.25l4.4.9m8.45 25.7l-1.35-.45-2.55-1.05 2.55 1.05 1.35.45m102.95 91.05q-.2-6.55-3.45-13.55-.2-.65-.6-1.15-2-3.85-5.75-6.9 3.75 3.05 5.75 6.9.4.5.6 1.15 3.25 7 3.45 13.55m-31.7-25.35l3.75 3.75.1.2q3.65 4.1 4.9 7.75 1.25 3.1 1.9 8.15l.1 1.15.6 6.85-.6-6.85-.1-1.15q-.65-5.05-1.9-8.15-1.25-3.65-4.9-7.75l-.1-.2-3.75-3.75" class="K"/></g><g class="C D"><path d="M367.5 338.4l1.25-3.1m-22.1 48.6l3.65-7.7 4.4-9.4 11.25-24.65 1.55-3.75m-64.05 42.15l.1-4.9q.75-15.1 2-28.9l1.25-12m38.5 52.2v-.25l1.35-2.8m-46.4-4.4q2.5.65 3.2 1.05m6.3 25.25l.3.3m106 80.65l.3 4.8q0 2.3-.95 4.4l-3.75.3q0 1.25-1.05 2-5 1.25-11.8 1.25-5.6 0-7.2-.75h-.3l-.2 1.25q-4.3.35-10.55-.1l-8-.4-.55-.4-1.05-.95q-12.4-10.55-13.65-11.9-1.9-5-5.1-10.65-2.4-4.25-5.55-8.75Q341 458.6 333 449.2l-12-13.15-.95-.9-8.25-8.25-.8-1.05-.75-.75-2.5-8.65-.4-1.45-.75-3.05-.65-3-1.15-5.25q-3.65-1.75-8.65-5.1l-1.95-1.35q-12.35-8.55-17.75-17.75.3-.3 2.8-1.25 3.05-.9 5-.9 4.8 0 11.6 1.25l4.4.9m4.55 24.2l2.55 1.05 1.35.45m36.6-18.5q1.05.1 4.15-1.85l1.5-.95q2.05-1.25 2.3-1.35-.35 3.45-2.55 10.1m-.1.55l-.5 1.35-3.15 8.75m-.2 1.55l-.2 1.4q-.2 3.75 2.3 11.45 2.4 7.2 10.55 17.45l5.1 6.05 10.85 12.2 6.65 7.5q1.7.85 5.45 1.75l1.35.55 3.55 1.05q8.05-.45 15.35 6.35 3.65 3.35 5.6 7.5 2.1 3.85 2.75 8.65"/><path d="M308.05 375.95l1.9 2.65 1.85 2.4.75.9 3.1 4.3m.95 1.15l.75 1.15q6.35-8.65 7.1-9.4l2.3 2.7 1.15 1.5m.1.2l3.1 3.95 3.35 4.5 3.05 3.65q.4 0 1.35-1.05l2.5-2.8 3.95-4.8m-37.25-11l-1.75 1.5-2.85 3.1m76.5 90.35l-1.45-1.05q-.65-.5-.95-2.05m19.2 3.65q3.3 1.85 4.55 2.8l.45.3.1.1q3.75 3.05 5.75 6.9.4.5.6 1.15 3.25 7 3.45 13.55m-14.9-24.8q-.75-.55-1.7-.95m-3.75 28.25l-.6-6.85-.1-1.15q-.65-5.05-1.9-8.15-1.25-3.65-4.9-7.75l-.1-.2-3.75-3.75" class="J"/></g><g class="B"><path d="M42.45 129.65q4.9 4.3 10 9.2 21.2 19.7 24.1 25.95-1.65-2.5-15.95-9.45-14.9-7.45-16.05-8.45v.9q12.4 14.75 18.25 22.55Q66.95 176 69.7 181q1.85 3.25 3 6.35-7 7.2-12 14.9-2.6 4.2-4.5 8.25l-.3.55q-5.3 11.9-5.3 24.4v3q.3 8.7 2.7 14.95 1.05 2.5 2.4 4.6 3.55 5.95 9.8 9.15 3.95 2.1 8.95 3.25-1.75-5.1-1.85-8.35v-.5-.75l1.45-1.75.95-.95q3.65-3.75 8.95-7.75 10.65-8 13.6-10.6l.3-.25q4.7-4.35 8.05-9.8 5.3-8.75 6.85-19.8.65-3.55.75-7.2l.2-4.3q0-3.85-2.1-15l-.6-3.25q12.9 14.3 13.55 26.2l.1 1.35-.1 2.4q-.65 13.35-9.8 24.4-3.45 4.1-8.15 7.85l-2.3 1.85-10 7.85q-5.65 5.1-5.65 9.7v.95q.35 6.85 5.45 12.6l2.9 2.6.55 4.3.3 3.2.85.65-.65.1-1.65.4-7.75.65-5.6-.65-5.25-1.15q-5.2-1.65-10.75-4.35-5.5-2.95-11.15-7-7.6-5.65-12.7-11.05-3.9-4.4-6.3-8.45l-.4 5q0 2.9 2.7 7.3l2.85 4.05 2.4 3.45-.25-.1q-3.65-3-6.45-5.95-6.9-7.4-8.95-15.3v-.25.25q2.05 7.9 8.95 15.3 2.8 2.95 6.45 5.95l.25.1.6.55-.2.1q1.55 3 2.2 5.95l.3 1.45.2 2.6-1.45-1.35-.2-.3-.45-1.6-.4-.9-.2-.85q-5-3.25-10.55-8.25l-.1-.1-6.65-6.7q2.05 4.8 4.25 9.3l1.45 3.25.55 1.05 3 5.85 1.35 2.7q-5.2-4.4-8.95-9l-.65-.6Q20 266.75 20 255.25q0-5.4 1.15-8.2l2.6-5.95q-.5 1.85 1.5 6.05 1.85 3.85 3.55 5.6-.75-3.1-.75-6.25 0-8.25 8.35-21.4 2.3-3.55 5.1-7.4l5.55-8.1 2.4-4.1q5.6-9.8 5.6-16.05 0-6.5-1.95-13.45-3.55-11.8-12.85-25.05l-3.25-4.6Q24.8 130.1.5 107.55q22 10.65 41.95 22.1" class="K"/><path d="M111 180.15l.6 3.25q2.1 11.15 2.1 15l-.2 4.3q-.1 3.65-.75 7.2-1.55 11.05-6.85 19.8-3.35 5.45-8.05 9.8l-.3.25q-2.95 2.6-13.6 10.6-5.3 4-8.95 7.75l-.95.95-1.45 1.75v.75.5q.1 3.25 1.85 8.35-5-1.15-8.95-3.25-6.25-3.2-9.8-9.15-1.35-2.1-2.4-4.6-2.4-6.25-2.7-14.95v-3q0-12.5 5.3-24.4l.3-.55q1.9-4.05 4.5-8.25 5-7.7 12-14.9-1.15-3.1-3-6.35-2.75-5-6.9-10.65-5.85-7.8-18.25-22.55v-.9q1.15 1 16.05 8.45 14.3 6.95 15.95 9.45-2.9-6.25-24.1-25.95-5.1-4.9-10-9.2 9.5 5.45 18.65 11.2 34.15 21.45 49.9 39.3" class="I"/><path d="M44.45 274.35l-2.4-3.45-2.85-4.05q-2.7-4.4-2.7-7.3l.4-5q2.4 4.05 6.3 8.45 5.1 5.4 12.7 11.05 5.65 4.05 11.15 7 5.55 2.7 10.75 4.35l5.25 1.15 5.6.65 7.75-.65 1.65-.4.65-.1-.85-.65-.3-3.2-.55-4.3 3.15 2.4 2.4 1.45q6.55 3.75 16.25 6.9 15.55 3.55 25.55 6.05-.6 1.9-.6 3.35l.2 4.05q-9.8-2.5-19.2-3.45l-8.55-.6-2.8.1q-7 .85-7.4 5.65 0 1.45-.65 2.5-1.25 2.4-4.8 3l-3.1.3q-22.75 0-44.05-12.1-3.95-2.25-7.8-5l-1.6-.9-2.7-2-3.15-2.5-1.35-2.7-3-5.85-.55-1.05-1.45-3.25q-2.2-4.5-4.25-9.3l6.65 6.7.1.1q5.55 5 10.55 8.25l.2.85.4.9.45 1.6.2.3 1.45 1.35-.2-2.6-.3-1.45q-.65-2.95-2.2-5.95l.2-.1-.6-.55m52.15 21.7l-3.95-.7q-8.7-1.8-16.3-4.2l-.6-.2q-5.85-1.9-11.3-4.3-11.05-5-19.4-11.75 8.35 6.75 19.4 11.75 5.45 2.4 11.3 4.3l.6.2q7.6 2.4 16.3 4.2l3.95.7" class="L"/></g><path d="M42.45 129.65Q22.5 118.2.5 107.55q24.3 22.55 36.5 38.8l3.25 4.6Q49.55 164.2 53.1 176q1.95 6.95 1.95 13.45 0 6.25-5.6 16.05l-2.4 4.1-5.55 8.1q-2.8 3.85-5.1 7.4-8.35 13.15-8.35 21.4 0 3.15.75 6.25v.25q2.05 7.9 8.95 15.3 2.8 2.95 6.45 5.95l.25.1.6.55q8.35 6.75 19.4 11.75 5.45 2.4 11.3 4.3l.6.2q7.6 2.4 16.3 4.2l3.95.7m.4-18.15l-2.9-2.6q-5.1-5.75-5.45-12.6v-.95q0-4.6 5.65-9.7l10-7.85 2.3-1.85q4.7-3.75 8.15-7.85 9.15-11.05 9.8-24.4l.1-2.4-.1-1.35q-.65-11.9-13.55-26.2-15.75-17.85-49.9-39.3-9.15-5.75-18.65-11.2M23.75 241.1l.25-.65.5-.95v.45l-.5.5m4.8 12.3q-1.7-1.75-3.55-5.6-2-4.2-1.5-6.05l-2.6 5.95q-1.15 2.8-1.15 8.2 0 11.5 8.55 22.25l.65.6q3.75 4.6 8.95 9l3.15 2.5 2.7 2 1.6.9q3.85 2.75 7.8 5 21.3 12.1 44.05 12.1l3.1-.3q3.55-.6 4.8-3 .65-1.05.65-2.5.4-4.8 7.4-5.65l2.8-.1 8.55.6q9.4.95 19.2 3.45 6.15 1.35 12.3 3.45m-11.9-10.85q-10-2.5-25.55-6.05-9.7-3.15-16.25-6.9l-2.4-1.45-3.15-2.4m63.75 21.7q-2.9-1.25-9.5-3l-6.9-1.9" class="C D"/><g class="B"><path d="M248.9 213.35q9.2 3.65 13.45 5.95l1.25.8.55 1.25 3.1 6.9q2.1 5.45 2.1 10.2 0 1.5-.6 3.15l-.65.65q-5.4 5.2-6.25 15.2-1.35 14.7-4.5 19.1-6.55 9.1-20.95 15.35-13.6 5.85-27.35 6.15h-1.45q-10.35 0-20.05-5.95-9.8-6.05-15.3-6.05-4.3 0-5.15 2.3-.6 1.25-.5 4.7-.75 6.75-15.35 7h-.95-.3q-31.8-.45-31.8-8.45l.9-5.75-.1-1.15q5.05 4.05 11.6 7.4 7 3.45 9.8 3.45 17.85 0 19.95-8.45l.9-3.55.75-2.4q1.45-2.6 6.8-2.6 1.85 0 6.55 3.75 4.8 3.75 13.15 3.75 6.9 0 14.1-1.8 8.55-2.4 17.7-7.2 20.05-10.85 20.05-26.05 0-1.8-.75-6.25-.7-4.6-.7-6.05 0-2.6 2.2-6.05l4.15-5.95-2.5-1.45-3.85-2.3 7.1-7 2.9-2.6" fill="#e0b448"/><path d="M248.9 213.35l-2.9 2.6-7.1 7 3.85 2.3 2.5 1.45-4.15 5.95q-2.2 3.45-2.2 6.05 0 1.45.7 6.05.75 4.45.75 6.25 0 15.2-20.05 26.05-9.15 4.8-17.7 7.2-7.2 1.8-14.1 1.8-8.35 0-13.15-3.75-4.7-3.75-6.55-3.75-5.35 0-6.8 2.6l-.75 2.4-.9 3.55q-2.1 8.45-19.95 8.45-2.8 0-9.8-3.45-6.55-3.35-11.6-7.4-.5-2.4-2.8-3.65l-.3-.1q-1.9-.95-4.3-.95-4.15 0-4.8 4.05-.6 4-7.4 4-8.75 0-15.1-7.1l1.35-1.35 3 1.25 5.45 1.65q4.9 0 6.05-2l.7-4.45q.75-6.5 15.55-6.5 5 0 10.45 2.5 5.2 2.65 6.35 5.45-.5 0-.5.5-1.45 0-2.5.55 1.65 6.35 4.9 8.55 2.2 1.45 6.55 1.45 6.25 0 9.3-1.25l5.75-2.6-.25-.3q-.7-.45-.7-1.6 0-4.25 8.95-7.8 7.65-2.95 12.55-2.95h3.55q1.95.35 1.95 2.2 0 .55-1.15 2.4l-3.2 4.2-.65.7h1.45q9-2.2 18.15-6.55 8.05-3.85 16.2-9.4 15.75-10.65 15.75-14.6 0-.65-1.7-3.15-1.75-2.4-1.75-6.15 0-5.2 2.4-8.85 2-3.05 6.05-5.85l1.45-.95.1-.1-.7-.5-.85 1.55-7-1.15-5.2-1.35 1.25-2.5q2-.95 8.45-6.25 5.65-4.6 8.45-5.55l5.3 1.9 3.35 1.25m-53.6 31.6l1.85 2.4q2.1 2.9 3.65 4.15l.3.65q-2.8-1.7-5.6-1.7-5 0-5.75 4.1 0 .6.5 1.85l.55 1.9q0 .95-2.4 2.1l-5.1 1.75-9.5 1.9h-5q6.45-6.4 7.5-8.05v-3l-4.05-.55v-1.25q.6-2.9 1.85-5.85 1.55-1.05 3.15-1.45 3.55-1.45 7.8-1.45 5.75 0 10.25 3v-.5" fill="#efd05c"/><path d="M223.3501 222l-1.25 2.5 5.2 1.35 7 1.15.85-1.55.7.5-.1001.1-1.4499.95q-4.0501 2.8-6.0501 5.85-2.3999 3.65-2.3999 8.85 0 3.75 1.75 6.15 1.7 2.5 1.7 3.15 0 3.95-15.75 14.6-8.15 5.55-16.2 9.4-9.15 4.35-18.15 6.55h-1.45l.65-.7 3.2-4.2q1.15-1.85 1.15-2.4 0-1.85-1.95-2.2h-3.55q-4.9 0-12.55 2.95-8.95 3.55-8.95 7.8 0 1.15.7 1.6l.25.3-5.75 2.6q-3.05 1.25-9.3 1.25-4.35 0-6.55-1.45-3.25-2.2-4.9-8.55 1.05-.55 2.5-.55 0-.5.5-.5-1.15-2.8-6.35-5.45-5.45-2.5-10.45-2.5-14.8 0-15.55 6.5l-.7 4.45q-1.15 2-6.05 2l-5.45-1.65-3-1.25-1.35 1.35-1.25-1.7-2.3-3.1 2.3-1.35q4.15 3.2 6.55 3.2 4.5 0 10.35-12 5.7-12 14.15-12 5.65 0 10.45 8.25 4.6 8.25 12.6 8.25 15.15 0 26.1-14 5.75-7.4 8.65-9.7 1.05-.8 2.2-1.45-1.25 2.95-1.85 5.85v1.25l4.05.55v3q-1.05 1.65-7.5 8.05h5l9.5-1.9 5.1-1.75q2.4-1.15 2.4-2.1l-.55-1.9q-.5-1.25-.5-1.85.75-4.1 5.75-4.1 2.8 0 5.6 1.7l-.3-.65q-1.55-1.25-3.65-4.15l-1.85-2.4v-.4-.55q0-3.55-7-12.4-7.4-9.3-11.6-9.6l8.8-1.05q4.65 0 12.2 2.3 7.5 2.2 9.9 2.2 5.75 0 12.1-2.1l3.65-1.35" fill="#fdfc86"/></g><path d="M119 284.7l.1 1.15-.9 5.75q0 8 31.8 8.45h.3.95q14.6-.25 15.35-7-.1-3.45.5-4.7.85-2.3 5.15-2.3 5.5 0 15.3 6.05 9.7 5.95 20.05 5.95h1.45q13.75-.3 27.35-6.15 14.4-6.25 20.95-15.35 3.15-4.4 4.5-19.1.85-10 6.25-15.2m-27.85-32.05q-2.8.95-8.45 5.55-6.45 5.3-8.45 6.25l-3.65 1.35q-6.35 2.1-12.1 2.1-2.4 0-9.9-2.2-7.55-2.3-12.2-2.3l-8.8 1.05q4.2.3 11.6 9.6 7 8.85 7 12.4v.55m-111 36.4q6.35 7.1 15.1 7.1 6.8 0 7.4-4 .65-4.05 4.8-4.05 2.4 0 4.3.95l.3.1q2.3 1.25 2.8 3.65m149.75-43.1l2.15-1.65m-96.8 5.4q-1.15.65-2.2 1.45-2.9 2.3-8.65 9.7-10.95 14-26.1 14-8 0-12.6-8.25-4.8-8.25-10.45-8.25-8.45 0-14.15 12-5.85 12-10.35 12-2.4 0-6.55-3.2-4.1-3.15-5.45-5.75.85 3.35 3.15 7.1l2.3 3.1 1.25 1.7m111-36v.5q-4.5-3-10.25-3-4.25 0-7.8 1.45-1.6.4-3.15 1.45m-23.8 54.7q.35 0 .75.5.2.1.2-.5" class="C D"/><g class="B"><path d="M368.45 292.95q.65 4.9.65 10.1v.1q0 1.25-.55 3.95l.55.45q-26.2 30.45-56.65 53-28.1 20.65-39.55 20.65-2.35 0-21.95-9.25l-.7-.35-17.4-8.45q-1.05-.55-2.1-.95-11.8-5.85-20.95-9.6-5.1-2.1-9.35-3.55-7.85-2.8-12.9-3.55l-3.35-.4q-1.55 0-5.1 2.1l-.6.4q-1.65 1.05-2.6 2.1l-.05.05h-.35.35l-.7.85.35-.85h-.65q-3.35-1.7-6.1-2.7l-6.45-2.2q-3.75-1.25-8.4-3.35-4.7-2.1-8-4.05-3.75-2.2-6.15-4.65-2.95-2.95-3-5.4l-.7-3.6-.55-2.75.1-.05-.1.05v-.15l.1.1 4.1 3.25q2.6 1.8 9.25 5.25 8 4.2 14.2 5.3 7.8 1.4 15.75 4.65l.15.05 9.25 1.4 12.15 1.95 9.1 1.85q7.45 1.35 13.25 2.9 2.4.6 4.8 1.45 11.65 3.25 23.35 8.2l.9.35q8.3 3.55 16.55 7.85l1.35-.1 3.25-.65 6.9-1.55h5q19.9-14.4 30.65-22.85 16.9-13.65 52.9-47.35" class="H"/><path d="M368.45 292.95q-36 33.7-52.9 47.35-10.75 8.45-30.65 22.85h-5l-6.9 1.55-3.25.65-1.35.1q-8.25-4.3-16.55-7.85l-.9-.35q-11.7-4.95-23.35-8.2-2.4-.85-4.8-1.45-5.8-1.55-13.25-2.9l-9.1-1.85-12.15-1.95-9.25-1.4-.15-.05q-7.95-3.25-15.75-4.65-6.2-1.1-14.2-5.3-6.65-3.45-9.25-5.25l-4.1-3.25 4.05-2.75q2.95-1.85 7-3.75 4.8-2.25 6.5-2.25 1.15 0 2.2.75 1.95 1.25 4.7 2.35 2.35.9 3.65 2.8 1.15 1.6 1.4 1.6 2.1 0 11.55-7.9 9.45-7.9 10.7-7.9l.6.4.25-1 .95 1.6q2.1 3.4 5.1 7.5 3.25 4.5 6.2 7.65 4.1 4.3 7.75 6l.25.1 1.45.55 1.55-.55q3.45-1.35 9.1-4.9l6.85-4.35q10.45-6.9 14.6-11.9 2.2-2.6 1.9-5V278l-.4-.5q-3.55-4.1-11.2-7.1-6.85-2.7-11.45-3.25 9.6-8.85 15.95-14.4 3.45-2.9 6.8-5.4 3.7-2.85 7.35-5.3 21.7-14.65 41.25-14.65 27.55 0 49.75 17.55 23.15 18.35 26.5 48M139.55 290l3.05.85-.2.9-1.15-.35-1.4-.3-.85-.1.55-1m39.35 49.45h.05l.05-.2-.1.2" class="F"/><path d="M220.85 267.15q4.6.55 11.45 3.25 7.65 3 11.2 7.1l.4.5v22.05q.3 2.4-1.9 5-4.15 5-14.6 11.9l-6.85 4.35q-5.65 3.55-9.1 4.9l-1.55.55-1.45-.55-.25-.1q-3.65-1.7-7.75-6-2.95-3.15-6.2-7.65-3-4.1-5.1-7.5l-.95-1.6-.25 1-.6-.4q-1.25 0-10.7 7.9-9.45 7.9-11.55 7.9-.25 0-1.4-1.6-1.3-1.9-3.65-2.8-2.75-1.1-4.7-2.35-1.05-.75-2.2-.75-1.7 0-6.5 2.25-4.05 1.9-7 3.75L135.6 321l-.1-.1-.05-.3-.3-1.75q-.3-2.55 0-7.65 0-8.65 1.85-14.5 1.2-3.8 2.85-5.6l1.4.3 1.15.35.2-.9-3.05-.85 1.15-1.85.1-.35.55-.6q3.65-5.75 7.5-10.15 3.15-3.65 6.35-6.45l2.3-1.7q2-1.4 4-2.45l2.7-1.5q7.3-3.4 15.35-3.4l5.6.3q2.1.3 4.7 2.1 2.4 1.45 7.85 3.75l1.35.6 5.4 1.6 7.65.9 5.3-.5q0-.1.2-.1l3.25-3.05m-23.05 12.1l2.65-.6h.05l6.55-1.8 4.1-1.45 6.25-5.1-6.25 5.1-4.1 1.45-6.55 1.8h-.05l-2.65.6m-26.85-.6q-4.35 4.25-5.9 8l-.85 2.4v.75l.85 2.5q2.15 7.3 6.25 19.85l.4.4q2.1-4.8 4.9-13.15l3.85-11.05 1.8-5.65q-1.35-1.65-4.9-4.6l-3.25-2.5-3.15 3.05" class="E"/><path d="M170.95 278.65l3.15-3.05 3.25 2.5q3.55 2.95 4.9 4.6l-1.8 5.65-3.85 11.05q-2.8 8.35-4.9 13.15l-.4-.4q-4.1-12.55-6.25-19.85l-.85-2.5v-.75l.85-2.4q1.55-3.75 5.9-8" class="G"/></g><path d="M368.55 307.1q.55-2.7.55-3.95v-.1q0-5.2-.65-10.1-3.35-29.65-26.5-48-22.2-17.55-49.75-17.55-19.55 0-41.25 14.65-3.65 2.45-7.35 5.3-3.35 2.5-6.8 5.4-6.35 5.55-15.95 14.4l-3.25 3.05q-.2 0-.2.1l-6.25 5.1-4.1 1.45-6.55 1.8h-.05l-2.65.6M135.6 321l-.1.05.55 2.75.7 3.6q.05 2.45 3 5.4 2.4 2.45 6.15 4.65 3.3 1.95 8 4.05 4.65 2.1 8.4 3.35l6.45 2.2q2.75 1 6.1 2.7h.65.35l.05-.05q.95-1.05 2.6-2.1l.6-.4q3.55-2.1 5.1-2.1l3.35.4q5.05.75 12.9 3.55 4.25 1.45 9.35 3.55 9.15 3.75 20.95 9.6 1.05.4 2.1.95l17.4 8.45.7.35q19.6 9.25 21.95 9.25 11.45 0 39.55-20.65 30.45-22.55 56.65-53M135.5 320.9v.15m81.9-50.75l-5.3.5-7.65-.9-5.4-1.6-1.35-.6q-5.45-2.3-7.85-3.75-2.6-1.8-4.7-2.1l-5.6-.3q-8.05 0-15.35 3.4l-2.7 1.5q-2 1.05-4 2.45l-2.3 1.7m-6.35 6.45q-3.85 4.4-7.5 10.15l-.55.6-.1.35-1.15 1.85-.55 1-.65-.05m1.5.15q-1.65 1.8-2.85 5.6-1.85 5.85-1.85 14.5-.3 5.1 0 7.65l.3 1.75.05.3m40.4 28.8v.05h-.05l-.7.85" class="C D"/><g class="B"><path d="M387.95 291.25l.95 1.7q1.15 2.4 1.15 2.9 0 1.25-.75 2.6l6.7-11.9v-.9l-.5-3.55-.95-6.05-1.25-7.45q6.25 3.15 10 5.55l.2.2q2.1 6.5 2.1 14.7 0 8.7-3.95 17.05-3.35 6.45-6.8 9.35v-1.35l-2-5.4q-1.55 5-10.6 20.55-9.2 15.1-9.7 23.35-2.55-1.25-5.95-7.5l-.65-1.05-4.25 2.6-2 1.25-.3.1-1.25-1.45-6.4 3.45-.8.4q-4.2 2.1-10.25 4.7l-3.2 1.55q-.25 0-.55.15-6.25 2.9-10.45 4.45l-5 1.9 4-4.4q2.5-2.6 3.65-3.45l-8.15.1q-4.2 0-5.35.55l.85.2h-1.05l-5-.4-1.65-.95-.75.1-3.85.2q-6.9 0-12-1.55l-4.05-1.55.3-3.9q0-15.2-.55-17.1-1.15-3.55-5.2-8l-1.55-1.5 1.65 1.05q5.75 4.7 7.5 4.8l-6.75-11.45q-4.2-7.2-4.2-15.05 0-10.65 4.2-18.35 1.75-3.25 4.6-6.25l1.15-1.25 2.15-2.1 8.15 3.95q6.7 4.2 8.35 9v-2.1l.4-7.8q12.1 8.95 18.15 13l1.05-2.05q-1.55-4-2.6-7.65-1.45-5.6-1.45-10.2 0-2.85.6-4.8.25-.75 1.6-3.15l-2.1-1.75.4-.45 1.7 2.2 3.95 5q5.45 6.9 9.6 10.65l3.35 3.05 8.95 8.1 3.15 3.25q2.1 2.3 2.9 4.1.65 1.25.2 2.5l4.1 6.25 5.75 8.15 1.85 2.05-.6-3.3q-.85-6.6-.85-10.35 0-10.1 3.35-14.3 1.85-2.3 8.65-5.3l.1.1 1.85 2.7 1.7 2.8 1.75 3.25.75 2.1.4 1.15 1.35-1.8m-81.65 88.8l-.35.4h-.3v-1.55l.65 1.15m80.5-85.45l-.2-1.55.2 1.55m-85.5-60l.3.65.1 1.35-.4-2m5.9 40.1l-.1.2-1.15-.85v-.5l.65.2.2.2q.55.2.4.75m61.9 67.15l-3.15 2.2 3.15-2.2" class="I"/><path d="M378.25 247.95l5.55 4.4q8.85 6.9 12.95 10.95 4.45 4.4 6.55 10.85-3.75-2.4-10-5.55l1.25 7.45.95 6.05.5 3.55v.9l-6.7 11.9q.75-1.35.75-2.6 0-.5-1.15-2.9l-.95-1.7.85-2.2.3-.7q.95-4.2.95-9.9l-.1-3.25-.4-2.4q-.75-2.4-.85-4.2l-2.1-1.25-.95-.8h-.1l-1.65-1.7-.95-1.15-.7-1-3.75-6.05-.45-.85-.7-1.7q-.55-1.25-.55-4.55v-1.8l1.45.2M359.4 348l-6.6 4-.8.4-12.85 7.4-.4.2-.25.1q-27.3 15.55-32.2 19.95l-.65-1.15.95-8.35q.6-7.6.3-8.85l-14.2-1.35q-13-1.7-16.05-2.75 0-.6 1.35-2.6l2.4-3.1.2-1.3q-.7-.5-3.2-.5-.2.2-.2-.4 0-.65.6-1.8.75-1.35 2.1-2.3l-4.5-6.25.65-2.4q.6-2.6 1.15-3.85l-.15-.2q-1.75-2.5-4.9-6.05l-2.9-2.85-.1-.2q-2.95-2.7-4.9-3.75 6.15-11.55 6.15-21.3 0-10.3-2.4-17.3-1.45-4.8-3.45-7.2l3.75 2 3.95 2.5-1.1-2.95q-.75-2.7-.75-5 0-4.9 5.2-14.3l.3-.6 3.05-4.9q2.3-3.65 5.4-5.75 1.3-1.05 2.75-1.65l1.25-.35 2.1-.6 1.1-.4 1.5 2.6 4.7 7.5 7.05 11.9-.4-7.1.2-2.5.95 1.25q9.9 12.6 11.7 14.4.1-1.25 1.35-3.75l2-3.05 3-4.15 2.1 1.75q-1.35 2.4-1.6 3.15-.6 1.95-.6 4.8 0 4.6 1.45 10.2 1.05 3.65 2.6 7.65l-1.05 2.05q-6.05-4.05-18.15-13l-.4 7.8v2.1q-1.65-4.8-8.35-9l-8.15-3.95-2.15 2.1-1.15 1.25q-2.85 3-4.6 6.25-4.2 7.7-4.2 18.35 0 7.85 4.2 15.05l6.75 11.45q-1.75-.1-7.5-4.8l-1.65-1.05 1.55 1.5q4.05 4.45 5.2 8 .55 1.9.55 17.1l-.3 3.9 4.05 1.55q5.1 1.55 12 1.55l3.85-.2.75-.1 1.65.95 5 .4h1.05l-.85-.2q1.15-.55 5.35-.55l8.15-.1q-1.15.85-3.65 3.45l-4 4.4 5-1.9q4.2-1.55 10.45-4.45.3-.15.55-.15l3.2-1.55q6.05-2.6 10.25-4.7l.8-.4 6.4-3.45 1.25 1.45m-1.8-52.75q2.1-4 7.1-9.85 6.25-7.4 10.75-8.75l.3-.5q1.8 1.25 4.3 4.8-6.8 3-8.65 5.3-3.35 4.2-3.35 14.3 0 3.75.85 10.35l.6 3.3-1.85-2.05-5.75-8.15-4.1-6.25q.45-1.25-.2-2.5m-50.4-20.55q.15-.55-.4-.75l-.2-.2-.65-.2v.5l1.15.85.1-.2" class="K"/><path d="M389.95 275.2l.1 3.25q0 5.7-.95 9.9l-.3.7-.85 2.2-1.35 1.8-.4-1.15-.75-2.1-1.75-3.25-1.7-2.8-1.85-2.7-.1-.1q-2.5-3.55-4.3-4.8l-.3.5q-4.5 1.35-10.75 8.75-5 5.85-7.1 9.85-.8-1.8-2.9-4.1l-3.15-3.25-8.95-8.1-3.35-3.05q-4.15-3.75-9.6-10.65l-3.95-5-1.7-2.2-.4.45-3 4.15-2 3.05q-1.25 2.5-1.35 3.75-1.8-1.8-11.7-14.4l-.95-1.25q-5.2-7-6.05-10.75l-.1-.85 1.8-2.5q1.45-1.95 1.45-3.95l-.1-1.35-.3-.65q.2-2.2 2.7-6.05 1.05-1.75 2.05-2.8 2-2.1 3.9-2.3l-1.8-2.1-2.7-2.9.2-.75-.7-.4 5.9-5.95.65-.65 7-6.85 32.75-2.7h5.3l1.25.3q20.7 14.9 27.25 30.05l.75.9q-5.95 5.45-7.65 8.8-.5 1.05-.7 2.3l-2.75-1.25-5.3-2q-3.65 1.15-13.25 8.65l-1.65 1.25-6.7 5.75q.85 3.35 4.2 10.75l1.75 4.25 2 4.1 1.45-.65 3.75 4.3.4-.2q2.1-1.05 5.85-3.45h.1l7.2-4.5.95-1.25 4.4 3.75 7.5 6.8v.1l.2-4.4 2.4-.3m-19.4-35.25q-.55-.45-1.8 0l.65.3q.6-.3 1.15-.3M311 224.5l-1.05-1.05 1.05 1.05" class="F"/><path d="M376.8 247.75v1.8q0 3.3.55 4.55l-1.9-2.05q-1.9-2.3-2.9-3.05 0 1.15-1.6 3.35l-1.85 2.6q0 .55 5 5.55l.3.3q5.55 5.4 6.15 6.7h.55q0-1.05.6-3.45.2-.75.55-1.35l.7 1 .95 1.15 1.65 1.7h.1l.95.8 2.1 1.25q.1 1.8.85 4.2l.4 2.4-2.4.3-.2 4.4v-.1l-7.5-6.8-4.4-3.75-.95 1.25-7.2 4.5h-.1q-3.75 2.4-5.85 3.45l-.4.2-3.75-4.3-1.45.65-2-4.1-1.75-4.25q-3.35-7.4-4.2-10.75l6.7-5.75 1.65-1.25q9.6-7.5 13.25-8.65l5.3 2 2.75 1.25q-.55 1.75-.65 4.25m-6.25-7.8q-.55 0-1.15.3l-.65-.3q1.25-.45 1.8 0" class="E"/><path d="M377.35 254.1l.7 1.7.45.85 3.75 6.05q-.35.6-.55 1.35-.6 2.4-.6 3.45h-.55q-.6-1.3-6.15-6.7l-.3-.3q-5-5-5-5.55l1.85-2.6q1.6-2.2 1.6-3.35 1 .75 2.9 3.05l1.9 2.05" class="G"/><path d="M300 213.65l5.85-3.75 2.3-2q2.1-1.95 2.3-3.45l8.05-.6-7 6.85-.65.65-5.9 5.95-4-2.7q-.5-.55-1.15-.55l.2-.4" class="H"/><path d="M245.55 260.15q-1.65-.3-2.9-.9l-2.7-.1q.9-.85 1.85-3.65l1.05-2.85-.1-1.05q-8.85-3.85-9.7-5.6 2.9 0 9.7-4 6.55-4.05 11.6-8.75l2.4-2.3 12.2-11.05q12.2-10.2 17.1-10.2l2.5-.25 11.05 4-.2.5.4.1q.65 0 1.15.55l4 2.7.7.4-.2.75 2.7 2.9 1.8 2.1q-1.9.2-3.9 2.3-2.25-2.8-9.15-6.7-7.75-4.35-11.4-5.4l-.1.95q-6.75 2.2-16.05 12.6-4.05 4.6-9.7 11.8l-1.9 2.4q-.5.2-1.15.6l-11.25 5.35q4.4 3.1 7.4 4.35l-3.1 3.9-4.1 4.55" class="M"/><path d="M275.4 339.35l-10.45-13.65-.6.2-4.05.4-7.65-.7q2-3.35 3.85-7.55 3.65-8.2 3.65-14.9 0-13.25-3-19.7-3.05-6.8-11.05-10.15 1.55-1.25 3.85-6.05 2.4-4.45 2.4-5.7l.3-.75-4.25-.4-2.85-.25 4.1-4.55 3.1-3.9q-3-1.25-7.4-4.35L256.6 242q.65-.4 1.15-.6l1.9-2.4q5.65-7.2 9.7-11.8 9.3-10.4 16.05-12.6l.1-.95q3.65 1.05 11.4 5.4 6.9 3.9 9.15 6.7-1 1.05-2.05 2.8-2.5 3.85-2.7 6.05l-.25-1.05q-.7-2.05-2.05-2.8 1.35.75 2.05 2.8l.25 1.05.4 2q0 2-1.45 3.95l-1.8 2.5.1.85q.85 3.75 6.05 10.75l-.2 2.5.4 7.1-7.05-11.9-4.7-7.5-1.5-2.6-1.1.4-2.1.6-1.25.35q-1.45.6-2.75 1.65-3.1 2.1-5.4 5.75l-3.05 4.9-.3.6q-5.2 9.4-5.2 14.3 0 2.3.75 5l1.1 2.95-3.95-2.5-3.75-2q2 2.4 3.45 7.2 2.4 7 2.4 17.3 0 9.75-6.15 21.3 1.95 1.05 4.9 3.75l.1.2 2.9 2.85q3.15 3.55 4.9 6.05l.15.2q-.55 1.25-1.15 3.85l-.65 2.4m-7.5-13.95l-2.95.3 2.95-.3" class="L"/></g><g class="C D"><path d="M403.3 274.15q-2.1-6.45-6.55-10.85-4.1-4.05-12.95-10.95l-5.55-4.4m-1.45-.2v1.8q0 3.3.55 4.55m.7 1.7l.45.85 3.75 6.05.7 1 .95 1.15m19.4 9.3l.2.2q2.1 6.5 2.1 14.7 0 8.7-3.95 17.05-3.35 6.45-6.8 9.35v-1.35l-2-5.4q-1.55 5-10.6 20.55-9.2 15.1-9.7 23.35-2.55-1.25-5.95-7.5m-.65-1.05l-4.25 2.6-2 1.25-.3.1-6.6 4-.8.4-12.85 7.4-.4.2-.25.1q-27.3 15.55-32.2 19.95l-.35.4h-.3v-1.55l.95-8.35q.6-7.6.3-8.85l-14.2-1.35q-13-1.7-16.05-2.75 0-.6 1.35-2.6l2.4-3.1m.2-1.3q-.7-.5-3.2-.5-.2.2-.2-.4 0-.65.6-1.8.75-1.35 2.1-2.3l-4.5-6.25-10.45-13.65-.6.2-4.05.4-7.65-.7q2-3.35 3.85-7.55 3.65-8.2 3.65-14.9 0-13.25-3-19.7-3.05-6.8-11.05-10.15 1.55-1.25 3.85-6.05 2.4-4.45 2.4-5.7m.3-.75l-4.25-.4-2.85-.25q-1.65-.3-2.9-.9l-2.7-.1q.9-.85 1.85-3.65l1.05-2.85-.1-1.05q-8.85-3.85-9.7-5.6 2.9 0 9.7-4 6.55-4.05 11.6-8.75l2.4-2.3 12.2-11.05q12.2-10.2 17.1-10.2l2.5-.25 11.05 4 .4.2 5.85-3.75 2.3-2q2.1-1.95 2.3-3.45l8.05-.6 32.75-2.7h5.3m1.25.3q20.7 14.9 27.25 30.05m.75.9q-5.95 5.45-7.65 8.8-.5 1.05-.7 2.3-.55 1.75-.65 4.25m-71.85-30.45l.7.4m-5.85-3.65q.65 0 1.15.55l4 2.7m-5.15-3.25l-.4-.1.6-.3M264.95 325.7l2.95-.3m98.05 18.65l3.15-2.2"/><path d="M383.9 264.85l1.65 1.7h.1l.95.8 2.1 1.25q.1 1.8.85 4.2l.4 2.4.1 3.25q0 5.7-.95 9.9l-.3.7-.85 2.2-1.35 1.8.2 1.55m-61.1-33.5l-1.7-2.2-.4.45-3 4.15-2 3.05q-1.25 2.5-1.35 3.75-1.8-1.8-11.7-14.4l-.95-1.25q-5.2-7-6.05-10.75l-.1-.85 1.8-2.5q1.45-1.95 1.45-3.95l-.1-1.35-.3-.65-.25-1.05q-.7-2.05-2.05-2.8m26.7 30.35l3.95 5q5.45 6.9 9.6 10.65l3.35 3.05 8.95 8.1 3.15 3.25q2.1 2.3 2.9 4.1 2.1-4 7.1-9.85 6.25-7.4 10.75-8.75m.3-.5q1.8 1.25 4.3 4.8m.1.1l1.85 2.7 1.7 2.8 1.75 3.25.75 2.1.4 1.15m-29 2.2q.65 1.25.2 2.5m-52.35-79.3l2.7 2.9 1.8 2.1 1.05 1.05m-4.95 1.25q2-2.1 3.9-2.3m-3.9 2.3q-1 1.05-2.05 2.8-2.5 3.85-2.7 6.05" class="J"/></g><g class="B"><path d="M373.7 64.65l.8.65q9 6.45 13.35 10.45 4.8 4.35 9.1 12 1.15 1.95 3.65 8.45l.7 6.35q.65 4.9.95 10l.3 12q0 6.05-.5 11.9l-.4 11.15q-2.2 1.35-5 3.35l-6.7 4.05-7.1-9.6h-.6l.1-.6-.65-.95h-.1l.95-.6q2-11.2 2-16.9l-.25-4.2-.6-20.85-.1-1.8-.65-3q-1.05-2.85-3.2-6.15-5.05-7.55-16.3-17.65L360.3 70q0-.75.15-1.35.2-3.35.8-4.4l1.6-.2 2.8-.1 4.35.6 3.7.1m-11.2 36.1l.1.25h-.1v-.25m20.75-15q3.45 3.55 6.3 7.3 3.95 5 5.3 8.45l1.25-.65q0-9.25-5.1-16.8l-3.15-3.85h-.2q-1.35 1.15-3.85 4.8l-.55.75m6.7 69.25l.65.85-1.3-.5q.25-.25.65-.35" class="E"/><path d="M310.45 12.7q.2-2.7.65-4.55.2-1.05.5-1.8l.85-1.85q1.35-2.2 3.85-4-.65.95-.65 1.9 0 10.95 7.95 20.25 5.55 6.35 24.2 21.9l12 9.9 5.75 4.5 8.15 5.7-3.7-.1-4.35-.6-2.8.1-1.6.2q-.6 1.05-.8 4.4-.15.6-.15 1.35l-.5-.45q-9.1-7.8-20.75-17.1l-1.55-1.25q-11.8-12.3-16.4-19.1-6.25-9.15-7.6-18.95l-3.05-.45" class="I"/><path d="M310.45 12.7l3.05.45q1.35 9.8 7.6 18.95 4.6 6.8 16.4 19.1l1.55 1.25q11.65 9.3 20.75 17.1l.5.45-.2 2.5-5.2-.3-2.1.2v6.35l-.6-.5-5.95-5.25-7.2-6.55q-4.2-3.75-7.3-7.2l-3.55-4.7q-7.5-10.75-15.15-38.7l-2.6.5V12.7" fill="#deca8d"/><path d="M310.45 16.35l2.6-.5q7.65 27.95 15.15 38.7l3.55 4.7q3.1 3.45 7.3 7.2l7.2 6.55 5.95 5.25.6.5v.1.65q-.8.1-4.25 1.45L347.4 82q-5.65-5.85-13.25-12.75l-5.55-7.2q-18.15-25.25-18.15-45.7" class="M"/><path d="M379.3 170.85h-.4q-9.5 0-17.65-9.45-7-8.25-7-14.5 0-.35.45-.65.3-.5-.2-1.55 2.15-5.75 3.95-12.1l.95-4.1q4.05-16.05 3.1-27.5h.1l-.1-.25q-3.1-6.05-11.8-15.2-1.45-1.8-3.3-3.55l1.15-1.05q3.45-1.35 4.25-1.45v-.65l.95 1.35.3.45 3.55 4.7 12.55 17.9v.75l-3.35 25.65-3.25 22.45 4.3 6.05 3.3 4.4 1.25 1.85.45.1q1.65.75 4.15 1.35 4.2 1.05 7.2 1.05l-.4.2q-3.65 2.1-4.6 2.3h-.1l.2 1.45m-15-64.55q-.1-2.3-1.7-5.3 1.6 3 1.7 5.3" class="H"/><path d="M401.65 147.6v7.75 2.8l-.45.6q-2.5 4.1-8.95 7.95-6.9 4.05-12.95 4.15l-.2-1.45h.1q.95-.2 4.6-2.3l.4-.2q-3 0-7.2-1.05-2.5-.6-4.15-1.35l-.45-.1-1.25-1.85-3.3-4.4-4.3-6.05 3.25-22.45 3.35-25.65v-.75l-12.55-17.9-3.55-4.7-.3-.45-.95-1.35v-.1-6.35l2.1-.2 5.2.3.2-2.5 3.15 2.7q11.25 10.1 16.3 17.65 2.15 3.3 3.2 6.15l.65 3 .1 1.8.6 20.85.25 4.2q0 5.7-2 16.9l-.95.6h.1l.65.95-.1.6h.6l7.1 9.6 6.7-4.05q2.8-2 5-3.35m-11.7 7.4q-.4.1-.65.35l1.3.5-.65-.85" class="F"/><path d="M383.25 85.75l.55-.75q2.5-3.65 3.85-4.8h.2l3.15 3.85q5.1 7.55 5.1 16.8l-1.25.65q-1.35-3.45-5.3-8.45-2.85-3.75-6.3-7.3" class="G"/></g><g class="C D"><path d="M373.7 64.65l.8.65q9 6.45 13.35 10.45 4.8 4.35 9.1 12 1.15 1.95 3.65 8.45l.7 6.35q.65 4.9.95 10l.3 12q0 6.05-.5 11.9l-.4 11.15v7.75 2.8l-.45.6q-2.5 4.1-8.95 7.95-6.9 4.05-12.95 4.15h-.4q-9.5 0-17.65-9.45-7-8.25-7-14.5 0-.35.45-.65.3-.5-.2-1.55l-2 5.1m21.2-85.15l-8.15-5.7-5.75-4.5-12-9.9Q329.15 29 323.6 22.65q-7.95-9.3-7.95-20.25 0-.95.65-1.9-2.5 1.8-3.85 4l-.85 1.85q-.3.75-.5 1.8-.45 1.85-.65 4.55v.35 3.3q0 20.45 18.15 45.7l5.55 7.2q7.6 6.9 13.25 12.75 1.85 1.75 3.3 3.55 8.7 9.15 11.8 15.2l.1.25q1.6 3 1.7 5.3m-1.8-5.55v.25q.95 11.45-3.1 27.5l-.95 4.1q-1.8 6.35-3.95 12.1"/><path d="M360.3 70q0-.75.15-1.35.2-3.35.8-4.4l1.6-.2 2.8-.1 4.35.6 3.7.1m-20.9 14.1V72.4l2.1-.2 5.2.3.2-2.5m-11.75 10.95q3.45-1.35 4.25-1.45v-.75" class="J"/></g><g class="B"><path d="M383.25 127.6l-2.9-2.65-1.05-.9 1.05.9 2.9 2.65m-73.5-42.9q34.5 16.8 45.05 22.55l7.7 4.7q9.2 5.6 16.8 12.1l-8-14.3 14.8 15 9.05 9.2Q408.2 147 410.1 149.6q1.05 3.2 2.8 12.7l1.25 7.4-4.4-5.8-5.2-6.4.55 9.1-.85.75q-2.3-3.35-18.9-9.75-19.3-7.4-19.3-14.8 0-1.45.95-3.95 1.05-2.5 1.05-3.55 0-5.65-14.6-17.65-6.7-5.5-16.2-12.3-17.3-12.2-28.9-18.15l1.4-2.5m-66.8 50.9l.3-.3-2.8-2.1q-7.8-6.65-12.6-13.15 12.4 2.1 42.75-4.25 33.05-8.05 43.6-10.05h4.3l3 .25q1.35.6 2.85 1.55 8.65 4.9 18.85 16.9l.45.3q7.9 9.3 10.2 15.25-1.05-.65-7.7-3.35l-5.75-2.2q3.75 2.4 8.95 9 5.35 6.75 8.25 13.05-2.9-2.75-10.1-4.3-6.6-1.35-24.55-2.6l-10.5-.85q-8.9-.95-13.25-2.1-10.75-2.6-10.75-8.55 0-2.2 6.75-5 6.7-3 6.7-5.3 0-2-5.4-2.75l-12.35-.5-25.25 1.25q-5.6.75-9.7 2.1 1.15.6 2.95 1.75 3.75 2.5 5.85 4.3l-5.65.1q-1.55 1.15-6.8 1.35l-2.6.2m98.9 56.05l-7.6-1.5-2.6-.5q-7.2-2.1-7.2-6.45 0-.65.5-1.9l.55-1.85q0-2.1-3.05-3.35-2.5-.95-5.75-.95-3.95 0-5.7 1.25-1.8 1.25-5.55 1.25-6.9 0-17.55-4.5-.6-.3-1.35-.5l-2.8-1.35q-6.9-3.55-6.9-6.5l2.1-2.9q0-1.9-2.4-3.55-2.2-1.45-6.35-2.9v-2.2h-2.85l-3.65-.3q4.7-1.4 14.75-1.4h.5 3.35q12.1.15 17.5 1.25 2.95.65 5.75 1.9 2.8 1.15 5.45 2.9-1.15.65-2 2 .75 1.05 3.55 2 3 1.05 5.95 1.05 2.8 0 4.25-1.25 1.35-1.25 4-1.25 5.6 0 16.25 3.4 12.5 4.2 12.5 8.55l-.7 1.5q-.75 1.05-.75 1.55 0 4.05 17.25 11.5-2.55 1-6.3 1-3.85 0-6.95-.9l-1.5-.45-2.4-1.05q-.6-.5-1.55-.8l-1.25 1.45q-3.35 1.05-6.25 3.1l-3.25 2.65m6.9-9.7l3.85 2.5-3.85-2.5m-43.5 34.5l-2.1-1.05q-4.4-1.85-10.75-3.4-4.7-2.1-7.7-4-2.3-1.65-3.45-3.35-1.35-2.05-1.45-5.6l4.9 2.6 7.8 3q9.1 2.95 15.55 2.95 5.65 0 9.5-2.95 4.05-3 14.8-3h1.45q7.35.1 12.45 1.55 5.4 1.25 8.45 4 4.8 4.25 3.55 12.7l10.85 5.35-2.85.5-1.15.3-3.85 1.35-4.7.55-.2.1q-.3.5-5.85-.65-6.05-1.35-6.05-2.3 0-.8 1.9-2.05 1.85-1.25 1.85-1.9 0-.95-3.4-2.2-3.55-1.25-6.4-1.25-1.45 0-1.45.75 0 .6 1.25 2.4l1.25 1.85q-.95.55-3.75.65l-4.05.1h-2.85l-5.4-.6q-3.05-.55-3.95-1.4l1.15-.9q1-.45 1.35-.85-.45-2.1-6.5-2.7h-1.75v1.65h-3.95l-1.9-.4-2.6-1.8" fill="#fdfc86"/><path d="M425.55 201l-.55.55-.1-.1.65-.45m.8 11.9l1.05 1.35 2.6 3.05q2.5 2.8 6.15 6.05l.25.1-4.95.1-10.7.55-1.9 2.7.3.2 1.25.75q.75.6.75 1.35l-.1.7 6.05 5h.2l-1.9 2.85-2.25 3.45-6.3 1.25-.6-.2q-3.75-1.8-10.25-3.05l-2.4-.5-7.6-1.15-3.55-.35-1.65-.1h-.35l-.9-1.25-.65-.8-2.5-1.9-1.05-1.05-1.15-1.45-1.65-2 .1-.1 2.4-2.9 2-2.5 1.75-1.9 1.25-1.25 3.55-.6 1.45-.25.45-.1 3.75-.3h.1l3.55.3.4-.7q1.25-1.6 3.75-3.35l.2-.1 3.25-2.2 1.15-.6 3.95-.35 4.2.1h1.55l3.65.65 1.35.5m-42.55-36.6l.75.2-.25.65-.7-.1.2-.75m30.75 8.55q2.2 2.8 6.8 10.65l-.6 1.55q-.75 1.8-3.05 5.1l2.7.25 2.95-.25-.75.85-.75.95-.7.6-.75-.1-.4.1-6.8 1.6-6.15 1.05-.8.1-1.3.1-3.3-2.5-3.75-2.95-.35-2.3v-1.15-.2q-1.25-.6-3.75-1.35l-2.5-.85-.6-.2-2-.6-5.65-1.5-.5-.2-.65-.1-2.05-.3-.1-1.8-3.15-2.25q.85 0 3.55-2.2l2.3-1.9v-.2l-5-4.8 15.2 3.15.35.1.9.1 6.6 1.35 4.05.95 2.4.4 6.15 1.65v-.7q0-2.2-.2-2.8l.2.2 1.45.4m-13.75 7.3l-.3-.2-4.4 1.65 1.8 1.9q5.7 6.15 6.25 7.5l1.05-2.7q1.05-2.4 1.05-4.3l-.65-.5-.1-.1-2-1.45q-1.45-1.05-2.7-1.8m24.3 26.5l.45 2.1v.6l3.3-.4-2.05-2.6-1.7-1.8-.3.55.3 1.55m-28.8-18.25l1.6 1.55-1.6-1.25v-.3m-24-.95v-.3h.1l-.1.3" class="E"/><path d="M309.75 84.7l-1.4 2.5q11.6 5.95 28.9 18.15 9.5 6.8 16.2 12.3 14.6 12 14.6 17.65 0 1.05-1.05 3.55-.95 2.5-.95 3.95 0 7.4 19.3 14.8 16.6 6.4 18.9 9.75l.85-.75-.55-9.1 5.2 6.4 4.4 5.8.2 2.55.2 2.4v6.75l-5.6-4.8.5 4.9-.1 2-2.4-.65-2-.6-1.85-.55q-3.55-.9-9-2.6l-.8-.1-8.75-2.5-.75-.2q-12.85-3.65-19.5-8.55-.2 2.5 1.95 7.9 2.95 6.9 7 9.85l-1.95 1.15q-17.25-7.45-17.25-11.5 0-.5.75-1.55l.7-1.5q0-4.35-12.5-8.55-10.65-3.4-16.25-3.4-2.65 0-4 1.25-1.45 1.25-4.25 1.25-2.95 0-5.95-1.05-2.8-.95-3.55-2 .85-1.35 2-2-2.65-1.75-5.45-2.9-2.8-1.25-5.75-1.9-5.4-1.1-17.5-1.25h-3.35-.5q-10.05 0-14.75 1.4l3.65.3h2.85v2.2q4.15 1.45 6.35 2.9 2.4 1.65 2.4 3.55l-2.1 2.9q0 2.95 6.9 6.5l2.8 1.35q.75.2 1.35.5 10.65 4.5 17.55 4.5 3.75 0 5.55-1.25 1.75-1.25 5.7-1.25 3.25 0 5.75.95 3.05 1.25 3.05 3.35l-.55 1.85q-.5 1.25-.5 1.9 0 4.35 7.2 6.45l2.6.5 7.6 1.5-2.8 2.9 2.6 3.05q-2.2-1.6-5.45-1.5l-2.15.35q-1.05.1-2.1.6-1.9.75-2 1.55H324q-3-1.45-8.35-2.25-3.2-.55-3.2-2.2 0-1.25 1.15-2l2.4-2q-2-2.25-4.5-2.8l-4.6-.2q-1.25 0-5.2 1.05-4.4 0-17.45-3.95l-.3-.15q-9.05-2.6-12.7-4.9-2.3-1.55-2.3-2.8 0-1.05.7-2.5l.75-2q0-2.8-3.05-3.3-1.75-.25-5.7 0l-10.15 1q-7.2 1.15-11.15 2.5v.55q5.4.3 9.3 2.8l9.7 8.15-5.45-1.45q2 1.95 2 2.7 0 .95-1.8 3.45-1.75 2.5-1.75 4.4 0 2.6 7.8 8l6.4 4.6q6.45 5 10.3 8.85l-6.65-3.2q-1.8-.65-4.6-.75h-.4q-24.35 9.9-24.35 10.25 0 .7 1.5 3.5 0 1.9-8.35 2.55l-6.8.6 3.35-2.6v-.55h-2.2l-4.7 2q-2.3 1.05-3.35 1.05l-6.15-.5q10.45-7.35 15.55-18.5 4.8-9.8 4.6-23.15l-22.2-.75h.2q1.85-2.5 12.6-14.9l10.35-12.1q-10.15-4.9-11.4-5l9.7-8.35 9.4-8.15 2.6-.2q5.25-.2 6.8-1.35l5.65-.1q-2.1-1.8-5.85-4.3-1.8-1.15-2.95-1.75 4.1-1.35 9.7-2.1l25.25-1.25 12.35.5q5.4.75 5.4 2.75 0 2.3-6.7 5.3-6.75 2.8-6.75 5 0 5.95 10.75 8.55 4.35 1.15 13.25 2.1l10.5.85q17.95 1.25 24.55 2.6 7.2 1.55 10.1 4.3-2.9-6.3-8.25-13.05-5.2-6.6-8.95-9l5.75 2.2q6.65 2.7 7.7 3.35-2.3-5.95-10.2-15.25l-.45-.3q-10.2-12-18.85-16.9-1.5-.95-2.85-1.55l-3-.25h4.7L308.35 87.2l-4.55-5.3 5.95 2.8m-6.2 148.75q-1.55.25-1.95 1.35.6-2.15 1.45-3.4l.3-.35v.1l.2 2.3m105.3-59.65l.1 2.8-.1-2.8m-85.65-68.05q1.05 1.15 1.15 1.8-.1-.65-1.15-1.8m28.15 80.15l1.25-1.45q.95.3 1.55.8l-2.8.65m9.8-20.85l3.15 2.7-3.15-2.7m-124.35 19.8h-2.5 2.5m71.05 33.4l1.9.4h3.95V217h1.75q6.05.6 6.5 2.7-.35.4-1.35.85l-1.15.9q.9.85 3.95 1.4l5.4.6h2.85l4.05-.1q2.8-.1 3.75-.65l-1.25-1.85q-1.25-1.8-1.25-2.4 0-.75 1.45-.75 2.85 0 6.4 1.25 3.4 1.25 3.4 2.2 0 .65-1.85 1.9-1.9 1.25-1.9 2.05 0 .95 6.05 2.3 5.55 1.15 5.85.65l.2-.1 4.7-.55 3.85-1.35 1.15-.3 2.85-.5 2.05 1.1-5.8.35q-5.25 1.95-5.25 4.7v.2l-.6.1-5.75.7-7 .85q-7.3 0-8.75-1.55.6-1.25 1.45-2-.2-.2-3.45-1.45h-5.7q-.35.2-.35.95v.6l1.05 1.35h-5.5l-5.05-1.45q0-.5 1.05-2.5-1.15-.7-3.65-1.45l-2.4-.65-2.7.65v-.2l-.3-.85q-.95-3.85-4.6-6.45" fill="#efd05c"/><path d="M414.55 181.4l2.75 4.4-2.75-.95-1.45-.4-.2-.2q.2.6.2 2.8v.7l-6.15-1.65-2.4-.4-4.05-.95-6.6-1.35-.9-.1-.35-.1-15.2-3.15 5 4.8v.2l-2.3 1.9q-2.7 2.2-3.55 2.2l3.15 2.25.1 1.8 2.05.3.65.1.5.2 5.65 1.5 2 .6.6.2 2.5.85q2.5.75 3.75 1.35v.2 1.15l.35 2.3 3.75 2.95 3.3 2.5 1.3-.1.8-.1 6.15-1.05 6.8-1.6.4-.1.75.1.7-.6.75-.95.75-.85 1.15-1.15.4.45.1.1-.1.2q-.65.65-.75 1.15-.4 1.05-.4 3.55 0 1.55.85 3.65l1.15 1.9.6.9-1.35-.5-3.65-.65h-1.55l-4.2-.1-3.95.35-1.15.6-3.25 2.2-.2.1q-2.5 1.75-3.75 3.35l-.4.7-3.55-.3h-.1l-3.75.3-.45.1-1.45.25-3.55.6-1.25 1.25-1.75 1.9-2 2.5-2.4 2.9-.1.1 1.65 2 1.15 1.45 1.05 1.05 2.5 1.9.65.8.9 1.25h.35l1.65.1 3.55.35 7.6 1.15 2.4.5q6.5 1.25 10.25 3.05l.6.2 6.3-1.25 2.25-3.45 1.9-2.85 2.2 2q-2.85 2.8-5.25 8.75h-.9l-3.25.85-3.25.65h-.4l-9.5-2.75-1.25-.2q-5.75-1.75-10.55-2.7l-2.9-.65-.85-.2-5.2.45-2.5-1.5-4.4-2.8-.4-.2-.85-.65h-.1l.65.55-2.3-1.6q-3.25-2.15-7.75-2.7l-3-.1h-.85q-2.2.1-3.65.75l-.5.2q-.45-.65-.45-1.35v-.2q0-2.75 5.25-4.7l5.8-.35-2.05-1.1-10.85-5.35q1.25-8.45-3.55-12.7-3.05-2.75-8.45-4l-4.6-5.6-2.6-3.05 2.8-2.9 3.25-2.65q2.9-2.05 6.25-3.1l2.8-.65 2.4 1.05 1.5.45q3.1.9 6.95.9 3.75 0 6.3-1l1.95-1.15q-4.05-2.95-7-9.85-2.15-5.4-1.95-7.9 6.65 4.9 19.5 8.55l-.2.75.7.1.25-.65 8.75 2.5.8.1q5.45 1.7 9 2.6l1.85.55 2 .6 2.4.65.1-2-.5-4.9 5.6 4.8m5.35 26.5q2.4 0 4.7 2.2-2.3-2.2-4.7-2.2m-23.6-7.5v.3l1.6 1.25-1.6-1.55m4.7 15.35l-.95-1.7-2.6-5.2q-1.95-4.3-3.75-6.6l-.2-.5-2.9-.6-2.75-.65-.6-.1-13.15-2.7q-1.05.3-1.7 1.45h-.1l-3.4-.2-1.25-1.15-3.8-.55-3.75-.9 1.25 1.35q1.15 1.45 1.7 3.3l.1.55-.55.1.25.6.2 1.4q0 1.25-.55 2.05l-.3.35q-.95.6-.95 1.15l1.15 1.1 4.9 3.7q6.15 4.35 6.15 7.5v.4l5.05-.85h.3l-.65 1.25-.95 1.25 5.15-.7h2.2q.8-.95 2.15-1.7 2.4-1.25 5.15-1.25l3.55.75h.1l2.5-2.6 1.75.1h1.05l.2-.4q3.15-3.45 6.05-5.05 1.25-.8 2.4-1.1-1.15.3-2.4 1.1-2.9 1.6-6.05 5.05m-.2.4l2.5 2.1-2.5-2.1m-33.15-18.35l-2.55-3.15-.1-.1-3.2-3.75-3.75-4.05 3.75 4.05 3.2 3.75.1.1 2.55 3.15" class="F"/><path d="M417.3 185.8l3.1 4.35 5.25 6.9.7 3.15-.8.8-.65.45-.4-.45-1.15 1.15-2.95.25-2.7-.25q2.3-3.3 3.05-5.1l.6-1.55q-4.6-7.85-6.8-10.65l2.75.95m7.8 32.85l-.3-1.55.3-.55 1.7 1.8 2.05 2.6-3.3.4v-.6l-.45-2.1m-24.3-26.5q1.25.75 2.7 1.8l2 1.45.1.1.65.5q0 1.9-1.05 4.3l-1.05 2.7q-.55-1.35-6.25-7.5l-1.8-1.9 4.4-1.65.3.2" class="G"/><path d="M436.4 223.45q1 .65 1.1 1.35l.15 1.55q0 2.3-.85 2.85l-.65.7q-.6-2.5-1.25-3.4l-.6-.15-5.1-.6q-2.1 0-5.05.85v2.5l.25.2 1.85 1.55 5.2 3.95-1.85 1.9-.1.1-2.2-2h-.2l-6.05-5 .1-.7q0-.75-.75-1.35l-1.25-.75-.3-.2 1.9-2.7 10.7-.55 4.95-.1M423 226.8v.2l.55-.3-.55.1" fill="#af1637"/><path d="M436.15 229.9l-4.7 4.9-5.2-3.95-1.85-1.55-.25-.2v-2.5q2.95-.85 5.05-.85l5.1.6.6.15q.65.9 1.25 3.4M423 226.8l.55-.1-.55.3v-.2" fill="#ae6f50"/><path d="M372.4 199.15q.65-1.15 1.7-1.45l13.15 2.7.6.1 2.75.65 2.9.6.2.5q1.8 2.3 3.75 6.6l2.6 5.2.95 1.7-.2.4h-1.05l-1.75-.1-4.4-.3-3.25-.45-1.85-.1-1.25-.1-1.25-.2h-1.05l-5-.2-1.45-1.7q-3.15-4.15-6.2-13.55l.1-.3m20.6 7.5q-.95-1.85-1.7-2.1h-.1l-1.9-.4-.5 1.35-.2 2.95q0 1.65.5 3.3l.65 1.7.3.1 3.55.1 2.4.2q-.2-1.55-2.1-5.3l-.2-.55-.2-.4-.5-.95m-9.3 6.15l1.95.2v-.3q0-5 1.8-7.4l1.25-1.25-12.95-2.7 3.55 6.95 1.15 2 .75 1.25.6 1.05.45.1 1.45.1" fill="#500009"/><path d="M388.8 205.5l.5-1.35 1.9.4h.1q.75.25 1.7 2.1-1.3-.5-3.05-.85l-1.15-.3m-1.35-.2l-2.7-.65-5.55-1q.2 1.55 2.2 5.4l2.3 3.75-1.45-.1-.45-.1-.6-1.05-.75-1.25-1.15-2-3.55-6.95 12.95 2.7-1.25 1.25" fill="#ebb347"/><path d="M393 206.65l.5.95.2.4.2.55q1.9 3.75 2.1 5.3l-2.4-.2-3.55-.1-.3-.1-.65-1.7q-.5-1.65-.5-3.3l.2-2.95 1.15.3q1.75.35 3.05.85m-9.3 6.15l-2.3-3.75q-2-3.85-2.2-5.4l5.55 1 2.7.65q-1.8 2.4-1.8 7.4v.3l-1.95-.2" fill="#ebca47"/><path d="M372.3 199.45q3.05 9.4 6.2 13.55l1.45 1.7 5 .2H386l1.25.2 1.25.1 1.85.1 3.25.45 4.4.3-2.5 2.6h-.1l-3.55-.75q-2.75 0-5.15 1.25-1.35.75-2.15 1.7h-2.2l-5.15.7.95-1.25.65-1.25h-.3l-5.05.85v-.4q0-3.15-6.15-7.5l-4.9-3.7-1.15-1.1q0-.55.95-1.15l.3-.35q.55-.8.55-2.05l-.2-1.4-.25-.6.55-.1-.1-.55q-.55-1.85-1.7-3.3l-1.25-1.35 3.75.9 3.8.55 1.25 1.15 3.4.2v.3" fill="#f5e0f3"/><path d="M360.55 232.95v.1q.6.95 1.65 1.55-1.75 0-11.15 2.4-9.3 2.2-17.95 2.2l-6.25-.2q-6.9-.65-12.2-2.6-7.75-3.05-9.7-3.05l-1.4.1-.2-2.3v-.1l-.3.35-11.8 4.35-4.5 1.7-7.5 2.8 1.9-3.15q1.55-2.5 1.55-4.7 0-2.9-4.6-2.9-1.95 0-5.2 1.55-3.35 1.7-8.65 1.7l-2-.1-3.55-.45-5.85-.7 7.75-2.95 2.4-1.15q3.1-1.55 3.1-2.9 0-1.25-2.4-2.3l-1-.5q-3.45-1.25-6.9-1.25-7.2 0-7.5 3.85-.65 4.7-2.75 5.4-4.15 1.45-13.95 2.4-8.9.85-9.4.2l.75-.1-.65-.2q-.2-.2-.2.2h-2.5l5.6-3.75 2-1.35 6.8-.6q8.35-.65 8.35-2.55-1.5-2.8-1.5-3.5 0-.35 24.35-10.25h.4q2.8.1 4.6.75l6.65 3.2q-3.85-3.85-10.3-8.85l-6.4-4.6q-7.8-5.4-7.8-8 0-1.9 1.75-4.4 1.8-2.5 1.8-3.45 0-.75-2-2.7l5.45 1.45-9.7-8.15q-3.9-2.5-9.3-2.8v-.55q3.95-1.35 11.15-2.5l10.15-1q3.95-.25 5.7 0 3.05.5 3.05 3.3l-.75 2q-.7 1.45-.7 2.5 0 1.25 2.3 2.8 3.65 2.3 12.7 4.9l.3.15q13.05 3.95 17.45 3.95 3.95-1.05 5.2-1.05l4.6.2q2.5.55 4.5 2.8l-2.4 2q-1.15.75-1.15 2 0 1.65 3.2 2.2 5.35.8 8.35 2.25h5.95q.1-.8 2-1.55 1.05-.5 2.1-.6l2.15-.35q3.25-.1 5.45 1.5l4.6 5.6q-5.1-1.45-12.45-1.55h-1.45q-10.75 0-14.8 3-3.85 2.95-9.5 2.95-6.45 0-15.55-2.95l-7.8-3-4.9-2.6q.1 3.55 1.45 5.6 1.15 1.7 3.45 3.35 3 1.9 7.7 4 6.35 1.55 10.75 3.4l2.1 1.05 2.6 1.8q3.65 2.6 4.6 6.45l.3.85v.2h-.4q-6.3 1.85-9 5.3 2.7-3.45 9-5.3h.4l2.7-.65 2.4.65q2.5.75 3.65 1.45-1.05 2-1.05 2.5l5.05 1.45h5.5l-1.05-1.35v-.6q0-.75.35-.95h5.7q3.25 1.25 3.45 1.45-.85.75-1.45 2 1.45 1.55 8.75 1.55l7-.85 5.75-.7.6-.1q0 .7.45 1.35" fill="#e0b448"/></g><g class="C D"><path d="M379.3 124.05l1.05.9 2.9 2.65m30.9 42.1l-1.25-7.4q-1.75-9.5-2.8-12.7-1.9-2.6-14.95-15.65l-9.05-9.2-14.8-15 8 14.3q-7.6-6.5-16.8-12.1l-7.7-4.7q-10.55-5.75-45.05-22.55l-5.95-2.8q-.75-.55-1.6-.95m111.95 88.75l.2 2.55.2 2.4v6.75l2.75 4.4 3.1 4.35 5.25 6.9.7 3.15-.8.8-.55.55-.1.2q-.65.65-.75 1.15-.4 1.05-.4 3.55 0 1.55.85 3.65l1.15 1.9.6.9m1.05 1.35l2.6 3.05q2.5 2.8 6.15 6.05l.25.1q1 .65 1.1 1.35l.15 1.55q0 2.3-.85 2.85l-.65.7-4.7 4.9-1.85 1.9-.1.1q-2.85 2.8-5.25 8.75h-.9l-3.25.85-3.25.65h-.4l-9.5-2.75-1.25-.2q-5.75-1.75-10.55-2.7l-2.9-.65-.85-.2-5.2.45-2.5-1.5-4.4-2.8-.4-.2-.3-.1-2.3-1.6m-15.75-1.75q.6.95 1.65 1.55-1.75 0-11.15 2.4-9.3 2.2-17.95 2.2l-6.25-.2q-6.9-.65-12.2-2.6-7.75-3.05-9.7-3.05l-1.4.1q-1.55.25-1.95 1.35.6-2.15 1.45-3.4l.3-.35q2.7-3.45 9-5.3h.4l2.7-.65m-101.3 1.4q10.45-7.35 15.55-18.5 4.8-9.8 4.6-23.15l-22.2-.75h.2q1.85-2.5 12.6-14.9l10.35-12.1q-10.15-4.9-11.4-5l9.7-8.35 9.4-8.15.3-.3-2.8-2.1q-7.8-6.65-12.6-13.15 12.4 2.1 42.75-4.25 33.05-8.05 43.6-10.05h4.3 4.7L308.35 87.2l-4.55-5.3m80.75 94.6l-.75-.2q-12.85-3.65-19.5-8.55l-3.15-2.7m23.4 11.45l8.75 2.5.8.1q5.45 1.7 9 2.6l1.85.55 2 .6 2.4.65.1-2-.5-4.9-.1-2.8m5.7 7.6l-5.6-4.8m-37.65-66.85l-1.3-1.25m-45.65-.95q-.1-.65-1.15-1.8m18.65 85.9l3.25-2.65q2.9-2.05 6.25-3.1l2.8-.65 2.4 1.05 1.5.45q3.1.9 6.95.9 3.75 0 6.3-1l1.95-1.15q-4.05-2.95-7-9.85-2.15-5.4-1.95-7.9m-11.7 16.7l-3.85-2.5m-43.5 34.5l-2.1-1.05q-4.4-1.85-10.75-3.4-4.7-2.1-7.7-4-2.3-1.65-3.45-3.35-1.35-2.05-1.45-5.6l4.9 2.6 7.8 3q9.1 2.95 15.55 2.95 5.65 0 9.5-2.95 4.05-3 14.8-3h1.45q7.35.1 12.45 1.55l-4.6-5.6-2.6-3.05 2.8-2.9m-107.55-6.8h2.5m132.3 40.4l-10.85-5.35q1.25-8.45-3.55-12.7-3.05-2.75-8.45-4m22.85 22.05l2.05 1.1-5.8.35q-5.25 1.95-5.25 4.7v.2q0 .7.45 1.35m-7.95-48.5q.95.3 1.55.8m-41.4 40.5v-.2l-.3-.85q-.95-3.85-4.6-6.45"/><path d="M424.6 210.1q-2.3-2.2-4.7-2.2m16.5 15.55l-4.95.1-10.7.55-1.9 2.7.3.2 1.25.75q.75.6.75 1.35l-.1.7 6.05 5m.2 0l2.2 2m-57.1-37.65q.65-1.15 1.7-1.45l13.15 2.7.6.1 2.75.65 2.9.6.2.5q1.8 2.3 3.75 6.6l2.6 5.2.95 1.7q3.15-3.45 6.05-5.05 1.25-.8 2.4-1.1M398 216.05l-4.4-.3-3.25-.45-1.85-.1-1.25-.1-1.25-.2h-1.05l-5-.2-1.45-1.7q-3.15-4.15-6.2-13.55l.1-.3h-.1l-3.4-.2-1.25-1.15-2.55-3.15-.1-.1-3.2-3.75-3.75-4.05m39.95 29.3l1.75.1h1.05l2.5 2.1" class="J"/></g><g class="B"><path d="M218.85.7l2.6 2.4q7.55 7.3 24.3 28.6 22.75 29 29.75 46l1.15 3.05 1.25 5.4q0 4.7-2.7 7.5l-.55.35q-3.5 3.45-9.25 7.8-5.75 4.2-5.75 6.6 0 2.3 2.1 6.05l-4.1-4.4q-1.75-2-2.15-2.8h-1.4q-4.35 2.2-6.25 4.25l-4.45-4.35q1.55-2.85 3.4-5.95l10.85-16.3-1.05-9.05-.4-3.45-.95-7.1-1.25-2.9q-8.55-19.65-20.35-38.1Q224.5 9.5 219.8 5.1l-.3-.3q-1.25-1.15-2.2-1.45l-1.15.5-.1-.2.6-.65 2.2-2.3" class="I"/><path d="M216.15 3.85l1.15-.5q.95.3 2.2 1.45 17.2 31.6 24.4 50.9 3.25 8.85 5.75 19.9l.3 2.1.5 2.5-.2 1.35-.3 1.5-.1.4q-.65.5-1.35 1.15-3.85 3.55-10.75 8.65-5 4.4-7.85 9.3l-.4.2q-.3.1-.65.4-2.4 1.15-5.9 3.05l-2.75-4.4q3.25-2.9 8.8-7.2 11.45-8.85 18.15-15.2l-1.05-3.9q-2.6-8.75-10.65-28.05-10.25-25.15-19.3-43.6m31.2 77.1l-.2-1.55.2 1.55" class="M"/><path d="M219.5001 4.8l.3.3q4.7 4.4 13.85 19.2 11.8 18.45 20.3499 38.1l1.25 2.9.9501 7.1.4 3.45 1.05 9.05-10.85 16.3q-1.85 3.1-3.4 5.95L242 105.9q-4.25-3.8-7.6999-5.35l-.75.2-3.65 1.8q2.8499-4.9 7.8499-9.3 6.9001-5.1 10.75-8.65.7001-.65 1.3501-1.15l.1-.4.2999-1.5.2001-1.35-.5-2.5-.3-2.1q-2.5-11.05-5.75-19.9-7.2-19.3-24.4-50.9" fill="#deca8d"/><path d="M243.4 107.15l4.45 4.35q1.9-2.05 6.25-4.25h1.4q.4.8 2.15 2.8l4.1 4.4 3.2 4.7 4.1 4.9 5.1 5.7q5.1 5.35 10.2 9.6 7.2 5.85 18.7 13.15l.95.65.6.2q2.6 1.85 5.85 8.95 1.35 3.05 2.1 5.45l1.45-.1-1.15.8-5.65 3.15-1.95 1.15-.85.4q-17.85-1.05-41.6-21.9l-8.15-7.4-8.15-8.85q-6.8-8.45-9.05-15.35 1.85-5.55 5.95-12.5m20.75 26.35q3.55 2.1 11.15 7.95 3.95 3.15 6.45 4.9l.1-2.3q-9.6-9.4-13.1-13.35l-4.6 2.8" class="E"/><path d="M264.15 133.5l4.6-2.8q3.5 3.95 13.1 13.35l-.1 2.3q-2.5-1.75-6.45-4.9-7.6-5.85-11.15-7.95" class="G"/><path d="M304.6 153.35l14.5 8.65q2 2.2 4.7 8.75l.95 2-7.2 9.8-4.15 5.45-1.6.4-10.1 2.1-13.25 1.75v-.1q-24.3-5.4-46.1-28.05l-6.5-7.1-5.5-7.3Q220.3 135 220.3 121.3q0-6.05 2.3-10.1 1.25-2.2 6.25-8.05.35-.3.65-.4l.4-.2 3.65-1.8.75-.2q3.45 1.55 7.7 5.35l1.4 1.25q-4.1 6.95-5.95 12.5 2.25 6.9 9.05 15.35l8.15 8.85 8.15 7.4q23.75 20.85 41.6 21.9l.85-.4 1.95-1.15 5.65-3.15 1.15-.8-1.45.1q-.75-2.4-2.1-5.45-3.25-7.1-5.85-8.95" class="F"/><path d="M324.75 172.75q2.2 5.55 3.35 10.1-5.55 7.3-11.4 12.35-.5.2-.8.6l-3.15 2.4-.5-2.8-3.55.4-5.15.65-10.6.9-13.05-1-6.25-1.7q-.25.1-9.95-6.65-10.75-7.65-14.05-10.65-11.05-9.7-18.5-17.1l-4.8-5.15-.9-.9q-5.55-6.6-9.4-16.6-3.95-10.45-4.1-17.3 0-6.9.95-9.3 1.05-2.5 3.25-5h.2q.65-1.35 3.85-4.2l2.75 4.4q3.5-1.9 5.9-3.05-5 5.85-6.25 8.05-2.3 4.05-2.3 10.1 0 13.7 10.05 28.4l5.5 7.3 6.5 7.1q21.8 22.65 46.1 28.05v.1l13.25-1.75 10.1-2.1 1.6-.4 4.15-5.45 7.2-9.8" class="H"/></g><g class="C D"><path d="M261.75 114.45q-2.1-3.75-2.1-6.05 0-2.4 5.75-6.6 5.75-4.35 9.25-7.8l.55-.35q2.7-2.8 2.7-7.5l-1.25-5.4-1.15-3.05q-7-17-29.75-46Q229 10.4 221.45 3.1l-2.6-2.4-.3-.2-.2.1-1.15.85q-.75.65-.55 1.55m-.6.65l.1.2q9.05 18.45 19.3 43.6 8.05 19.3 10.65 28.05l1.05 3.9.2 1.55m14.4 33.5l3.2 4.7 4.1 4.9 5.1 5.7q5.1 5.35 10.2 9.6 7.2 5.85 18.7 13.15l.95.65m.6.2l14.5 8.65q2 2.2 4.7 8.75l.95 2q2.2 5.55 3.35 10.1l.4 2M247.15 79.4q-6.7 6.35-18.15 15.2-5.55 4.3-8.8 7.2-3.2 2.85-3.85 4.2h-.2q-2.2 2.5-3.25 5-.95 2.4-.95 9.3.15 6.85 4.1 17.3 3.85 10 9.4 16.6l.9.9 4.8 5.15q7.45 7.4 18.5 17.1 3.3 3 14.05 10.65 9.7 6.75 9.95 6.65l6.25 1.7 13.05 1 10.6-.9 5.15-.65 3.55-.4"/><path d="M243.4 107.15l4.45 4.35q1.9-2.05 6.25-4.25h1.4q.4.8 2.15 2.8l4.1 4.4M220.2 101.8l2.75 4.4q3.5-1.9 5.9-3.05m.65-.4l.4-.2 3.65-1.8m.75-.2q3.45 1.55 7.7 5.35l1.4 1.25" class="J"/></g><g class="B"><path d="M245.25 363.45q5.65-4.15 7.85-6.55l-3.35 12.6q-3.75 12.4-7.65 19.3-.5-2.8-2.9-10.55l-1.25-4.15.75-3.75.4-2.2q2.1-1.75 6.15-4.7" class="G"/><path d="M239.6 325.5q4.7 3 9.1 7.4 9.9 9.7 13.15 19.5l-14.8 47.55-1.05 3.35-.85 2.95-1.25 3.95-2.1-1.25-2.8 3.45q-1.05-2.5-4.9-8.8l-3.05-4.9-.2-.5h-1.55l-7.6 8.05-.25-.55-1.05-2-3-6.25-1.25-3.1q-1.55-4.8-2.1-11.4l-1.25-3.75 1.05-2.5q0-16.9 5.85-29.2 6.35-13.05 19.9-22m5.65 37.95q-4.05 2.95-6.15 4.7l-.4 2.2-.75 3.75 1.25 4.15q2.4 7.75 2.9 10.55 3.9-6.9 7.65-19.3l3.35-12.6q-2.2 2.4-7.85 6.55m-19.1 51l-.3-.2h.3v.2m-27.95-2.05v-.1l.65-.55-.65.65" class="E"/><path d="M239.6 325.5q-13.55 8.95-19.9 22-5.85 12.3-5.85 29.2l-1.05 2.5 1.25 3.75q.55 6.6 2.1 11.4l1.25 3.1 3 6.25 1.05 2 .25.55 7.6-8.05h1.55l.2.5 3.05 4.9q3.85 6.3 4.9 8.8l2.8-3.45 2.1 1.25 2 7.7-.35.65-.1.3-1.75 3.55-.75 1.75-1.85 3.45-.35.75v.3l-1.15 1.9-.9.6-1.9-3.45-3.25-5-.6-.8-2.1-3.25-3.75-5.95-.95 1.55h-.3l.3.2-6.45 12.65-2.7-2.8-5.95-6.2-3.35-3.85-2.5-3.45-.65-5.7-.7-7.55-2.4-21.45.5-7.3q1.9-26.4 2.85-44.05l.1-3.25.4-.2q6.15-2.7 11.8-2.7 12 0 22.5 6.9m-41.3 86.9h-.1l.65-.65-.55.65" class="F"/><path d="M219.7 427.1l6.45-12.65v-.2l.95-1.55 3.75 5.95 2.1 3.25.6.8 3.25 5 1.9 3.45-.35.65-3-2.85-.65-.6q-3-2.6-4.55-3.55-1.3 1.25-5.55 12.95-5.1-6.4-5.95-8.55l.95-1.8.1-.3m21.05 1.25l.35-.75 1.85-3.45.75-1.75 1.75-3.55.1-.3.35-.65 3.65-1.65q4.8-2.3 6.35-2.7v.7q0 3.45-.65 8.05l-1.05 6.25-1.35-2.3-1.95-2.7-.75-.85-7.8 15.55-1.5-9.5-.1-.4m12.95 92.95q-.4 1.55-1.65 3l-2.4-.2q-3.05-.4-6.6-1.85-5.2-2.2-11.35-6.7l-.75-.5-4.25-3.55q-4.4-4.1-4.4-6.6l-.1-3v-1.55l.4-11.7-1.15-8.05-.7-4.45-.55-3.7-1.55-9.8-1.35-8.1.3-.55q-1.05-1.55-4.8-5.1-3.1-3.05-8-7.2-2.85-2.7-6.5-5.65l-.95-.8q-5.2-5.15-8.85-10.05l-1.9-2.8q-5.6-8.85-5.6-16.7l6.55 2.6 9.5 3.55q.65.2 1.15.55h.1l1.45 1.55 1.05 1.15 5.55 5.65q2.8 2.6 6.25 6.55l.4.65 2.85 3.5-1.05.35q-.95-1.05-3.15-2.4-4.35-3.05-13.35-8.05l-4.9-2.6-3.65-2H188V418q.4 1.5 2.4 4 2.5 3 7.4 7.4l5.7 4.9 3.25 2.7 10 8.15 3.35 2.9 3.55 16.8 1.05 4.5 1.25 7 .1.6q2.2 12.55 2.6 21.8l.2 1.35 2.95 3.05 2.4 2.1 4.15 3.75q3.45 3.1 5.95 4.9l.85.6.95-.2 1.65-.4 2.7-.75.1-1.75q0-3.15-.9-7.95l1.25-.6.6 1.15q1.9 4.25 2.2 8.75l.2 2.4q0 5-.3 6.05.3-1.05.3-6.05l-.2-2.4q-.3-4.5-2.2-8.75l-.6-1.15-1.6-2.85-.7-1.15-.1-.2-2.4-3.35q-1.35-1.85-3.05-3.55 1.9.45 5.25 1.7l.6.2 2.3.85q.95.2 1.55.6l.85 1.35 6.8 11.1 4.15 6.55.4.85.85.1 18.8 2.05 3.55-4.45-.1-.65q-.35-2.05-1.3-5.4-1.45-5.25-2.7-7.85l-1.15-.95-1.45-1.25-4.7-3.2q-3.1-2.1-5.95-3.35l.2-.5q2.5.6 7.1 2.5l.95.4 5.85 2.6.75.3 1 .55 1.4 1.75 2.25 2.95q3.45 4.7 4.5 7.5l.1.3h.1l4.9-.8.65-.15.1 2.75v4.25q-4.8 2.1-8.85 2.2h-.35v-5.65q0-5.7-7.4-12.2 7.4 6.5 7.4 12.2v5.65q-.4 3.95-1.55 6.05l-8.45 1.9-10.2.6q-6.4 0-15.9-3.35l-1.65-.5-.1-.1.1.1" class="K"/><path d="M238.7 431.15l.9-.6 1.15-1.9v-.3l.1.4 1.5 9.5 7.8-15.55.75.85 1.95 2.7 1.35 2.3-.3 1.55v.1l-2.4 9.95-.1.6.1.45 4.4 12.4.85 2.2q1.95 5.1 3.75 9.05 3.55 7.6 6.05 10.35l.1.1.2.3q1.25 1.15 7.5 4.7l5.25 2.9 4.15 2.5 7.5 4.5 4.3 2.85q3.45 3.5 4.35 7.8.65 2.3.65 6.55l-.65.15-4.9.8h-.1l-.1-.3q-1.05-2.8-4.5-7.5l-2.25-2.95-1.4-1.75-1-.55-.75-.3-5.85-2.6-.95-.4q-4.6-1.9-7.1-2.5l-.2.5q2.85 1.25 5.95 3.35l4.7 3.2 1.45 1.25 1.15.95q1.25 2.6 2.7 7.85.95 3.35 1.3 5.4l.1.65-3.55 4.45-18.8-2.05-.85-.1-.4-.85-4.15-6.55-6.8-11.1-.85-1.35q-.6-.4-1.55-.6l-2.3-.85-.6-.2q-3.35-1.25-5.25-1.7 1.7 1.7 3.05 3.55l2.4 3.35.1.2.7 1.15 1.6 2.85-1.25.6q.9 4.8.9 7.95l-.1 1.75-2.7.75-1.65.4-.95.2-.85-.6q-2.5-1.8-5.95-4.9l-4.15-3.75-2.4-2.1-2.95-3.05-.2-1.35q-.4-9.25-2.6-21.8l-.1-.6-1.25-7-1.05-4.5-3.55-16.8-3.35-2.9-10-8.15-3.25-2.7-5.7-4.9q-4.9-4.4-7.4-7.4-2-2.5-2.4-4v-1.25h1.75l3.65 2 4.9 2.6q9 5 13.35 8.05 2.2 1.35 3.15 2.4l1.05-.35q.7 1.15.7 1.8l2.1-4.05q.85 2.15 5.95 8.55 4.25-11.7 5.55-12.95 1.55.95 4.55 3.55l.65.6 3 2.85.35-.65.9 1.6-.9-1.6m27.95 57.2l1.95.7 2.2.95-2.2-.95-1.95-.7" class="I"/><path d="M201.45 376.1l2.4 21.45.7 7.55.65 5.7 2.5 3.45 3.35 3.85 5.95 6.2 2.7 2.8-.1.3-.95 1.8-2.1 4.05q0-.65-.7-1.8l-2.85-3.5-.4-.65q-3.45-3.95-6.25-6.55l-5.55-5.65-1.05-1.15-1.45-1.55.55-.65 1-14.5 1.6-21.15" class="H"/></g><g class="C D"><path d="M243.9 410.2l1.25-3.95.85-2.95m1.05-3.35l14.8-47.55 1.55-4.5m-58.1-26.6l-.4.2-.1 3.25q-.95 17.65-2.85 44.05l-.5 7.3-1.6 21.15-1 14.5m47.05 6.15l-2-7.7m-45.7 2.2q-.5-.35-1.15-.55l-9.5-3.55-6.55-2.6q0 7.85 5.6 16.7l1.9 2.8q3.65 4.9 8.85 10.05l.95.8q3.65 2.95 6.5 5.65 4.9 4.15 8 7.2 3.75 3.55 4.8 5.1l-.3.55 1.35 8.1 1.55 9.8.55 3.7.7 4.45 1.15 8.05-.4 11.7v1.55l.1 3q0 2.5 4.4 6.6l4.25 3.55.75.5q6.15 4.5 11.35 6.7 3.55 1.45 6.6 1.85l2.4.2q1.25-1.45 1.65-3l-.1-.1m.6-92.65l1.05-6.25q.65-4.6.65-8.05v-.7q-1.55.4-6.35 2.7l-3.65 1.65m54.65 89.5q0-4.25-.65-6.55-.9-4.3-4.35-7.8l-4.3-2.85-7.5-4.5-4.15-2.5-5.25-2.9q-6.25-3.55-7.5-4.7l-.2-.3-.1-.1q-2.5-2.75-6.05-10.35-1.8-3.95-3.75-9.05l-.85-2.2-4.4-12.4-.1-.45.1-.6 2.4-9.95v-.1M217.6 454h-.3v.55m74.15 62.05h.35q4.05-.1 8.85-2.2v-4.25l-.1-2.75m-46.85 13.9l1.65.5q9.5 3.35 15.9 3.35l10.2-.6 8.45-1.9q1.15-2.1 1.55-6.05"/><path d="M219.7 427.1l6.45-12.65v-.2l.95-1.55 3.75 5.95 2.1 3.25.6.8 3.25 5 1.9 3.45.9 1.6m0-2.2l1.15-1.9v-.3l.35-.75 1.85-3.45.75-1.75 1.75-3.55.1-.3m8.05 102.65q.3-1.05.3-6.05l-.2-2.4q-.3-4.5-2.2-8.75l-.6-1.15-1.6-2.85-.7-1.15-.1-.2-2.4-3.35q-1.35-1.85-3.05-3.55m-27.2-60.3l-2.85-3.5-.4-.65q-3.45-3.95-6.25-6.55l-5.55-5.65-1.05-1.15-1.45-1.55h-.1v-.1q-.4-.55-1.15-.45m21.6 17.35l.95-1.8m-3.75 4.05q.7 1.15.7 1.8l2.1-4.05M270.8 490l-2.2-.95-1.95-.7m4.15 1.65q2.85 1.25 5.95 3.35l4.7 3.2 1.45 1.25 1.15.95q7.4 6.5 7.4 12.2v5.65" class="J"/></g><g class="B"><path d="M142.4 291.75l2.6.8q3.05.9 4.1 2.4.8 1.25 2.1 1.35 4.5.3 7.15 1.2 3.1 1.1 3.05 2.8-.05.95.9 7.9l.95 7.1 14.25.25q1.9 0 2.8 1.1 1.1 1.25 2.45 1.85v1.35l-1.25 8.85-.4 1.6v.05l-.55 2.85-.3 1.05-1.25 5-4.9-1.45q-5.65 6.25-10.2 9.05l-2.3 1.15v.1l-2.4.75q-3.45-2.1-11.4-12.85l-5.7-8-.75-8.15-.3-2.6q-.35-5.35-.35-7.2 0-10.9 1.7-18.3m-32.75 33.2l1.85 1.35 4.7 3.55 2 1.45.7.55.65.3-.85.2.25.45q1.8 3.15 3.95 8.45l1.85 4.7 1.25 3.2-1.35-.1q-2.55-.55-5.7-2l-.75-.4-3.05-1.65-3.3-2.1-3.05-2-.65-.4q-1.35-2.3-2.5-3.35v-4.05-8.05l4-.1" class="E"/><path d="M179 339.25l-.1.2-1.15 3.65-2.6 7.5-.4 1.05-.7 1.75-4.65 10.7q-.95 1.65-1.75 3.4-2.3 4.4-4.7 8.05l-.85 1.35q-9.4 14.1-18.75 14.1-7.45 0-17.65-9l-4.8-4.45-1.95-2-.75-.75q-4.4-4.7-8.25-9.7l-1.45 2.95q-2 5-4.6 15.85l-5.2 3.45-1.8 1.15-2 1.05-2.8 1.45-.05-1.45-.45-7.3-.35-6.6q-.4-5.1-1.35-8.25l-1.85 1.8 3.75-7 2.9-5.85 1.55-2.95 5.15-10.5q2.95-6.2 4.25-9.8v4.05q1.15 1.05 2.5 3.35l.65.4 3.05 2 3.3 2.1 3.05 1.65.75.4q3.15 1.45 5.7 2l1.35.1-1.25-3.2-1.85-4.7q-2.15-5.3-3.95-8.45l-.25-.45.85-.2q3.85-9.3 7.4-17.2l2-4.4q5.3-11.3 10.05-19.55l2.25.4 1.15.35q-1.7 7.4-1.7 18.3 0 1.85.35 7.2l.3 2.6.75 8.15 5.7 8q7.95 10.75 11.4 12.85l2.4-.75v-.1l2.3-1.15q4.55-2.8 10.2-9.05l4.9 1.45m-70.3 24.2l1.25 1.65-1.25-1.65" class="F"/><path d="M76.25 366.4l2.5-4.5 1.55-2.7 3.7-5.8 2.25-3.6.85-1.35 3.65-5.55 5.85-8.55q8.15-11.5 9.7-11.5.5 0 3.35 2.1l-4 .1v8.05q-1.3 3.6-4.25 9.8l-5.15 10.5-1.55 2.95-2.9 5.85-3.75 7-12.2 11.8.4-14.6" class="H"/><path d="M118.2 454.85l.2.95q.7 3.75.7 5.6 0 8.55-4.05 9.3l-13.25.65h-.4q-1.15 1.95-3.05 3.3-2.6 2.1-6.85 3.05-4 .95-9.5.95-7 0-11.3-1.7l-6.85-3.85q-.65.3-1.8 2.5l-8.45 1.25-9.3-7q-6.25-4.9-6.95-5.95L37 446.5q.55-1.65.95-5.85.2-2.25.65-3.6V437l.4-1.25 10.85-21.8.65-1.35 5-10.2.7-1.4 5.6-11.45 1.3-3.15q-2.1-.7-4.45-2.6-3.1-2.5-6.6-7.1-7.5-9.8-7.5-19.9 0-3.55.5-4.8l1.25-1.6q2 .65 11.9 8.05l.45.35q9.4 6.9 10.6 8.85l1.05-.95q.2-.75 3.55-6.6l1.9 3.65.6 1.25-.1 1.4-.4 14.6 12.2-11.8 1.85-1.8q.95 3.15 1.35 8.25l.35 6.6.45 7.3.05 1.45 2.8-1.45 2-1.05 1.8-1.15 5.2-3.45 2 2.1-17.85 17.85-.4-1.45-3.05-8.6-1.55-4.25-.85-2.3-2.1 2.3-.6.6-2.5 3.05-1.55-3.65-3.4-6.05-3.45 6.05-6.65 12.2-.35.65q-3.6 6.6-7.15 13.75l-1.35 2.8-1.05 2.2-5.75 12.2-1.45 3.7-1.15 2.75-.4 1.05-.25.65q.35 2.9 3.35 11.05 2.2 6.15 3.75 8.95l3.65.35q3.05 0 5.05-2.3l.1-.2h.1v-.15l1.05-8.65-.15-1.65-.3-1.35q-.2-1.45-.8-3.15l-.55-1.45q.95.4 1.8.95l1.65 2.3.6-1.15q9.1 4.8 11.7 6.75v10.25l-.3-.1-.1 1.35h.4v-1.25l.95.4 7.1 2.7q4.9 1.8 7 2.85l.3-.2 3.25-1.9q4.9-3.15 6.95-6.55h2.3l-.3-2-.4-3.15-.55-1.85q-.6-.95-2.2-2.4-.3-1.8-.2-2.6v-.25l4.3.65.95.3.5.65 2.6 3.45 1.55 2.3q1.6 2.05 2.1 3.2h.1l1.25-.5 4.1-1.6 2.5-.7M63.85 473.1l1.05-7.4q.9-7 .8-10.15l-.1-1.95-.1-.3-.5-1.4q-.95-2.25-3.25-5.7 2.3 3.45 3.25 5.7l.5 1.4.1.3.1 1.95q.1 3.15-.8 10.15l-1.05 7.4m37.95-1.75l.3-6.7-.2-5.3.2 5.3-.3 6.7" class="K"/><path d="M109.1 385.35l-1.2 4.2-2.55 7.9-.85 3.15-.5 1.8q-1.45 5.15-2 9.35-.4 2.6-.4 4.7 0 2.9 1.55 11.25 1.1 6.4 2 9.35l.5 1.5q.85 2 8.7 9.6l1.35 1.25 1.95 1.9v.6l.55 2.95-2.5.7-4.1 1.6-1.25.5h-.1q-.5-1.15-2.1-3.2l-1.55-2.3-2.6-3.45-.5-.65-.95-.3-4.3-.65v.25q-.1.8.2 2.6 1.6 1.45 2.2 2.4l.55 1.85.4 3.15.3 2h-2.3q-2.05 3.4-6.95 6.55l-3.25 1.9-.3.2q-2.1-1.05-7-2.85l-7.1-2.7-.95-.4v1.25h-.4l.1-1.35.3.1V451.8q-2.6-1.95-11.7-6.75l-.6 1.15-1.65-2.3q-.85-.55-1.8-.95l.55 1.45q.6 1.7.8 3.15l.3 1.35.15 1.65-1.05 8.65v.15h-.1l-.1.2q-2 2.3-5.05 2.3l-3.65-.35q-1.55-2.8-3.75-8.95-3-8.15-3.35-11.05l.25-.65.4-1.05 1.15-2.75 1.45-3.7 5.75-12.2 1.05-2.2 1.35-2.8Q58 409 61.6 402.4l.35-.65 6.65-12.2 3.45-6.05 3.4 6.05L77 393.2l2.5-3.05.6-.6 2.1-2.3.85 2.3 1.55 4.25 3.05 8.6.4 1.45L105.9 386l-2-2.1 5.2 1.45m-51.4 55.5q1 1.05 2.4 3.05-1.4-2-2.4-3.05m33.8.35l.7 2.05 1.25 1.8q.95.7 1.6 1.45l3.4 3.45-3.4-3.45q-.65-.75-1.6-1.45l-1.25-1.8-.7-2.05" class="I"/></g><g class="C D"><path d="M182.75 318.5v1.35l-1.25 8.85-.4 1.6m0 .05l-.55 2.85m-.3 1.05l-1.25 5-.1.2-1.15 3.65-2.6 7.5-.4 1.05-.7 1.75-4.65 10.7q-.95 1.65-1.75 3.4-2.3 4.4-4.7 8.05l-.85 1.35q-9.4 14.1-18.75 14.1-7.45 0-17.65-9l-4.8-4.45-1.95-2-.75-.75q-4.4-4.7-8.25-9.7l-1.45 2.95q-2 5-4.6 15.85l5.75-.2-.55 1.65-1.2 4.2-2.55 7.9-.85 3.15-.5 1.8q-1.45 5.15-2 9.35-.4 2.6-.4 4.7 0 2.9 1.55 11.25 1.1 6.4 2 9.35l.5 1.5q.85 2 8.7 9.6l1.35 1.25 1.95 1.9v.6l.55 2.95.2.95q.7 3.75.7 5.6 0 8.55-4.05 9.3l-13.25.65h-.4q-1.15 1.95-3.05 3.3-2.6 2.1-6.85 3.05-4 .95-9.5.95-7 0-11.3-1.7l-6.85-3.85q-.65.3-1.8 2.5l-8.45 1.25-9.3-7q-6.25-4.9-6.95-5.95L37 446.5q.55-1.65.95-5.85.2-2.25.65-3.6V437l.4-1.25 10.85-21.8.65-1.35 5-10.2.7-1.4 5.6-11.45 1.3-3.15q-2.1-.7-4.45-2.6-3.1-2.5-6.6-7.1-7.5-9.8-7.5-19.9 0-3.55.5-4.8l1.25-1.6q2 .65 11.9 8.05l.45.35q9.4 6.9 10.6 8.85m1.05-.95q.2-.75 3.55-6.6l1.9 3.65m.5 2.65l2.5-4.5 1.55-2.7 3.7-5.8 2.25-3.6.85-1.35 3.65-5.55 5.85-8.55q8.15-11.5 9.7-11.5.5 0 3.35 2.1l1.85 1.35 4.7 3.55m2 1.45l.7.55m.65.3q3.85-9.3 7.4-17.2l2-4.4q5.3-11.3 10.05-19.55m-29.05 74.1l-1.25-1.65"/><path d="M75.75 363.75l.6 1.25-.1 1.4-.4 14.6 12.2-11.8 1.85-1.8q.95 3.15 1.35 8.25l.35 6.6.45 7.3.05 1.45 2.8-1.45 2-1.05 1.8-1.15 5.2-3.45m-43.8 60q-1.4-2-2.4-3.05m4.05 5.35q2.3 3.45 3.25 5.7l.5 1.4.1.3.1 1.95q.1 3.15-.8 10.15l-1.05 7.4m-2.1-26.9l-1.65-2.3m38.35 6.05q1.6 1.45 2.2 2.4l.55 1.85.4 3.15.3 2 .2 5.3-.3 6.7m-3.35-21.4l-3.4-3.45q-.65-.75-1.6-1.45l-1.25-1.8-.7-2.05" class="J"/></g></svg>