<?xml version="1.0" encoding="UTF-8" standalone="no"?>
<svg xmlns:xlink="http://www.w3.org/1999/xlink" height="228.45px" width="175.75px" xmlns="http://www.w3.org/2000/svg">
  <g transform="matrix(1.0, 0.0, 0.0, 1.0, 78.55, 54.05)">
    <use data-characterId="2" height="52.15" transform="matrix(1.0, 0.0, 0.0, 1.0, 6.6, 108.2)" width="45.55" xlink:href="#sprite0"/>
    <use data-characterId="4" height="62.75" transform="matrix(1.0, 0.0, 0.0, 1.0, 42.15, 107.35)" width="55.05" xlink:href="#sprite1"/>
    <use data-characterId="6" height="67.7" transform="matrix(1.0, 0.0, 0.0, 1.0, -78.1, 40.95)" width="49.9" xlink:href="#sprite2"/>
    <use data-characterId="8" height="91.9" transform="matrix(1.0, 0.0, 0.0, 1.0, -34.45, 55.55)" width="111.55" xlink:href="#sprite3"/>
    <use data-characterId="14" height="169.9" transform="matrix(1.0, 0.0, 0.0, 1.0, -27.9, -54.05)" width="121.35" xlink:href="#sprite4"/>
    <use data-characterId="16" height="68.6" transform="matrix(1.0, 0.0, 0.0, 1.0, -52.75, 97.45)" width="44.65" xlink:href="#sprite5"/>
    <use data-characterId="18" height="63.2" transform="matrix(1.0, 0.0, 0.0, 1.0, -34.45, 111.2)" width="44.2" xlink:href="#sprite6"/>
  </g>
  <defs>
    <g id="sprite0" transform="matrix(1.0, 0.0, 0.0, 1.0, 0.5, 0.5)">
      <use data-characterId="1" height="52.15" transform="matrix(1.0, 0.0, 0.0, 1.0, -0.5, -0.5)" width="45.55" xlink:href="#shape0"/>
    </g>
    <g id="shape0" transform="matrix(1.0, 0.0, 0.0, 1.0, 0.5, 0.5)">
      <path d="M40.4 41.15 L41.55 43.2 Q44.55 48.15 44.55 49.1 44.55 49.85 40.4 50.5 L31.15 51.15 Q24.25 51.15 21.05 49.55 17.95 47.9 16.95 46.5 L16.95 46.3 17.05 46.3 16.0 43.2 Q14.9 40.6 13.4 38.45 L12.9 37.9 13.4 37.5 13.5 37.5 16.85 37.9 18.35 38.05 21.05 38.05 22.2 37.3 26.5 43.5 27.5 44.6 29.75 47.25 30.15 47.5 40.15 45.45 40.7 45.35 Q40.4 45.35 40.4 44.9 L40.5 42.75 40.4 41.15" fill="#dec994" fill-rule="evenodd" stroke="none"/>
      <path d="M20.3 0.0 L25.9 10.95 28.65 16.55 30.15 19.75 28.35 24.3 25.1 30.5 21.8 36.75 20.5 34.6 16.95 29.1 16.85 29.0 13.85 23.75 Q8.9 15.05 7.3 9.65 12.25 2.55 20.3 0.0" fill="#bc79a4" fill-rule="evenodd" stroke="none"/>
      <path d="M30.15 19.75 L30.8 20.95 33.5 26.85 36.3 34.15 37.25 36.75 37.35 36.95 37.7 37.4 Q38.9 38.55 40.4 41.15 L40.5 42.75 40.4 44.9 40.15 45.45 30.15 47.5 29.75 47.25 27.5 44.6 26.5 43.5 22.2 37.3 21.8 36.75 25.1 30.5 28.35 24.3 30.15 19.75" fill="#fef3d7" fill-rule="evenodd" stroke="none"/>
      <path d="M12.9 37.9 L11.05 35.25 10.75 34.7 Q9.55 32.85 8.05 31.35 L7.5 30.7 2.9 26.0 0.95 23.95 Q3.0 17.3 5.45 12.65 6.3 11.05 7.3 9.65 8.9 15.05 13.85 23.75 L16.85 29.0 16.95 29.1 20.5 34.6 21.8 36.75 21.05 38.05 18.35 38.05 16.85 37.9 13.5 37.5 13.4 37.5 12.9 37.9" fill="#9f648a" fill-rule="evenodd" stroke="none"/>
      <path d="M40.4 41.15 L41.55 43.2 Q44.55 48.15 44.55 49.1 44.55 49.85 40.4 50.5 L31.15 51.15 Q24.25 51.15 21.05 49.55 17.95 47.9 16.95 46.5 L16.95 46.3 17.05 46.3 16.0 43.2 Q14.9 40.6 13.4 38.45 L12.9 37.9 11.05 35.25 10.75 34.7 Q9.55 32.85 8.05 31.35 L7.5 30.7 2.9 26.0 0.95 23.95 0.0 22.55 M20.3 0.0 L25.9 10.95 28.65 16.55 30.15 19.75 30.8 20.95 33.5 26.85 36.3 34.15 37.25 36.75 37.35 36.95 37.7 37.4 Q38.9 38.55 40.4 41.15" fill="none" stroke="#380007" stroke-linecap="round" stroke-linejoin="round" stroke-width="1.0"/>
      <path d="M21.05 38.05 L18.35 38.05 16.85 37.9 13.5 37.5 13.4 37.5 M30.15 19.75 L28.35 24.3 25.1 30.5 21.8 36.75 21.05 38.05" fill="none" stroke="#380007" stroke-linecap="round" stroke-linejoin="round" stroke-width="0.1"/>
    </g>
    <g id="sprite1" transform="matrix(1.0, 0.0, 0.0, 1.0, 0.5, 0.5)">
      <use data-characterId="3" height="62.75" transform="matrix(1.0, 0.0, 0.0, 1.0, -0.5, -0.5)" width="55.05" xlink:href="#shape1"/>
    </g>
    <g id="shape1" transform="matrix(1.0, 0.0, 0.0, 1.0, 0.5, 0.5)">
      <path d="M36.65 23.85 L37.4 25.25 Q39.65 29.85 40.6 32.55 L43.95 41.25 45.1 44.45 45.25 44.45 45.35 44.7 45.75 45.2 Q47.05 46.6 49.0 49.75 L49.1 51.65 48.9 54.35 48.8 54.9 Q45.9 55.75 36.55 57.45 L36.2 57.15 33.3 53.8 32.25 52.5 26.95 45.1 26.45 44.35 30.5 36.95 34.4 29.3 36.65 23.85" fill="#fef3d7" fill-rule="evenodd" stroke="none"/>
      <path d="M36.65 23.85 L34.4 29.3 30.5 36.95 26.45 44.35 24.9 41.8 20.75 35.1 20.5 35.0 16.75 28.55 Q10.95 18.15 8.9 11.6 14.8 3.0 24.6 0.0 L31.35 13.2 34.8 19.85 36.65 23.85" fill="#bc79a4" fill-rule="evenodd" stroke="none"/>
      <path d="M15.8 45.75 L13.65 42.55 13.1 41.9 Q11.7 39.75 9.9 37.8 L9.25 37.05 3.65 31.25 1.3 28.9 Q3.75 20.7 6.75 15.15 L8.9 11.6 Q10.95 18.15 16.75 28.55 L20.5 35.0 20.75 35.1 24.9 41.8 26.45 44.35 25.7 45.85 22.25 45.85 20.65 45.75 16.45 45.35 16.2 45.2 15.8 45.75" fill="#9f648a" fill-rule="evenodd" stroke="none"/>
      <path d="M26.95 45.1 L32.25 52.5 33.3 53.8 36.2 57.15 36.55 57.45 Q45.9 55.75 48.8 54.9 L49.3 54.8 Q48.9 54.8 48.9 54.35 L49.1 51.65 49.0 49.75 50.5 52.2 Q54.05 58.1 54.05 59.5 54.05 60.15 49.0 61.0 L37.8 61.75 Q29.55 61.75 25.8 59.85 L25.55 59.85 Q21.8 57.8 20.75 56.3 L20.75 55.85 19.45 52.2 Q18.05 49.2 16.2 46.6 L15.8 45.75 16.2 45.2 16.45 45.35 20.65 45.75 22.25 45.85 25.7 45.85 26.95 45.1" fill="#dec994" fill-rule="evenodd" stroke="none"/>
      <path d="M49.0 49.75 Q47.05 46.6 45.75 45.2 L45.35 44.7 45.25 44.45 45.1 44.45 43.95 41.25 40.6 32.55 Q39.65 29.85 37.4 25.25 L36.65 23.85 34.8 19.85 31.35 13.2 24.6 0.0 M49.0 49.75 L50.5 52.2 Q54.05 58.1 54.05 59.5 54.05 60.15 49.0 61.0 L37.8 61.75 Q29.55 61.75 25.8 59.85 L25.55 59.85 Q21.8 57.8 20.75 56.3 L20.75 55.85 19.45 52.2 Q18.05 49.2 16.2 46.6 L15.8 45.75 13.65 42.55 13.1 41.9 Q11.7 39.75 9.9 37.8 L9.25 37.05 3.65 31.25 1.3 28.9 0.0 27.15" fill="none" stroke="#380007" stroke-linecap="round" stroke-linejoin="round" stroke-width="1.0"/>
      <path d="M36.65 23.85 L34.4 29.3 30.5 36.95 26.45 44.35 25.7 45.85 22.25 45.85 20.65 45.75 16.45 45.35 16.2 45.2" fill="none" stroke="#380007" stroke-linecap="round" stroke-linejoin="round" stroke-width="0.1"/>
    </g>
    <g id="sprite2" transform="matrix(1.0, 0.0, 0.0, 1.0, 0.5, 0.5)">
      <use data-characterId="5" height="67.7" transform="matrix(1.0, 0.0, 0.0, 1.0, -0.5, -0.5)" width="49.9" xlink:href="#shape2"/>
    </g>
    <g id="shape2" transform="matrix(1.0, 0.0, 0.0, 1.0, 0.5, 0.5)">
      <path d="M43.65 31.45 L43.2 31.7 Q44.6 38.0 44.6 46.6 L44.6 47.8 44.4 50.9 43.2 50.6 Q40.4 49.75 37.75 48.25 34.4 46.3 31.15 43.4 25.7 38.35 20.1 30.4 9.45 14.8 9.45 6.45 9.45 2.65 9.9 1.4 12.7 2.45 16.25 4.5 23.85 8.9 30.75 15.65 35.15 19.75 38.25 23.85 40.3 26.1 41.8 28.35 L42.9 30.05 43.65 31.45" fill="#fdfc86" fill-rule="evenodd" stroke="none"/>
      <path d="M9.9 1.4 Q9.45 2.65 9.45 6.45 9.45 14.8 20.1 30.4 25.7 38.35 31.15 43.4 34.4 46.3 37.75 48.25 40.4 49.75 43.2 50.6 L44.4 50.9 44.6 47.8 44.6 46.6 Q44.6 38.0 43.2 31.7 L43.65 31.45 Q46.45 36.3 47.85 41.25 L48.6 45.85 48.7 47.05 46.45 51.75 43.3 57.9 43.2 58.2 43.0 58.55 43.0 57.8 40.1 57.25 38.25 56.8 35.7 56.4 26.55 55.2 25.5 55.1 14.4 55.1 Q14.5 55.75 15.15 56.3 15.6 56.5 19.45 59.95 L23.55 62.6 29.55 65.85 31.05 66.7 27.65 65.95 22.9 64.55 16.35 61.85 Q0.0 54.45 0.0 48.1 L4.55 46.5 13.0 45.1 21.7 45.1 Q18.05 41.05 13.25 32.3 4.4 16.75 4.4 6.55 4.4 5.05 4.85 3.1 5.4 1.15 5.9 0.4 L6.05 0.4 Q7.65 0.5 9.9 1.4 M22.35 45.95 L21.7 45.2 21.7 45.1 21.7 45.2 22.35 45.95" fill="#efd05c" fill-rule="evenodd" stroke="none"/>
      <path d="M31.05 66.7 L29.55 65.85 23.55 62.6 19.45 59.95 Q15.6 56.5 15.15 56.3 14.5 55.75 14.4 55.1 L25.5 55.1 26.55 55.2 35.7 56.4 38.25 56.8 40.1 57.25 43.0 57.8 43.0 58.55 43.2 58.2 43.3 57.9 46.45 51.75 48.7 47.05 48.9 49.6 48.9 50.5 48.7 52.3 46.3 59.95 Q43.4 63.8 35.6 65.85 L32.05 66.7 31.05 66.7" fill="#e0b448" fill-rule="evenodd" stroke="none"/>
      <path d="M43.65 31.45 L42.9 30.05 41.8 28.35 Q40.3 26.1 38.25 23.85 35.15 19.75 30.75 15.65 23.85 8.9 16.25 4.5 12.7 2.45 9.9 1.4 7.65 0.5 6.05 0.4 L5.9 0.4 Q5.4 1.15 4.85 3.1 4.4 5.05 4.4 6.55 4.4 16.75 13.25 32.3 18.05 41.05 21.7 45.1 L21.7 45.2 22.35 45.95 M48.6 45.85 L47.85 41.25 Q46.45 36.3 43.65 31.45 M5.7 0.3 L5.45 0.3 5.9 0.4 6.05 0.3 6.05 0.0 5.7 0.3 M6.05 0.3 L6.05 0.4 M21.7 45.1 L13.0 45.1 4.55 46.5 Q0.0 47.15 0.0 48.1 0.0 54.45 16.35 61.85 L22.9 64.55 27.65 65.95 31.05 66.7 32.05 66.7 35.6 65.85 Q43.4 63.8 46.3 59.95 M48.7 47.05 L48.9 49.6 48.9 50.5" fill="none" stroke="#380007" stroke-linecap="round" stroke-linejoin="round" stroke-width="1.0"/>
    </g>
    <g id="sprite3" transform="matrix(1.0, 0.0, 0.0, 1.0, 0.5, 0.5)">
      <use data-characterId="7" height="91.9" transform="matrix(1.0, 0.0, 0.0, 1.0, -0.5, -0.5)" width="111.55" xlink:href="#shape3"/>
    </g>
    <g id="shape3" transform="matrix(1.0, 0.0, 0.0, 1.0, 0.5, 0.5)">
      <path d="M14.8 25.55 L15.9 23.0 Q19.1 15.9 23.4 11.5 34.6 0.0 54.15 0.0 62.2 0.0 72.3 2.25 81.65 4.4 86.7 7.1 91.85 9.45 96.7 12.35 102.4 15.9 102.8 17.3 107.35 22.15 109.05 27.8 110.55 32.85 110.55 39.2 110.55 54.15 102.7 66.95 L101.95 66.7 102.15 64.15 Q102.15 61.55 100.0 55.65 L98.2 51.35 98.6 51.05 98.1 51.05 98.2 51.35 91.1 57.05 Q84.1 62.55 81.75 63.5 L82.4 63.05 Q81.2 62.4 73.6 55.75 L72.2 58.25 72.1 58.45 Q70.15 61.45 68.55 62.95 L68.3 63.05 61.0 63.5 53.8 63.15 Q48.55 62.65 43.6 61.25 L38.55 59.5 Q33.5 57.6 28.55 54.15 L29.55 59.3 Q30.95 65.55 33.4 68.1 31.6 67.9 27.3 66.4 L24.7 65.55 23.65 65.1 Q21.15 61.65 19.0 57.15 17.05 53.6 15.9 50.15 14.4 46.3 13.55 42.85 L12.9 38.9 13.1 36.2 13.3 34.8 14.05 31.35 14.4 29.75 15.25 26.1 14.8 25.55" fill="#c4aa93" fill-rule="evenodd" stroke="none"/>
      <path d="M23.65 65.1 L24.7 65.55 27.3 66.4 Q31.6 67.9 33.4 68.1 30.95 65.55 29.55 59.3 L28.55 54.15 Q33.5 57.6 38.55 59.5 L43.6 61.25 Q48.55 62.65 53.8 63.15 L61.0 63.5 68.3 63.05 68.55 62.95 Q70.15 61.45 72.1 58.45 L72.2 58.25 73.6 55.75 Q81.2 62.4 82.4 63.05 L81.75 63.5 Q84.1 62.55 91.1 57.05 L98.2 51.35 98.1 51.05 98.6 51.05 98.2 51.35 100.0 55.65 Q102.15 61.55 102.15 64.15 L101.95 66.7 102.7 66.95 101.5 68.75 100.0 70.7 Q95.5 76.6 90.35 78.75 92.05 76.6 94.0 73.25 97.75 66.2 97.75 62.0 92.4 67.6 87.45 69.6 81.55 72.3 71.35 72.4 L70.15 72.4 Q62.65 72.4 54.9 69.5 L53.6 68.85 Q49.75 67.35 43.95 64.05 L43.95 64.35 Q44.7 68.2 48.75 76.3 L44.45 74.55 43.95 74.25 42.2 73.25 41.25 72.5 41.9 74.05 Q43.2 76.7 44.7 78.95 L45.55 80.05 44.6 81.45 44.15 81.1 Q40.95 78.95 37.6 75.65 L37.5 75.55 36.0 73.9 35.9 77.15 Q32.0 74.9 28.55 71.35 L25.45 67.7 23.65 65.1 M34.25 72.2 L36.0 73.9 34.25 72.2" fill="#dec994" fill-rule="evenodd" stroke="none"/>
      <path d="M90.35 78.75 Q87.15 80.25 83.6 80.25 83.35 80.35 83.15 80.6 79.05 83.8 70.8 86.6 L70.15 86.8 Q62.0 89.5 57.9 89.3 L57.6 89.3 57.25 89.3 Q55.75 88.85 52.55 86.8 L47.25 83.15 44.8 81.65 44.6 81.45 45.55 80.05 44.7 78.95 Q43.2 76.7 41.9 74.05 L41.25 72.5 42.2 73.25 43.95 74.25 44.45 74.55 48.75 76.3 Q44.7 68.2 43.95 64.35 L43.95 64.05 Q49.75 67.35 53.6 68.85 L54.9 69.5 Q62.65 72.4 70.15 72.4 L71.35 72.4 Q81.55 72.3 87.45 69.6 92.4 67.6 97.75 62.0 97.75 66.2 94.0 73.25 92.05 76.6 90.35 78.75 M85.2 78.65 L83.6 80.25 85.2 78.65" fill="#fef3d7" fill-rule="evenodd" stroke="none"/>
      <path d="M14.8 25.55 L15.25 26.1 14.4 29.75 14.05 31.35 13.3 34.8 13.0 35.65 12.9 36.65 12.9 38.9 12.9 39.95 Q12.9 42.0 13.55 42.85 14.4 46.3 15.9 50.15 L14.15 54.45 13.4 55.95 Q12.35 57.9 10.95 59.2 9.0 61.15 6.75 61.15 4.4 61.15 2.25 57.9 L0.4 59.2 Q0.0 57.35 0.0 55.2 -0.1 46.95 3.3 39.65 7.2 31.15 13.95 24.8 L14.8 25.55 14.6 25.9 13.95 27.4 14.6 25.9 14.8 25.55 M35.9 77.15 L37.5 75.55 37.6 75.65 35.9 77.15" fill="#bc79a4" fill-rule="evenodd" stroke="none"/>
      <path d="M15.9 50.15 Q17.05 53.6 19.0 57.15 21.15 61.65 23.65 65.1 L25.45 67.7 28.55 71.35 Q32.0 74.9 35.9 77.15 L37.6 75.65 Q40.95 78.95 44.15 81.1 L44.6 81.45 44.8 81.65 47.25 83.15 Q46.2 84.25 44.9 84.75 L44.35 85.0 Q41.7 86.05 37.05 86.05 L32.95 85.85 30.3 85.5 21.8 83.35 20.6 82.95 17.2 81.65 16.0 83.35 Q13.75 81.65 11.8 79.4 L11.7 79.3 Q5.6 72.3 2.25 63.5 L0.4 59.2 2.25 57.9 Q4.4 61.15 6.75 61.15 9.0 61.15 10.95 59.2 12.35 57.9 13.4 55.95 L14.15 54.45 15.9 50.15" fill="#725170" fill-rule="evenodd" stroke="none"/>
      <path d="M57.6 89.3 L57.25 89.4 Q54.9 90.55 51.8 90.9 L45.35 90.9 45.1 90.9 34.15 90.25 31.15 89.6 27.3 88.85 22.85 87.35 22.35 87.05 Q19.75 85.95 17.5 84.55 L16.0 83.35 17.2 81.65 20.6 82.95 21.8 83.35 30.3 85.5 32.95 85.85 37.05 86.05 Q41.7 86.05 44.35 85.0 L44.9 84.75 Q46.2 84.25 47.25 83.15 L52.55 86.8 Q55.75 88.85 57.25 89.3 L57.6 89.3" fill="#76677e" fill-rule="evenodd" stroke="none"/>
      <path d="M102.7 66.95 Q110.55 54.15 110.55 39.2 110.55 32.85 109.05 27.8 107.35 22.15 102.8 17.3 102.4 15.9 96.7 12.35 91.85 9.45 86.7 7.1 81.65 4.4 72.3 2.25 62.2 0.0 54.15 0.0 34.6 0.0 23.4 11.5 19.1 15.9 15.9 23.0 L14.8 25.55 14.6 25.9 13.95 27.4 M12.9 38.9 L13.55 42.85 Q14.4 46.3 15.9 50.15 17.05 53.6 19.0 57.15 21.15 61.65 23.65 65.1 L25.45 67.7 28.55 71.35 Q32.0 74.9 35.9 77.15 L36.0 73.9 34.25 72.2 M102.7 66.95 L101.5 68.75 M100.0 70.7 Q95.5 76.6 90.35 78.75 87.15 80.25 83.6 80.25 83.35 80.35 83.15 80.6 79.05 83.8 70.8 86.6 L70.15 86.8 Q62.0 89.5 57.9 89.3 L57.6 89.3 57.25 89.4 Q54.9 90.55 51.8 90.9 L45.35 90.9 45.1 90.9 34.15 90.25 31.15 89.6 27.3 88.85 22.85 87.35 22.35 87.05 Q19.75 85.95 17.5 84.55 L16.0 83.35 Q13.75 81.65 11.8 79.4 L11.7 79.3 Q5.6 72.3 2.25 63.5 L0.4 59.2 M0.0 55.2 Q-0.1 46.95 3.3 39.65 7.2 31.15 13.95 24.8 15.55 23.1 15.9 23.0 M44.6 81.45 L44.8 81.65 47.25 83.15 52.55 86.8 Q55.75 88.85 57.25 89.3 L57.6 89.3 M83.6 80.25 L85.2 78.65 M13.3 34.8 L13.0 35.65 12.9 36.65 12.9 38.9 M37.5 75.55 L36.0 73.9 M37.6 75.65 L37.5 75.55 M44.6 81.45 L44.15 81.1 Q40.95 78.95 37.6 75.65" fill="none" stroke="#380007" stroke-linecap="round" stroke-linejoin="round" stroke-width="1.0"/>
    </g>
    <g id="sprite4" transform="matrix(1.0, 0.0, 0.0, 1.0, 0.5, 0.5)">
      <use data-characterId="9" height="169.9" transform="matrix(1.0, 0.0, 0.0, 1.0, -0.5, -0.5)" width="121.35" xlink:href="#shape4"/>
    </g>
    <g id="shape4" transform="matrix(1.0, 0.0, 0.0, 1.0, 0.5, 0.5)">
      <path d="M65.85 46.15 Q65.2 39.7 68.95 29.0 69.95 26.1 71.55 22.65 79.05 4.5 88.95 0.0 90.9 2.6 93.7 11.6 L92.7 12.7 Q90.45 9.9 88.55 9.9 81.85 9.9 77.9 20.4 L76.7 23.95 Q76.15 25.9 75.85 27.95 74.65 33.3 74.65 39.65 74.65 42.35 75.65 46.95 L75.85 48.15 76.05 49.45 Q77.05 53.95 77.8 56.4 L77.55 56.95 77.9 56.95 78.3 56.85 84.35 54.9 Q88.4 53.5 90.15 53.1 L90.15 53.3 Q86.25 56.4 84.1 60.05 86.25 56.4 90.15 53.3 L89.15 55.0 Q88.0 57.5 87.65 59.75 L87.55 61.55 Q87.55 62.45 87.9 64.8 L88.3 68.55 91.65 68.55 99.6 66.5 99.8 67.7 Q95.95 70.7 92.05 72.4 L91.1 72.75 88.55 73.7 87.35 73.9 85.65 74.15 84.85 74.25 83.35 74.35 81.55 74.25 81.45 74.25 81.75 73.6 81.45 73.5 Q79.8 72.95 78.2 71.9 75.2 69.95 72.75 66.3 L72.4 65.75 70.9 63.3 69.7 60.7 68.95 58.25 65.3 63.05 62.65 58.9 60.7 56.0 60.6 55.75 59.6 57.9 59.1 59.2 57.5 61.65 57.35 61.35 Q56.1 59.65 52.55 56.0 L50.3 53.7 48.75 52.35 48.55 53.4 48.15 55.55 48.15 56.4 48.25 57.5 48.65 60.4 44.8 60.15 42.55 60.3 35.75 61.25 Q32.55 61.65 26.85 62.95 L26.85 63.2 26.4 63.4 29.45 66.2 Q32.1 68.45 35.15 70.15 32.85 71.75 30.95 73.7 L30.2 72.65 Q26.95 71.45 22.35 67.8 16.85 63.6 15.35 60.15 17.1 59.1 24.5 56.75 33.1 54.05 38.15 54.05 L43.2 54.7 Q42.0 52.85 40.6 48.9 38.55 43.3 38.45 42.1 38.15 40.95 38.15 35.9 38.15 32.9 38.65 29.85 39.2 26.55 40.4 26.1 41.25 25.7 43.4 27.1 L43.3 27.2 Q41.7 28.15 41.7 31.25 41.7 35.35 45.75 42.0 L47.25 44.6 49.5 47.3 Q51.15 48.8 52.55 49.2 L53.05 49.3 53.6 49.3 Q54.9 49.3 55.45 48.45 L55.85 47.3 55.85 46.3 55.85 45.65 55.95 44.5 56.3 41.9 56.5 41.25 56.6 40.7 56.7 40.4 Q56.7 40.1 56.85 39.75 L56.95 39.35 58.25 40.1 58.25 40.85 Q58.65 43.3 61.15 48.15 L61.55 49.2 Q64.25 54.05 65.75 54.05 66.2 54.25 66.6 54.05 67.45 53.7 67.45 52.1 L66.6 49.0 66.4 48.15 65.85 46.65 65.85 46.15 M56.4 52.45 Q55.95 51.55 55.85 50.5 L55.85 47.3 55.85 50.5 Q55.95 51.55 56.4 52.45 M9.35 111.4 L10.95 112.05 13.95 113.15 17.6 114.75 17.7 114.75 19.85 115.6 16.75 115.6 10.5 118.1 Q11.6 120.0 14.05 122.4 L19.25 126.55 20.3 127.2 21.8 128.3 Q28.25 132.6 34.25 134.95 L35.0 135.15 Q35.25 135.15 35.55 135.4 L37.6 136.05 38.15 136.15 39.65 136.15 39.1 133.65 38.55 131.75 37.8 129.6 37.6 129.05 36.0 124.65 35.9 124.1 36.1 124.2 39.1 126.15 39.2 126.55 Q39.75 127.2 40.5 129.05 L41.05 130.1 42.1 133.15 42.85 135.15 43.1 135.6 43.85 138.2 45.25 143.25 45.35 143.75 44.6 144.2 43.6 144.1 41.9 144.0 40.8 143.85 40.95 142.6 Q37.15 142.35 33.2 140.95 L32.0 140.55 31.25 140.1 Q26.0 137.95 20.4 133.9 L20.3 133.75 16.3 130.75 12.15 126.7 Q8.25 122.4 7.1 118.1 L7.1 112.05 8.9 111.55 9.35 111.4 M43.85 55.55 L43.2 54.7 43.85 55.55" fill="#efd05c" fill-rule="evenodd" stroke="none"/>
      <path d="M65.85 46.15 L65.85 46.65 66.4 48.15 66.6 49.0 67.45 52.1 Q67.45 53.7 66.6 54.05 66.2 54.25 65.75 54.05 64.25 54.05 61.55 49.2 L61.15 48.15 Q58.65 43.3 58.25 40.85 L58.25 40.1 56.95 39.35 Q57.15 38.55 57.5 38.05 58.25 35.8 59.6 35.8 60.15 35.8 60.9 36.75 61.55 37.4 62.4 39.0 L63.05 39.85 Q65.5 43.55 65.85 46.15 M56.5 41.25 L56.3 41.9 55.95 44.5 55.85 45.65 55.85 46.3 55.85 47.3 55.45 48.45 Q54.9 49.3 53.6 49.3 L53.05 49.3 52.55 49.2 Q51.15 48.8 49.5 47.3 L47.25 44.6 45.75 42.0 Q41.7 35.35 41.7 31.25 41.7 28.15 43.3 27.2 L43.4 27.1 Q45.65 28.45 49.2 31.6 L50.8 33.2 51.45 33.95 51.9 34.4 Q55.45 37.95 56.3 40.6 L56.5 41.25 M90.15 53.3 L90.15 53.1 Q88.4 53.5 84.35 54.9 L78.3 56.85 77.9 56.95 77.55 56.95 77.8 56.4 Q77.05 53.95 76.05 49.45 L75.85 48.15 75.65 46.95 Q74.65 42.35 74.65 39.65 74.65 33.3 75.85 27.95 76.15 25.9 76.7 23.95 L77.9 20.4 Q81.85 9.9 88.55 9.9 90.45 9.9 92.7 12.7 L93.7 11.6 94.95 16.35 Q97.0 24.2 97.0 30.2 97.0 37.2 95.6 43.2 94.55 47.4 93.45 49.85 L92.85 51.35 92.7 51.35 Q92.5 51.45 92.2 51.7 L91.2 52.45 90.45 52.95 90.15 53.3 90.45 52.95 91.2 52.45 92.2 51.7 Q92.5 51.45 92.7 51.35 L92.85 51.35 94.65 50.05 Q101.85 45.75 107.45 45.75 L110.1 45.9 Q110.9 46.0 111.0 46.3 L111.1 46.4 Q109.8 54.8 105.95 60.8 L103.05 64.45 101.95 65.75 99.8 67.7 99.6 66.5 91.65 68.55 88.3 68.55 87.9 64.8 Q87.55 62.45 87.55 61.55 L87.65 59.75 Q88.0 57.5 89.15 55.0 L90.15 53.3 M55.85 46.3 L55.85 46.95 55.85 47.3 55.85 46.95 55.85 46.3 M65.85 46.65 L65.85 46.75 66.05 47.4 66.4 48.15 66.05 47.4 65.85 46.75 65.85 46.65 M26.85 118.95 Q31.7 121.4 35.9 124.1 L36.0 124.65 37.6 129.05 37.8 129.6 38.55 131.75 39.1 133.65 39.65 136.15 38.15 136.15 37.6 136.05 35.55 135.4 Q35.25 135.15 35.0 135.15 L34.25 134.95 Q28.25 132.6 21.8 128.3 L20.3 127.2 19.25 126.55 14.05 122.4 Q11.6 120.0 10.5 118.1 L16.75 115.6 19.85 115.6 21.25 116.25 24.8 118.0 25.25 118.2 26.85 118.95" fill="#fdfc86" fill-rule="evenodd" stroke="none"/>
      <path d="M105.5 70.8 L107.0 70.8 Q109.8 70.8 109.8 72.3 109.8 73.5 108.75 76.8 L107.1 82.5 105.5 82.65 Q104.55 82.65 104.1 81.0 103.7 79.85 103.7 78.35 L103.9 76.4 Q104.1 75.0 104.85 72.75 L105.5 70.8 M8.7 73.8 L13.1 73.5 23.0 74.25 23.2 74.35 27.5 79.95 28.7 80.9 31.05 83.7 30.95 84.25 30.95 84.35 30.85 84.35 30.6 85.1 30.5 85.3 29.85 86.7 28.45 88.65 29.65 88.65 29.65 89.05 27.7 89.4 26.85 89.5 24.7 89.3 Q19.55 88.0 14.3 81.65 10.0 76.6 8.7 73.8" fill="#fef3d7" fill-rule="evenodd" stroke="none"/>
      <path d="M105.5 70.8 L104.85 72.75 Q104.1 75.0 103.9 76.4 L103.7 78.35 Q103.7 79.85 104.1 81.0 104.55 82.65 105.5 82.65 L107.1 82.5 104.85 90.05 103.25 90.8 101.1 86.4 101.1 86.3 Q99.8 80.6 96.7 77.25 L95.4 75.95 92.7 73.8 99.4 71.9 105.5 70.8 M17.6 94.35 L13.95 89.7 Q6.55 79.6 6.55 76.6 6.55 74.45 8.6 73.8 L8.7 73.8 Q10.0 76.6 14.3 81.65 19.55 88.0 24.7 89.3 L26.85 89.5 27.7 89.4 29.65 89.05 29.65 88.65 28.45 88.65 29.85 86.7 30.5 85.3 30.6 85.1 30.85 84.35 30.95 84.35 30.95 84.25 31.05 83.7 28.7 80.9 27.5 79.95 23.2 74.35 27.4 74.8 27.5 74.8 27.6 74.8 28.9 74.9 30.1 75.0 30.95 75.1 31.7 75.1 32.0 75.2 Q33.4 76.2 34.4 77.6 L35.15 79.1 35.45 80.15 35.65 80.7 35.65 80.9 35.75 81.1 Q35.75 81.45 35.9 81.65 L35.9 81.75 36.0 83.05 36.1 83.8 36.1 84.15 36.2 85.3 36.0 85.95 35.9 86.8 35.9 87.35 35.9 87.9 35.75 88.0 35.75 88.2 35.65 88.45 35.55 88.85 35.45 89.5 35.35 90.05 34.5 92.1 31.6 95.65 29.85 96.9 27.7 98.1 25.45 99.05 23.0 99.6 21.8 99.6 21.5 99.6 21.5 99.15 17.6 94.35" fill="#dec994" fill-rule="evenodd" stroke="none"/>
      <path d="M102.3 154.4 L98.2 157.75 Q90.7 163.45 82.2 166.1 77.45 167.85 73.15 168.35 L72.5 168.5 67.35 168.9 59.6 168.15 58.1 167.85 57.05 167.7 48.65 165.55 48.65 165.8 48.45 166.45 48.35 166.65 47.25 166.2 47.05 166.1 45.75 165.7 Q45.25 165.35 44.7 165.15 L43.2 164.4 40.5 162.8 Q35.15 159.25 28.25 151.6 L28.7 151.2 26.4 148.9 25.65 148.05 24.15 146.25 21.05 142.8 21.05 142.35 27.8 143.35 27.95 143.35 29.1 143.55 29.95 143.65 32.85 144.1 33.6 144.2 34.05 144.3 35.9 144.2 40.5 143.85 40.7 143.85 40.8 143.85 41.9 144.0 43.6 144.1 44.6 144.2 45.35 143.75 45.25 143.25 43.85 138.2 43.1 135.6 42.85 135.15 42.1 133.15 41.05 130.1 40.5 129.05 Q39.75 127.2 39.2 126.55 L39.1 126.15 36.1 124.2 35.9 124.1 Q31.7 121.4 26.85 118.95 L26.4 116.8 26.0 114.45 26.0 113.7 26.1 109.9 Q26.4 103.6 27.7 98.1 L29.85 96.9 31.6 95.65 34.5 92.1 35.35 90.05 35.45 89.5 35.55 88.85 35.65 88.45 35.75 88.2 35.75 88.0 35.9 87.9 35.9 87.35 35.9 86.8 36.2 85.75 36.2 85.3 36.1 84.15 36.1 83.8 36.0 83.05 35.9 81.75 35.9 81.65 Q35.75 81.45 35.75 81.1 L35.65 80.9 35.65 80.7 36.5 79.85 37.5 78.55 Q37.9 78.1 38.25 77.9 41.25 74.7 45.35 72.3 48.55 70.4 52.2 68.85 54.45 67.9 57.15 67.25 L57.5 67.05 58.1 66.2 58.65 66.6 58.85 66.85 59.6 67.35 62.75 69.3 65.55 70.7 68.45 71.9 73.7 73.3 78.75 74.05 81.45 74.25 81.55 74.25 83.35 74.35 84.85 74.25 85.65 74.15 87.35 73.9 88.55 73.7 91.1 72.75 91.65 73.05 92.7 73.8 95.4 75.95 96.7 77.25 Q99.8 80.6 101.1 86.3 99.5 85.2 97.25 84.35 L96.7 83.7 95.6 83.6 94.35 83.6 91.75 82.95 91.45 82.95 89.15 82.65 88.95 82.5 88.95 81.85 Q88.95 79.95 88.55 79.2 L88.1 78.85 Q87.8 78.35 86.8 77.8 L84.85 76.6 84.55 76.6 83.35 76.5 Q82.4 76.5 81.75 76.8 80.45 77.15 79.95 78.0 79.4 78.95 79.4 80.15 L79.4 80.9 79.8 82.4 79.5 82.5 74.9 83.25 71.25 84.15 70.8 84.15 70.8 84.35 Q67.6 85.65 64.65 87.55 L61.55 90.15 60.15 91.65 58.25 93.9 56.2 96.9 56.1 96.9 55.65 97.8 55.55 97.9 55.2 97.65 54.15 97.45 51.15 96.5 50.4 96.4 50.3 96.25 49.85 96.15 49.75 96.15 48.75 95.85 46.85 95.2 43.3 94.35 43.6 95.5 45.45 102.7 41.35 102.7 39.85 102.95 37.5 103.25 36.4 103.35 35.9 103.45 35.75 103.45 35.75 104.2 Q36.1 107.45 37.4 110.45 L38.15 112.15 38.55 112.95 40.05 115.1 Q41.35 117.0 42.95 118.5 L44.9 119.9 46.0 120.65 Q48.45 121.95 51.25 122.5 L55.0 122.8 Q57.5 122.8 59.75 121.95 L62.4 120.75 Q64.65 119.25 65.85 117.55 L67.45 117.35 67.8 117.35 69.3 116.8 69.4 116.8 70.9 115.85 71.55 115.2 72.2 115.5 71.55 117.0 70.8 118.2 70.8 118.5 69.6 119.9 Q67.7 122.15 64.55 123.9 L62.75 124.95 Q57.6 127.2 52.2 127.75 55.55 140.55 67.8 148.15 73.05 151.5 78.3 153.35 L76.4 155.25 Q75.75 156.25 75.55 158.25 L75.55 158.8 75.75 158.7 76.05 160.1 76.05 160.2 77.8 160.2 Q80.15 160.2 82.85 158.6 85.2 157.1 86.05 155.15 L91.2 155.45 99.25 154.85 102.3 154.4 M32.35 154.4 L28.7 151.2 32.35 154.4 M72.75 162.65 L75.1 160.85 76.05 160.2 75.1 160.85 72.75 162.65" fill="#9f648a" fill-rule="evenodd" stroke="none"/>
      <path d="M21.05 142.35 L20.75 142.25 20.4 142.15 18.35 141.2 Q15.8 139.35 12.65 135.8 L10.0 131.95 7.4 127.85 Q0.3 115.95 0.0 108.75 4.1 109.5 9.35 111.4 L8.9 111.55 7.1 112.05 7.1 118.1 Q8.25 122.4 12.15 126.7 L16.3 130.75 20.3 133.75 20.4 133.9 Q26.0 137.95 31.25 140.1 L32.0 140.55 33.2 140.95 Q37.15 142.35 40.95 142.6 L40.8 143.85 40.7 143.85 40.5 143.85 35.9 144.2 34.05 144.3 33.6 144.2 32.85 144.1 29.95 143.65 29.1 143.55 27.95 143.35 27.8 143.35 21.05 142.35 M35.15 70.15 Q32.1 68.45 29.45 66.2 L26.4 63.4 26.85 63.2 26.85 62.95 Q32.55 61.65 35.75 61.25 L42.55 60.3 44.8 60.15 48.65 60.4 48.25 57.5 48.15 56.4 48.15 55.55 48.55 53.4 48.75 52.35 50.3 53.7 52.55 56.0 Q56.1 59.65 57.35 61.35 L57.5 61.65 59.1 59.2 59.6 57.9 60.6 55.75 60.7 56.0 62.65 58.9 65.3 63.05 68.95 58.25 69.7 60.7 70.9 63.3 72.4 65.75 72.75 66.3 Q75.2 69.95 78.2 71.9 79.8 72.95 81.45 73.5 L81.75 73.6 81.45 74.25 78.75 74.05 73.7 73.3 68.45 71.9 65.55 70.7 62.75 69.3 59.6 67.35 58.85 66.85 58.65 66.6 58.1 66.2 57.15 65.55 56.7 65.1 54.9 63.2 53.4 64.6 52.3 64.6 Q49.4 64.7 46.6 65.35 L43.2 66.2 Q41.7 66.7 40.3 67.35 L39.1 67.9 35.15 70.15" fill="#e0b448" fill-rule="evenodd" stroke="none"/>
      <path d="M104.1 92.4 L105.95 96.4 Q104.55 96.8 102.4 97.9 L101.75 98.2 101.0 98.4 99.7 99.15 Q99.25 99.3 98.75 99.6 L98.65 99.6 Q98.5 100.45 98.5 101.55 L98.65 103.15 98.65 103.45 98.75 104.0 98.75 104.55 98.85 104.85 99.15 105.6 Q99.7 107.65 100.9 109.5 L101.1 109.7 101.1 109.8 102.3 111.1 102.4 111.3 103.55 112.05 104.1 112.15 Q104.55 112.95 105.7 113.8 107.1 114.75 108.5 114.95 L108.75 114.95 Q110.35 114.95 112.05 114.1 L112.05 114.0 Q113.45 113.25 114.0 112.3 L114.4 110.9 114.4 110.35 116.45 112.4 120.0 116.15 120.1 116.8 120.35 117.75 120.35 118.2 120.2 119.25 120.0 120.9 119.6 123.35 119.05 125.4 118.5 127.85 118.4 128.3 117.85 129.6 117.75 130.35 Q115.05 137.85 110.55 144.75 106.9 150.0 102.3 154.4 L99.25 154.85 91.2 155.45 86.05 155.15 Q85.2 157.1 82.85 158.6 80.15 160.2 77.8 160.2 L76.05 160.2 76.05 160.1 75.75 158.7 75.55 158.25 Q75.75 156.25 76.4 155.25 L78.3 153.35 Q73.05 151.5 67.8 148.15 55.55 140.55 52.2 127.75 57.6 127.2 62.75 124.95 L64.55 123.9 Q67.7 122.15 69.6 119.9 L70.8 118.5 70.8 118.2 71.55 117.0 72.2 115.5 71.55 115.2 72.0 114.75 72.65 114.0 72.75 114.0 73.05 113.55 73.8 112.05 74.45 109.9 74.55 108.0 Q74.55 106.05 74.15 104.55 L74.15 104.1 Q73.7 101.85 72.4 100.35 L71.55 99.05 71.0 98.65 68.2 98.3 66.2 98.0 64.35 97.65 61.55 97.45 61.25 97.45 59.85 97.35 58.25 97.55 57.7 97.65 57.15 97.8 56.5 98.2 56.3 98.1 55.75 98.0 55.55 97.9 55.65 97.8 56.1 96.9 56.2 96.9 58.25 93.9 60.15 91.65 61.55 90.15 64.65 87.55 Q67.6 85.65 70.8 84.35 70.6 88.85 71.85 92.3 72.65 94.35 73.9 96.05 77.45 100.55 83.7 101.3 L86.05 101.45 86.25 101.45 Q90.45 101.45 93.15 100.35 95.4 99.4 96.7 97.65 L97.1 97.15 Q98.4 94.9 98.4 91.65 98.4 89.4 98.0 86.8 L97.25 84.35 Q99.5 85.2 101.1 86.3 L101.1 86.4 103.25 90.8 104.1 92.4 M89.15 82.65 L91.45 82.95 91.75 82.95 92.95 85.65 93.15 88.95 Q93.15 90.6 92.7 91.95 L92.4 92.75 92.05 93.5 90.45 95.0 89.3 95.65 Q87.45 96.25 84.35 96.25 80.15 96.25 77.25 91.45 L76.9 90.9 Q74.9 87.05 74.9 83.4 L74.9 83.25 79.5 82.5 Q80.9 85.75 84.0 85.75 85.5 85.75 87.0 85.0 L88.0 84.35 Q88.95 83.7 89.15 82.65 M77.9 159.15 L76.05 160.2 77.9 159.15 M80.15 121.1 L80.15 121.2 79.95 121.4 Q77.55 123.45 76.7 125.6 L76.05 127.3 76.05 128.2 Q76.05 129.35 76.6 130.1 L78.1 132.15 79.3 131.1 80.15 130.1 84.25 125.8 85.2 124.95 86.05 124.1 Q86.9 123.05 87.9 122.15 93.15 116.7 96.25 114.65 88.2 115.85 83.15 118.95 82.4 119.35 81.75 120.0 L80.6 120.9 80.15 121.1 M115.8 116.15 L113.65 116.15 113.15 116.15 109.6 116.25 108.6 116.25 106.8 116.6 103.15 117.2 Q100.25 118.3 100.25 120.35 100.25 124.55 112.8 133.55 114.0 133.0 115.8 128.4 L116.15 127.55 116.25 127.45 116.25 127.2 116.9 125.15 117.3 123.9 117.95 121.4 118.5 118.5 118.5 118.1 118.2 116.8 117.85 116.8 117.3 116.6 117.0 116.35 115.8 116.15" fill="#bc79a4" fill-rule="evenodd" stroke="none"/>
      <path d="M91.75 82.95 L94.35 83.6 95.6 83.6 96.7 83.7 97.25 84.35 98.0 86.8 Q98.4 89.4 98.4 91.65 98.4 94.9 97.1 97.15 L96.7 97.65 Q95.4 99.4 93.15 100.35 90.45 101.45 86.25 101.45 L86.05 101.45 83.7 101.3 Q77.45 100.55 73.9 96.05 72.65 94.35 71.85 92.3 70.6 88.85 70.8 84.35 L70.8 84.15 71.25 84.15 74.9 83.25 74.9 83.4 Q74.9 87.05 76.9 90.9 L77.25 91.45 Q80.15 96.25 84.35 96.25 87.45 96.25 89.3 95.65 L90.45 95.0 92.05 93.5 92.4 92.75 92.7 91.95 Q93.15 90.6 93.15 88.95 L92.95 85.65 91.75 82.95 M89.15 82.65 Q88.95 83.7 88.0 84.35 L87.0 85.0 Q85.5 85.75 84.0 85.75 80.9 85.75 79.5 82.5 L79.8 82.4 79.4 80.9 79.4 80.15 Q79.4 78.95 79.95 78.0 80.45 77.15 81.75 76.8 82.4 76.5 83.35 76.5 L84.55 76.6 84.85 76.6 86.8 77.8 Q87.8 78.35 88.1 78.85 L88.55 79.2 Q88.95 79.95 88.95 81.85 L88.95 82.5 89.15 82.65 M116.9 125.15 L115.05 127.1 112.4 129.45 Q111.1 127.95 108.75 124.2 L109.05 124.2 108.85 122.25 Q108.85 120.1 111.85 118.1 114.0 116.7 115.8 116.45 L115.8 116.15 117.0 116.35 117.3 116.6 117.85 116.8 118.2 116.8 118.5 118.1 118.5 118.5 117.95 121.4 117.3 123.9 116.9 125.15" fill="#af1637" fill-rule="evenodd" stroke="none"/>
      <path d="M105.95 96.4 L106.45 97.65 106.9 98.4 106.7 98.4 Q105.95 98.75 105.5 99.4 L105.6 99.5 Q107.1 100.25 107.75 102.4 108.3 104.0 108.3 106.35 L108.1 107.35 107.2 108.5 Q106.45 109.05 105.4 109.05 L105.2 109.05 Q103.8 109.05 103.05 107.9 L102.8 107.45 Q102.5 106.8 102.3 105.6 L102.5 105.6 Q103.05 105.6 103.55 105.1 L103.8 104.85 Q104.45 104.1 104.45 102.6 L104.3 101.95 104.1 101.45 103.7 100.7 103.35 100.45 102.5 100.15 102.3 100.05 101.85 100.15 101.65 100.15 Q100.65 100.45 100.65 101.55 L100.65 101.85 100.65 102.3 100.65 102.95 100.25 102.95 99.7 102.95 99.25 103.05 Q98.85 103.15 98.65 103.45 L98.65 103.15 98.5 101.55 Q98.5 100.45 98.65 99.6 L98.75 99.6 Q99.25 99.3 99.7 99.15 L101.0 98.4 101.75 98.2 102.4 97.9 Q104.55 96.8 105.95 96.4 M55.0 101.3 L55.1 101.1 55.35 100.45 55.95 98.75 56.3 98.4 56.5 98.2 57.15 97.8 57.7 97.65 58.25 97.55 59.85 97.35 61.25 97.45 61.55 97.45 64.35 97.65 66.2 98.0 68.2 98.3 71.0 98.65 71.55 99.05 72.4 100.35 Q73.7 101.85 74.15 104.1 L73.9 104.1 71.75 101.85 70.8 101.65 69.3 101.45 Q69.2 101.3 68.95 101.3 L69.6 102.7 69.85 103.35 Q70.35 105.3 70.35 106.9 70.35 108.0 69.95 108.75 L69.7 109.8 Q69.3 110.65 68.45 111.3 66.95 112.7 65.3 112.95 L64.45 112.95 62.2 112.6 61.55 112.15 Q60.15 111.3 59.4 109.5 58.55 107.75 58.45 106.6 L58.65 106.6 59.5 106.7 59.75 106.7 60.25 106.7 Q61.45 106.6 62.3 106.05 L62.85 105.5 Q63.5 104.85 63.6 103.9 L63.6 103.35 63.6 102.3 63.6 102.2 Q63.4 101.1 63.05 100.7 62.4 99.7 61.35 99.7 L61.35 99.3 60.25 99.15 Q60.05 99.15 59.75 99.3 59.4 99.3 59.0 99.6 58.45 99.8 57.9 100.35 57.5 100.9 57.25 101.55 L57.15 101.55 56.7 101.45 Q56.3 101.2 55.75 101.2 L55.55 101.2 55.0 101.3" fill="#b4633d" fill-rule="evenodd" stroke="none"/>
      <path d="M106.9 98.4 L107.1 98.75 108.4 101.55 109.7 104.1 109.7 104.55 109.8 104.55 110.55 105.75 111.2 107.1 110.65 109.05 Q110.25 110.35 109.35 111.1 108.3 112.4 106.35 112.5 L105.95 112.5 104.85 112.4 104.1 112.15 103.55 112.05 102.4 111.3 102.3 111.1 101.1 109.8 101.1 109.7 100.9 109.5 Q99.7 107.65 99.15 105.6 L98.85 104.85 98.75 104.55 98.75 104.0 98.65 103.45 Q98.85 103.15 99.25 103.05 L99.7 102.95 100.25 102.95 100.65 102.95 100.9 103.7 101.0 103.9 Q101.1 104.55 101.4 104.85 101.85 105.4 102.3 105.6 102.5 106.8 102.8 107.45 L103.05 107.9 Q103.8 109.05 105.2 109.05 L105.4 109.05 Q106.45 109.05 107.2 108.5 L108.1 107.35 108.3 106.35 Q108.3 104.0 107.75 102.4 107.1 100.25 105.6 99.5 L105.5 99.4 Q105.95 98.75 106.7 98.4 L106.9 98.4 M65.85 117.55 L63.9 117.35 62.1 117.0 60.5 116.35 60.25 116.25 59.4 115.85 57.05 113.8 Q54.45 110.9 54.45 106.9 L54.45 105.4 54.55 103.45 54.9 102.05 54.9 101.85 55.0 101.45 55.0 101.3 55.55 101.2 55.75 101.2 Q56.3 101.2 56.7 101.45 L57.15 101.55 57.15 101.95 56.95 102.7 56.95 103.05 56.95 103.15 56.95 103.8 56.95 104.1 57.5 105.6 Q57.8 106.25 58.45 106.6 58.55 107.75 59.4 109.5 60.15 111.3 61.55 112.15 L62.2 112.6 64.45 112.95 65.3 112.95 Q66.95 112.7 68.45 111.3 69.3 110.65 69.7 109.8 L69.95 108.75 Q70.35 108.0 70.35 106.9 70.35 105.3 69.85 103.35 L69.6 102.7 68.95 101.3 Q69.2 101.3 69.3 101.45 L70.8 101.65 71.75 101.85 73.9 104.1 74.15 104.1 74.15 104.55 Q74.55 106.05 74.55 108.0 L74.45 109.9 73.8 112.05 73.05 113.55 72.75 114.0 72.65 114.0 72.0 114.75 71.55 115.2 70.9 115.85 69.4 116.8 69.3 116.8 67.8 117.35 67.45 117.35 65.85 117.55" fill="#ebb347" fill-rule="evenodd" stroke="none"/>
      <path d="M13.95 113.15 L14.2 112.5 Q13.85 111.3 14.05 108.4 L14.6 103.9 Q15.35 97.35 16.95 94.55 L17.6 94.35 21.5 99.15 21.5 99.6 21.8 99.6 23.0 99.6 25.45 99.05 27.7 98.1 Q26.4 103.6 26.1 109.9 L26.0 113.7 26.0 114.45 26.4 116.8 26.85 118.95 25.25 118.2 24.8 118.0 21.25 116.25 19.85 115.6 17.7 114.75 17.6 114.75 13.95 113.15 M30.85 73.9 L30.95 73.7 Q32.85 71.75 35.15 70.15 L39.1 67.9 40.3 67.35 Q41.7 66.7 43.2 66.2 L46.6 65.35 Q49.4 64.7 52.3 64.6 L53.4 64.6 55.45 64.9 56.7 65.1 57.5 67.05 57.15 67.25 Q54.45 67.9 52.2 68.85 48.55 70.4 45.35 72.3 41.25 74.7 38.25 77.9 37.9 78.1 37.5 78.55 L36.5 79.85 35.65 80.7 35.45 80.15 35.15 79.1 34.4 77.6 Q33.4 76.2 32.0 75.2 L30.85 73.9 M33.3 75.2 L32.0 75.2 33.3 75.2" fill="#76677e" fill-rule="evenodd" stroke="none"/>
      <path d="M56.7 65.1 L57.15 65.55 58.1 66.2 57.5 67.05 56.7 65.1" fill="#725170" fill-rule="evenodd" stroke="none"/>
      <path d="M111.2 107.1 L111.4 107.65 112.05 108.2 114.4 110.35 114.4 110.9 114.0 112.3 Q113.45 113.25 112.05 114.0 L112.05 114.1 Q110.35 114.95 108.75 114.95 L108.5 114.95 Q107.1 114.75 105.7 113.8 104.55 112.95 104.1 112.15 L104.85 112.4 105.95 112.5 106.35 112.5 Q108.3 112.4 109.35 111.1 110.25 110.35 110.65 109.05 L111.2 107.1 M65.85 117.55 Q64.65 119.25 62.4 120.75 L59.75 121.95 Q57.5 122.8 55.0 122.8 L51.25 122.5 Q48.45 121.95 46.0 120.65 L44.9 119.9 42.95 118.5 Q41.35 117.0 40.05 115.1 L38.55 112.95 38.15 112.15 37.4 110.45 Q36.1 107.45 35.75 104.2 L35.75 103.45 35.9 103.45 36.4 103.35 37.5 103.25 39.85 102.95 41.35 102.7 45.45 102.7 43.6 95.5 43.3 94.35 46.85 95.2 48.75 95.85 49.75 96.15 49.85 96.15 50.3 96.25 50.4 96.4 51.15 96.5 54.15 97.45 55.2 97.65 55.55 97.9 55.75 98.0 56.3 98.1 56.5 98.2 56.3 98.4 55.95 98.75 55.35 100.45 55.1 101.1 55.0 101.3 55.0 101.45 54.9 101.85 54.9 102.05 54.55 103.45 54.45 105.4 54.45 106.9 Q54.45 110.9 57.05 113.8 L59.4 115.85 60.25 116.25 60.5 116.35 62.1 117.0 63.9 117.35 65.85 117.55" fill="#f5e0f3" fill-rule="evenodd" stroke="none"/>
      <path d="M100.65 102.95 L100.65 102.3 100.65 101.85 100.65 101.55 Q100.65 100.45 101.65 100.15 L101.85 100.15 102.3 100.05 102.5 100.15 103.35 100.45 103.7 100.7 104.1 101.45 104.3 101.95 104.45 102.6 Q104.45 104.1 103.8 104.85 L103.55 105.1 Q103.05 105.6 102.5 105.6 L102.3 105.6 Q101.85 105.4 101.4 104.85 101.1 104.55 101.0 103.9 L100.9 103.7 100.65 102.95 M58.45 106.6 Q57.8 106.25 57.5 105.6 L56.95 104.1 56.95 103.8 56.95 103.15 56.95 103.05 56.95 102.7 57.15 101.95 57.15 101.55 57.25 101.55 Q57.5 100.9 57.9 100.35 58.45 99.8 59.0 99.6 59.4 99.3 59.75 99.3 60.05 99.15 60.25 99.15 L61.35 99.3 61.35 99.7 Q62.4 99.7 63.05 100.7 63.4 101.1 63.6 102.2 L63.6 102.3 63.6 103.35 63.6 103.9 Q63.5 104.85 62.85 105.5 L62.3 106.05 Q61.45 106.6 60.25 106.7 L59.75 106.7 59.5 106.7 58.65 106.6 58.45 106.6" fill="#e7e5e5" fill-rule="evenodd" stroke="none"/>
      <path d="M80.15 121.1 L80.6 120.9 81.75 120.0 Q82.4 119.35 83.15 118.95 88.2 115.85 96.25 114.65 93.15 116.7 87.9 122.15 86.9 123.05 86.05 124.1 L85.2 124.95 84.25 125.8 80.15 130.1 79.3 131.1 78.1 132.15 76.6 130.1 Q76.05 129.35 76.05 128.2 L76.05 127.3 76.7 125.6 Q77.55 123.45 79.95 121.4 L80.15 121.2 80.15 121.1" fill="#d99fd8" fill-rule="evenodd" stroke="none"/>
      <path d="M109.7 104.1 L109.8 104.55 109.7 104.55 109.7 104.1" fill="#412022" fill-rule="evenodd" stroke="none"/>
      <path d="M116.9 125.15 L116.25 127.2 116.25 127.45 116.15 127.55 115.8 128.4 Q114.0 133.0 112.8 133.55 100.25 124.55 100.25 120.35 100.25 118.3 103.15 117.2 L106.8 116.6 108.6 116.25 109.6 116.25 113.15 116.15 113.65 116.15 115.8 116.15 115.8 116.45 Q114.0 116.7 111.85 118.1 108.85 120.1 108.85 122.25 L109.05 124.2 108.75 124.2 Q111.1 127.95 112.4 129.45 L115.05 127.1 116.9 125.15" fill="#7e1229" fill-rule="evenodd" stroke="none"/>
      <path d="M93.7 11.6 Q90.9 2.6 88.95 0.0 79.05 4.5 71.55 22.65 69.95 26.1 68.95 29.0 65.2 39.7 65.85 46.15 L65.85 46.65 65.85 46.75 66.05 47.4 66.4 48.15 M56.95 39.35 L56.85 39.75 Q56.7 40.1 56.7 40.4 L56.6 40.7 56.5 41.25 56.3 41.9 55.95 44.5 55.85 45.65 M55.85 47.3 L55.85 50.5 Q55.95 51.55 56.4 52.45 M90.15 53.3 L90.45 52.95 91.2 52.45 92.2 51.7 Q92.5 51.45 92.7 51.35 L92.85 51.35 93.45 49.85 Q94.55 47.4 95.6 43.2 97.0 37.2 97.0 30.2 97.0 24.2 94.95 16.35 L93.7 11.6 M103.05 64.45 L105.95 60.8 Q109.8 54.8 111.1 46.4 L111.0 46.3 Q110.9 46.0 110.1 45.9 L107.45 45.75 Q101.85 45.75 94.65 50.05 L92.85 51.35 M107.1 82.5 L108.75 76.8 Q109.8 73.5 109.8 72.3 109.8 70.8 107.0 70.8 L105.5 70.8 99.4 71.9 92.7 73.8 M107.1 82.5 L104.85 90.05 104.1 92.4 105.95 96.4 106.45 97.65 106.9 98.4 107.1 98.75 108.4 101.55 109.7 104.1 109.8 104.55 110.55 105.75 111.2 107.1 111.4 107.65 112.05 108.2 114.4 110.35 116.45 112.4 120.0 116.15 120.1 116.8 120.35 117.75 120.35 118.2 120.2 119.25 120.0 120.9 119.6 123.35 119.05 125.4 118.5 127.85 118.4 128.3 117.85 129.6 117.75 130.35 Q115.05 137.85 110.55 144.75 106.9 150.0 102.3 154.4 L98.2 157.75 Q90.7 163.45 82.2 166.1 77.45 167.85 73.15 168.35 L72.5 168.5 67.35 168.9 59.6 168.15 58.1 167.85 57.05 167.7 48.65 165.55 M28.7 151.2 L26.4 148.9 25.65 148.05 24.15 146.25 21.05 142.8 M21.05 142.35 L20.75 142.25 20.4 142.15 18.35 141.2 Q15.8 139.35 12.65 135.8 L10.0 131.95 7.4 127.85 Q0.3 115.95 0.0 108.75 4.1 109.5 9.35 111.4 M10.95 112.05 L13.95 113.15 17.6 114.75 17.7 114.75 19.85 115.6 M14.2 112.5 Q13.85 111.3 14.05 108.4 L14.6 103.9 Q15.35 97.35 16.95 94.55 M17.6 94.35 L13.95 89.7 Q6.55 79.6 6.55 76.6 6.55 74.45 8.6 73.8 L8.7 73.8 13.1 73.5 23.0 74.25 23.2 74.35 27.4 74.8 27.5 74.8 27.6 74.8 28.9 74.9 30.1 75.0 30.5 74.15 30.6 74.15 30.85 73.9 30.95 73.7 Q32.85 71.75 35.15 70.15 L39.1 67.9 40.3 67.35 Q41.7 66.7 43.2 66.2 L46.6 65.35 Q49.4 64.7 52.3 64.6 L53.4 64.6 55.45 64.9 56.7 65.1 57.15 65.55 58.1 66.2 58.65 66.6 58.85 66.85 59.6 67.35 62.75 69.3 65.55 70.7 68.45 71.9 73.7 73.3 78.75 74.05 81.45 74.25 81.55 74.25 83.35 74.35 84.85 74.25 85.65 74.15 87.35 73.9 M30.2 72.65 Q26.95 71.45 22.35 67.8 16.85 63.6 15.35 60.15 17.1 59.1 24.5 56.75 33.1 54.05 38.15 54.05 L43.2 54.7 Q42.0 52.85 40.6 48.9 38.55 43.3 38.45 42.1 38.15 40.95 38.15 35.9 38.15 32.9 38.65 29.85 39.2 26.55 40.4 26.1 41.25 25.7 43.4 27.1 45.65 28.45 49.2 31.6 L50.8 33.2 51.45 33.95 51.9 34.4 Q55.45 37.95 56.3 40.6 L56.5 41.25 M90.15 53.3 Q86.25 56.4 84.1 60.05 M54.9 63.2 L56.7 65.1 M88.55 73.7 L91.1 72.75 92.05 72.4 Q95.95 70.7 99.8 67.7 L101.95 65.75 M101.1 86.4 L103.25 90.8 104.1 92.4 M105.95 96.4 Q104.55 96.8 102.4 97.9 L101.75 98.2 101.0 98.4 99.7 99.15 Q99.25 99.3 98.75 99.6 L98.65 99.6 Q98.5 100.45 98.5 101.55 L98.65 103.15 98.65 103.45 M55.85 47.3 L55.85 46.95 55.85 46.3 M65.85 46.15 Q65.5 43.55 63.05 39.85 L62.4 39.0 Q61.55 37.4 60.9 36.75 60.15 35.8 59.6 35.8 58.25 35.8 57.5 38.05 57.15 38.55 56.95 39.35 M35.9 86.8 L35.9 87.35 35.9 87.9 M35.75 88.2 L35.65 88.45 35.55 88.85 35.45 89.5 35.35 90.05 34.5 92.1 31.6 95.65 29.85 96.9 27.7 98.1 25.45 99.05 23.0 99.6 21.8 99.6 21.5 99.6 M26.85 118.95 Q31.7 121.4 35.9 124.1 L36.1 124.2 39.1 126.15 39.2 126.55 Q39.75 127.2 40.5 129.05 L41.05 130.1 42.1 133.15 42.85 135.15 43.1 135.6 43.85 138.2 45.25 143.25 45.35 143.75 M35.9 144.2 L34.05 144.3 M32.85 144.1 L29.95 143.65 29.1 143.55 27.95 143.35 27.8 143.35 21.05 142.35 M30.1 75.0 L30.95 75.1 31.7 75.1 32.0 75.2 33.3 75.2 M35.9 86.8 L36.0 85.95 36.2 85.3 M43.2 54.7 L43.85 55.55 M65.85 117.55 L63.9 117.35 62.1 117.0 60.5 116.35 60.25 116.25 59.4 115.85 57.05 113.8 Q54.45 110.9 54.45 106.9 L54.45 105.4 54.55 103.45 54.9 102.05 54.9 101.85 55.0 101.45 55.0 101.3 55.1 101.1 55.35 100.45 55.95 98.75 56.3 98.4 56.5 98.2 57.15 97.8 57.7 97.65 58.25 97.55 59.85 97.35 61.25 97.45 61.55 97.45 64.35 97.65 66.2 98.0 68.2 98.3 71.0 98.65 71.55 99.05 72.4 100.35 Q73.7 101.85 74.15 104.1 L74.15 104.55 Q74.55 106.05 74.55 108.0 L74.45 109.9 73.8 112.05 M72.75 114.0 L72.65 114.0 72.0 114.75 71.55 115.2 70.9 115.85 69.4 116.8 69.3 116.8 67.8 117.35 67.45 117.35 65.85 117.55 M76.05 160.2 L77.9 159.15 M21.25 116.25 L24.8 118.0 25.25 118.2 26.85 118.95 M28.7 151.2 L32.35 154.4 M76.05 160.2 L75.1 160.85 72.75 162.65 M98.75 104.0 L98.75 104.55 98.85 104.85 99.15 105.6 Q99.7 107.65 100.9 109.5 L101.1 109.7 101.1 109.8 102.3 111.1 102.4 111.3 103.55 112.05 M104.1 112.15 L104.85 112.4 105.95 112.5 106.35 112.5 Q108.3 112.4 109.35 111.1 110.25 110.35 110.65 109.05 L111.2 107.1 M115.8 116.15 L113.65 116.15 113.15 116.15 109.6 116.25 108.6 116.25 106.8 116.6 103.15 117.2 Q100.25 118.3 100.25 120.35 100.25 124.55 112.8 133.55 114.0 133.0 115.8 128.4 L116.15 127.55 116.25 127.45 116.25 127.2 116.9 125.15 117.3 123.9 117.95 121.4 118.5 118.5 118.5 118.1 118.2 116.8 117.85 116.8 M115.8 116.15 L117.0 116.35 117.3 116.6 M17.6 94.35 L21.5 99.15" fill="none" stroke="#380007" stroke-linecap="round" stroke-linejoin="round" stroke-width="1.0"/>
    </g>
    <g id="sprite5" transform="matrix(1.0, 0.0, 0.0, 1.0, 0.5, 0.5)">
      <use data-characterId="15" height="68.6" transform="matrix(1.0, 0.0, 0.0, 1.0, -0.5, -0.5)" width="44.65" xlink:href="#shape5"/>
    </g>
    <g id="shape5" transform="matrix(1.0, 0.0, 0.0, 1.0, 0.5, 0.5)">
      <path d="M28.05 8.25 L33.1 13.45 Q43.85 24.95 44.1 30.0 L43.65 30.85 39.9 37.3 39.45 37.95 Q37.5 39.2 32.15 40.85 26.45 42.55 25.15 42.55 L24.75 42.1 Q23.1 41.8 19.05 36.3 L16.15 32.65 Q20.65 18.8 28.05 8.25" fill="#bc79a4" fill-rule="evenodd" stroke="none"/>
      <path d="M28.05 8.25 Q20.65 18.8 16.15 32.65 L13.25 28.25 Q12.05 26.2 11.2 22.8 L10.25 18.35 10.35 18.05 Q14.3 7.75 19.05 0.85 L19.05 0.75 Q22.05 2.25 28.05 8.25" fill="#9f648a" fill-rule="evenodd" stroke="none"/>
      <path d="M10.25 18.35 L11.2 22.8 Q12.05 26.2 13.25 28.25 L16.15 32.65 15.6 34.4 Q11.5 47.05 12.25 55.0 L12.6 57.15 13.15 57.7 Q15.15 59.4 19.6 59.4 22.5 59.4 25.9 58.35 L27.3 58.0 Q23.35 64.7 23.1 66.4 L22.8 66.85 21.3 66.85 17.2 67.45 13.55 67.6 Q10.55 67.6 5.8 66.3 L1.4 64.9 0.55 64.45 0.25 64.15 0.15 63.4 Q0.75 51.45 5.3 34.15 7.55 25.35 10.25 18.35" fill="#dec994" fill-rule="evenodd" stroke="none"/>
      <path d="M16.15 32.65 L19.05 36.3 Q23.1 41.8 24.75 42.1 L25.15 42.55 Q26.45 42.55 32.15 40.85 37.5 39.2 39.45 37.95 L30.45 53.1 27.3 58.0 25.9 58.35 Q22.5 59.4 19.6 59.4 15.15 59.4 13.15 57.7 L12.6 57.15 12.25 55.0 Q11.5 47.05 15.6 34.4 L16.15 32.65 M0.15 63.4 L0.25 64.15 0.15 64.15 0.15 63.8 0.15 63.4" fill="#fef3d7" fill-rule="evenodd" stroke="none"/>
      <path d="M39.9 37.3 L43.65 30.85 M19.05 0.85 Q14.3 7.75 10.35 18.05 L10.25 18.35 Q7.55 25.35 5.3 34.15 0.75 51.45 0.15 63.4 L0.15 63.8 0.0 64.25 0.15 64.25 0.15 64.15 0.15 63.8 M27.3 58.0 L30.45 53.1 39.45 37.95 M19.05 0.75 L19.7 0.0 M0.25 64.15 L0.55 64.45 1.4 64.9 5.8 66.3 Q10.55 67.6 13.55 67.6 L17.2 67.45 21.3 66.85 22.8 66.85 M23.1 66.4 Q23.35 64.7 27.3 58.0 M0.25 64.15 L0.45 64.45 0.55 64.45" fill="none" stroke="#380007" stroke-linecap="round" stroke-linejoin="round" stroke-width="1.0"/>
      <path d="M16.15 32.65 L19.05 36.3 Q23.1 41.8 24.75 42.1 M25.15 42.55 Q26.45 42.55 32.15 40.85 37.5 39.2 39.45 37.95 L39.9 37.3 M10.25 18.35 L11.2 22.8 Q12.05 26.2 13.25 28.25 L16.15 32.65 M10.35 18.05 L10.25 18.05 10.25 18.35" fill="none" stroke="#380007" stroke-linecap="round" stroke-linejoin="round" stroke-width="0.5"/>
    </g>
    <g id="sprite6" transform="matrix(1.0, 0.0, 0.0, 1.0, 0.5, 0.5)">
      <use data-characterId="17" height="63.2" transform="matrix(1.0, 0.0, 0.0, 1.0, -0.5, -0.5)" width="44.2" xlink:href="#shape6"/>
    </g>
    <g id="shape6" transform="matrix(1.0, 0.0, 0.0, 1.0, 0.5, 0.5)">
      <path d="M42.45 30.85 Q42.0 31.25 41.7 31.9 L41.55 32.15 41.25 32.15 Q35.65 33.4 27.3 37.05 26.1 34.7 19.85 26.0 L19.95 25.8 20.85 21.7 Q22.0 16.75 22.85 13.95 L26.0 17.3 34.35 26.2 35.55 25.15 Q36.75 26.45 38.9 27.95 41.8 30.0 42.45 30.85" fill="#bc79a4" fill-rule="evenodd" stroke="none"/>
      <path d="M41.55 32.35 Q39.3 36.1 37.15 40.3 L36.1 42.35 33.75 47.6 32.45 51.05 32.35 51.05 32.2 51.45 28.45 51.6 21.05 50.7 15.45 49.75 16.3 44.6 17.4 38.6 18.7 32.15 Q19.2 28.9 19.85 26.0 26.1 34.7 27.3 37.05 35.65 33.4 41.25 32.15 L41.55 32.35" fill="#fef3d7" fill-rule="evenodd" stroke="none"/>
      <path d="M9.45 15.25 L9.75 13.35 Q10.85 4.75 11.8 1.2 L13.95 3.75 19.65 10.55 22.85 13.95 Q22.0 16.75 20.85 21.7 L19.95 25.8 19.65 25.7 18.45 23.95 12.15 15.35 10.2 15.25 9.45 15.25" fill="#9f648a" fill-rule="evenodd" stroke="none"/>
      <path d="M32.2 51.45 L31.6 52.95 29.55 58.55 Q28.15 59.4 25.55 60.15 22.55 61.35 20.3 61.55 L9.35 62.2 5.8 62.0 3.0 61.8 1.8 61.7 0.85 61.45 0.75 61.35 0.75 61.25 0.65 61.05 0.4 60.8 0.0 59.75 Q0.0 57.7 1.9 53.95 4.5 49.65 5.8 48.05 5.7 46.1 6.2 42.35 L6.45 40.6 7.85 30.85 9.45 15.25 10.2 15.25 12.15 15.35 18.45 23.95 19.65 25.7 19.85 26.0 Q19.2 28.9 18.7 32.15 L17.4 38.6 16.3 44.6 15.45 49.75 21.05 50.7 28.45 51.6 32.2 51.45 M6.1 49.1 L5.8 48.05 6.1 49.1" fill="#dec994" fill-rule="evenodd" stroke="none"/>
      <path d="M41.7 31.9 L41.55 32.15 41.25 32.15 Q35.65 33.4 27.3 37.05 26.1 34.7 19.85 26.0 L19.65 25.7 18.45 23.95 12.15 15.35 10.2 15.25 9.45 15.25" fill="none" stroke="#380007" stroke-linecap="round" stroke-linejoin="round" stroke-width="0.5"/>
      <path d="M42.45 30.85 L43.2 29.55 M42.45 30.85 Q42.0 31.25 41.7 31.9 M41.55 32.15 L41.55 32.35 Q39.3 36.1 37.15 40.3 L36.1 42.35 33.75 47.6 32.45 51.05 32.35 51.05 M32.2 51.45 L31.6 52.95 29.55 58.55 Q28.15 59.4 25.55 60.15 22.55 61.35 20.3 61.55 L9.35 62.2 5.8 62.0 3.0 61.8 1.8 61.7 0.85 61.45 0.75 61.35 0.75 61.25 0.65 61.05 0.4 60.8 0.0 59.75 Q0.0 57.7 1.9 53.95 4.5 49.65 5.8 48.05 5.7 46.1 6.2 42.35 L6.45 40.6 7.85 30.85 9.45 15.25 9.75 13.35 Q10.85 4.75 11.8 1.2 L12.25 0.0 M5.8 48.05 L6.1 49.1" fill="none" stroke="#380007" stroke-linecap="round" stroke-linejoin="round" stroke-width="1.0"/>
    </g>
  </defs>
</svg>
