<?xml version="1.0" encoding="UTF-8" standalone="no"?>
<svg xmlns:xlink="http://www.w3.org/1999/xlink" height="265.05px" width="148.25px" xmlns="http://www.w3.org/2000/svg">
  <g transform="matrix(1.0, 0.0, 0.0, 1.0, 86.3, 224.0)">
    <use data-characterId="2" height="62.1" transform="matrix(1.0, 0.0, 0.0, 1.0, 1.15, -36.35)" width="38.85" xlink:href="#shape0"/>
    <use data-characterId="3" height="65.65" transform="matrix(1.0, 0.0, 0.0, 1.0, -84.2, -71.05)" width="62.85" xlink:href="#shape1"/>
    <use data-characterId="4" height="47.75" transform="matrix(1.0, 0.0, 0.0, 1.0, 22.45, -59.9)" width="17.2" xlink:href="#shape2"/>
    <use data-characterId="5" height="96.6" transform="matrix(1.0, 0.0, 0.0, 1.0, -35.2, -94.15)" width="75.2" xlink:href="#shape3"/>
    <use data-characterId="6" height="64.7" transform="matrix(1.0, 0.0, 0.0, 1.0, -35.2, -23.7)" width="40.55" xlink:href="#shape4"/>
    <use data-characterId="7" height="40.7" transform="matrix(1.0, 0.0, 0.0, 1.0, -2.2, -51.95)" width="17.85" xlink:href="#shape5"/>
    <use data-characterId="8" height="142.7" transform="matrix(1.0, 0.0, 0.0, 1.0, -63.35, -224.0)" width="116.75" xlink:href="#shape6"/>
  </g>
  <defs>
    <g id="shape0" transform="matrix(1.0, 0.0, 0.0, 1.0, 19.4, 31.05)">
      <path d="M-4.75 -22.2 L-3.4 -25.4 -3.1 -25.4 -3.1 -25.25 Q-2.2 -26.4 -1.05 -29.25 L-0.85 -29.25 -0.85 -28.2 -2.2 -24.5 -1.65 -24.6 Q-1.05 -24.6 -0.3 -23.1 L-0.25 -23.4 Q0.95 -26.4 1.4 -28.35 L1.45 -28.4 1.6 -28.6 1.75 -28.4 2.6 -27.9 2.65 -25.95 2.2 -19.7 1.9 -17.5 2.95 -14.95 3.2 -16.65 3.6 -19.7 4.9 -29.5 4.95 -29.35 5.1 -29.25 Q4.35 -31.05 2.5 -31.05 -1.45 -31.05 -3.5 -25.9 L-4.75 -22.2" fill="#f5f2fb" fill-rule="evenodd" stroke="none"/>
      <path d="M5.1 -29.25 L4.95 -29.35 4.9 -29.5 3.6 -19.7 3.2 -16.65 2.95 -14.95 3.25 -14.4 4.1 -13.4 4.2 -13.95 5.15 -13.45 Q5.7 -16.7 5.7 -19.25 L5.7 -19.7 5.6 -22.85 5.5 -24.5 5.5 -24.85 5.4 -28.3 5.25 -28.65 5.25 -28.85 5.2 -28.85 5.1 -29.25 M-2.2 -24.5 L-0.85 -28.2 -0.85 -29.25 -1.05 -29.25 Q-2.2 -26.4 -3.1 -25.25 L-3.1 -25.1 -3.05 -25.05 -3.95 -22.85 -2.2 -24.5" fill="#c7b8d8" fill-rule="evenodd" stroke="none"/>
      <path d="M-15.45 21.0 L-15.35 20.9 -15.45 20.9 -15.45 21.0" fill="#121f3a" fill-rule="evenodd" stroke="none"/>
      <path d="M1.9 -17.5 L2.2 -19.7 2.65 -25.95 2.6 -27.9 1.75 -28.4 1.6 -28.6 1.45 -28.4 1.4 -28.35 Q0.95 -26.4 -0.25 -23.4 L-0.3 -23.1 -0.95 -19.7 -1.95 -12.8 -3.05 -2.6 -3.05 -0.6 -2.6 -0.8 Q-1.65 -3.1 -0.75 -6.3 L0.85 -12.35 1.9 -17.5 M-7.65 8.55 L-8.2 11.1 Q-8.2 12.3 -6.9 12.3 -5.8 12.3 -5.6 11.6 L-5.5 10.85 -5.75 6.9 Q-5.75 6.55 -6.1 5.95 -6.9 6.3 -7.65 8.55 M6.25 21.0 Q0.4 18.0 -1.5 17.7 0.25 19.85 4.75 22.55 9.1 25.3 10.4 25.3 11.4 25.3 11.65 24.65 L11.75 23.95 Q11.75 23.75 6.25 21.0" fill="#ffffff" fill-rule="evenodd" stroke="none"/>
      <path d="M-3.1 -25.25 L-3.1 -25.4 -3.4 -25.4 -4.75 -22.2 -4.95 -21.7 -5.75 -19.7 -8.75 -12.55 -7.9 -12.65 -8.1 -12.05 -7.9 -12.05 Q-7.1 -12.05 -6.45 -12.7 L-6.2 -12.95 -3.9 -19.7 -2.2 -24.5 -3.95 -22.85 -3.05 -25.05 -3.1 -25.1 -3.1 -25.25 M5.15 -13.45 L4.2 -13.95 4.1 -13.4 3.25 -14.4 2.95 -14.95 1.6 -6.1 1.25 -4.85 1.2 -4.6 1.8 -4.55 2.65 -4.8 3.65 -4.8 3.8 -5.7 4.95 -11.8 5.1 -12.95 5.15 -13.45" fill="#6f678f" fill-rule="evenodd" stroke="none"/>
      <path d="M2.95 -14.95 L1.9 -17.5 0.85 -12.35 -0.75 -6.3 Q0.05 -4.9 1.2 -4.6 L1.25 -4.85 1.6 -6.1 2.95 -14.95 M-0.3 -23.1 Q-1.05 -24.6 -1.65 -24.6 L-2.2 -24.5 -3.9 -19.7 -6.2 -12.95 Q-5.6 -13.75 -5.05 -15.2 -4.0 -18.2 -2.95 -19.7 L-2.2 -20.65 -1.95 -20.4 -1.95 -19.7 -1.95 -12.8 -0.95 -19.7 -0.3 -23.1" fill="#a8a0bc" fill-rule="evenodd" stroke="none"/>
      <path d="M-1.95 -12.8 L-1.95 -19.7 -1.95 -20.4 -2.2 -20.65 -2.95 -19.7 Q-4.0 -18.2 -5.05 -15.2 -5.6 -13.75 -6.2 -12.95 L-9.25 -4.25 -12.75 5.6 -13.5 8.0 Q-14.5 9.7 -14.85 11.8 L-14.95 13.95 Q-14.95 17.0 -11.45 18.5 -6.45 20.05 -3.5 21.45 L4.3 25.2 7.05 26.15 12.25 26.8 13.9 26.45 15.2 26.15 15.25 26.15 Q15.1 24.9 14.3 23.15 L14.0 22.55 10.6 19.1 7.9 16.35 5.6 14.6 1.25 13.35 Q-2.2 12.3 -2.2 11.05 -2.2 9.8 -1.25 5.6 L-0.4 2.15 1.2 -4.6 Q0.05 -4.9 -0.75 -6.3 -1.65 -3.1 -2.6 -0.8 L-3.05 -0.6 -3.05 -2.6 -1.95 -12.8 M6.25 21.0 Q11.75 23.75 11.75 23.95 L11.65 24.65 Q11.4 25.3 10.4 25.3 9.1 25.3 4.75 22.55 0.25 19.85 -1.5 17.7 0.4 18.0 6.25 21.0 M-7.65 8.55 Q-6.9 6.3 -6.1 5.95 -5.75 6.55 -5.75 6.9 L-5.5 10.85 -5.6 11.6 Q-5.8 12.3 -6.9 12.3 -8.2 12.3 -8.2 11.1 L-7.65 8.55" fill="#74759c" fill-rule="evenodd" stroke="none"/>
      <path d="M-6.2 -12.95 L-6.45 -12.7 Q-7.1 -12.05 -7.9 -12.05 L-8.1 -12.05 -7.9 -12.65 -8.75 -12.55 -8.85 -12.2 -11.65 -5.2 -15.65 5.6 -17.3 10.45 -18.75 15.6 Q-19.4 17.0 -19.4 18.3 -19.4 19.9 -16.8 21.35 -15.8 21.75 -15.1 22.2 L-13.75 23.2 -7.7 25.95 -7.4 26.15 Q3.65 30.75 10.35 31.05 L16.8 31.05 Q17.95 31.0 18.8 29.7 19.45 28.7 19.45 28.0 19.45 27.3 18.8 26.15 17.95 24.55 15.75 22.25 L11.1 17.7 Q7.9 14.65 5.25 12.6 L2.6 10.45 2.2 10.15 Q2.75 8.2 2.95 5.6 L3.1 3.4 Q3.25 -2.35 3.6 -4.25 L3.65 -4.8 2.65 -4.8 1.8 -4.55 1.2 -4.6 -0.4 2.15 -1.25 5.6 Q-2.2 9.8 -2.2 11.05 -2.2 12.3 1.25 13.35 L5.6 14.6 7.9 16.35 10.6 19.1 14.0 22.55 14.3 23.15 Q15.1 24.9 15.25 26.15 L15.2 26.15 13.9 26.45 12.25 26.8 7.05 26.15 4.3 25.2 -3.5 21.45 Q-6.45 20.05 -11.45 18.5 -14.95 17.0 -14.95 13.95 L-14.85 11.8 Q-14.5 9.7 -13.5 8.0 L-12.75 5.6 -9.25 -4.25 -6.2 -12.95 M-15.45 21.0 L-15.45 20.9 -15.35 20.9 -15.45 21.0" fill="#3e3c55" fill-rule="evenodd" stroke="none"/>
    </g>
    <g id="shape1" transform="matrix(1.0, 0.0, 0.0, 1.0, 31.45, 32.85)">
      <path d="M-12.1 -24.5 L-8.6 -25.0 -4.35 -24.35 1.85 -23.95 3.1 -23.35 2.55 -27.9 2.6 -28.35 2.5 -28.75 Q2.2 -29.2 0.95 -29.4 L-8.3 -30.0 Q-21.55 -30.05 -27.6 -17.75 -31.45 -9.95 -31.45 -0.65 -31.45 8.15 -26.45 15.0 -20.3 23.55 -7.05 27.55 L-6.95 27.55 Q-6.3 27.35 -6.3 26.6 L-6.55 26.3 -5.55 24.4 Q-11.55 22.9 -15.55 20.1 -19.3 17.5 -21.5 13.5 -22.95 12.2 -22.95 10.7 L-22.95 10.4 Q-24.85 5.4 -24.85 -1.35 -24.85 -8.55 -21.9 -14.05 -21.6 -17.4 -19.3 -19.95 -19.15 -21.45 -18.4 -22.45 -16.85 -24.5 -12.7 -24.5 L-12.1 -24.5" fill="#a9c146" fill-rule="evenodd" stroke="none"/>
      <path d="M-1.45 -22.05 Q-1.85 -23.6 -4.35 -24.35 L-8.6 -25.0 -12.1 -24.5 -8.55 -24.05 Q-5.25 -23.55 -1.45 -22.05 M-15.4 -10.9 Q-18.65 -15.0 -19.2 -18.0 L-19.3 -19.3 -19.3 -19.95 Q-21.6 -17.4 -21.9 -14.05 L-21.9 -13.15 Q-21.9 -11.6 -21.3 -10.45 -20.65 -9.2 -19.5 -9.2 -17.7 -9.2 -15.4 -10.9 M-24.05 -5.0 L-24.35 -3.35 Q-24.35 -2.05 -23.75 -1.35 -23.2 -0.75 -22.55 -0.75 -22.0 -0.75 -21.3 -2.25 L-21.15 -2.75 -21.0 -3.45 -21.0 -4.85 -21.55 -6.35 -22.05 -6.5 Q-23.45 -6.5 -24.05 -5.0" fill="#ffffff" fill-rule="evenodd" stroke="none"/>
      <path d="M-4.35 -24.35 Q-1.85 -23.6 -1.45 -22.05 L3.7 -19.9 3.7 -20.2 3.1 -23.35 1.85 -23.95 -4.35 -24.35 M-5.55 24.4 L-5.5 24.3 -2.35 19.15 Q-12.7 18.1 -18.25 15.55 L-21.5 13.5 Q-19.3 17.5 -15.55 20.1 -11.55 22.9 -5.55 24.4 M-22.95 10.4 L-22.9 10.05 Q-22.65 9.0 -21.9 8.05 -20.35 6.0 -16.55 3.8 L-13.6 2.15 Q-16.35 -1.05 -16.35 -5.9 -16.35 -8.75 -15.05 -10.55 L-15.4 -10.9 Q-17.7 -9.2 -19.5 -9.2 -20.65 -9.2 -21.3 -10.45 -21.9 -11.6 -21.9 -13.15 L-21.9 -14.05 Q-24.85 -8.55 -24.85 -1.35 -24.85 5.4 -22.95 10.4 M-24.05 -5.0 Q-23.45 -6.5 -22.05 -6.5 L-21.55 -6.35 -21.0 -4.85 -21.0 -3.45 -21.15 -2.75 -21.3 -2.25 Q-22.0 -0.75 -22.55 -0.75 -23.2 -0.75 -23.75 -1.35 -24.35 -2.05 -24.35 -3.35 L-24.05 -5.0" fill="#c4d580" fill-rule="evenodd" stroke="none"/>
      <path d="M-1.45 -22.05 Q-5.25 -23.55 -8.55 -24.05 L-12.1 -24.5 -12.7 -24.5 Q-16.85 -24.5 -18.4 -22.45 -19.15 -21.45 -19.3 -19.95 L-19.3 -19.3 -19.2 -18.0 Q-18.65 -15.0 -15.4 -10.9 L-15.05 -10.55 -15.0 -10.5 -7.55 -1.45 Q-7.85 -1.15 -13.6 2.15 L-16.55 3.8 Q-20.35 6.0 -21.9 8.05 -22.65 9.0 -22.9 10.05 L-22.95 10.4 -22.95 10.7 Q-22.95 12.2 -21.5 13.5 L-18.25 15.55 Q-12.7 18.1 -2.35 19.15 L-5.5 24.3 -5.55 24.4 -6.55 26.3 -6.3 26.6 Q-6.3 27.35 -6.95 27.55 L-7.2 29.55 -7.2 29.95 -7.05 31.15 Q-6.7 32.6 -5.45 32.8 L1.85 32.8 Q10.0 29.35 15.9 25.5 21.05 22.05 24.45 18.3 31.4 10.5 31.4 0.5 31.4 -6.35 26.85 -14.2 23.0 -21.0 16.95 -26.35 L15.9 -27.3 Q10.85 -31.65 7.05 -32.6 L5.65 -32.8 5.35 -32.8 Q2.5 -32.8 2.5 -29.3 L2.5 -28.75 2.6 -28.35 2.55 -27.9 3.1 -23.35 3.7 -20.2 3.7 -19.9 -1.45 -22.05 M8.1 -20.5 Q5.7 -26.2 5.4 -31.3 10.85 -30.2 15.9 -25.2 19.25 -21.95 22.3 -17.0 L23.0 -15.9 Q28.1 -5.75 28.1 -1.35 28.1 4.15 15.9 6.95 L7.8 8.35 -15.4 9.55 -19.55 9.15 Q-17.8 7.45 -12.75 4.7 L-12.05 4.4 -11.4 4.15 Q-4.45 1.65 2.3 1.7 0.95 -0.45 -2.15 -3.15 L-7.9 -8.0 Q-10.55 -10.35 -12.45 -12.85 L-12.85 -13.3 Q-15.3 -16.75 -16.7 -20.45 L-16.55 -20.6 -16.05 -21.1 -15.05 -21.65 -12.75 -22.05 -5.8 -21.35 -1.5 -19.6 -1.3 -19.55 Q0.95 -18.55 5.45 -15.1 9.4 -12.15 11.7 -11.65 L11.7 -13.15 Q9.6 -16.9 8.15 -20.35 L8.1 -20.5 M14.75 12.3 Q14.75 14.5 8.2 19.2 3.05 22.85 -1.25 24.95 -0.4 22.35 1.45 19.85 L6.15 15.25 9.1 12.7 9.65 12.4 10.5 11.7 14.45 11.7 14.55 11.75 Q14.75 11.85 14.75 12.3" fill="#3e3c55" fill-rule="evenodd" stroke="none"/>
      <path d="M8.1 -20.5 L8.15 -20.35 Q9.6 -16.9 11.7 -13.15 L11.7 -11.65 Q9.4 -12.15 5.45 -15.1 0.95 -18.55 -1.3 -19.55 L-1.5 -19.6 -5.8 -21.35 -12.75 -22.05 -15.05 -21.65 -16.05 -21.1 -16.55 -20.6 -16.7 -20.45 Q-15.3 -16.75 -12.85 -13.3 L-12.45 -12.85 Q-10.55 -10.35 -7.9 -8.0 L-2.15 -3.15 Q0.95 -0.45 2.3 1.7 -4.45 1.65 -11.4 4.15 L-12.05 4.4 -12.75 4.7 Q-17.8 7.45 -19.55 9.15 L-15.4 9.55 7.8 8.35 15.9 6.95 Q28.1 4.15 28.1 -1.35 28.1 -5.75 23.0 -15.9 L22.3 -17.0 Q19.25 -21.95 15.9 -25.2 10.85 -30.2 5.4 -31.3 5.7 -26.2 8.1 -20.5 M15.9 -22.35 Q17.85 -20.3 20.1 -16.6 24.75 -8.85 24.75 -5.1 24.75 -4.05 24.45 -3.65 L23.55 -3.15 Q21.1 -6.5 17.3 -14.0 L15.9 -16.8 Q12.85 -22.75 11.3 -25.15 13.4 -25.05 15.9 -22.35 M-8.05 -17.05 L-8.0 -17.05 Q-4.75 -18.2 2.15 -13.35 9.1 -8.45 11.7 -4.55 L11.4 -4.25 0.85 -10.25 -5.45 -14.0 -9.0 -16.5 -8.7 -16.75 -8.05 -17.05 M14.75 12.3 Q14.75 11.85 14.55 11.75 L14.45 11.7 10.5 11.7 9.65 12.4 9.1 12.7 6.15 15.25 1.45 19.85 Q-0.4 22.35 -1.25 24.95 3.05 22.85 8.2 19.2 14.75 14.5 14.75 12.3 M11.1 13.0 Q10.8 15.8 4.75 19.7 L3.7 18.8 Q4.45 17.65 7.4 15.4 10.2 13.25 11.1 13.0 M-4.2 6.9 L-5.4 7.0 -10.1 7.55 Q-11.8 7.55 -12.3 6.95 L-12.65 5.95 Q-11.9 5.2 -10.3 4.9 L-5.2 4.55 Q-0.05 4.7 1.4 5.45 0.4 5.95 0.4 6.25 L-4.2 6.9" fill="#74759c" fill-rule="evenodd" stroke="none"/>
      <path d="M-8.05 -17.05 L-8.7 -16.75 -9.0 -16.5 -5.45 -14.0 0.85 -10.25 11.4 -4.25 11.7 -4.55 Q9.1 -8.45 2.15 -13.35 -4.75 -18.2 -8.0 -17.05 L-8.05 -17.05 M15.9 -22.35 Q13.4 -25.05 11.3 -25.15 12.85 -22.75 15.9 -16.8 L17.3 -14.0 Q21.1 -6.5 23.55 -3.15 L24.45 -3.65 Q24.75 -4.05 24.75 -5.1 24.75 -8.85 20.1 -16.6 17.85 -20.3 15.9 -22.35 M-4.2 6.9 L0.4 6.25 Q0.4 5.95 1.4 5.45 -0.05 4.7 -5.2 4.55 L-10.3 4.9 Q-11.9 5.2 -12.65 5.95 L-12.3 6.95 Q-11.8 7.55 -10.1 7.55 L-5.4 7.0 -4.2 6.9 M11.1 13.0 Q10.2 13.25 7.4 15.4 4.45 17.65 3.7 18.8 L4.75 19.7 Q10.8 15.8 11.1 13.0" fill="#979ab5" fill-rule="evenodd" stroke="none"/>
      <path d="M-13.6 2.15 Q-7.85 -1.15 -7.55 -1.45 L-15.0 -10.5 -15.05 -10.55 Q-16.35 -8.75 -16.35 -5.9 -16.35 -1.05 -13.6 2.15" fill="#d6e1a6" fill-rule="evenodd" stroke="none"/>
    </g>
    <g id="shape2" transform="matrix(1.0, 0.0, 0.0, 1.0, 9.75, 23.9)">
      <path d="M-7.15 7.7 Q-12.55 -6.75 -6.8 -21.15 L-7.15 -21.85 -7.25 -21.95 -7.15 -21.9 -6.8 -21.65 -6.55 -21.55 -6.75 -22.15 -7.0 -22.65 -6.75 -22.4 -6.75 -22.45 -7.15 -23.9 -6.7 -23.55 Q-1.3 -19.55 2.75 -12.0 L4.55 -8.4 Q7.45 -1.9 7.45 3.6 7.45 6.95 6.1 11.2 L5.4 13.2 4.65 15.0 Q1.2 23.35 -3.7 23.85 L-5.85 23.85 -6.8 21.6 -7.05 22.0 -7.25 20.2 -5.9 17.8 -5.9 13.6 -5.85 13.35 -5.85 11.25 -5.9 11.25 -5.9 6.75 -5.95 6.4 -5.25 -1.65 -5.25 -1.7 -5.25 -1.85 -5.35 -3.15 -5.35 -3.7 -5.45 -3.7 -5.55 -4.15 -5.85 -4.2 -5.7 -3.65 -5.6 -2.8 -6.5 2.95 -7.15 7.7 M3.8 3.75 Q2.35 -3.8 0.55 -8.4 -1.05 -12.5 -2.95 -14.35 -2.65 -13.65 -2.2 -10.7 L-1.9 -8.4 -1.8 -6.7 -0.45 0.05 Q-0.45 1.0 -2.65 7.15 L-3.0 8.2 Q-2.65 9.6 -2.45 11.2 L-2.3 13.2 -2.25 14.75 -2.2 16.3 Q-0.75 15.8 0.6 13.2 L1.5 11.2 1.9 10.1 3.8 3.75" fill="#c7b8d8" fill-rule="evenodd" stroke="none"/>
      <path d="M0.65 -3.85 L1.3 0.85 Q1.3 1.7 0.0 4.3 L-1.35 7.05 Q-1.35 7.8 -0.85 8.2 -0.4 8.7 0.55 8.7 1.8 8.7 2.75 6.0 L3.45 3.15 Q3.45 1.9 2.3 -1.05 1.05 -4.15 1.0 -5.25 L0.75 -5.25 0.65 -3.85 M3.8 3.75 L1.9 10.1 1.5 11.2 0.6 13.2 Q-0.75 15.8 -2.2 16.3 L-2.25 14.75 -2.3 13.2 -2.45 11.2 Q-2.65 9.6 -3.0 8.2 L-2.65 7.15 Q-0.45 1.0 -0.45 0.05 L-1.8 -6.7 -1.9 -8.4 -2.2 -10.7 Q-2.65 -13.65 -2.95 -14.35 -1.05 -12.5 0.55 -8.4 2.35 -3.8 3.8 3.75" fill="#f5f2fb" fill-rule="evenodd" stroke="none"/>
      <path d="M0.65 -3.85 L0.75 -5.25 1.0 -5.25 Q1.05 -4.15 2.3 -1.05 3.45 1.9 3.45 3.15 L2.75 6.0 Q1.8 8.7 0.55 8.7 -0.4 8.7 -0.85 8.2 -1.35 7.8 -1.35 7.05 L0.0 4.3 Q1.3 1.7 1.3 0.85 L0.65 -3.85" fill="#ffffff" fill-rule="evenodd" stroke="none"/>
      <path d="M-7.15 7.7 L-6.5 2.95 -5.6 -2.8 -5.7 -3.65 -5.85 -4.2 -5.55 -4.15 -5.45 -3.7 -5.35 -3.15 -5.25 -1.7 -5.25 -1.65 -5.95 6.4 -5.9 6.75 -5.9 11.25 -5.9 13.6 -5.9 17.8 -7.25 20.2 -7.4 18.35 -7.35 18.4 -7.4 17.5 -7.4 16.1 -7.4 13.6 -7.4 13.25 -7.4 13.2 -7.4 12.55 -7.35 11.2 -7.15 7.7" fill="#ad9dc8" fill-rule="evenodd" stroke="none"/>
    </g>
    <g id="shape3" transform="matrix(1.0, 0.0, 0.0, 1.0, 37.6, 48.3)">
      <path d="M35.1 -33.45 L35.2 -32.6 Q35.2 -31.65 33.65 -30.1 31.75 -28.2 28.8 -28.2 28.05 -28.2 27.85 -28.6 L31.55 -31.45 Q34.6 -33.5 35.1 -33.45 M19.25 -24.4 L21.4 -24.65 Q28.95 -25.05 33.1 -27.05 L34.2 -27.65 35.05 -28.2 Q37.6 -30.1 37.6 -32.55 37.6 -35.65 34.4 -38.2 32.5 -39.75 29.35 -41.1 L19.9 -44.55 8.5 -48.3 -10.6 -48.2 -18.5 -47.1 -19.45 -46.85 -22.3 -45.7 -20.65 -44.25 -20.3 -44.4 -20.3 -44.35 -20.3 -43.9 -19.85 -42.8 -19.75 -42.6 -19.35 -42.1 Q-16.6 -41.9 -11.55 -37.6 L-6.35 -35.9 Q-0.6 -34.2 5.05 -33.2 L19.9 -31.95 20.2 -31.95 24.65 -32.1 24.9 -30.0 24.9 -29.75 Q23.6 -28.25 19.9 -27.65 L19.55 -27.65 19.05 -27.55 18.2 -27.45 15.2 -27.4 11.2 -27.55 10.5 -27.65 7.25 -28.0 7.1 -27.35 Q6.45 -26.75 4.75 -26.35 L11.55 -25.9 16.65 -25.9 17.0 -25.9 17.4 -25.9 18.75 -25.9 19.25 -24.4 M-26.85 -41.15 L-26.95 -40.05 Q-26.95 -35.7 -19.35 -30.75 -17.65 -29.65 -15.8 -28.65 L-13.5 -27.65 -13.3 -27.55 -11.9 -27.05 -10.35 -26.5 -10.3 -26.25 -9.9 -29.1 -11.45 -29.65 -11.45 -29.35 Q-14.9 -30.35 -17.55 -31.75 L-18.05 -32.0 -18.15 -31.95 -19.05 -32.55 -21.05 -33.95 -21.25 -34.3 -22.1 -35.2 Q-22.45 -35.7 -22.45 -37.65 L-22.7 -37.8 -24.2 -39.25 -24.65 -39.75 -24.65 -39.35 -26.85 -41.15 M-10.2 -25.65 Q-10.2 -24.3 -10.5 -23.15 L-10.65 -22.85 Q-10.7 -22.5 -10.9 -22.05 -11.0 -21.65 -11.25 -21.15 -12.3 -18.85 -14.5 -16.95 L-18.2 -14.55 -14.1 -13.7 -13.65 -14.0 -11.3 -13.55 -10.5 -13.35 -8.75 -13.15 Q-6.4 -13.15 -5.8 -13.65 -5.25 -14.0 -5.2 -15.55 -5.05 -19.35 -4.35 -22.85 L-4.3 -23.15 -4.2 -23.45 -3.9 -23.45 -1.3 -23.15 -0.2 -22.85 Q4.05 -21.5 8.95 -17.4 13.05 -13.95 15.95 -12.4 L18.05 -2.85 Q20.05 7.45 20.05 10.8 L19.85 14.55 Q19.0 19.1 17.35 23.05 15.25 28.35 11.7 32.5 L10.05 33.9 Q7.55 35.6 4.4 35.9 6.8 34.55 9.4 32.0 13.9 27.6 14.9 23.05 L15.2 20.5 Q15.2 16.65 5.35 -0.65 L5.1 -0.95 3.8 -3.5 Q2.65 -5.65 1.95 -6.05 L1.9 -6.2 1.85 -6.1 1.65 -5.55 Q-3.9 -0.05 -2.75 5.5 L-2.7 5.5 -2.6 6.15 -2.7 5.65 -2.75 6.0 -2.8 7.0 -3.3 11.1 -3.35 11.5 -3.95 16.45 Q-4.4 19.7 -4.5 23.05 L-4.6 26.0 -5.45 24.15 -6.05 23.05 -6.75 21.85 -9.6 17.5 -9.9 17.05 Q-13.45 12.15 -11.2 25.35 L-11.65 24.05 Q-11.5 25.7 -11.5 27.95 -11.5 35.45 -13.5 40.05 -22.0 39.45 -27.3 36.7 L-28.4 36.0 -31.25 32.3 -29.85 35.05 -29.3 35.95 -32.95 34.5 Q-27.45 45.4 -17.5 47.75 L-15.55 45.65 -15.15 45.7 -15.15 45.35 Q-15.15 44.45 -8.4 43.4 0.75 41.95 7.6 39.0 9.4 38.2 11.1 36.8 13.6 34.75 15.95 31.4 L16.35 30.85 18.9 28.65 Q19.75 28.05 20.2 28.05 L20.95 28.35 Q21.4 28.75 21.55 29.3 L21.1 29.9 21.0 30.05 22.65 31.0 23.55 31.45 Q34.65 9.35 23.05 -12.55 L22.65 -14.05 22.2 -14.35 22.05 -14.9 Q21.55 -15.45 21.55 -15.75 L21.55 -16.0 21.55 -16.25 Q19.95 -19.5 18.65 -22.85 L18.5 -23.15 18.2 -23.9 16.25 -23.9 16.35 -24.3 15.1 -24.25 12.75 -24.1 7.9 -24.05 -3.85 -24.95 -7.6 -25.75 -8.1 -25.9 -8.1 -25.5 -8.1 -24.95 -10.2 -25.65 M-19.0 -41.7 Q-17.15 -39.75 -12.35 -37.9 L-15.55 -39.8 Q-17.9 -41.25 -19.0 -41.7 M6.1 -28.2 L5.9 -27.8 6.15 -28.05 6.2 -28.2 6.1 -28.2 M22.65 -12.05 L22.65 -12.0 22.55 -12.1 22.65 -12.05 M24.55 8.15 L24.45 6.65 24.55 8.0 24.55 8.15 M22.4 23.05 L22.4 23.1 22.4 23.45 22.2 23.05 22.1 22.8 22.05 22.8 22.4 22.35 22.4 23.05 M23.95 21.1 L23.95 23.2 23.9 23.45 23.9 21.1 23.95 21.1 M22.45 28.25 L22.4 28.25 22.4 28.2 22.45 28.25" fill="#c7b8d8" fill-rule="evenodd" stroke="none"/>
      <path d="M35.1 -33.45 Q34.6 -33.5 31.55 -31.45 L27.85 -28.6 Q28.05 -28.2 28.8 -28.2 31.75 -28.2 33.65 -30.1 35.2 -31.65 35.2 -32.6 L35.1 -33.45 M-17.5 47.75 L-13.25 48.3 -11.85 48.3 Q11.8 48.3 22.7 31.95 L22.75 31.85 22.65 31.0 21.0 30.05 21.1 29.9 21.55 29.3 Q21.4 28.75 20.95 28.35 L20.2 28.05 Q19.75 28.05 18.9 28.65 L16.35 30.85 15.95 31.4 Q13.6 34.75 11.1 36.8 9.4 38.2 7.6 39.0 0.75 41.95 -8.4 43.4 -15.15 44.45 -15.15 45.35 L-15.15 45.7 -15.55 45.65 -17.5 47.75 M23.95 21.1 L23.9 21.1 23.9 23.45 23.95 23.2 23.95 21.1 M22.4 23.05 L22.4 22.35 22.05 22.8 22.1 22.8 22.2 23.05 22.4 23.45 22.4 23.1 22.4 23.05" fill="#dbd3de" fill-rule="evenodd" stroke="none"/>
      <path d="M-22.3 -45.7 L-23.9 -44.75 -26.1 -42.6 -26.85 -41.15 -24.65 -39.35 -24.65 -39.75 -24.2 -39.25 -22.7 -37.8 -22.45 -37.65 -22.45 -38.0 Q-22.45 -39.9 -21.9 -40.85 -21.45 -42.85 -20.0 -42.85 L-19.85 -42.8 -20.3 -43.9 -20.3 -44.35 -20.3 -44.4 -20.65 -44.25 -22.3 -45.7 M7.25 -28.0 L10.5 -27.65 11.2 -27.55 15.2 -27.4 18.2 -27.45 19.05 -27.55 19.55 -27.65 19.9 -27.65 Q23.6 -28.25 24.9 -29.75 L24.9 -30.0 24.65 -32.1 20.2 -31.95 19.9 -31.95 5.05 -33.2 5.85 -32.2 9.95 -31.05 Q9.35 -29.95 6.4 -29.7 L6.4 -29.5 6.1 -28.2 6.2 -28.2 6.55 -29.05 Q6.75 -29.45 7.6 -29.4 L7.6 -29.15 7.25 -28.0 M1.9 -6.2 L1.95 -6.05 Q2.65 -5.65 3.8 -3.5 L5.1 -0.95 5.35 -0.65 Q15.2 16.65 15.2 20.5 L14.9 23.05 Q13.9 27.6 9.4 32.0 6.8 34.55 4.4 35.9 7.55 35.6 10.05 33.9 L11.7 32.5 Q15.25 28.35 17.35 23.05 19.0 19.1 19.85 14.55 L20.05 10.8 Q20.05 7.45 18.05 -2.85 L15.95 -12.4 Q13.05 -13.95 8.95 -17.4 4.05 -21.5 -0.2 -22.85 L-1.3 -23.15 -3.9 -23.45 -4.2 -23.45 -4.3 -23.15 -4.35 -22.85 Q-5.05 -19.35 -5.2 -15.55 -5.25 -14.0 -5.8 -13.65 -6.4 -13.15 -8.75 -13.15 L-10.5 -13.35 -11.3 -13.55 -13.65 -14.0 -14.1 -13.7 Q-16.45 -12.05 -21.65 -9.1 -27.75 -5.55 -30.65 -1.5 L-30.95 -1.1 Q-34.5 4.15 -35.15 12.3 L-35.2 15.45 Q-35.2 19.15 -34.35 23.05 -33.45 27.1 -31.6 31.4 L-31.25 32.3 -28.4 36.0 -27.3 36.7 Q-22.0 39.45 -13.5 40.05 -11.5 35.45 -11.5 27.95 -11.5 25.7 -11.65 24.05 L-11.2 25.35 Q-13.45 12.15 -9.9 17.05 L-9.6 17.5 -6.75 21.85 -6.05 23.05 -5.45 24.15 -4.6 26.0 -4.5 23.05 Q-4.4 19.7 -3.95 16.45 L-3.35 11.5 -3.3 11.1 -2.8 7.0 -2.75 6.0 -2.7 5.65 -2.75 5.5 Q-3.9 -0.05 1.65 -5.55 L1.55 -5.85 1.55 -6.2 1.1 -7.35 1.9 -6.2 M-16.2 -7.85 Q-13.9 -7.8 -13.9 -5.15 -25.2 7.45 -25.45 7.45 -27.0 7.45 -28.05 5.8 -28.75 4.5 -28.75 3.3 -28.75 -1.5 -21.35 -6.05 -18.3 -7.95 -16.2 -7.85 M-27.55 13.65 Q-26.05 13.65 -26.05 15.15 L-26.15 16.55 Q-26.6 18.2 -27.85 18.2 L-29.15 17.85 -29.35 17.45 -29.65 15.4 Q-29.05 13.65 -27.55 13.65" fill="#f5f2fb" fill-rule="evenodd" stroke="none"/>
      <path d="M5.05 -33.2 Q-0.6 -34.2 -6.35 -35.9 L-11.55 -37.6 -11.25 -37.35 Q-11.55 -37.45 -12.35 -37.9 -17.15 -39.75 -19.0 -41.7 L-19.65 -41.9 Q-20.95 -41.9 -21.35 -40.1 L-21.55 -38.25 -21.45 -36.9 Q-17.25 -34.05 -9.5 -31.7 L-6.95 -31.05 Q0.35 -29.1 6.1 -28.2 L6.4 -29.5 6.4 -29.7 5.05 -29.7 Q-0.2 -29.7 -6.6 -31.35 -13.45 -33.1 -13.45 -34.95 -13.45 -37.6 5.85 -32.2 L5.05 -33.2 M-19.35 -42.1 L-19.75 -42.6 -19.85 -42.8 -20.0 -42.85 Q-21.45 -42.85 -21.9 -40.85 -21.25 -42.1 -19.75 -42.1 L-19.35 -42.1" fill="#d6e1a6" fill-rule="evenodd" stroke="none"/>
      <path d="M4.75 -26.35 Q6.45 -26.75 7.1 -27.35 L7.25 -28.0 7.6 -29.15 7.6 -29.4 Q6.75 -29.45 6.55 -29.05 L6.2 -28.2 6.15 -28.05 5.9 -27.8 6.1 -28.2 Q0.35 -29.1 -6.95 -31.05 L-9.5 -31.7 Q-17.25 -34.05 -21.45 -36.9 L-21.55 -38.25 -21.35 -40.1 Q-20.95 -41.9 -19.65 -41.9 L-19.0 -41.7 Q-17.9 -41.25 -15.55 -39.8 L-12.35 -37.9 Q-11.55 -37.45 -11.25 -37.35 L-11.55 -37.6 Q-16.6 -41.9 -19.35 -42.1 L-19.75 -42.1 Q-21.25 -42.1 -21.9 -40.85 -22.45 -39.9 -22.45 -38.0 L-22.45 -37.65 Q-22.45 -35.7 -22.1 -35.2 L-21.25 -34.3 -21.05 -33.95 -19.05 -32.55 -18.15 -31.95 -18.05 -32.0 -17.55 -31.75 Q-14.9 -30.35 -11.45 -29.35 L-11.45 -29.65 -9.9 -29.1 -9.2 -28.95 -9.0 -28.6 -4.4 -27.65 -4.05 -27.55 -3.15 -27.4 -3.0 -27.4 -0.65 -27.05 2.1 -26.65 -2.1 -26.4 -1.85 -26.2 0.05 -26.05 4.75 -26.35" fill="#a9c146" fill-rule="evenodd" stroke="none"/>
      <path d="M-18.2 -14.55 L-20.65 -13.05 -23.9 -10.95 Q-30.3 -6.95 -33.3 -2.05 -36.85 3.45 -37.5 11.6 L-37.6 15.4 Q-37.6 19.2 -36.9 23.05 L-35.7 27.7 -33.8 32.6 -33.25 33.85 -32.95 34.5 -29.3 35.95 -29.85 35.05 -31.25 32.3 -31.6 31.4 Q-33.45 27.1 -34.35 23.05 -35.2 19.15 -35.2 15.45 L-35.15 12.3 Q-34.5 4.15 -30.95 -1.1 L-30.65 -1.5 Q-27.75 -5.55 -21.65 -9.1 -16.45 -12.05 -14.1 -13.7 L-18.2 -14.55 M6.4 -29.7 Q9.35 -29.95 9.95 -31.05 L5.85 -32.2 Q-13.45 -37.6 -13.45 -34.95 -13.45 -33.1 -6.6 -31.35 -0.2 -29.7 5.05 -29.7 L6.4 -29.7 M-16.2 -7.85 Q-18.3 -7.95 -21.35 -6.05 -28.75 -1.5 -28.75 3.3 -28.75 4.5 -28.05 5.8 -27.0 7.45 -25.45 7.45 -25.2 7.45 -13.9 -5.15 -13.9 -7.8 -16.2 -7.85 M-27.55 13.65 Q-29.05 13.65 -29.65 15.4 L-29.35 17.45 -29.15 17.85 -27.85 18.2 Q-26.6 18.2 -26.15 16.55 L-26.05 15.15 Q-26.05 13.65 -27.55 13.65" fill="#ffffff" fill-rule="evenodd" stroke="none"/>
      <path d="M1.55 -6.2 L1.55 -5.85 1.65 -5.55 1.85 -6.1 1.65 -6.3 1.55 -6.2 M24.55 8.15 L24.55 8.0 24.45 6.65 24.55 8.15 M-2.7 5.5 L-2.7 5.65 -2.6 6.15 -2.7 5.5" fill="#ad9dc8" fill-rule="evenodd" stroke="none"/>
      <path d="M-10.3 -26.25 L-10.2 -25.9 -10.2 -25.65 -8.1 -24.95 -8.1 -25.5 -8.1 -25.9 -7.6 -25.75 -3.85 -24.95 7.9 -24.05 12.75 -24.1 15.1 -24.25 16.35 -24.3 16.25 -23.9 18.2 -23.9 18.05 -24.35 19.25 -24.4 18.75 -25.9 17.4 -25.9 17.0 -25.9 16.65 -25.9 11.55 -25.9 4.75 -26.35 0.05 -26.05 -1.85 -26.2 -2.1 -26.4 2.1 -26.65 -0.65 -27.05 -3.0 -27.4 -3.15 -27.4 -4.05 -27.55 -4.4 -27.65 -9.0 -28.6 -9.2 -28.95 -9.9 -29.1 -10.3 -26.25" fill="#9c87bc" fill-rule="evenodd" stroke="none"/>
    </g>
    <g id="shape4" transform="matrix(1.0, 0.0, 0.0, 1.0, 20.3, 32.35)">
      <path d="M5.45 -14.75 Q5.85 -17.7 5.85 -20.05 L5.8 -23.8 5.7 -25.5 5.7 -25.9 5.7 -26.05 5.55 -29.5 5.45 -29.9 5.45 -30.05 5.4 -30.15 5.25 -30.5 5.15 -30.55 5.1 -30.75 5.0 -30.6 4.4 -26.05 3.3 -17.4 3.1 -15.65 3.1 -15.6 Q3.7 -14.45 4.3 -13.95 L4.4 -15.15 5.45 -14.75 M-2.3 -25.5 L-2.15 -26.05 -0.9 -29.35 -0.9 -30.5 -1.15 -30.5 Q-2.3 -27.6 -3.3 -26.35 L-3.3 -26.2 -3.2 -26.05 -4.15 -23.8 -2.3 -25.5" fill="#c7b8d8" fill-rule="evenodd" stroke="none"/>
      <path d="M-16.2 21.9 L-16.0 21.8 -16.2 21.8 -16.2 21.9" fill="#121f3a" fill-rule="evenodd" stroke="none"/>
      <path d="M5.25 -30.5 Q4.5 -32.35 2.55 -32.35 -1.6 -32.35 -3.7 -27.0 L-4.05 -26.05 -5.0 -23.15 -3.75 -26.05 -3.6 -26.5 -3.3 -26.5 -3.3 -26.35 Q-2.3 -27.6 -1.15 -30.5 L-0.9 -30.5 -0.9 -29.35 -2.15 -26.05 -2.3 -25.5 -1.75 -25.7 Q-1.15 -25.7 -0.35 -24.05 L-0.3 -24.35 0.35 -26.05 1.4 -29.6 1.45 -29.65 1.65 -29.85 1.8 -29.65 2.65 -29.05 2.8 -27.05 2.8 -26.05 Q2.65 -22.65 1.85 -18.25 2.5 -16.65 3.1 -15.6 L3.1 -15.65 3.3 -17.4 4.4 -26.05 5.0 -30.6 5.1 -30.75 5.15 -30.55 5.25 -30.5" fill="#f5f2fb" fill-rule="evenodd" stroke="none"/>
      <path d="M1.85 -18.25 Q2.65 -22.65 2.8 -26.05 L2.8 -27.05 2.65 -29.05 1.8 -29.65 1.65 -29.85 1.45 -29.65 1.4 -29.6 0.35 -26.05 -0.3 -24.35 -0.35 -24.05 Q-1.15 -20.6 -2.05 -13.3 L-3.2 -2.65 -3.2 -0.6 -2.8 -0.85 Q-1.75 -3.2 -0.8 -6.55 L0.85 -12.9 1.85 -18.25 M-7.2 12.85 Q-6.15 12.85 -5.85 12.1 L-5.85 11.35 -6.05 7.2 -6.45 6.2 Q-7.3 6.55 -8.0 8.9 L-8.55 11.55 Q-8.55 12.85 -7.2 12.85 M12.15 24.95 L6.4 21.9 Q0.35 18.8 -1.65 18.5 0.25 20.65 4.85 23.55 9.45 26.35 10.8 26.35 11.8 26.35 12.1 25.7 L12.15 24.95" fill="#ffffff" fill-rule="evenodd" stroke="none"/>
      <path d="M-0.35 -24.05 Q-1.15 -25.7 -1.75 -25.7 L-2.3 -25.5 -6.5 -13.5 Q-5.85 -14.35 -5.3 -15.8 -3.85 -20.15 -2.3 -21.5 L-2.05 -21.35 -2.05 -13.3 Q-1.15 -20.6 -0.35 -24.05 M1.85 -18.25 L0.85 -12.9 -0.8 -6.55 Q0.0 -5.1 1.2 -4.8 L1.65 -6.35 3.1 -15.6 Q2.5 -16.65 1.85 -18.25" fill="#a8a0bc" fill-rule="evenodd" stroke="none"/>
      <path d="M-5.0 -23.15 L-5.2 -22.65 -9.3 -12.75 -10.0 -10.9 -9.05 -11.2 -8.5 -12.55 -8.3 -12.55 Q-7.35 -12.55 -6.5 -13.5 L-2.3 -25.5 -4.15 -23.8 -3.2 -26.05 -3.3 -26.2 -3.3 -26.35 -3.3 -26.5 -3.6 -26.5 -3.75 -26.05 -5.0 -23.15 M3.7 -4.5 L3.95 -5.95 5.1 -12.35 5.25 -13.5 5.45 -14.75 4.4 -15.15 4.3 -13.95 Q3.7 -14.45 3.1 -15.6 L1.65 -6.35 1.2 -4.8 1.8 -4.75 2.8 -4.95 2.65 -4.5 3.7 -4.5" fill="#6f678f" fill-rule="evenodd" stroke="none"/>
      <path d="M-2.05 -13.3 L-2.05 -21.35 -2.3 -21.5 Q-3.85 -20.15 -5.3 -15.8 -5.85 -14.35 -6.5 -13.5 L-7.1 -11.75 -9.7 -4.45 -14.2 8.35 Q-15.15 10.1 -15.55 12.3 L-15.65 14.55 Q-15.65 17.7 -11.95 19.25 -6.8 20.9 -3.7 22.4 L4.5 26.3 7.3 27.2 12.7 27.95 14.4 27.6 15.8 27.2 15.85 27.2 Q15.7 26.0 14.85 24.1 L14.55 23.5 11.0 19.95 8.15 17.05 5.75 15.25 1.25 13.95 Q-2.3 12.85 -2.3 11.5 -2.3 9.8 -0.5 2.25 L1.15 -4.55 1.2 -4.8 Q0.0 -5.1 -0.8 -6.55 -1.75 -3.2 -2.8 -0.85 L-3.2 -0.6 -3.2 -2.65 -2.05 -13.3 M-7.2 12.85 Q-8.55 12.85 -8.55 11.55 L-8.0 8.9 Q-7.3 6.55 -6.45 6.2 L-6.05 7.2 -5.85 11.35 -5.85 12.1 Q-6.15 12.85 -7.2 12.85 M12.15 24.95 L12.1 25.7 Q11.8 26.35 10.8 26.35 9.45 26.35 4.85 23.55 0.25 20.65 -1.65 18.5 0.35 18.8 6.4 21.9 L12.15 24.95" fill="#74759c" fill-rule="evenodd" stroke="none"/>
      <path d="M-10.0 -10.9 L-12.2 -5.45 Q-16.0 4.5 -18.05 10.9 L-19.6 16.3 Q-20.3 17.7 -20.3 19.1 -20.3 20.75 -17.55 22.25 L-15.75 23.15 -14.45 24.2 -8.05 27.1 -7.7 27.2 -3.85 28.8 Q5.0 32.1 10.8 32.35 L17.45 32.35 Q18.65 32.3 19.55 30.95 20.25 29.9 20.25 29.2 20.25 28.4 19.55 27.2 L18.25 25.4 16.35 23.2 11.55 18.4 5.45 13.15 2.65 10.9 2.25 10.55 Q3.0 7.75 3.15 3.5 3.3 -2.45 3.7 -4.45 L3.7 -4.5 2.65 -4.5 2.8 -4.95 1.8 -4.75 1.2 -4.8 1.15 -4.55 -0.5 2.25 Q-2.3 9.8 -2.3 11.5 -2.3 12.85 1.25 13.95 L5.75 15.25 8.15 17.05 11.0 19.95 14.55 23.5 14.85 24.1 Q15.7 26.0 15.85 27.2 L15.8 27.2 14.4 27.6 12.7 27.95 7.3 27.2 4.5 26.3 -3.7 22.4 Q-6.8 20.9 -11.95 19.25 -15.65 17.7 -15.65 14.55 L-15.55 12.3 Q-15.15 10.1 -14.2 8.35 L-9.7 -4.45 -7.1 -11.75 -6.5 -13.5 Q-7.35 -12.55 -8.3 -12.55 L-8.5 -12.55 -9.05 -11.2 -10.0 -10.9 M-16.2 21.9 L-16.2 21.8 -16.0 21.8 -16.2 21.9" fill="#3e3c55" fill-rule="evenodd" stroke="none"/>
    </g>
    <g id="shape5" transform="matrix(1.0, 0.0, 0.0, 1.0, 8.9, 20.35)">
      <path d="M-7.0 -8.6 L-7.05 -8.25 -7.1 -7.25 -7.6 -3.15 -7.65 -2.75 -8.25 2.2 Q-8.7 5.45 -8.8 8.8 L-8.9 11.75 -8.75 16.35 Q-8.25 20.35 -6.2 20.35 L-5.5 20.35 Q1.8 20.05 6.05 14.3 7.4 12.4 8.35 10.1 L8.75 8.8 8.95 8.05 Q8.95 5.25 6.9 -0.6 L3.9 -8.3 1.5 -13.8 0.8 -15.2 -0.5 -17.75 Q-1.65 -19.9 -2.35 -20.3 L-2.45 -20.35 -2.65 -19.8 -1.05 -16.25 2.4 -8.75 3.85 -5.15 3.9 -4.95 6.75 2.8 Q7.55 5.5 7.55 6.9 L7.25 8.8 Q6.75 10.8 5.1 13.2 1.5 18.8 -5.25 18.8 -7.05 18.8 -7.45 15.35 L-7.35 11.75 -7.3 8.8 -6.9 2.8 -6.6 -0.75 -6.5 -1.45 -6.4 -2.9 Q-6.4 -5.75 -6.9 -8.1 L-7.0 -8.6" fill="#ad9dc8" fill-rule="evenodd" stroke="none"/>
      <path d="M-2.65 -19.8 Q-8.25 -14.25 -7.0 -8.6 L-7.0 -8.75 -6.9 -8.1 Q-6.4 -5.75 -6.4 -2.9 L-6.5 -1.45 -6.6 -0.75 -6.2 4.05 -5.6 8.8 Q-4.65 12.9 -2.65 12.9 -0.8 12.9 2.1 10.8 L4.2 8.8 Q5.75 6.85 5.75 4.6 5.75 1.05 4.2 -4.05 L3.9 -4.95 3.85 -5.15 2.4 -8.75 -1.05 -16.25 -2.65 -19.8 M-4.15 -14.1 L-4.05 -14.65 Q-0.35 -12.5 1.5 -4.3 2.45 -0.2 2.65 3.6 L2.4 4.95 Q1.8 6.3 0.2 6.3 -2.05 6.3 -3.05 -1.25 -3.75 -5.8 -3.75 -9.45 L-3.95 -12.35 -4.15 -14.1" fill="#f5f2fb" fill-rule="evenodd" stroke="none"/>
      <path d="M3.9 -4.95 L4.2 -4.05 Q5.75 1.05 5.75 4.6 5.75 6.85 4.2 8.8 L2.1 10.8 Q-0.8 12.9 -2.65 12.9 -4.65 12.9 -5.6 8.8 L-6.2 4.05 -6.6 -0.75 -6.9 2.8 -7.3 8.8 -7.35 11.75 -7.45 15.35 Q-7.05 18.8 -5.25 18.8 1.5 18.8 5.1 13.2 6.75 10.8 7.25 8.8 L7.55 6.9 Q7.55 5.5 6.75 2.8 L3.9 -4.95" fill="#c7b8d8" fill-rule="evenodd" stroke="none"/>
      <path d="M-4.15 -14.1 L-3.95 -12.35 -3.75 -9.45 Q-3.75 -5.8 -3.05 -1.25 -2.05 6.3 0.2 6.3 1.8 6.3 2.4 4.95 L2.65 3.6 Q2.45 -0.2 1.5 -4.3 -0.35 -12.5 -4.05 -14.65 L-4.15 -14.1" fill="#ffffff" fill-rule="evenodd" stroke="none"/>
    </g>
    <g id="shape6" transform="matrix(1.0, 0.0, 0.0, 1.0, 58.4, 71.35)">
      <path d="M-10.85 -69.8 L-10.45 -69.8 -10.85 -69.9 -10.85 -69.8" fill="#6b7c50" fill-rule="evenodd" stroke="none"/>
      <path d="M-40.5 -47.5 Q-40.4 -50.95 -37.7 -55.2 -35.9 -58.1 -33.4 -59.8 L-33.15 -60.0 Q-30.35 -61.8 -26.7 -62.2 -21.8 -64.6 -15.9 -64.6 L-12.8 -64.45 Q-4.25 -62.25 4.85 -54.2 15.45 -44.8 25.8 -28.1 L26.0 -27.8 30.35 -20.3 30.45 -20.05 30.55 -19.95 30.75 -19.55 33.75 -14.8 Q33.8 -14.2 35.4 -12.05 L36.55 -10.6 36.45 -10.55 36.6 -10.5 37.55 -8.9 38.6 -7.4 40.65 -4.55 42.45 -2.1 42.7 -1.25 43.2 -0.8 43.5 -0.35 44.1 -0.1 44.6 0.0 44.6 -0.55 44.6 -0.7 44.45 -2.55 43.75 -3.05 44.35 -3.15 Q42.95 -11.7 32.45 -29.6 22.6 -46.5 16.7 -51.1 13.0 -55.3 6.85 -59.9 3.05 -62.65 -0.55 -64.8 L-2.95 -66.1 Q-7.35 -68.5 -11.65 -69.8 L-11.65 -70.0 -13.45 -70.35 -14.7 -70.65 -14.75 -70.6 -17.1 -71.05 -18.5 -71.3 -18.65 -71.3 -18.8 -71.3 -18.95 -71.3 -19.05 -71.3 -21.1 -71.3 Q-31.9 -71.1 -39.3 -64.8 -45.05 -59.9 -48.75 -51.15 -51.8 -44.0 -53.1 -35.4 L-53.8 -29.65 -53.55 -29.7 -53.8 -28.1 -53.6 -27.15 Q-53.4 -17.2 -51.05 -2.6 L-50.55 -2.65 -50.5 -2.05 -50.95 -1.95 -50.85 -1.65 -50.45 1.05 -49.85 1.5 Q-49.55 1.8 -48.85 2.0 L-46.25 2.2 -46.1 2.2 -45.6 2.2 -45.25 2.25 -45.2 2.35 -44.55 2.2 -44.7 1.5 Q-45.3 -1.95 -45.8 -8.55 L-46.2 -14.8 -46.0 -14.6 -46.2 -22.2 Q-46.2 -29.2 -44.85 -35.4 -43.4 -41.95 -40.5 -47.5 M-52.15 -29.4 L-52.35 -29.2 -52.35 -29.7 -52.15 -29.4 M-37.8 -8.35 L-37.85 -8.3 -37.8 -8.3 -37.5 -8.3 -37.55 -8.6 -37.8 -8.35 M-39.3 25.5 L-38.95 25.5 -39.5 25.3 -39.3 25.5" fill="#a9c146" fill-rule="evenodd" stroke="none"/>
      <path d="M-40.5 -47.5 Q-43.4 -41.95 -44.85 -35.4 -46.2 -29.2 -46.2 -22.2 L-46.0 -14.6 -46.2 -14.8 -45.8 -8.55 Q-45.3 -1.95 -44.7 1.5 L-44.55 2.2 -39.7 1.75 -39.7 2.05 -35.85 2.45 -36.55 -0.8 -37.8 -8.3 -37.85 -8.3 -37.8 -8.35 -37.85 -8.95 -37.55 -8.9 -37.7 -16.1 Q-37.7 -26.5 -33.1 -35.4 L-31.65 -37.95 Q-25.0 -48.85 -15.3 -48.85 L-11.35 -48.55 Q-9.3 -52.2 -6.1 -52.9 L-5.4 -53.05 -5.15 -53.05 -3.35 -53.05 Q0.2 -52.6 4.85 -49.45 L7.05 -47.8 Q13.5 -43.1 18.75 -37.2 L19.3 -36.6 20.35 -35.4 Q23.25 -31.95 25.8 -28.1 15.45 -44.8 4.85 -54.2 -4.25 -62.25 -12.8 -64.45 L-15.9 -64.6 Q-21.8 -64.6 -26.7 -62.2 L-24.7 -62.3 -22.4 -62.2 Q-21.1 -61.8 -21.1 -60.5 -21.1 -59.5 -25.85 -56.5 -31.35 -52.95 -32.65 -51.6 -33.25 -50.9 -34.2 -45.95 -35.6 -41.25 -38.35 -41.25 -40.1 -41.25 -40.45 -43.95 L-40.5 -47.15 -40.5 -47.5 M30.35 -20.3 L26.0 -27.8 28.45 -23.5 30.35 -20.3 M-37.4 -28.95 Q-37.4 -27.45 -37.5 -27.55 L-38.25 -26.95 -39.55 -26.75 Q-41.0 -26.75 -41.2 -27.45 L-41.65 -28.85 Q-39.6 -31.6 -38.35 -30.85 -37.4 -30.35 -37.4 -28.95" fill="#c4d580" fill-rule="evenodd" stroke="none"/>
      <path d="M-26.7 -62.2 Q-30.35 -61.8 -33.15 -60.0 L-33.4 -59.8 Q-35.9 -58.1 -37.7 -55.2 -40.4 -50.95 -40.5 -47.5 L-40.5 -47.15 -40.45 -43.95 Q-40.1 -41.25 -38.35 -41.25 -35.6 -41.25 -34.2 -45.95 -33.25 -50.9 -32.65 -51.6 -31.35 -52.95 -25.85 -56.5 -21.1 -59.5 -21.1 -60.5 -21.1 -61.8 -22.4 -62.2 L-24.7 -62.3 -26.7 -62.2 M-7.4 -35.4 Q-7.05 -28.6 -3.3 -16.25 L-1.7 -11.1 -1.25 -9.75 1.75 -1.5 3.6 2.9 Q6.1 8.3 8.55 11.6 10.6 14.3 12.6 15.5 L12.95 15.2 13.4 14.55 13.5 13.0 12.95 10.3 9.9 -0.95 9.6 -2.05 7.15 -11.1 5.3 -18.5 3.6 -25.9 3.55 -26.1 Q2.3 -31.4 1.9 -33.95 L1.6 -35.4 Q0.6 -39.15 -3.0 -42.2 -7.45 -46.05 -7.45 -36.9 L-7.4 -35.4 M16.3 -18.5 Q16.15 -18.05 16.15 -17.25 L16.55 -16.4 18.75 -12.25 19.45 -11.1 19.75 -10.55 20.85 -8.55 25.55 0.0 25.85 0.05 Q24.05 -8.8 20.05 -15.4 L18.75 -17.35 Q16.7 -20.25 16.3 -18.5 M32.75 5.9 L32.7 5.7 Q32.25 3.95 31.7 3.6 32.4 4.85 32.4 5.4 32.4 7.35 31.8 9.2 30.95 11.7 29.3 12.15 L28.65 12.2 27.0 12.15 26.55 12.05 26.1 11.45 Q24.9 10.35 23.7 7.9 L23.4 7.4 Q22.05 5.45 20.85 4.75 20.05 4.2 19.25 4.2 L18.75 4.3 18.7 4.3 18.35 4.55 18.35 5.2 18.75 5.9 20.85 8.35 22.0 9.7 Q25.6 13.95 26.1 13.95 29.55 13.95 31.3 12.65 L32.6 11.4 32.7 11.15 32.75 10.8 33.2 8.05 32.75 5.9 M-37.4 -28.95 Q-37.4 -30.35 -38.35 -30.85 -39.6 -31.6 -41.65 -28.85 L-41.2 -27.45 Q-41.0 -26.75 -39.55 -26.75 L-38.25 -26.95 -37.5 -27.55 Q-37.4 -27.45 -37.4 -28.95 M-25.0 15.65 Q-25.0 15.6 -33.5 11.45 -41.95 8.15 -41.95 12.15 -41.95 14.0 -35.8 15.45 -30.75 16.65 -27.35 16.65 L-25.15 16.35 Q-25.0 16.35 -25.0 15.65 M-52.45 4.0 Q-55.0 2.3 -55.0 4.45 -55.0 5.3 -54.1 6.45 -53.0 7.8 -51.35 7.8 -50.5 7.8 -50.1 7.2 L-49.9 6.5 Q-49.9 5.65 -52.45 4.0 M46.95 37.95 L47.6 34.85 Q48.3 30.35 47.75 27.95 L47.25 26.8 Q46.75 25.85 46.0 26.05 45.4 26.3 44.75 26.85 43.7 28.05 42.75 30.9 41.95 33.6 41.3 37.7 L41.15 39.05 41.15 39.3 41.1 39.85 41.1 40.2 41.1 40.3 Q41.3 41.9 42.45 42.3 L42.55 42.3 42.85 42.35 44.55 42.15 Q45.6 41.45 46.4 39.85 L46.75 38.9 46.95 37.95 M46.55 44.8 L46.4 44.8 Q45.2 44.9 44.95 46.35 L45.1 47.3 45.15 47.3 45.75 47.7 Q46.4 47.85 46.9 47.1 L47.25 46.35 Q47.5 44.75 46.55 44.8 M-46.7 28.45 L-45.0 29.65 -44.45 29.5 Q-44.2 29.4 -44.2 28.9 -44.2 28.15 -45.65 26.15 -47.1 24.15 -47.1 26.65 -47.1 27.85 -46.7 28.45 M-38.55 36.8 Q-38.1 38.3 -35.6 39.4 L-34.75 39.75 Q-32.2 40.6 -28.95 40.6 L-27.5 40.5 -27.15 40.3 -27.05 40.05 Q-26.85 39.85 -26.85 38.9 -26.85 38.05 -29.0 36.8 L-29.55 36.5 Q-30.8 35.75 -32.8 34.85 -38.7 32.2 -38.7 36.0 L-38.55 36.8 M14.6 48.3 Q13.45 48.8 13.7 50.7 L13.85 51.55 14.05 51.9 14.45 52.35 14.55 52.5 Q15.2 53.05 16.15 52.75 17.3 52.45 17.5 51.4 L17.5 50.35 Q16.7 47.7 14.9 48.2 L14.6 48.3 M10.55 49.0 Q11.15 47.35 10.85 44.75 10.2 42.3 9.7 39.85 L9.45 39.2 9.3 39.0 Q8.2 35.3 6.45 33.45 4.7 31.65 3.05 32.25 2.65 32.35 2.35 32.75 1.3 33.5 0.9 35.45 L0.9 35.65 Q0.55 37.65 0.95 40.05 L1.15 41.3 1.25 41.5 1.5 42.5 2.45 45.15 3.7 47.55 4.6 48.8 Q6.45 51.4 8.4 50.85 10.0 50.45 10.55 49.0" fill="#ffffff" fill-rule="evenodd" stroke="none"/>
      <path d="M-44.55 2.2 L-45.2 2.35 -45.25 2.25 -45.6 2.2 -46.1 2.2 -46.2 2.3 -45.5 3.5 -46.7 4.5 Q-47.3 5.15 -47.7 6.15 -48.35 7.5 -48.35 9.45 L-48.25 11.15 -48.15 11.75 -47.2 15.15 -47.05 14.9 -46.7 15.95 -46.55 16.3 Q-44.85 19.2 -41.55 21.6 L-38.0 23.65 -34.15 25.35 -30.95 26.45 Q-27.7 27.5 -27.7 27.9 -27.7 28.35 -27.9 28.45 L-28.4 28.5 -34.7 27.15 -36.45 27.2 -37.85 27.35 -38.15 27.4 -39.0 27.45 -39.65 27.5 -39.95 27.5 -40.35 27.5 -40.5 27.7 Q-41.7 29.05 -41.7 29.35 L-41.9 30.6 Q-40.7 29.65 -38.0 29.65 L-35.15 29.85 -35.0 29.85 -26.95 30.25 -24.65 30.25 -23.7 30.2 -21.85 29.5 -20.75 24.35 Q-27.0 23.45 -34.15 20.85 -41.3 18.3 -44.4 15.4 -46.8 13.1 -46.8 10.55 L-46.25 8.15 -45.6 6.0 -44.1 6.0 -43.9 6.05 -35.1 8.45 Q-27.3 10.25 -21.55 10.25 L-20.75 10.25 -20.25 10.25 -19.35 10.2 -17.3 10.0 -17.0 9.95 -17.0 9.9 -16.95 9.75 -16.1 5.35 -16.25 5.4 -16.65 5.4 -16.45 4.25 -35.85 2.45 -39.7 2.05 -39.7 1.75 -44.55 2.2 M-50.45 1.05 L-50.85 -1.65 -50.95 -1.95 -50.5 -2.05 -50.55 -2.65 -51.05 -2.6 Q-55.0 -2.35 -56.95 0.25 -58.4 2.25 -58.4 5.15 -58.4 7.3 -55.6 11.0 -52.5 15.0 -49.55 15.2 L-50.55 12.8 -49.55 13.6 -49.6 12.35 -49.6 11.2 Q-51.35 10.5 -52.8 9.35 -55.9 6.95 -55.9 3.9 -55.9 2.9 -55.3 1.75 -54.55 0.25 -53.35 0.25 L-52.1 0.65 -52.4 1.1 -52.85 1.9 Q-52.85 3.2 -49.95 3.95 L-48.1 4.35 -46.65 3.1 -47.8 3.1 -48.65 3.1 Q-49.35 3.1 -50.1 2.5 L-50.15 2.45 -50.8 1.3 -50.7 0.8 -50.55 0.85 -50.45 1.05 M44.35 -3.15 L43.75 -3.05 44.45 -2.55 44.6 -0.7 44.6 -0.55 44.6 0.0 44.1 -0.1 43.5 -0.35 43.2 -0.8 42.7 -1.25 42.45 -2.1 40.65 -4.55 38.6 -7.4 37.55 -8.9 36.6 -10.5 36.45 -10.55 36.55 -10.6 35.4 -12.05 Q33.8 -14.2 33.75 -14.8 L30.75 -19.55 30.55 -19.95 30.45 -20.05 30.35 -20.3 28.45 -23.5 26.0 -27.8 25.8 -28.1 Q23.25 -31.95 20.35 -35.4 L19.3 -36.6 18.75 -37.2 Q13.5 -43.1 7.05 -47.8 L4.85 -49.45 Q0.2 -52.6 -3.35 -53.05 L-5.15 -53.05 -5.4 -53.05 -6.1 -52.9 Q-9.3 -52.2 -11.35 -48.55 -12.95 -45.8 -13.85 -41.4 L-14.75 -35.4 Q-15.1 -31.45 -15.1 -26.6 L-15.05 -20.3 -14.85 -16.6 -14.85 -16.25 -14.85 -11.1 -14.85 -10.9 -14.85 -8.1 -14.8 -6.95 -14.95 -6.95 -14.8 -5.2 Q-14.8 -3.85 -15.1 -2.6 L-15.35 -1.8 -15.4 -1.65 -15.5 -0.9 -15.6 -0.35 -15.85 0.95 -16.25 2.75 -16.4 3.15 -16.3 3.2 -15.7 3.45 -15.85 4.05 -13.9 4.2 -13.9 4.5 -13.85 4.55 Q-13.9 6.65 -14.4 9.45 L-15.05 12.8 -17.05 20.3 -17.25 20.9 -18.3 24.65 -18.4 25.05 Q-19.95 31.1 -20.25 34.5 L-20.25 35.3 -20.25 35.6 -20.25 36.5 -20.2 36.8 Q-19.9 41.65 -16.85 47.75 L-16.45 48.25 -15.3 49.6 Q-7.15 58.35 1.75 63.15 L2.3 63.45 3.6 64.15 6.15 65.3 Q11.7 67.6 17.45 68.45 L18.75 68.45 20.85 68.3 22.55 68.25 25.5 67.85 28.65 67.05 Q30.05 66.5 31.55 65.6 31.75 65.45 31.85 65.4 L30.25 65.3 Q27.4 65.05 25.3 64.4 L23.9 63.85 23.3 63.45 Q22.6 63.0 22.6 62.45 22.6 61.85 26.05 58.15 L26.35 57.75 Q23.85 58.75 20.85 59.35 L19.05 59.6 Q21.55 57.55 21.55 53.1 L21.45 51.0 Q20.95 43.45 16.7 35.5 10.9 24.75 2.75 24.75 0.95 24.75 -0.7 25.7 L-1.1 25.95 -1.1 26.05 -1.4 26.3 -2.15 27.05 -2.8 28.0 Q-4.25 31.2 -4.25 33.15 -4.25 38.55 -0.75 46.6 L-0.45 47.35 Q2.6 54.05 6.1 58.35 L6.1 58.55 5.9 58.5 5.4 58.3 Q3.15 57.3 0.9 55.7 -3.45 52.85 -8.45 48.25 L-9.05 47.65 -16.1 40.3 -16.95 36.8 -16.95 36.6 -16.95 36.5 -17.1 34.0 Q-17.1 29.4 -16.4 24.8 L-15.25 19.4 -15.0 19.0 Q-11.05 12.35 -11.05 11.75 L-11.35 8.6 -11.35 8.45 -11.35 8.15 Q-11.35 5.4 -9.65 5.4 -9.45 5.4 -8.7 5.9 L-8.65 5.95 -3.45 10.25 Q-7.05 4.0 -9.25 -6.35 L-9.35 -7.15 -10.0 -10.9 -10.1 -11.1 -10.75 -16.25 Q-11.35 -21.95 -11.35 -27.65 L-11.1 -35.4 Q-10.55 -43.25 -8.85 -48.0 L-8.15 -49.75 Q-6.65 -51.45 -4.75 -51.45 -1.4 -51.45 2.35 -49.45 L4.7 -47.8 Q8.15 -45.2 11.5 -41.65 L15.7 -36.6 16.6 -35.4 18.75 -32.3 24.1 -23.7 24.15 -23.5 31.15 -10.9 33.4 -6.35 34.9 -2.7 35.75 0.0 36.55 3.05 37.1 0.45 37.25 -0.6 Q38.85 -0.35 39.95 1.4 L40.6 2.55 40.65 2.6 41.0 3.4 Q42.3 6.6 42.3 10.05 42.3 13.1 40.55 21.9 38.75 31.0 38.65 34.2 38.35 42.45 37.95 45.15 36.95 51.7 34.65 53.85 L36.6 54.75 Q39.45 56.35 40.35 57.6 L40.65 57.2 42.65 54.7 41.5 54.5 40.85 54.2 Q40.05 53.6 39.55 52.25 39.25 51.4 39.1 50.2 L39.0 49.55 38.9 49.05 38.85 46.85 38.85 45.65 Q38.85 42.85 39.2 39.85 L39.2 39.6 39.3 39.05 39.25 38.8 39.6 35.95 40.55 31.65 Q41.45 27.95 42.6 25.0 L43.6 22.65 43.6 22.6 Q44.25 21.3 44.75 20.75 L45.1 20.55 45.8 20.05 Q47.0 19.4 48.1 20.6 L48.15 20.6 Q49.0 20.9 49.7 21.7 51.0 23.15 51.55 26.35 52.05 29.4 51.75 33.3 L51.4 36.9 51.3 37.4 50.9 39.6 50.7 40.5 50.7 40.6 50.1 43.6 49.7 45.1 49.25 46.3 Q48.35 48.75 47.0 50.7 L43.95 54.2 Q47.45 53.35 49.55 48.25 L50.4 45.9 Q51.7 41.65 52.05 36.5 L52.15 34.6 Q52.95 32.25 53.8 31.2 L54.1 30.85 54.25 31.2 54.35 31.5 55.1 33.1 55.4 33.9 55.7 32.25 56.0 30.8 56.05 30.35 55.95 29.75 55.95 29.7 56.0 29.5 56.0 29.35 56.1 29.1 56.1 29.05 56.0 27.3 56.0 26.9 55.55 23.7 55.3 22.55 55.0 21.5 55.0 21.2 53.5 16.75 53.45 16.65 53.3 16.55 53.2 16.45 53.2 16.05 52.4 14.45 52.3 14.2 Q50.85 11.3 48.75 8.5 L47.15 6.45 46.85 6.45 46.75 6.0 46.6 5.75 46.55 5.75 45.95 5.6 45.8 5.15 45.95 4.95 45.4 4.3 44.15 3.1 43.95 2.8 43.85 2.75 44.15 2.85 47.2 3.75 49.3 6.3 49.45 6.45 49.7 6.75 50.35 7.75 51.15 9.05 51.6 9.9 51.6 9.95 52.0 11.1 52.05 11.3 53.4 13.8 53.4 13.75 53.4 13.5 54.45 15.65 54.45 15.75 55.0 16.65 55.5 18.05 55.85 19.05 55.85 19.15 55.95 19.35 56.25 20.45 57.1 23.4 57.15 22.55 57.15 21.45 58.25 27.35 58.3 26.85 58.35 22.55 Q58.35 19.0 57.95 17.6 57.15 15.15 54.8 14.3 L55.2 9.7 Q55.2 6.45 53.45 3.35 51.6 0.05 48.55 -0.6 L46.95 -2.05 Q45.45 -3.2 44.35 -3.15 M20.45 16.5 L20.85 16.8 Q23.0 18.55 25.8 18.55 29.9 18.55 32.3 16.15 33.75 14.6 34.4 12.25 35.4 9.75 35.4 7.1 L34.45 0.6 Q34.3 -0.35 33.3 -0.85 L32.7 -1.1 31.5 -1.5 Q30.35 -3.65 29.55 -6.35 L29.5 -6.65 Q28.95 -8.65 27.6 -10.9 26.15 -13.35 23.85 -16.0 21.15 -19.15 18.75 -20.75 17.15 -21.8 15.6 -22.1 L15.4 -22.2 15.4 -22.1 15.6 -22.0 16.0 -21.8 16.6 -21.45 18.05 -20.3 18.75 -19.55 21.15 -16.95 25.3 -10.9 Q26.65 -8.65 27.6 -6.35 L29.15 -2.25 29.7 -0.4 29.75 -0.2 30.05 -0.2 30.9 0.0 Q32.55 0.55 33.3 2.95 L33.8 4.8 33.9 5.5 34.05 7.45 Q34.05 9.9 32.95 11.9 L32.7 13.05 Q31.2 16.0 28.0 17.0 L27.7 17.05 24.65 17.4 Q22.55 17.4 20.85 16.6 L20.45 16.5 M-48.35 18.0 L-49.65 21.7 Q-51.25 26.55 -51.25 28.8 -51.25 31.9 -49.25 35.0 L-47.9 36.8 -44.75 40.2 -45.1 36.6 -44.95 36.8 -44.4 37.6 -44.5 36.8 -44.55 34.9 -44.55 34.45 -45.5 33.2 -45.95 32.35 Q-47.4 29.85 -47.4 27.95 L-47.3 25.35 Q-47.05 24.6 -45.6 23.6 -45.7 24.6 -44.75 25.85 L-43.05 27.7 Q-42.2 26.85 -41.05 26.45 L-41.25 26.25 -41.55 25.95 -42.45 24.45 -42.7 24.0 -42.75 23.85 -43.2 23.05 -44.55 21.9 -46.85 19.6 -47.25 20.6 -48.35 18.0 M-42.95 42.2 Q-40.7 46.75 -35.3 50.2 L-34.75 50.55 Q-26.5 55.65 -4.65 62.9 L-10.4 58.3 -8.7 58.85 -11.95 56.45 -13.95 54.5 -14.1 54.55 Q-17.15 51.95 -19.1 48.9 L-19.6 48.35 -27.15 46.55 Q-31.35 45.4 -34.75 43.95 L-41.5 40.25 -41.55 40.2 -41.55 40.3 -42.95 42.2 M-40.65 26.05 L-40.55 26.25 -40.5 26.2 -40.65 26.05 M-1.4 27.45 Q-0.8 26.65 0.0 26.3 L1.7 25.9 1.9 25.85 3.8 26.0 Q5.4 26.3 7.05 27.15 9.4 28.5 11.8 30.9 L12.45 31.65 14.35 33.95 16.3 37.0 16.4 37.2 Q17.5 39.15 18.25 41.3 L19.0 43.45 19.15 43.9 19.25 45.0 19.6 46.85 20.3 50.9 20.35 51.2 20.25 54.8 Q19.9 56.5 19.2 57.65 L18.1 58.85 17.25 59.4 16.65 59.6 16.25 59.7 Q13.5 60.3 10.7 59.05 L10.4 59.0 8.95 58.05 6.7 56.2 4.55 53.85 4.1 53.4 3.9 53.1 2.75 51.6 1.2 49.2 -0.95 45.15 -1.55 43.35 -1.6 43.05 -1.8 42.35 -1.9 42.15 Q-4.1 33.85 -2.65 29.6 L-2.45 29.05 -1.6 27.7 -1.4 27.45" fill="#c7b8d8" fill-rule="evenodd" stroke="none"/>
      <path d="M-46.1 2.2 L-46.25 2.2 -48.85 2.0 Q-49.55 1.8 -49.85 1.5 L-50.45 1.05 -50.55 0.85 -50.7 0.8 -50.8 1.3 -50.15 2.45 -50.1 2.5 Q-49.35 3.1 -48.65 3.1 L-47.8 3.1 -46.2 2.3 -46.1 2.2 M-52.15 -29.4 L-52.35 -29.7 -52.35 -29.2 -52.15 -29.4 M44.15 2.85 L43.85 2.75 43.95 2.8 44.15 3.1 44.15 2.85" fill="#4a3e53" fill-rule="evenodd" stroke="none"/>
      <path d="M34.65 53.85 Q36.95 51.7 37.95 45.15 38.35 42.45 38.65 34.2 38.75 31.0 40.55 21.9 42.3 13.1 42.3 10.05 42.3 6.6 41.0 3.4 L40.65 2.6 40.6 2.55 39.95 1.4 Q38.85 -0.35 37.25 -0.6 L37.1 0.45 36.55 3.05 35.75 0.0 34.9 -2.7 33.4 -6.35 31.15 -10.9 24.15 -23.5 24.1 -23.7 18.75 -32.3 16.6 -35.4 15.7 -36.6 11.5 -41.65 Q8.15 -45.2 4.7 -47.8 L2.35 -49.45 Q-1.4 -51.45 -4.75 -51.45 -6.65 -51.45 -8.15 -49.75 L-8.85 -48.0 Q-10.55 -43.25 -11.1 -35.4 L-11.35 -27.65 Q-11.35 -21.95 -10.75 -16.25 L-10.1 -11.1 -10.0 -10.9 -9.35 -7.15 -9.25 -6.35 Q-7.05 4.0 -3.45 10.25 L-8.65 5.95 -8.7 5.9 Q-9.45 5.4 -9.65 5.4 -11.35 5.4 -11.35 8.15 L-11.35 8.45 -11.35 8.6 -11.05 11.75 Q-11.05 12.35 -15.0 19.0 L-15.25 19.4 -16.4 24.8 Q-17.1 29.4 -17.1 34.0 L-16.95 36.5 -16.95 36.6 -16.95 36.8 -16.1 40.3 -9.05 47.65 -8.45 48.25 Q-3.45 52.85 0.9 55.7 3.15 57.3 5.4 58.3 L5.9 58.5 6.1 58.55 6.1 58.35 Q2.6 54.05 -0.45 47.35 L-0.75 46.6 Q-4.25 38.55 -4.25 33.15 -4.25 31.2 -2.8 28.0 L-2.15 27.05 -1.4 26.3 -1.1 26.05 -1.1 25.95 -0.7 25.7 Q0.95 24.75 2.75 24.75 10.9 24.75 16.7 35.5 20.95 43.45 21.45 51.0 L21.55 53.1 Q21.55 57.55 19.05 59.6 L20.85 59.35 Q23.85 58.75 26.35 57.75 29.4 54.5 30.15 53.95 30.75 53.4 31.6 53.35 L33.25 53.4 34.65 53.85 M-7.4 -35.4 L-7.45 -36.9 Q-7.45 -46.05 -3.0 -42.2 0.6 -39.15 1.6 -35.4 L1.9 -33.95 Q2.3 -31.4 3.55 -26.1 L3.6 -25.9 5.3 -18.5 7.15 -11.1 9.6 -2.05 9.9 -0.95 12.95 10.3 13.5 13.0 13.4 14.55 12.95 15.2 12.6 15.5 Q10.6 14.3 8.55 11.6 6.1 8.3 3.6 2.9 L1.75 -1.5 -1.25 -9.75 -1.7 -11.1 -3.3 -16.25 Q-7.05 -28.6 -7.4 -35.4 M20.45 16.5 Q19.55 15.95 18.75 15.2 17.75 14.25 17.0 12.9 15.85 10.85 15.5 8.8 L15.45 7.35 Q15.45 5.45 15.6 5.15 L17.6 2.65 17.55 2.55 17.8 2.5 18.1 2.15 18.05 2.05 16.25 -2.8 14.95 -6.35 13.45 -10.9 13.4 -11.1 12.95 -12.5 Q11.7 -16.8 11.7 -18.35 L11.8 -20.3 Q12.1 -21.75 12.95 -22.25 L14.65 -22.4 15.4 -22.1 15.4 -22.2 15.6 -22.1 Q17.15 -21.8 18.75 -20.75 21.15 -19.15 23.85 -16.0 26.15 -13.35 27.6 -10.9 28.95 -8.65 29.5 -6.65 L29.55 -6.35 Q30.35 -3.65 31.5 -1.5 L32.7 -1.1 33.3 -0.85 Q34.3 -0.35 34.45 0.6 L35.4 7.1 Q35.4 9.75 34.4 12.25 33.75 14.6 32.3 16.15 29.9 18.55 25.8 18.55 23.0 18.55 20.85 16.8 L20.45 16.5 M-17.0 9.95 L-17.3 10.0 -19.35 10.2 -20.25 10.25 -20.75 10.25 -21.55 10.25 Q-27.3 10.25 -35.1 8.45 L-43.9 6.05 -44.1 6.0 -45.6 6.0 -46.25 8.15 -46.8 10.55 Q-46.8 13.1 -44.4 15.4 -41.3 18.3 -34.15 20.85 -27.0 23.45 -20.75 24.35 L-20.75 24.2 -19.35 18.75 -18.5 15.75 -17.55 12.05 -17.0 9.95 M-21.85 29.5 L-23.7 30.2 -24.65 30.25 -26.95 30.25 -35.0 29.85 -35.15 29.85 -38.0 29.65 Q-40.7 29.65 -41.9 30.6 L-42.25 32.0 -42.75 34.7 -42.55 36.8 Q-42.25 38.55 -41.55 40.2 L-41.5 40.25 -34.75 43.95 Q-31.35 45.4 -27.15 46.55 L-19.6 48.35 -19.65 48.25 -19.65 48.2 -19.65 48.0 Q-19.65 47.05 -20.55 45.6 L-22.2 39.65 -22.4 36.8 -22.4 36.5 -22.4 35.5 -22.25 32.8 -22.25 32.75 -21.85 29.5 M-25.0 15.65 Q-25.0 16.35 -25.15 16.35 L-27.35 16.65 Q-30.75 16.65 -35.8 15.45 -41.95 14.0 -41.95 12.15 -41.95 8.15 -33.5 11.45 -25.0 15.6 -25.0 15.65 M-48.1 4.35 L-49.95 3.95 Q-52.85 3.2 -52.85 1.9 L-52.4 1.1 -52.1 0.65 -53.35 0.25 Q-54.55 0.25 -55.3 1.75 -55.9 2.9 -55.9 3.9 -55.9 6.95 -52.8 9.35 -51.35 10.5 -49.6 11.2 L-49.35 7.7 -49.25 6.95 -48.85 5.65 -48.2 4.5 -48.1 4.35 M-52.45 4.0 Q-49.9 5.65 -49.9 6.5 L-50.1 7.2 Q-50.5 7.8 -51.35 7.8 -53.0 7.8 -54.1 6.45 -55.0 5.3 -55.0 4.45 -55.0 2.3 -52.45 4.0 M-43.05 27.7 L-44.75 25.85 Q-45.7 24.6 -45.6 23.6 -47.05 24.6 -47.3 25.35 L-47.4 27.95 Q-47.4 29.85 -45.95 32.35 L-45.5 33.2 -44.55 34.45 Q-44.55 30.55 -44.2 29.6 -43.85 28.5 -43.05 27.7 M-46.7 28.45 Q-47.1 27.85 -47.1 26.65 -47.1 24.15 -45.65 26.15 -44.2 28.15 -44.2 28.9 -44.2 29.4 -44.45 29.5 L-45.0 29.65 -46.7 28.45 M-38.55 36.8 L-38.7 36.0 Q-38.7 32.2 -32.8 34.85 -30.8 35.75 -29.55 36.5 L-29.0 36.8 Q-26.85 38.05 -26.85 38.9 -26.85 39.85 -27.05 40.05 L-27.15 40.3 -27.5 40.5 -28.95 40.6 Q-32.2 40.6 -34.75 39.75 L-35.6 39.4 Q-38.1 38.3 -38.55 36.8" fill="#f5f2fb" fill-rule="evenodd" stroke="none"/>
      <path d="M15.4 -22.1 L14.65 -22.4 12.95 -22.25 Q12.1 -21.75 11.8 -20.3 L11.7 -18.35 Q11.7 -16.8 12.95 -12.5 L13.4 -11.1 13.45 -10.9 14.95 -6.35 16.25 -2.8 18.05 2.05 18.1 2.15 17.8 2.5 17.55 2.55 17.6 2.65 15.6 5.15 Q15.45 5.45 15.45 7.35 L15.5 8.8 Q15.85 10.85 17.0 12.9 17.75 14.25 18.75 15.2 19.55 15.95 20.45 16.5 L20.85 16.6 Q22.55 17.4 24.65 17.4 L27.7 17.05 28.0 17.0 Q31.2 16.0 32.7 13.05 L32.95 11.9 Q34.05 9.9 34.05 7.45 L33.9 5.5 33.8 4.8 33.3 2.95 Q32.55 0.55 30.9 0.0 L30.05 -0.2 29.75 -0.2 29.7 -0.4 29.15 -2.25 27.6 -6.35 Q26.65 -8.65 25.3 -10.9 L21.15 -16.95 18.75 -19.55 18.05 -20.3 16.6 -21.45 16.0 -21.8 15.6 -22.0 15.4 -22.1 M14.4 -19.9 Q14.4 -20.8 14.55 -21.25 L16.15 -21.25 17.4 -20.3 18.75 -18.85 Q20.55 -16.85 22.15 -14.1 L24.1 -10.3 Q25.85 -6.35 26.65 -2.95 27.45 0.05 27.45 2.65 L27.15 5.1 Q25.2 3.4 20.85 -4.55 L19.85 -6.35 18.75 -8.4 17.45 -11.1 16.75 -12.5 Q14.4 -17.7 14.4 -19.9 M29.3 12.15 Q31.4 11.1 31.4 6.2 L31.15 4.25 30.9 3.35 29.85 0.05 30.15 0.2 Q30.85 0.45 31.3 0.95 L32.4 3.35 32.75 5.9 33.2 8.05 32.75 10.8 32.7 11.15 32.6 11.4 31.3 12.65 Q30.0 14.75 27.25 14.75 24.1 14.75 20.85 11.45 L20.1 10.65 18.75 8.9 Q16.95 6.55 16.65 6.55 L16.35 6.6 Q16.4 5.7 16.65 5.35 L18.35 3.1 18.45 3.05 18.55 3.2 18.75 2.85 18.85 2.8 19.25 2.65 19.6 2.6 Q20.1 2.65 20.45 2.85 L20.85 3.1 22.0 4.35 23.2 6.8 23.7 7.9 Q24.9 10.35 26.1 11.45 L27.0 12.15 28.65 12.2 29.3 12.15" fill="#cfcf63" fill-rule="evenodd" stroke="none"/>
      <path d="M14.4 -19.9 Q14.4 -17.7 16.75 -12.5 L17.45 -11.1 18.75 -8.4 19.85 -6.35 20.85 -4.55 Q25.2 3.4 27.15 5.1 L27.45 2.65 Q27.45 0.05 26.65 -2.95 25.85 -6.35 24.1 -10.3 L22.15 -14.1 Q20.55 -16.85 18.75 -18.85 L17.4 -20.3 16.15 -21.25 14.55 -21.25 Q14.4 -20.8 14.4 -19.9 M16.3 -18.5 Q16.7 -20.25 18.75 -17.35 L20.05 -15.4 Q24.05 -8.8 25.85 0.05 L25.55 0.0 20.85 -8.55 19.75 -10.55 19.45 -11.1 18.75 -12.25 16.55 -16.4 16.15 -17.25 Q16.15 -18.05 16.3 -18.5 M32.75 5.9 L32.4 3.35 31.3 0.95 Q30.85 0.45 30.15 0.2 L29.85 0.05 30.9 3.35 31.15 4.25 31.4 6.2 Q31.4 11.1 29.3 12.15 30.95 11.7 31.8 9.2 32.4 7.35 32.4 5.4 32.4 4.85 31.7 3.6 32.25 3.95 32.7 5.7 L32.75 5.9 M27.0 12.15 L26.1 11.45 26.55 12.05 27.0 12.15 M23.7 7.9 L23.2 6.8 22.0 4.35 20.85 3.1 20.45 2.85 Q20.1 2.65 19.6 2.6 L19.25 2.65 18.85 2.8 18.75 2.85 18.55 3.2 18.45 3.05 18.35 3.1 16.65 5.35 Q16.4 5.7 16.35 6.6 L16.65 6.55 Q16.95 6.55 18.75 8.9 L20.1 10.65 20.85 11.45 Q24.1 14.75 27.25 14.75 30.0 14.75 31.3 12.65 29.55 13.95 26.1 13.95 25.6 13.95 22.0 9.7 L20.85 8.35 18.75 5.9 18.35 5.2 18.35 4.55 18.7 4.3 18.75 4.3 19.25 4.2 Q20.05 4.2 20.85 4.75 22.05 5.45 23.4 7.4 L23.7 7.9" fill="#f8f8ba" fill-rule="evenodd" stroke="none"/>
      <path d="M-15.85 4.05 L-15.7 3.45 -16.3 3.2 -16.4 3.15 -16.25 2.75 -15.85 0.95 -15.6 -0.35 -15.5 -0.9 -15.4 -1.65 -15.35 -1.8 -15.1 -2.6 Q-14.8 -3.85 -14.8 -5.2 L-14.95 -6.95 -14.8 -6.95 -14.85 -8.1 -14.85 -10.9 -14.85 -11.1 -14.85 -16.25 -14.85 -16.6 -15.05 -20.3 -15.1 -26.6 Q-15.1 -31.45 -14.75 -35.4 L-13.85 -41.4 Q-12.95 -45.8 -11.35 -48.55 L-15.3 -48.85 Q-25.0 -48.85 -31.65 -37.95 L-33.1 -35.4 Q-37.7 -26.5 -37.7 -16.1 L-37.55 -8.9 -37.3 -8.85 -37.55 -8.6 -37.5 -8.3 -37.8 -8.3 -36.55 -0.8 -35.85 2.45 -16.45 4.25 -15.9 4.3 -15.9 4.35 -15.85 4.05" fill="#d6e1a6" fill-rule="evenodd" stroke="none"/>
      <path d="M43.95 54.2 L47.0 50.7 Q48.35 48.75 49.25 46.3 L49.7 45.1 50.1 43.6 50.7 40.6 50.7 40.5 50.9 39.6 51.3 37.4 51.4 36.9 51.75 33.3 Q52.05 29.4 51.55 26.35 51.0 23.15 49.7 21.7 49.0 20.9 48.15 20.6 L48.1 20.6 Q47.0 19.4 45.8 20.05 L45.1 20.55 44.75 20.75 Q44.25 21.3 43.6 22.6 L43.6 22.65 42.6 25.0 Q41.45 27.95 40.55 31.65 L39.6 35.95 39.25 38.8 39.3 39.05 39.2 39.6 39.2 39.85 Q38.85 42.85 38.85 45.65 L38.85 46.85 38.9 49.05 39.0 49.55 39.1 50.2 Q39.25 51.4 39.55 52.25 40.05 53.6 40.85 54.2 L41.5 54.5 42.65 54.7 43.3 54.75 43.95 54.2 M39.4 44.6 L40.0 39.15 40.0 38.9 40.15 37.95 40.6 34.85 41.2 31.75 41.6 29.9 41.75 29.5 41.95 28.55 42.25 27.65 Q42.7 25.7 43.45 24.35 44.4 22.45 45.5 21.9 L47.15 21.6 48.0 21.9 48.4 22.25 49.0 22.9 49.15 23.0 Q50.65 26.45 51.0 29.35 51.15 30.9 50.9 33.2 L50.55 36.9 50.0 40.2 49.95 40.35 49.55 42.05 48.55 45.65 Q47.55 48.55 46.1 50.55 L45.7 51.1 44.35 52.6 43.55 53.3 43.2 53.6 41.75 53.4 41.6 53.3 41.0 52.55 Q40.3 51.3 39.85 49.65 L39.75 49.45 39.55 48.05 39.4 45.65 39.4 44.6 M-1.4 27.45 L-1.6 27.7 -2.45 29.05 -2.65 29.6 Q-4.1 33.85 -1.9 42.15 L-1.8 42.35 -1.6 43.05 -1.55 43.35 -0.95 45.15 1.2 49.2 2.75 51.6 3.9 53.1 4.1 53.4 4.55 53.85 6.7 56.2 8.95 58.05 10.4 59.0 10.7 59.05 Q13.5 60.3 16.25 59.7 L16.65 59.6 17.25 59.4 18.1 58.85 19.2 57.65 Q19.9 56.5 20.25 54.8 L20.35 51.2 20.3 50.9 19.6 46.85 19.25 45.0 19.15 43.9 19.0 43.45 18.25 41.3 Q17.5 39.15 16.4 37.2 L16.3 37.0 14.35 33.95 12.45 31.65 11.8 30.9 Q9.4 28.5 7.05 27.15 5.4 26.3 3.8 26.0 L1.9 25.85 1.7 25.9 0.0 26.3 Q-0.8 26.65 -1.4 27.45 M4.65 52.45 L3.9 51.55 3.8 51.35 3.4 50.8 Q0.7 47.1 -0.75 42.7 L-0.8 42.45 -0.95 42.15 -1.05 41.9 -1.3 41.0 -1.95 38.2 Q-2.75 34.05 -2.2 31.3 L-2.15 31.1 Q-1.85 29.65 -1.1 28.55 L-0.4 27.6 1.85 27.35 2.35 27.3 Q5.0 27.2 7.45 28.45 9.3 29.4 11.05 31.15 L13.0 33.45 15.0 36.35 15.45 37.2 15.6 37.45 Q16.85 39.95 17.75 42.7 L18.25 44.15 18.9 47.05 19.45 51.3 19.5 52.2 Q19.5 56.45 17.7 58.2 L17.6 58.25 15.15 58.9 14.95 58.9 Q10.0 57.9 6.05 53.9 L4.65 52.45" fill="#0f1735" fill-rule="evenodd" stroke="none"/>
      <path d="M46.95 37.95 Q48.1 35.35 48.55 32.85 L48.75 31.95 49.25 27.9 Q49.15 26.8 48.15 24.45 L47.85 23.5 47.75 23.4 47.6 23.15 47.6 23.1 47.15 22.8 Q46.1 22.65 45.2 23.95 44.65 24.8 44.05 26.25 43.3 28.3 42.75 30.9 43.7 28.05 44.75 26.85 45.4 26.3 46.0 26.05 46.75 25.85 47.25 26.8 L47.75 27.95 Q48.3 30.35 47.6 34.85 L46.95 37.95 M10.55 49.0 Q11.7 47.75 11.9 45.6 L12.0 44.55 Q12.0 42.2 11.15 38.75 L11.0 38.5 10.7 37.4 Q10.0 34.7 8.6 32.5 L8.15 31.95 8.0 31.65 Q6.1 29.05 4.05 28.85 3.55 28.45 2.85 28.6 L2.7 28.65 2.0 28.9 Q0.4 29.65 -0.3 31.45 L-0.5 32.15 Q-1.05 34.15 -0.55 36.85 L-0.2 38.25 0.45 40.45 0.6 40.85 0.75 41.4 0.95 41.6 2.45 45.15 1.5 42.5 1.25 41.5 1.15 41.3 0.95 40.05 Q0.55 37.65 0.9 35.65 L0.9 35.45 Q1.3 33.5 2.35 32.75 2.65 32.35 3.05 32.25 4.7 31.65 6.45 33.45 8.2 35.3 9.3 39.0 L9.45 39.2 9.7 39.85 Q10.2 42.3 10.85 44.75 11.15 47.35 10.55 49.0" fill="#0c1427" fill-rule="evenodd" stroke="none"/>
      <path d="M42.75 30.9 Q43.3 28.3 44.05 26.25 44.65 24.8 45.2 23.95 46.1 22.65 47.15 22.8 L47.6 23.1 47.6 23.15 47.75 23.4 47.85 23.5 48.15 24.45 Q49.15 26.8 49.25 27.9 L48.75 31.95 48.55 32.85 Q48.1 35.35 46.95 37.95 L46.75 38.9 46.4 39.85 Q45.6 41.45 44.55 42.15 43.8 42.85 43.0 42.75 L42.55 42.45 42.45 42.3 Q41.3 41.9 41.1 40.3 L41.1 40.2 41.1 39.85 41.15 39.3 41.15 39.05 41.3 37.7 Q41.95 33.6 42.75 30.9 M50.0 40.2 L50.55 36.9 50.9 33.2 Q51.15 30.9 51.0 29.35 50.65 26.45 49.15 23.0 L49.0 22.9 48.4 22.25 48.0 21.9 47.15 21.6 45.5 21.9 Q44.4 22.45 43.45 24.35 42.7 25.7 42.25 27.65 L41.95 28.55 41.75 29.5 41.6 29.9 41.2 31.75 40.6 34.85 40.15 37.95 40.0 38.9 40.0 39.15 39.4 44.6 Q40.25 43.45 41.0 43.6 41.75 43.65 42.15 44.7 L42.6 45.65 42.65 45.75 Q43.2 47.75 43.85 47.9 44.45 47.95 45.1 47.3 L44.95 46.35 Q45.2 44.9 46.4 44.8 L46.55 44.8 46.85 44.05 Q48.25 40.75 49.3 40.25 L49.85 40.15 50.0 40.2 M17.75 42.7 Q16.85 39.95 15.6 37.45 L15.45 37.2 15.0 36.35 13.0 33.45 11.05 31.15 Q9.3 29.4 7.45 28.45 5.0 27.2 2.35 27.3 L1.85 27.35 -0.4 27.6 -1.1 28.55 Q-1.85 29.65 -2.15 31.1 L-2.2 31.3 Q-2.75 34.05 -1.95 38.2 L-1.3 41.0 -1.05 41.9 -0.95 42.15 -0.8 42.45 -0.75 42.7 Q0.7 47.1 3.4 50.8 L3.8 51.35 3.9 51.55 4.65 52.45 4.75 52.0 Q4.75 51.75 5.4 51.6 L5.5 51.6 Q7.45 51.05 9.6 53.2 11.85 55.35 13.05 55.0 14.0 54.75 14.4 53.2 L14.55 52.5 14.45 52.35 14.05 51.9 13.85 51.55 13.7 50.7 Q13.45 48.8 14.6 48.3 L14.6 48.25 Q14.45 43.2 16.1 42.75 L16.75 42.6 17.75 42.7 M2.45 45.15 L0.95 41.6 0.75 41.4 0.6 40.85 0.45 40.45 -0.2 38.25 -0.55 36.85 Q-1.05 34.15 -0.5 32.15 L-0.3 31.45 Q0.4 29.65 2.0 28.9 L2.7 28.65 2.85 28.6 Q3.55 28.45 4.05 28.85 6.1 29.05 8.0 31.65 L8.15 31.95 8.6 32.5 Q10.0 34.7 10.7 37.4 L11.0 38.5 11.15 38.75 Q12.0 42.2 12.0 44.55 L11.9 45.6 Q11.7 47.75 10.55 49.0 10.0 50.45 8.4 50.85 6.45 51.4 4.6 48.8 L3.7 47.55 2.45 45.15" fill="#111b3c" fill-rule="evenodd" stroke="none"/>
      <path d="M31.85 65.4 Q31.75 65.45 31.55 65.6 30.05 66.5 28.65 67.05 L25.5 67.85 22.55 68.25 20.85 68.3 18.75 68.45 17.45 68.45 18.75 68.6 19.05 68.7 10.2 69.35 Q14.4 70.55 18.75 71.05 L20.85 71.2 21.8 71.3 24.35 71.35 Q33.75 71.35 40.65 66.7 L42.15 65.6 42.55 65.3 44.6 63.45 Q50.6 57.55 54.25 47.1 L56.0 41.75 56.3 40.55 57.1 36.5 57.2 35.6 57.55 33.3 57.8 31.75 57.75 29.65 57.75 29.5 57.8 29.5 57.8 29.45 56.05 30.35 56.0 30.8 55.7 32.25 55.4 33.9 55.1 33.1 54.35 31.5 54.25 31.2 54.1 30.85 53.8 31.2 Q52.95 32.25 52.15 34.6 L52.05 36.5 Q51.7 41.65 50.4 45.9 L49.55 48.25 Q47.45 53.35 43.95 54.2 L43.3 54.75 42.65 54.7 40.65 57.2 40.35 57.6 40.65 58.2 40.7 58.55 39.3 61.95 38.1 63.45 37.0 64.4 34.85 65.3 34.7 65.3 33.4 65.4 31.85 65.4" fill="#dbd3de" fill-rule="evenodd" stroke="none"/>
      <path d="M34.65 53.85 L33.25 53.4 31.6 53.35 32.3 54.85 32.9 55.85 Q34.85 59.15 35.4 62.7 L35.45 63.45 35.5 63.65 34.65 63.95 34.85 65.3 37.0 64.4 38.1 63.45 39.3 61.95 40.7 58.55 40.65 58.2 40.35 57.6 Q39.45 56.35 36.6 54.75 L34.65 53.85 M50.0 40.2 L49.85 40.15 49.3 40.25 Q48.25 40.75 46.85 44.05 L46.55 44.8 Q47.5 44.75 47.25 46.35 L46.9 47.1 Q46.4 47.85 45.75 47.7 L45.15 47.3 45.1 47.3 Q44.45 47.95 43.85 47.9 43.2 47.75 42.65 45.75 L42.6 45.65 42.15 44.7 Q41.75 43.65 41.0 43.6 40.25 43.45 39.4 44.6 L39.4 45.65 39.55 48.05 39.75 49.45 39.85 49.65 Q40.3 51.3 41.0 52.55 L41.6 53.3 41.75 53.4 43.2 53.6 43.55 53.3 44.35 52.6 45.7 51.1 46.1 50.55 Q47.55 48.55 48.55 45.65 L49.55 42.05 49.95 40.35 50.0 40.2 M38.15 61.45 L37.15 62.7 37.45 62.05 38.05 60.55 Q38.05 59.75 37.45 58.85 36.85 57.95 36.85 57.55 L38.35 57.55 39.25 58.7 39.2 58.85 Q39.1 60.05 38.15 61.45 M17.75 42.7 L16.75 42.6 16.1 42.75 Q14.45 43.2 14.6 48.25 L14.6 48.3 14.9 48.2 Q16.7 47.7 17.5 50.35 L17.5 51.4 Q17.3 52.45 16.15 52.75 15.2 53.05 14.55 52.5 L14.4 53.2 Q14.0 54.75 13.05 55.0 11.85 55.35 9.6 53.2 7.45 51.05 5.5 51.6 L5.4 51.6 Q4.75 51.75 4.75 52.0 L4.65 52.45 6.05 53.9 Q10.0 57.9 14.95 58.9 L15.15 58.9 17.6 58.25 17.7 58.2 Q19.5 56.45 19.5 52.2 L19.45 51.3 18.9 47.05 18.25 44.15 17.75 42.7" fill="#2d2d64" fill-rule="evenodd" stroke="none"/>
      <path d="M38.15 61.45 Q39.1 60.05 39.2 58.85 L39.25 58.7 38.35 57.55 36.85 57.55 Q36.85 57.95 37.45 58.85 38.05 59.75 38.05 60.55 L37.45 62.05 37.15 62.7 38.15 61.45" fill="#5b5371" fill-rule="evenodd" stroke="none"/>
      <path d="M31.6 53.35 Q30.75 53.4 30.15 53.95 29.4 54.5 26.35 57.75 L26.05 58.15 Q22.6 61.85 22.6 62.45 22.6 63.0 23.3 63.45 L23.9 63.85 25.3 64.4 Q27.4 65.05 30.25 65.3 L31.85 65.4 33.4 65.4 34.7 65.3 34.85 65.3 34.65 63.95 35.5 63.65 35.45 63.45 35.4 62.7 Q34.85 59.15 32.9 55.85 L32.3 54.85 31.6 53.35 M26.3 60.55 Q28.9 57.55 31.1 57.55 32.15 57.55 33.25 60.0 L34.4 63.45 34.55 63.95 33.8 64.0 33.45 64.0 28.85 63.65 27.7 63.45 24.6 62.75 26.3 60.55" fill="#8aa6e3" fill-rule="evenodd" stroke="none"/>
      <path d="M26.3 60.55 L24.6 62.75 27.7 63.45 28.85 63.65 33.45 64.0 33.8 64.0 34.55 63.95 34.4 63.45 33.25 60.0 Q32.15 57.55 31.1 57.55 28.9 57.55 26.3 60.55" fill="#6667bb" fill-rule="evenodd" stroke="none"/>
      <path d="M17.45 68.45 Q11.7 67.6 6.15 65.3 L3.6 64.15 2.3 63.45 1.75 63.15 Q-7.15 58.35 -15.3 49.6 L-16.45 48.25 -16.85 47.75 Q-19.9 41.65 -20.2 36.8 L-20.25 36.5 -20.25 35.6 -20.25 35.3 -20.25 34.5 Q-19.95 31.1 -18.4 25.05 L-18.3 24.65 -17.25 20.9 -17.05 20.3 -15.05 12.8 -14.4 9.45 Q-13.9 6.65 -13.85 4.55 L-13.9 4.5 -13.9 4.2 -15.85 4.05 -15.9 4.35 -15.9 4.3 -16.45 4.25 -16.65 5.4 -16.25 5.4 -16.1 5.35 -16.95 9.75 -17.0 9.9 -17.0 9.95 -17.55 12.05 -18.5 15.75 -19.35 18.75 -20.75 24.2 -20.75 24.35 -21.85 29.5 -22.25 32.75 -22.25 32.8 -22.4 35.5 -22.4 36.5 -22.4 36.8 -22.2 39.65 -20.55 45.6 Q-19.65 47.05 -19.65 48.0 L-19.65 48.2 -19.65 48.25 -19.6 48.35 -19.1 48.9 Q-17.15 51.95 -14.1 54.55 L-13.95 54.5 -11.95 56.45 -8.7 58.85 -10.4 58.3 -4.65 62.9 -2.85 63.45 -2.8 63.45 1.75 66.0 Q5.7 67.95 9.75 69.2 L10.2 69.35 19.05 68.7 18.75 68.6 17.45 68.45 M-41.9 30.6 L-41.7 29.35 Q-41.7 29.05 -40.5 27.7 L-40.35 27.5 -39.95 27.5 -39.65 27.5 -39.0 27.45 -38.15 27.4 -37.85 27.35 -36.45 27.2 -34.7 27.15 -28.4 28.5 -27.9 28.45 Q-27.7 28.35 -27.7 27.9 -27.7 27.5 -30.95 26.45 L-34.15 25.35 -38.0 23.65 -41.55 21.6 Q-44.85 19.2 -46.55 16.3 L-46.7 15.95 -47.05 14.9 -47.2 15.15 -48.15 11.75 -48.25 11.15 -48.35 9.45 Q-48.35 7.5 -47.7 6.15 -47.3 5.15 -46.7 4.5 L-45.5 3.5 -46.2 2.3 -47.8 3.1 -46.65 3.1 -48.1 4.35 -48.2 4.5 -48.85 5.65 -49.25 6.95 -49.35 7.7 -49.6 11.2 -49.6 12.35 -49.55 13.6 -50.55 12.8 -49.55 15.2 -49.25 15.2 -48.8 16.5 -48.2 17.65 -48.35 18.0 -47.25 20.6 -46.85 19.6 -44.55 21.9 -43.2 23.05 -42.75 23.85 -42.7 24.0 -42.45 24.45 -41.55 25.95 -41.25 26.25 -41.05 26.45 Q-42.2 26.85 -43.05 27.7 -43.85 28.5 -44.2 29.6 -44.55 30.55 -44.55 34.45 L-44.55 34.9 -44.5 36.8 -44.4 37.6 -44.95 36.8 -45.1 36.6 -44.75 40.2 -43.65 41.15 -43.4 41.1 -42.95 42.2 -41.55 40.3 -41.55 40.2 Q-42.25 38.55 -42.55 36.8 L-42.75 34.7 -42.25 32.0 -41.9 30.6 M57.8 29.45 L58.25 27.35 57.15 21.45 57.15 22.55 57.1 23.4 56.25 20.45 55.95 19.35 55.85 19.15 55.85 19.05 55.5 18.05 55.0 16.65 54.45 15.75 54.45 15.65 53.4 13.5 53.4 13.75 53.4 13.8 52.05 11.3 52.0 11.1 51.6 9.95 51.6 9.9 51.15 9.05 50.35 7.75 49.7 6.75 49.45 6.45 49.3 6.3 47.2 3.75 44.15 2.85 44.15 3.1 45.4 4.3 45.95 4.95 45.8 5.15 45.95 5.6 46.55 5.75 46.6 5.75 46.75 6.0 46.85 6.45 47.15 6.45 48.75 8.5 Q50.85 11.3 52.3 14.2 L52.4 14.45 53.2 16.05 53.2 16.45 53.3 16.55 53.45 16.65 53.5 16.75 55.0 21.2 55.0 21.5 55.3 22.55 55.55 23.7 56.0 26.9 56.0 27.3 56.1 29.05 56.1 29.1 56.0 29.35 56.0 29.5 55.95 29.7 55.95 29.75 56.05 30.35 57.8 29.45 M-40.65 26.05 L-40.5 26.2 -40.55 26.25 -40.65 26.05 M-39.3 25.5 L-39.5 25.3 -38.95 25.5 -39.3 25.5" fill="#a08cbf" fill-rule="evenodd" stroke="none"/>
    </g>
  </defs>
</svg>
